# This file uses meters as units for non-parametric coordinates.

g default
v -0.283868 0.098934 5.647102
v 0.162586 0.098934 5.647102
v -0.283868 14.249390 5.647102
v 0.162586 14.249390 5.647102
v -0.283868 14.249390 5.051758
v 0.162586 14.249390 5.051758
v -0.283868 0.098934 5.051758
v 0.162586 0.098934 5.051758
v -0.283868 14.255005 -2.573648
v 0.162586 14.255005 -2.573648
v -0.283868 14.255005 5.658524
v 0.162586 14.255005 5.658524
v -0.283868 14.678680 5.658524
v 0.162586 14.678680 5.658524
v -0.283868 14.678680 -2.573648
v 0.162586 14.678680 -2.573648
v -0.283868 0.098934 -1.996076
v 0.162586 0.098934 -1.996076
v -0.283868 14.249390 -1.996076
v 0.162586 14.249390 -1.996076
v -0.283868 14.249390 -2.647329
v 0.162586 14.249390 -2.647329
v -0.283868 0.098934 -2.647329
v 0.162586 0.098934 -2.647329
v 0.037261 1.465172 -1.895338
v 0.022639 1.465172 -1.924034
v -0.000134 1.465172 -1.946808
v -0.028831 1.465172 -1.961429
v -0.060641 1.465172 -1.966467
v -0.092451 1.465172 -1.961429
v -0.121147 1.465172 -1.946808
v -0.143920 1.465172 -1.924034
v -0.158542 1.465172 -1.895338
v -0.163580 1.465172 -1.863528
v -0.158542 1.465172 -1.831718
v -0.143920 1.465172 -1.803022
v -0.121147 1.465172 -1.780248
v -0.092451 1.465172 -1.765627
v -0.060641 1.465172 -1.760589
v -0.028831 1.465172 -1.765627
v -0.000134 1.465172 -1.780248
v 0.022639 1.465172 -1.803022
v 0.037261 1.465172 -1.831718
v 0.042299 1.465172 -1.863528
v 0.037261 2.501244 -1.895338
v 0.022639 2.501244 -1.924034
v -0.000134 2.501244 -1.946808
v -0.028831 2.501244 -1.961429
v -0.060641 2.501244 -1.966467
v -0.092451 2.501244 -1.961429
v -0.121147 2.501244 -1.946808
v -0.143920 2.501244 -1.924034
v -0.158542 2.501244 -1.895338
v -0.163580 2.501244 -1.863528
v -0.158542 2.501244 -1.831718
v -0.143920 2.501244 -1.803022
v -0.121147 2.501244 -1.780248
v -0.092451 2.501244 -1.765627
v -0.060641 2.501244 -1.760589
v -0.028831 2.501244 -1.765627
v -0.000134 2.501244 -1.780248
v 0.022639 2.501244 -1.803022
v 0.037261 2.501244 -1.831718
v 0.042299 2.501244 -1.863528
v -0.060641 1.465172 -1.863528
v -0.060641 2.501244 -1.863528
v 0.037261 7.204163 -1.895338
v 0.022639 7.204163 -1.924034
v -0.000134 7.204163 -1.946808
v -0.028831 7.204163 -1.961429
v -0.060641 7.204163 -1.966467
v -0.092451 7.204163 -1.961429
v -0.121147 7.204163 -1.946808
v -0.143920 7.204163 -1.924034
v -0.158542 7.204163 -1.895338
v -0.163580 7.204163 -1.863528
v -0.158542 7.204163 -1.831718
v -0.143920 7.204163 -1.803022
v -0.121147 7.204163 -1.780248
v -0.092451 7.204163 -1.765627
v -0.060641 7.204163 -1.760589
v -0.028831 7.204163 -1.765627
v -0.000134 7.204163 -1.780248
v 0.022639 7.204163 -1.803022
v 0.037261 7.204163 -1.831718
v 0.042299 7.204163 -1.863528
v 0.037261 8.240234 -1.895338
v 0.022639 8.240234 -1.924034
v -0.000134 8.240234 -1.946808
v -0.028831 8.240234 -1.961429
v -0.060641 8.240234 -1.966467
v -0.092451 8.240234 -1.961429
v -0.121147 8.240234 -1.946808
v -0.143920 8.240234 -1.924034
v -0.158542 8.240234 -1.895338
v -0.163580 8.240234 -1.863528
v -0.158542 8.240234 -1.831718
v -0.143920 8.240234 -1.803022
v -0.121147 8.240234 -1.780248
v -0.092451 8.240234 -1.765627
v -0.060641 8.240234 -1.760589
v -0.028831 8.240234 -1.765627
v -0.000134 8.240234 -1.780248
v 0.022639 8.240234 -1.803022
v 0.037261 8.240234 -1.831718
v 0.042299 8.240234 -1.863528
v -0.060641 7.204163 -1.863528
v -0.060641 8.240234 -1.863528
v 0.037261 12.268387 -1.895338
v 0.022639 12.268387 -1.924034
v -0.000134 12.268387 -1.946808
v -0.028831 12.268387 -1.961429
v -0.060641 12.268387 -1.966467
v -0.092451 12.268387 -1.961429
v -0.121147 12.268387 -1.946808
v -0.143920 12.268387 -1.924034
v -0.158542 12.268387 -1.895338
v -0.163580 12.268387 -1.863528
v -0.158542 12.268387 -1.831718
v -0.143920 12.268387 -1.803022
v -0.121147 12.268387 -1.780248
v -0.092451 12.268387 -1.765627
v -0.060641 12.268387 -1.760589
v -0.028831 12.268387 -1.765627
v -0.000134 12.268387 -1.780248
v 0.022639 12.268387 -1.803022
v 0.037261 12.268387 -1.831718
v 0.042299 12.268387 -1.863528
v 0.037261 13.304459 -1.895338
v 0.022639 13.304459 -1.924034
v -0.000134 13.304459 -1.946808
v -0.028831 13.304459 -1.961429
v -0.060641 13.304459 -1.966467
v -0.092451 13.304459 -1.961429
v -0.121147 13.304459 -1.946808
v -0.143920 13.304459 -1.924034
v -0.158542 13.304459 -1.895338
v -0.163580 13.304459 -1.863528
v -0.158542 13.304459 -1.831718
v -0.143920 13.304459 -1.803022
v -0.121147 13.304459 -1.780248
v -0.092451 13.304459 -1.765627
v -0.060641 13.304459 -1.760589
v -0.028831 13.304459 -1.765627
v -0.000134 13.304459 -1.780248
v 0.022639 13.304459 -1.803022
v 0.037261 13.304459 -1.831718
v 0.042299 13.304459 -1.863528
v -0.060641 12.268387 -1.863528
v -0.060641 13.304459 -1.863528
vt 0.375000 0.000000
vt 0.625000 0.000000
vt 0.375000 0.250000
vt 0.625000 0.250000
vt 0.375000 0.500000
vt 0.625000 0.500000
vt 0.375000 0.750000
vt 0.625000 0.750000
vt 0.375000 1.000000
vt 0.625000 1.000000
vt 0.875000 0.000000
vt 0.875000 0.250000
vt 0.125000 0.000000
vt 0.125000 0.250000
vt 0.375000 0.000000
vt 0.625000 0.000000
vt 0.625000 0.250000
vt 0.375000 0.250000
vt 0.625000 0.500000
vt 0.375000 0.500000
vt 0.625000 0.750000
vt 0.375000 0.750000
vt 0.625000 1.000000
vt 0.375000 1.000000
vt 0.875000 0.000000
vt 0.875000 0.250000
vt 0.125000 0.000000
vt 0.125000 0.250000
vt 0.375000 0.000000
vt 0.625000 0.000000
vt 0.625000 0.250000
vt 0.375000 0.250000
vt 0.625000 0.500000
vt 0.375000 0.500000
vt 0.625000 0.750000
vt 0.375000 0.750000
vt 0.625000 1.000000
vt 0.375000 1.000000
vt 0.875000 0.000000
vt 0.875000 0.250000
vt 0.125000 0.000000
vt 0.125000 0.250000
vt 0.375000 0.312500
vt 0.387500 0.312500
vt 0.387500 0.687500
vt 0.375000 0.687500
vt 0.400000 0.312500
vt 0.400000 0.687500
vt 0.412500 0.312500
vt 0.412500 0.687500
vt 0.425000 0.312500
vt 0.425000 0.687500
vt 0.437500 0.312500
vt 0.437500 0.687500
vt 0.450000 0.312500
vt 0.450000 0.687500
vt 0.462500 0.312500
vt 0.462500 0.687500
vt 0.475000 0.312500
vt 0.475000 0.687500
vt 0.487500 0.312500
vt 0.487500 0.687500
vt 0.500000 0.312500
vt 0.500000 0.687500
vt 0.512500 0.312500
vt 0.512500 0.687500
vt 0.525000 0.312500
vt 0.525000 0.687500
vt 0.537500 0.312500
vt 0.537500 0.687500
vt 0.550000 0.312500
vt 0.550000 0.687500
vt 0.562500 0.312500
vt 0.562500 0.687500
vt 0.575000 0.312500
vt 0.575000 0.687500
vt 0.587500 0.312500
vt 0.587500 0.687500
vt 0.600000 0.312500
vt 0.600000 0.687500
vt 0.612500 0.312500
vt 0.612500 0.687500
vt 0.625000 0.312500
vt 0.625000 0.687500
vt 0.626409 0.064408
vt 0.648603 0.107966
vt 0.500000 0.156250
vt 0.591842 0.029841
vt 0.548284 0.007647
vt 0.500000 -0.000000
vt 0.451716 0.007647
vt 0.408159 0.029841
vt 0.373591 0.064409
vt 0.351397 0.107966
vt 0.343750 0.156250
vt 0.351397 0.204534
vt 0.373591 0.248091
vt 0.408159 0.282659
vt 0.451716 0.304853
vt 0.500000 0.312500
vt 0.548284 0.304853
vt 0.591841 0.282659
vt 0.626409 0.248091
vt 0.648603 0.204534
vt 0.656250 0.156250
vt 0.648603 0.892034
vt 0.626409 0.935591
vt 0.500000 0.843750
vt 0.591841 0.970159
vt 0.548284 0.992353
vt 0.500000 1.000000
vt 0.451716 0.992353
vt 0.408159 0.970159
vt 0.373591 0.935591
vt 0.351397 0.892034
vt 0.343750 0.843750
vt 0.351397 0.795466
vt 0.373591 0.751909
vt 0.408159 0.717341
vt 0.451716 0.695147
vt 0.500000 0.687500
vt 0.548284 0.695147
vt 0.591842 0.717341
vt 0.626409 0.751908
vt 0.648603 0.795466
vt 0.656250 0.843750
vt 0.375000 0.312500
vt 0.387500 0.312500
vt 0.387500 0.687500
vt 0.375000 0.687500
vt 0.400000 0.312500
vt 0.400000 0.687500
vt 0.412500 0.312500
vt 0.412500 0.687500
vt 0.425000 0.312500
vt 0.425000 0.687500
vt 0.437500 0.312500
vt 0.437500 0.687500
vt 0.450000 0.312500
vt 0.450000 0.687500
vt 0.462500 0.312500
vt 0.462500 0.687500
vt 0.475000 0.312500
vt 0.475000 0.687500
vt 0.487500 0.312500
vt 0.487500 0.687500
vt 0.500000 0.312500
vt 0.500000 0.687500
vt 0.512500 0.312500
vt 0.512500 0.687500
vt 0.525000 0.312500
vt 0.525000 0.687500
vt 0.537500 0.312500
vt 0.537500 0.687500
vt 0.550000 0.312500
vt 0.550000 0.687500
vt 0.562500 0.312500
vt 0.562500 0.687500
vt 0.575000 0.312500
vt 0.575000 0.687500
vt 0.587500 0.312500
vt 0.587500 0.687500
vt 0.600000 0.312500
vt 0.600000 0.687500
vt 0.612500 0.312500
vt 0.612500 0.687500
vt 0.625000 0.312500
vt 0.625000 0.687500
vt 0.626409 0.064408
vt 0.648603 0.107966
vt 0.500000 0.156250
vt 0.591842 0.029841
vt 0.548284 0.007647
vt 0.500000 -0.000000
vt 0.451716 0.007647
vt 0.408159 0.029841
vt 0.373591 0.064409
vt 0.351397 0.107966
vt 0.343750 0.156250
vt 0.351397 0.204534
vt 0.373591 0.248091
vt 0.408159 0.282659
vt 0.451716 0.304853
vt 0.500000 0.312500
vt 0.548284 0.304853
vt 0.591841 0.282659
vt 0.626409 0.248091
vt 0.648603 0.204534
vt 0.656250 0.156250
vt 0.648603 0.892034
vt 0.626409 0.935591
vt 0.500000 0.843750
vt 0.591841 0.970159
vt 0.548284 0.992353
vt 0.500000 1.000000
vt 0.451716 0.992353
vt 0.408159 0.970159
vt 0.373591 0.935591
vt 0.351397 0.892034
vt 0.343750 0.843750
vt 0.351397 0.795466
vt 0.373591 0.751909
vt 0.408159 0.717341
vt 0.451716 0.695147
vt 0.500000 0.687500
vt 0.548284 0.695147
vt 0.591842 0.717341
vt 0.626409 0.751908
vt 0.648603 0.795466
vt 0.656250 0.843750
vt 0.375000 0.312500
vt 0.387500 0.312500
vt 0.387500 0.687500
vt 0.375000 0.687500
vt 0.400000 0.312500
vt 0.400000 0.687500
vt 0.412500 0.312500
vt 0.412500 0.687500
vt 0.425000 0.312500
vt 0.425000 0.687500
vt 0.437500 0.312500
vt 0.437500 0.687500
vt 0.450000 0.312500
vt 0.450000 0.687500
vt 0.462500 0.312500
vt 0.462500 0.687500
vt 0.475000 0.312500
vt 0.475000 0.687500
vt 0.487500 0.312500
vt 0.487500 0.687500
vt 0.500000 0.312500
vt 0.500000 0.687500
vt 0.512500 0.312500
vt 0.512500 0.687500
vt 0.525000 0.312500
vt 0.525000 0.687500
vt 0.537500 0.312500
vt 0.537500 0.687500
vt 0.550000 0.312500
vt 0.550000 0.687500
vt 0.562500 0.312500
vt 0.562500 0.687500
vt 0.575000 0.312500
vt 0.575000 0.687500
vt 0.587500 0.312500
vt 0.587500 0.687500
vt 0.600000 0.312500
vt 0.600000 0.687500
vt 0.612500 0.312500
vt 0.612500 0.687500
vt 0.625000 0.312500
vt 0.625000 0.687500
vt 0.626409 0.064408
vt 0.648603 0.107966
vt 0.500000 0.156250
vt 0.591842 0.029841
vt 0.548284 0.007647
vt 0.500000 -0.000000
vt 0.451716 0.007647
vt 0.408159 0.029841
vt 0.373591 0.064409
vt 0.351397 0.107966
vt 0.343750 0.156250
vt 0.351397 0.204534
vt 0.373591 0.248091
vt 0.408159 0.282659
vt 0.451716 0.304853
vt 0.500000 0.312500
vt 0.548284 0.304853
vt 0.591841 0.282659
vt 0.626409 0.248091
vt 0.648603 0.204534
vt 0.656250 0.156250
vt 0.648603 0.892034
vt 0.626409 0.935591
vt 0.500000 0.843750
vt 0.591841 0.970159
vt 0.548284 0.992353
vt 0.500000 1.000000
vt 0.451716 0.992353
vt 0.408159 0.970159
vt 0.373591 0.935591
vt 0.351397 0.892034
vt 0.343750 0.843750
vt 0.351397 0.795466
vt 0.373591 0.751909
vt 0.408159 0.717341
vt 0.451716 0.695147
vt 0.500000 0.687500
vt 0.548284 0.695147
vt 0.591842 0.717341
vt 0.626409 0.751908
vt 0.648603 0.795466
vt 0.656250 0.843750
vn 0.000000 0.000000 1.000000
vn 0.000000 0.000000 1.000000
vn 0.000000 0.000000 1.000000
vn 0.000000 0.000000 1.000000
vn 0.000000 1.000000 0.000000
vn 0.000000 1.000000 0.000000
vn 0.000000 1.000000 0.000000
vn 0.000000 1.000000 0.000000
vn 0.000000 0.000000 -1.000000
vn 0.000000 0.000000 -1.000000
vn 0.000000 0.000000 -1.000000
vn 0.000000 0.000000 -1.000000
vn 0.000000 -1.000000 0.000000
vn 0.000000 -1.000000 0.000000
vn 0.000000 -1.000000 0.000000
vn 0.000000 -1.000000 0.000000
vn 1.000000 0.000000 0.000000
vn 1.000000 0.000000 0.000000
vn 1.000000 0.000000 0.000000
vn 1.000000 0.000000 0.000000
vn -1.000000 0.000000 0.000000
vn -1.000000 0.000000 0.000000
vn -1.000000 0.000000 0.000000
vn -1.000000 0.000000 0.000000
vn 0.000000 -1.000000 0.000000
vn 0.000000 -1.000000 0.000000
vn 0.000000 -1.000000 0.000000
vn 0.000000 -1.000000 0.000000
vn 0.000000 0.000000 1.000000
vn 0.000000 0.000000 1.000000
vn 0.000000 0.000000 1.000000
vn 0.000000 0.000000 1.000000
vn 0.000000 1.000000 0.000000
vn 0.000000 1.000000 0.000000
vn 0.000000 1.000000 0.000000
vn 0.000000 1.000000 0.000000
vn 0.000000 0.000000 -1.000000
vn 0.000000 0.000000 -1.000000
vn 0.000000 0.000000 -1.000000
vn 0.000000 0.000000 -1.000000
vn 1.000000 0.000000 0.000000
vn 1.000000 0.000000 0.000000
vn 1.000000 0.000000 0.000000
vn 1.000000 0.000000 0.000000
vn -1.000000 0.000000 0.000000
vn -1.000000 0.000000 0.000000
vn -1.000000 0.000000 0.000000
vn -1.000000 0.000000 0.000000
vn 0.000000 0.000000 1.000000
vn 0.000000 0.000000 1.000000
vn 0.000000 0.000000 1.000000
vn 0.000000 0.000000 1.000000
vn 0.000000 1.000000 0.000000
vn 0.000000 1.000000 0.000000
vn 0.000000 1.000000 0.000000
vn 0.000000 1.000000 0.000000
vn 0.000000 0.000000 -1.000000
vn 0.000000 0.000000 -1.000000
vn 0.000000 0.000000 -1.000000
vn 0.000000 0.000000 -1.000000
vn 0.000000 -1.000000 0.000000
vn 0.000000 -1.000000 0.000000
vn 0.000000 -1.000000 0.000000
vn 0.000000 -1.000000 0.000000
vn 1.000000 0.000000 0.000000
vn 1.000000 0.000000 0.000000
vn 1.000000 0.000000 0.000000
vn 1.000000 0.000000 0.000000
vn -1.000000 0.000000 0.000000
vn -1.000000 0.000000 0.000000
vn -1.000000 0.000000 0.000000
vn -1.000000 0.000000 0.000000
vn 0.951057 0.000000 -0.309016
vn 0.809016 0.000000 -0.587786
vn 0.809016 0.000000 -0.587786
vn 0.951057 0.000000 -0.309016
vn 0.587788 0.000000 -0.809015
vn 0.587788 0.000000 -0.809015
vn 0.309020 0.000000 -0.951056
vn 0.309020 0.000000 -0.951056
vn -0.000004 0.000000 -1.000000
vn -0.000004 0.000000 -1.000000
vn -0.309017 0.000000 -0.951057
vn -0.309017 0.000000 -0.951057
vn -0.587786 0.000000 -0.809017
vn -0.587786 0.000000 -0.809017
vn -0.809018 0.000000 -0.587784
vn -0.809018 0.000000 -0.587784
vn -0.951056 0.000000 -0.309018
vn -0.951056 0.000000 -0.309018
vn -1.000000 0.000000 0.000000
vn -1.000000 0.000000 0.000000
vn -0.951057 0.000000 0.309016
vn -0.951057 0.000000 0.309016
vn -0.809015 0.000000 0.587788
vn -0.809015 0.000000 0.587788
vn -0.587783 0.000000 0.809019
vn -0.587783 0.000000 0.809019
vn -0.309018 0.000000 0.951056
vn -0.309018 0.000000 0.951056
vn -0.000004 0.000000 1.000000
vn -0.000004 0.000000 1.000000
vn 0.309015 0.000000 0.951057
vn 0.309015 0.000000 0.951057
vn 0.587787 0.000000 0.809016
vn 0.587787 0.000000 0.809016
vn 0.809017 0.000000 0.587785
vn 0.809017 0.000000 0.587785
vn 0.951057 0.000000 0.309016
vn 0.951057 0.000000 0.309016
vn 1.000000 0.000000 0.000000
vn 1.000000 0.000000 0.000000
vn 0.000000 -1.000000 -0.000000
vn 0.000000 -1.000000 0.000002
vn 0.000000 -1.000000 -0.000000
vn 0.000000 -1.000000 0.000002
vn 0.000000 -1.000000 0.000000
vn 0.000000 -1.000000 0.000000
vn 0.000000 -1.000000 0.000000
vn 0.000000 -1.000000 -0.000002
vn 0.000000 -1.000000 -0.000002
vn 0.000000 -1.000000 0.000000
vn 0.000000 -1.000000 0.000000
vn 0.000000 -1.000000 0.000000
vn 0.000000 -1.000000 0.000002
vn 0.000000 -1.000000 0.000001
vn 0.000000 -1.000000 -0.000001
vn 0.000000 -1.000000 0.000000
vn 0.000000 -1.000000 0.000000
vn 0.000000 -1.000000 -0.000002
vn 0.000000 -1.000000 -0.000002
vn 0.000000 -1.000000 -0.000005
vn 0.000000 -1.000000 0.000000
vn 0.000000 1.000000 0.000000
vn 0.000000 1.000000 -0.000009
vn 0.000000 1.000000 -0.000001
vn 0.000000 1.000000 -0.000009
vn 0.000000 1.000000 0.000000
vn 0.000000 1.000000 0.000000
vn 0.000000 1.000000 0.000000
vn 0.000000 1.000000 0.000005
vn 0.000000 1.000000 0.000005
vn 0.000000 1.000000 -0.000005
vn 0.000000 1.000000 -0.000005
vn 0.000000 1.000000 0.000000
vn 0.000000 1.000000 -0.000005
vn 0.000000 1.000000 -0.000005
vn 0.000000 1.000000 0.000000
vn 0.000000 1.000000 0.000000
vn 0.000000 1.000000 -0.000002
vn 0.000000 1.000000 0.000007
vn 0.000000 1.000000 0.000009
vn 0.000000 1.000000 0.000000
vn 0.000000 1.000000 0.000000
vn 0.951057 0.000000 -0.309016
vn 0.809016 0.000000 -0.587786
vn 0.809016 0.000000 -0.587786
vn 0.951057 0.000000 -0.309016
vn 0.587785 0.000000 -0.809017
vn 0.587785 0.000000 -0.809017
vn 0.309020 0.000000 -0.951056
vn 0.309020 0.000000 -0.951056
vn -0.000004 0.000000 -1.000000
vn -0.000004 0.000000 -1.000000
vn -0.309020 0.000000 -0.951056
vn -0.309020 0.000000 -0.951056
vn -0.587786 0.000000 -0.809017
vn -0.587786 0.000000 -0.809017
vn -0.809017 0.000000 -0.587785
vn -0.809017 0.000000 -0.587785
vn -0.951057 0.000000 -0.309017
vn -0.951057 0.000000 -0.309017
vn -1.000000 0.000000 0.000000
vn -1.000000 0.000000 0.000000
vn -0.951057 0.000000 0.309017
vn -0.951057 0.000000 0.309017
vn -0.809016 0.000000 0.587787
vn -0.809016 0.000000 0.587787
vn -0.587785 0.000000 0.809018
vn -0.587785 0.000000 0.809018
vn -0.309018 0.000000 0.951056
vn -0.309018 0.000000 0.951056
vn 0.000000 0.000000 1.000000
vn 0.000000 0.000000 1.000000
vn 0.309019 0.000000 0.951056
vn 0.309019 0.000000 0.951056
vn 0.587784 0.000000 0.809018
vn 0.587784 0.000000 0.809018
vn 0.809016 0.000000 0.587787
vn 0.809016 0.000000 0.587787
vn 0.951056 0.000000 0.309018
vn 0.951056 0.000000 0.309018
vn 1.000000 0.000000 0.000000
vn 1.000000 0.000000 0.000000
vn 0.000000 -1.000000 -0.000009
vn 0.000000 -1.000000 0.000018
vn 0.000000 -1.000000 -0.000000
vn 0.000000 -1.000000 -0.000005
vn 0.000000 -1.000000 0.000005
vn 0.000000 -1.000000 0.000000
vn 0.000000 -1.000000 0.000000
vn 0.000000 -1.000000 0.000000
vn 0.000000 -1.000000 0.000000
vn 0.000000 -1.000000 0.000000
vn 0.000000 -1.000000 0.000000
vn 0.000000 -1.000000 0.000000
vn 0.000000 -1.000000 0.000000
vn 0.000000 -1.000000 0.000000
vn 0.000000 -1.000000 0.000000
vn 0.000000 -1.000000 0.000000
vn 0.000000 -1.000000 0.000000
vn 0.000000 -1.000000 0.000000
vn 0.000000 -1.000000 0.000000
vn 0.000000 -1.000000 -0.000018
vn 0.000000 -1.000000 0.000000
vn 0.000000 1.000000 -0.000018
vn 0.000000 1.000000 0.000000
vn 0.000000 1.000000 -0.000001
vn 0.000000 1.000000 -0.000009
vn 0.000000 1.000000 -0.000009
vn 0.000000 1.000000 0.000000
vn 0.000000 1.000000 0.000000
vn 0.000000 1.000000 0.000000
vn 0.000000 1.000000 0.000000
vn 0.000000 1.000000 0.000000
vn 0.000000 1.000000 0.000000
vn 0.000000 1.000000 0.000000
vn 0.000000 1.000000 0.000000
vn 0.000000 1.000000 0.000009
vn 0.000000 1.000000 0.000009
vn 0.000000 1.000000 0.000000
vn 0.000000 1.000000 0.000000
vn 0.000000 1.000000 0.000009
vn 0.000000 1.000000 0.000009
vn 0.000000 1.000000 0.000000
vn 0.000000 1.000000 -0.000018
vn 0.951057 0.000000 -0.309016
vn 0.809016 0.000000 -0.587786
vn 0.809016 0.000000 -0.587786
vn 0.951057 0.000000 -0.309016
vn 0.587785 0.000000 -0.809017
vn 0.587785 0.000000 -0.809017
vn 0.309020 0.000000 -0.951056
vn 0.309020 0.000000 -0.951056
vn -0.000004 0.000000 -1.000000
vn -0.000004 0.000000 -1.000000
vn -0.309020 0.000000 -0.951056
vn -0.309020 0.000000 -0.951056
vn -0.587786 0.000000 -0.809017
vn -0.587786 0.000000 -0.809017
vn -0.809017 0.000000 -0.587785
vn -0.809017 0.000000 -0.587785
vn -0.951056 0.000000 -0.309017
vn -0.951056 0.000000 -0.309017
vn -1.000000 0.000000 0.000000
vn -1.000000 0.000000 0.000000
vn -0.951057 0.000000 0.309017
vn -0.951057 0.000000 0.309017
vn -0.809016 0.000000 0.587787
vn -0.809016 0.000000 0.587787
vn -0.587785 0.000000 0.809018
vn -0.587785 0.000000 0.809018
vn -0.309018 0.000000 0.951056
vn -0.309018 0.000000 0.951056
vn 0.000000 0.000000 1.000000
vn 0.000000 0.000000 1.000000
vn 0.309019 0.000000 0.951056
vn 0.309019 0.000000 0.951056
vn 0.587784 0.000000 0.809018
vn 0.587784 0.000000 0.809018
vn 0.809015 0.000000 0.587788
vn 0.809015 0.000000 0.587788
vn 0.951056 0.000000 0.309018
vn 0.951056 0.000000 0.309018
vn 1.000000 0.000000 0.000000
vn 1.000000 0.000000 0.000000
vn 0.000000 -1.000000 0.000036
vn 0.000000 -1.000000 0.000036
vn 0.000000 -1.000000 0.000002
vn 0.000000 -1.000000 0.000000
vn 0.000000 -1.000000 0.000000
vn 0.000000 -1.000000 0.000000
vn 0.000000 -1.000000 0.000000
vn 0.000000 -1.000000 -0.000036
vn 0.000000 -1.000000 -0.000036
vn 0.000000 -1.000000 0.000000
vn 0.000000 -1.000000 0.000000
vn 0.000000 -1.000000 0.000000
vn 0.000000 -1.000000 0.000018
vn 0.000000 -1.000000 0.000018
vn 0.000000 -1.000000 0.000000
vn 0.000000 -1.000000 0.000000
vn 0.000000 -1.000000 0.000000
vn 0.000000 -1.000000 0.000000
vn 0.000000 -1.000000 0.000000
vn 0.000000 -1.000000 0.000000
vn 0.000000 -1.000000 0.000000
vn 0.000000 1.000000 0.000000
vn 0.000000 1.000000 0.000000
vn 0.000000 1.000000 0.000001
vn 0.000000 1.000000 0.000000
vn 0.000000 1.000000 0.000000
vn 0.000000 1.000000 0.000000
vn 0.000000 1.000000 0.000000
vn 0.000000 1.000000 0.000000
vn 0.000000 1.000000 0.000000
vn 0.000000 1.000000 0.000000
vn 0.000000 1.000000 0.000000
vn 0.000000 1.000000 0.000000
vn 0.000000 1.000000 0.000000
vn 0.000000 1.000000 0.000000
vn 0.000000 1.000000 0.000000
vn 0.000000 1.000000 0.000000
vn 0.000000 1.000000 0.000009
vn 0.000000 1.000000 0.000009
vn 0.000000 1.000000 0.000000
vn 0.000000 1.000000 0.000000
vn 0.000000 1.000000 0.000000
s off
g DoorFrame
f 1/1/1 2/2/2 4/4/3 3/3/4
f 3/3/5 4/4/6 6/6/7 5/5/8
f 5/5/9 6/6/10 8/8/11 7/7/12
f 7/7/13 8/8/14 2/10/15 1/9/16
f 2/2/17 8/11/18 6/12/19 4/4/20
f 7/13/21 1/1/22 3/3/23 5/14/24
f 9/15/25 10/16/26 12/17/27 11/18/28
f 11/18/29 12/17/30 14/19/31 13/20/32
f 13/20/33 14/19/34 16/21/35 15/22/36
f 15/22/37 16/21/38 10/23/39 9/24/40
f 10/16/41 16/25/42 14/26/43 12/17/44
f 15/27/45 9/15/46 11/18/47 13/28/48
f 17/29/49 18/30/50 20/31/51 19/32/52
f 19/32/53 20/31/54 22/33/55 21/34/56
f 21/34/57 22/33/58 24/35/59 23/36/60
f 23/36/61 24/35/62 18/37/63 17/38/64
f 18/30/65 24/39/66 22/40/67 20/31/68
f 23/41/69 17/29/70 19/32/71 21/42/72
s 1
f 25/43/73 26/44/74 46/45/75 45/46/76
f 26/44/74 27/47/77 47/48/78 46/45/75
f 27/47/77 28/49/79 48/50/80 47/48/78
f 28/49/79 29/51/81 49/52/82 48/50/80
f 29/51/81 30/53/83 50/54/84 49/52/82
f 30/53/83 31/55/85 51/56/86 50/54/84
f 31/55/85 32/57/87 52/58/88 51/56/86
f 32/57/87 33/59/89 53/60/90 52/58/88
f 33/59/89 34/61/91 54/62/92 53/60/90
f 34/61/91 35/63/93 55/64/94 54/62/92
f 35/63/93 36/65/95 56/66/96 55/64/94
f 36/65/95 37/67/97 57/68/98 56/66/96
f 37/67/97 38/69/99 58/70/100 57/68/98
f 38/69/99 39/71/101 59/72/102 58/70/100
f 39/71/101 40/73/103 60/74/104 59/72/102
f 40/73/103 41/75/105 61/76/106 60/74/104
f 41/75/105 42/77/107 62/78/108 61/76/106
f 42/77/107 43/79/109 63/80/110 62/78/108
f 43/79/109 44/81/111 64/82/112 63/80/110
f 44/81/111 25/83/73 45/84/76 64/82/112
s 2
f 26/85/113 25/86/114 65/87/115
f 27/88/116 26/85/113 65/87/115
f 28/89/117 27/88/116 65/87/115
f 29/90/118 28/89/117 65/87/115
f 30/91/119 29/90/118 65/87/115
f 31/92/120 30/91/119 65/87/115
f 32/93/121 31/92/120 65/87/115
f 33/94/122 32/93/121 65/87/115
f 34/95/123 33/94/122 65/87/115
f 35/96/124 34/95/123 65/87/115
f 36/97/125 35/96/124 65/87/115
f 37/98/126 36/97/125 65/87/115
f 38/99/127 37/98/126 65/87/115
f 39/100/128 38/99/127 65/87/115
f 40/101/129 39/100/128 65/87/115
f 41/102/130 40/101/129 65/87/115
f 42/103/131 41/102/130 65/87/115
f 43/104/132 42/103/131 65/87/115
f 44/105/133 43/104/132 65/87/115
f 25/86/114 44/105/133 65/87/115
s 3
f 45/106/134 46/107/135 66/108/136
f 46/107/135 47/109/137 66/108/136
f 47/109/137 48/110/138 66/108/136
f 48/110/138 49/111/139 66/108/136
f 49/111/139 50/112/140 66/108/136
f 50/112/140 51/113/141 66/108/136
f 51/113/141 52/114/142 66/108/136
f 52/114/142 53/115/143 66/108/136
f 53/115/143 54/116/144 66/108/136
f 54/116/144 55/117/145 66/108/136
f 55/117/145 56/118/146 66/108/136
f 56/118/146 57/119/147 66/108/136
f 57/119/147 58/120/148 66/108/136
f 58/120/148 59/121/149 66/108/136
f 59/121/149 60/122/150 66/108/136
f 60/122/150 61/123/151 66/108/136
f 61/123/151 62/124/152 66/108/136
f 62/124/152 63/125/153 66/108/136
f 63/125/153 64/126/154 66/108/136
f 64/126/154 45/106/134 66/108/136
s 4
f 67/127/155 68/128/156 88/129/157 87/130/158
f 68/128/156 69/131/159 89/132/160 88/129/157
f 69/131/159 70/133/161 90/134/162 89/132/160
f 70/133/161 71/135/163 91/136/164 90/134/162
f 71/135/163 72/137/165 92/138/166 91/136/164
f 72/137/165 73/139/167 93/140/168 92/138/166
f 73/139/167 74/141/169 94/142/170 93/140/168
f 74/141/169 75/143/171 95/144/172 94/142/170
f 75/143/171 76/145/173 96/146/174 95/144/172
f 76/145/173 77/147/175 97/148/176 96/146/174
f 77/147/175 78/149/177 98/150/178 97/148/176
f 78/149/177 79/151/179 99/152/180 98/150/178
f 79/151/179 80/153/181 100/154/182 99/152/180
f 80/153/181 81/155/183 101/156/184 100/154/182
f 81/155/183 82/157/185 102/158/186 101/156/184
f 82/157/185 83/159/187 103/160/188 102/158/186
f 83/159/187 84/161/189 104/162/190 103/160/188
f 84/161/189 85/163/191 105/164/192 104/162/190
f 85/163/191 86/165/193 106/166/194 105/164/192
f 86/165/193 67/167/155 87/168/158 106/166/194
s 5
f 68/169/195 67/170/196 107/171/197
f 69/172/198 68/169/195 107/171/197
f 70/173/199 69/172/198 107/171/197
f 71/174/200 70/173/199 107/171/197
f 72/175/201 71/174/200 107/171/197
f 73/176/202 72/175/201 107/171/197
f 74/177/203 73/176/202 107/171/197
f 75/178/204 74/177/203 107/171/197
f 76/179/205 75/178/204 107/171/197
f 77/180/206 76/179/205 107/171/197
f 78/181/207 77/180/206 107/171/197
f 79/182/208 78/181/207 107/171/197
f 80/183/209 79/182/208 107/171/197
f 81/184/210 80/183/209 107/171/197
f 82/185/211 81/184/210 107/171/197
f 83/186/212 82/185/211 107/171/197
f 84/187/213 83/186/212 107/171/197
f 85/188/214 84/187/213 107/171/197
f 86/189/215 85/188/214 107/171/197
f 67/170/196 86/189/215 107/171/197
s 6
f 87/190/216 88/191/217 108/192/218
f 88/191/217 89/193/219 108/192/218
f 89/193/219 90/194/220 108/192/218
f 90/194/220 91/195/221 108/192/218
f 91/195/221 92/196/222 108/192/218
f 92/196/222 93/197/223 108/192/218
f 93/197/223 94/198/224 108/192/218
f 94/198/224 95/199/225 108/192/218
f 95/199/225 96/200/226 108/192/218
f 96/200/226 97/201/227 108/192/218
f 97/201/227 98/202/228 108/192/218
f 98/202/228 99/203/229 108/192/218
f 99/203/229 100/204/230 108/192/218
f 100/204/230 101/205/231 108/192/218
f 101/205/231 102/206/232 108/192/218
f 102/206/232 103/207/233 108/192/218
f 103/207/233 104/208/234 108/192/218
f 104/208/234 105/209/235 108/192/218
f 105/209/235 106/210/236 108/192/218
f 106/210/236 87/190/216 108/192/218
s 7
f 109/211/237 110/212/238 130/213/239 129/214/240
f 110/212/238 111/215/241 131/216/242 130/213/239
f 111/215/241 112/217/243 132/218/244 131/216/242
f 112/217/243 113/219/245 133/220/246 132/218/244
f 113/219/245 114/221/247 134/222/248 133/220/246
f 114/221/247 115/223/249 135/224/250 134/222/248
f 115/223/249 116/225/251 136/226/252 135/224/250
f 116/225/251 117/227/253 137/228/254 136/226/252
f 117/227/253 118/229/255 138/230/256 137/228/254
f 118/229/255 119/231/257 139/232/258 138/230/256
f 119/231/257 120/233/259 140/234/260 139/232/258
f 120/233/259 121/235/261 141/236/262 140/234/260
f 121/235/261 122/237/263 142/238/264 141/236/262
f 122/237/263 123/239/265 143/240/266 142/238/264
f 123/239/265 124/241/267 144/242/268 143/240/266
f 124/241/267 125/243/269 145/244/270 144/242/268
f 125/243/269 126/245/271 146/246/272 145/244/270
f 126/245/271 127/247/273 147/248/274 146/246/272
f 127/247/273 128/249/275 148/250/276 147/248/274
f 128/249/275 109/251/237 129/252/240 148/250/276
s 8
f 110/253/277 109/254/278 149/255/279
f 111/256/280 110/253/277 149/255/279
f 112/257/281 111/256/280 149/255/279
f 113/258/282 112/257/281 149/255/279
f 114/259/283 113/258/282 149/255/279
f 115/260/284 114/259/283 149/255/279
f 116/261/285 115/260/284 149/255/279
f 117/262/286 116/261/285 149/255/279
f 118/263/287 117/262/286 149/255/279
f 119/264/288 118/263/287 149/255/279
f 120/265/289 119/264/288 149/255/279
f 121/266/290 120/265/289 149/255/279
f 122/267/291 121/266/290 149/255/279
f 123/268/292 122/267/291 149/255/279
f 124/269/293 123/268/292 149/255/279
f 125/270/294 124/269/293 149/255/279
f 126/271/295 125/270/294 149/255/279
f 127/272/296 126/271/295 149/255/279
f 128/273/297 127/272/296 149/255/279
f 109/254/278 128/273/297 149/255/279
s 9
f 129/274/298 130/275/299 150/276/300
f 130/275/299 131/277/301 150/276/300
f 131/277/301 132/278/302 150/276/300
f 132/278/302 133/279/303 150/276/300
f 133/279/303 134/280/304 150/276/300
f 134/280/304 135/281/305 150/276/300
f 135/281/305 136/282/306 150/276/300
f 136/282/306 137/283/307 150/276/300
f 137/283/307 138/284/308 150/276/300
f 138/284/308 139/285/309 150/276/300
f 139/285/309 140/286/310 150/276/300
f 140/286/310 141/287/311 150/276/300
f 141/287/311 142/288/312 150/276/300
f 142/288/312 143/289/313 150/276/300
f 143/289/313 144/290/314 150/276/300
f 144/290/314 145/291/315 150/276/300
f 145/291/315 146/292/316 150/276/300
f 146/292/316 147/293/317 150/276/300
f 147/293/317 148/294/318 150/276/300
f 148/294/318 129/274/298 150/276/300
