# ProBuilder 5.2.3
# https://unity3d.com/unity/features/worldbuilding/probuilder
# 4/10/2025 10:04:59 AM

mtllib ./Circus.mtl
o Circus

g PolyShape
v 6.184745 69.97195 -275.788
v 6.619011 69.97195 -275.7875
v 6.624559 69.97195 -276.2849
v 6.194737 69.97195 -276.2863
v -15.58377 38.03485 -300.9236
v 27.5029 37.92148 -300.7608
v 26.95195 37.92148 -251.3673
v -16.57613 38.03485 -251.4416

vt 20.1089 -25.84981
vt 20.54217 -25.8791
vt 20.51361 -26.37569
vt 20.0847 -26.34758
vt -0.09209357 -30.19938
vt 42.99488 -30.27365
vt 21.76462 10.09404
vt 22.19444 10.09404
vt -49.86131 -23.2128
vt -0.4647517 -23.2128
vt -25.15404 14.88916
vt -24.65663 14.88916
vt -42.6011 -0.1452469
vt 0.9270338 -0.03914885
vt -22.24125 40.13478
vt -21.80699 40.13478
vt 0.04530618 -0.61056
vt 49.53726 -0.6105697
vt 24.84315 38.32333
vt 25.34151 38.32333

vn 0 -1 0
vn -0.004600062 -0.6088317 0.793286
vn -0.003561856 -0.6083986 0.7936228
vn -0.002523646 -0.6079655 0.7939594
vn -0.8411241 -0.5407609 -0.009382199
vn -0.0002209012 -0.6061441 -0.7953548
vn 0.0008762859 -0.6066478 -0.7949702
vn 0.8201255 -0.5719473 0.0164475

usemtl ProBuilderDefault
f 4/4/1 3/3/1 2/2/1 1/1/1

usemtl Red
f 6/9/5 7/10/5 2/12/5 3/11/5
f 8/17/8 5/18/8 4/20/8 1/19/8

usemtl White
f 5/5/2 6/6/3 3/8/4 4/7/3
f 7/13/6 8/14/6 1/16/7 2/15/6

g Back Roof
v 114.413 38.106 -288.063
v 27.42355 38.106 -287.885
v 114.413 39.106 -288.063
v 27.42355 39.106 -287.885
v 27.50813 38.106 -345.9334
v 27.50813 39.106 -345.9334
v 114.4976 38.106 -346.1114
v 114.4976 39.106 -346.1114

vt -0.04631913 0
vt -87.03599 0
vt -0.04631913 1
vt -87.03599 1
vt 13.52401 0
vt -44.52442 0
vt 13.52401 1
vt -44.52442 1
vt 86.8326 0
vt -0.1570733 0
vt 86.8326 1
vt -0.1570733 1
vt 44.82922 0
vt -13.21922 0
vt 44.82922 1
vt -13.21922 1
vt 2.789729E-06 13.21922
vt 86.98914 13.52401
vt 3.179485E-06 -44.82922
vt 86.98914 -44.52442
vt -86.98914 -44.52442
vt -86.98914 13.52401

vn 0.002046681 0 0.9999979
vn -0.9999989 0 -0.001457035
vn -0.002046856 0 -0.9999979
vn 0.9999989 0 0.001457029
vn 0 1 0
vn 0 -1 0

usemtl White
f 11/23/9 12/24/9 10/22/9 9/21/9
f 12/27/10 14/28/10 13/26/10 10/25/10
f 14/31/11 16/32/11 15/30/11 13/29/11
f 16/35/12 11/36/12 9/34/12 15/33/12
f 16/39/13 14/40/13 12/38/13 11/37/13
f 9/37/14 10/42/14 13/41/14 15/39/14

g BackRoof (1)
v 114.4372 38.106 -206.2024
v 27.07413 38.106 -206.0248
v 114.4372 39.106 -206.2024
v 27.07413 39.106 -206.0248
v 27.16078 38.106 -265.4943
v 27.16078 39.106 -265.4943
v 114.5238 38.106 -265.672
v 114.5238 39.106 -265.672

vt 0.1302673 0
vt -87.23299 0
vt 0.1302673 1
vt -87.23299 1
vt 1.563583 0
vt -57.90599 0
vt 1.563583 1
vt -57.90599 1
vt 87.02538 0
vt -0.337873 0
vt 87.02538 1
vt -0.337873 1
vt 58.21098 0
vt -1.258652 0
vt 58.21098 1
vt -1.258652 1
vt -0.1346612 1.258652
vt 87.22807 1.563572
vt -0.1346618 -58.21098
vt 87.22806 -57.906
vt 0.1346618 -58.21098
vt -87.22806 -57.906
vt 0.1346612 1.258652
vt -87.22807 1.563572

vn 0.002033223 0 0.9999979
vn -0.9999989 0 -0.001457164
vn -0.002033926 0 -0.9999979
vn 0.9999989 0 0.001457047
vn 0 1 0
vn 0 -1 0

usemtl White
f 19/45/15 20/46/15 18/44/15 17/43/15
f 20/49/16 22/50/16 21/48/16 18/47/16
f 22/53/17 24/54/17 23/52/17 21/51/17
f 24/57/18 19/58/18 17/56/18 23/55/18
f 24/61/19 22/62/19 20/60/19 19/59/19
f 17/65/20 18/66/20 21/64/20 23/63/20

g Big Back Roof
v 113.3212 38.06982 -206.204
v 27.0591 38.00818 -206.025
v 114.5395 62.04889 -276.4139
v 28.26896 62.04889 -276.5414
v 27.26304 38.00818 -345.9487
v 28.26785 62.04889 -275.7355
v 113.5251 38.06982 -346.1278
v 114.5384 62.04889 -275.608

vt -0.9813107 1.520511
vt -87.2431 1.828651
vt 0.1348392 -72.67289
vt -86.13581 -72.67474
vt 1.556788 -5.074896
vt -138.3671 -5.074408
vt -68.96122 18.99153
vt -68.15532 18.99153
vt -87.24302 -131.3428
vt -0.9812613 -131.6113
vt -86.13607 -57.12949
vt 0.1345613 -57.12764
vt 138.6653 -1.064505
vt -1.258602 -1.064832
vt 68.14703 22.94035
vt 68.95293 22.94035
vt -0.13468 -68.95294
vt 86.13597 -68.9547
vt -0.1347201 -68.14704
vt 86.13591 -68.1488

vn 5.360635E-06 -0.9463295 -0.3232036
vn 0.0002410395 -0.9464189 -0.3229412
vn 0.0004767184 -0.9465083 -0.3226789
vn 0.9989403 -0.04600172 0.001455929
vn -5.092021E-06 -0.0001096074 3.803846E-05
vn -0.9989505 0.04578251 -0.001379852
vn 0.001348612 -0.9460849 0.323916
vn 0.0004364947 -0.9464229 0.3229264
vn -0.0004756221 -0.946761 0.3219368
vn -0.9989176 0.04649054 -0.001455713
vn 0.998911 -0.04663498 0.001405692
vn 0 1 0

usemtl Red
f 25/67/21 26/68/22 28/70/23 27/69/22
f 29/75/27 31/76/28 32/78/29 30/77/28
f 27/83/32 28/84/32 30/86/32 32/85/32

usemtl White
f 26/71/24 29/72/25 30/74/26 28/73/25
f 31/79/30 25/80/25 27/82/31 32/81/25

g wALLS
v 32.47021 24.03095 -287.8896
v 28.4215 24.03095 -287.89
v 32.4702 38.10857 -287.8895
v 28.42149 38.10857 -287.89
v 27.42986 24.03095 -287.8902
v 27.42998 24.03095 -288.8902
v 27.42986 38.10857 -287.8901
v 27.42997 38.10857 -288.8901
v 28.42161 24.03095 -288.89
v 32.47032 24.03095 -288.8896
v 28.42161 38.10857 -288.89
v 32.47032 38.10857 -288.8895
v 35.51766 24.03095 -288.8892
v 35.51755 24.03095 -287.8892
v 35.51766 38.10857 -288.8891
v 35.51754 38.10857 -287.8891
v 28.37979 24.03095 -300.0889
v 28.37978 38.10857 -300.0888
v 27.38815 24.03095 -300.0891
v 27.38815 38.10857 -300.089

vt 4.030323 -5.019046
vt -0.0183943 -5.019046
vt 4.030315 9.058574
vt -0.0183981 9.058574
vt 0.9999722 -5.019052
vt -2.777768E-05 -5.019052
vt 1.000064 9.058567
vt 6.377549E-05 9.058567
vt 0.01839058 -5.019053
vt -4.030321 -5.019053
vt 0.01839438 9.058567
vt -4.030321 9.058567
vt -1.00005 -5.019053
vt -1.000142 9.058567
vt -4.030318 1.000058
vt 0.0183951 1.00007
vt -4.030321 5.828111E-05
vt 0.01839438 7.045771E-05
vt 4.030321 -3.327162E-05
vt -0.01839058 -2.109546E-05
vt 4.030325 0.9999667
vt -0.01839129 0.9999789
vt 7.077658 1.285929E-05
vt 7.077663 1.000013
vt -7.077658 9.058567
vt -7.077658 -5.019053
vt 7.077678 -5.019046
vt 7.077671 9.058574
vt -7.077655 1.000104
vt -7.077658 0.000104412
vt -1.010026 0.9999715
vt -1.010025 -2.850011E-05
vt -1.010022 9.058574
vt -1.010018 -5.019046
vt 0.06159795 -5.019122
vt 0.06160175 9.058498
vt 1.053232 -5.019122
vt 1.053236 9.058498
vt 1.010029 6.305306E-05
vt 1.010029 1.000063
vt 11.19905 -5.019049
vt 11.19896 9.058571
vt -1.053146 -11.1989
vt -0.06151178 -11.1989
vt 0.06151559 -11.19881
vt 1.05315 -11.19882
vt -0.003826028 9.058567
vt -0.003917567 -5.019052
vt -11.20279 9.058571
vt -11.20288 -5.019048

vn -0.0001126298 -6.503423E-06 1
vn -1 -2.709714E-07 -0.0001163483
vn 0.0001126256 6.503455E-06 -1
vn 1 3.411182E-11 0.0001103878
vn 0 1 0
vn 0 -1 0
vn 0.999993 2.952215E-07 -0.003734833
vn -0.999993 -2.960153E-07 0.003734834

usemtl Red
f 35/89/33 36/90/33 34/88/33 33/87/33
f 39/93/34 40/94/34 38/92/34 37/91/34
f 43/97/35 44/98/35 42/96/35 41/95/35
f 47/94/36 48/100/36 46/99/36 45/92/36
f 44/103/37 43/104/37 36/102/37 35/101/37
f 33/107/38 34/108/38 41/106/38 42/105/38
f 45/109/38 46/110/38 33/107/38 42/105/38
f 47/111/35 45/112/35 42/96/35 44/98/35
f 46/113/33 48/114/33 35/89/33 33/87/33
f 48/115/37 47/116/37 44/103/37 35/101/37
f 37/117/38 38/118/38 41/106/38 34/108/38
f 39/119/33 37/120/33 34/88/33 36/90/33
f 51/123/35 52/124/35 50/122/35 49/121/35
f 40/125/37 39/126/37 36/102/37 43/104/37
f 49/127/39 50/128/39 43/94/39 41/92/39
f 51/129/38 49/130/38 41/106/38 38/118/38
f 50/131/37 52/132/37 40/125/37 43/104/37
f 52/135/40 51/136/40 38/134/40 40/133/40

g wALLS (6)
v 54.48021 24.03095 -287.8896
v 49.44989 24.03095 -287.8902
v 54.48021 38.10857 -287.8895
v 49.44989 38.10857 -287.8901
v 49.45001 24.03095 -288.8902
v 49.45 38.10857 -288.8901
v 54.48032 24.03095 -288.8896
v 54.48032 38.10857 -288.8895
v 57.474 24.03095 -288.8892
v 57.47388 24.03095 -287.8892
v 57.47399 38.10857 -288.8891
v 57.47388 38.10857 -287.8891

vt 4.030328 -5.019046
vt -0.9999939 -5.019046
vt 4.03032 9.058574
vt -0.9999981 9.058572
vt 0.9999547 -5.019052
vt -4.069466E-05 -5.019052
vt 1.000061 9.058565
vt 5.845065E-05 9.058565
vt -4.030321 -5.019053
vt -4.030321 9.058567
vt -1.000025 -5.019053
vt -1.000117 9.058567
vt -4.030321 1.000058
vt 0.999997 1.000061
vt -4.030324 5.828112E-05
vt 0.9999973 5.862948E-05
vt 4.030321 -3.327162E-05
vt -0.9999964 -4.051585E-05
vt 4.030325 0.9999667
vt -0.9999962 0.9999549
vt 7.023989 -1.145239E-05
vt 7.023994 0.9999886
vt -7.023989 9.058567
vt -7.023989 -5.019053
vt 7.024001 -5.019046
vt 7.023993 9.058574
vt -7.023986 1.00008
vt -7.023989 8.010035E-05

vn -0.000117991 -6.503426E-06 1
vn -1 -3.006154E-07 -0.0001154542
vn 0.0001170731 7.042763E-06 -1
vn 1 3.411182E-11 0.0001103878
vn -3.791706E-07 1 -4.492945E-11
vn 0 -1 0

usemtl Red
f 55/139/41 56/140/41 54/138/41 53/137/41
f 56/143/42 58/144/42 57/142/42 54/141/42
f 58/143/43 60/146/43 59/145/43 57/141/43
f 63/144/44 64/148/44 62/147/44 61/142/44
f 60/151/45 58/152/45 56/150/45 55/149/45
f 53/155/46 54/156/46 57/154/46 59/153/46
f 61/157/46 62/158/46 53/155/46 59/153/46
f 63/159/43 61/160/43 59/145/43 60/146/43
f 62/161/41 64/162/41 55/139/41 53/137/41
f 64/163/45 63/164/45 60/151/45 55/149/45

g wALLS (11)
v 110.3302 24.03095 -288.0196
v 102.2463 24.03095 -288.0315
v 110.3302 38.10857 -288.0195
v 102.4682 38.10857 -288.0314
v 97.17273 32.91284 -288.0321
v 97.17285 32.91284 -289.0321
v 97.17273 38.08315 -288.032
v 97.17285 38.08315 -289.032
v 102.2464 24.03095 -289.0315
v 110.3303 24.03095 -289.0196
v 102.4683 38.10857 -289.0314
v 110.3303 38.10857 -289.0195
v 113.324 24.03095 -289.0192
v 113.3239 24.03095 -288.0192
v 113.324 38.10857 -289.0191
v 113.3239 38.10857 -288.0191
v 102.2472 32.91284 -288.0315
v 102.2473 32.91284 -289.0315
v 102.4691 38.08315 -288.0314
v 102.4692 38.08315 -289.0314

vt 4.031678 -5.019046
vt -4.052255 -5.019046
vt 4.031671 9.058574
vt -3.830354 9.058574
vt 0.9890382 3.862843
vt -0.01096184 3.862843
vt 0.9891297 9.033154
vt -0.01087028 9.033154
vt 4.053605 -5.019053
vt -4.030317 -5.019053
vt 3.831704 9.058567
vt -4.030317 9.058567
vt -2.53899E-05 -5.019053
vt -1.000025 -5.019053
vt -0.0001169426 9.058567
vt -1.000117 9.058567
vt -4.030318 1.000058
vt 3.831699 0.9890668
vt -4.030321 5.828111E-05
vt 3.831693 -0.01093319
vt 4.030321 -3.327162E-05
vt -4.053594 -0.01099909
vt 4.030325 0.9999667
vt -4.0536 0.9890009
vt 7.023989 -1.145239E-05
vt 7.023994 0.9999886
vt -7.023989 9.058567
vt -7.023989 -5.019053
vt 4.030333 -5.019046
vt 4.030325 9.058574
vt 7.024001 -5.019046
vt 7.023993 9.058574
vt -7.023986 1.00008
vt -7.023989 8.010035E-05
vt 0.989028 -5.019467
vt -0.01097203 -5.019467
vt 0.9890279 3.862428
vt -0.01097214 3.862428
vt 3.830791 9.033158
vt 4.052692 3.862847
vt -0.01090853 9.189592
vt 0.9890915 9.189592
vt -0.01090864 9.164163
vt 0.9890914 9.164163
vt -4.052692 0.9890008
vt -4.052686 -0.01099919
vt -9.127163 0.9889773
vt -9.127156 -0.01102277
vt -3.830792 9.033166
vt -4.052693 3.862855
vt -9.127163 9.033166
vt -9.127163 3.862855
vt 9.127156 3.862842
vt 9.127156 9.033154
vt 3.830785 -0.0109333
vt 3.830791 0.9890667
vt 9.127156 -0.01093121
vt 9.127163 0.9890688

vn -0.001472129 -6.504154E-06 0.9999989
vn -0.001513677 1.735413E-05 0.9999989
vn -1 1.182096E-10 -0.0001223087
vn 0.00147213 -1.670127E-05 -0.9999989
vn 0.00151368 6.503418E-06 -0.9999989
vn 1 3.411182E-11 0.0001103878
vn 0 1 0
vn 0 -1 0
vn 0.0001229215 6.503425E-06 -1
vn -0.0001229202 -6.503429E-06 1
vn -0.0001491296 2.36457E-06 -4.704663E-08
vn -0.0004137372 4.38935E-08 0.9999999
vn 0.0004152796 -4.247832E-08 -0.9999999
vn -0.9993625 -0.03570223 -0.0001219925

usemtl Red
f 67/167/47 68/168/48 66/166/47 65/165/47
f 71/171/49 72/172/49 70/170/49 69/169/49
f 75/175/50 76/176/51 74/174/50 73/173/50
f 79/179/52 80/180/52 78/178/52 77/177/52
f 76/183/53 75/184/53 68/182/53 67/181/53
f 65/187/54 66/188/54 73/186/54 74/185/54
f 77/189/54 78/190/54 65/187/54 74/185/54
f 79/191/55 77/192/55 74/174/55 76/176/55
f 78/195/56 80/196/56 67/194/56 65/193/56
f 80/197/53 79/198/53 76/183/53 67/181/53
f 81/201/49 82/202/49 73/200/49 66/199/49
f 83/203/57 81/204/58 66/173/57 68/175/55
f 82/204/57 84/203/56 75/175/57 73/173/59
f 84/207/60 83/208/60 68/206/60 75/205/60
f 69/211/54 70/212/54 82/210/54 81/209/54
f 71/215/56 69/216/56 81/214/56 83/213/56
f 70/217/55 72/218/55 84/203/55 82/204/55
f 72/221/53 71/222/53 83/220/53 84/219/53

g wALLS (5)
v 45.20824 24.06677 -264.5401
v 40.19123 24.06677 -264.5407
v 45.20824 38.10857 -264.5401
v 40.19124 38.10857 -264.5406
v 35.14783 32.99743 -264.4601
v 35.14795 32.99743 -265.4756
v 35.14784 38.08544 -264.4601
v 35.14795 38.08544 -265.4756
v 40.19135 24.06677 -265.5562
v 45.20836 24.06677 -265.5556
v 40.19135 38.10857 -265.5561
v 45.20836 38.10857 -265.5555
v 49.22345 24.06677 -265.5551
v 49.22333 24.06677 -264.5396
v 49.22345 38.10857 -265.5551
v 49.22333 38.10857 -264.5396
v 48.20203 24.06677 -265.5552
v 48.2019 24.06677 -264.5397
v 48.20203 38.10857 -265.5552
v 48.2019 38.10857 -264.5397
v 48.19814 24.06677 -231.972
v 48.19814 38.10857 -231.972
v 49.21957 24.06677 -231.9719
v 49.21957 38.10857 -231.9718
v 40.14092 32.99743 -264.5407
v 40.14104 32.99743 -265.5562
v 40.14093 38.08544 -264.5406
v 40.14104 38.08544 -265.5561

vt -0.9916507 -4.983228
vt -6.008655 -4.983228
vt -0.9916507 9.058569
vt -6.008651 9.058569
vt 1.08114 3.947425
vt 0.06566779 3.947425
vt 1.081171 9.03543
vt 0.0656983 9.03543
vt 6.008657 -4.983231
vt 0.9916486 -4.983231
vt 6.008653 9.058567
vt 0.9916486 9.058567
vt 0.01544116 -4.983231
vt -1.000031 -4.983231
vt 0.01541064 9.058567
vt -1.000062 9.058567
vt 0.9916506 1.000054
vt 6.008651 1.000055
vt 0.9916486 -0.01541791
vt 6.008653 -0.01541761
vt -0.9916486 -0.01544843
vt -6.008657 -0.01544813
vt -0.9916506 1.000024
vt -6.008655 1.000024
vt 2.002021 -0.01541959
vt 2.002016 1.000053
vt -2.002021 9.058567
vt -2.002021 -4.983231
vt 2.002026 -4.983228
vt 2.002026 9.058569
vt -2.002016 1.000083
vt -2.002021 -0.01538907
vt 3.023447 -0.01542696
vt 3.023442 1.000045
vt -3.023447 9.058567
vt -3.023447 -4.983231
vt 3.023572 -4.983158
vt 3.023572 9.05864
vt -3.023442 1.000076
vt -3.023447 -0.01539645
vt 1.000053 -4.983231
vt 1.000084 9.058567
vt 33.56778 -4.983231
vt 33.56781 9.058567
vt 3.023447 33.56778
vt 2.002019 33.56778
vt -2.002019 33.56781
vt -3.023447 33.56781
vt -33.56781 9.058567
vt -33.56778 -4.983231
vt 1.000013 -4.949301
vt -0.01545942 -4.949301
vt 1.000016 3.981505
vt -0.01545623 3.981505
vt -6.059028 9.03544
vt -6.059032 3.947436
vt 6.058975 3.947433
vt 6.058971 9.035439
vt 1.675942 -0.01542604
vt 1.67594 1.000046
vt 1.731317 -0.01542276
vt 1.731314 1.00005
vt -6.058967 1.000028
vt -6.05897 -0.01544485
vt -11.05205 1.081171
vt -11.05205 0.06569892
vt -6.074413 9.035444
vt -6.074417 3.947439
vt -11.06815 9.035444
vt -11.06815 3.947439
vt 6.057919 3.947433
vt 6.057916 9.035438
vt 11.05166 3.947433
vt 11.05165 9.035438
vt 6.058966 -0.01541433
vt 6.058963 1.000058
vt 11.05204 0.06572944
vt 11.05204 1.081202

vn -0.0001155617 -2.173339E-06 1
vn -1 7.497263E-07 -0.0001128156
vn 0.0001155736 2.173339E-06 -1
vn 1 -1.020538E-11 0.0001203287
vn 0 1 0
vn 0 -1 0
vn -0.9999841 -0.005633592 -0.0001137529
vn -0.0005834225 -4.085274E-06 0.9999997
vn -0.001116184 -5.997193E-06 0.9999994
vn 0.0004362295 2.173251E-06 -0.9999999
vn -0.4176718 0.908598 -4.751214E-05
vn 0.0161335 -6.009336E-06 0.9998699
vn -0.01613349 6.009336E-06 -0.9998699

usemtl Red
f 87/225/61 88/226/61 86/224/61 85/223/61
f 91/229/62 92/230/62 90/228/62 89/227/62
f 95/233/63 96/234/63 94/232/63 93/231/63
f 99/237/64 100/238/64 98/236/64 97/235/64
f 96/241/65 95/242/65 88/240/65 87/239/65
f 85/245/66 86/246/66 93/244/66 94/243/66
f 101/247/66 102/248/66 85/245/66 94/243/66
f 103/249/63 101/250/63 94/232/63 96/234/63
f 102/251/61 104/252/61 87/225/61 85/223/61
f 104/253/65 103/254/65 96/241/65 87/239/65
f 97/255/66 98/256/66 102/248/66 101/247/66
f 99/257/63 97/258/63 101/250/63 103/249/63
f 107/259/61 108/260/61 106/252/61 105/251/61
f 100/261/65 99/262/65 103/254/65 104/253/65
f 105/265/62 106/266/62 104/264/62 102/263/62
f 107/267/66 105/268/66 102/248/66 98/256/66
f 106/269/65 108/270/65 100/261/65 104/253/65
f 108/271/64 107/272/64 98/236/64 100/238/64
f 109/275/67 110/276/67 93/274/67 86/273/67
f 111/277/68 109/278/69 86/224/68 88/226/61
f 110/279/63 112/280/63 95/233/63 93/231/70
f 112/283/71 111/284/71 88/282/71 95/281/71
f 89/287/66 90/288/66 110/286/66 109/285/66
f 91/291/72 89/292/72 109/290/72 111/289/72
f 90/295/73 92/296/73 112/294/73 110/293/73
f 92/299/65 91/300/65 111/298/65 112/297/65

g wALLS (4)
v 45.50021 24.03095 -287.8896
v 40.43669 24.03095 -287.8902
v 45.5002 38.10857 -287.8895
v 40.43669 38.10857 -287.8901
v 40.43681 24.03095 -288.8902
v 40.4368 38.10857 -288.8901
v 45.50032 24.03095 -288.8896
v 45.50032 38.10857 -288.8895
v 49.50389 24.03095 -288.8891
v 49.50378 24.03095 -287.8891
v 49.50389 38.10857 -288.889
v 49.50377 38.10857 -287.889
v 48.49399 24.03095 -288.8892
v 48.49388 24.03095 -287.8892
v 48.49399 38.10857 -288.8891
v 48.49387 38.10857 -287.8891
v 48.4974 38.10857 -318.4646
v 48.4974 24.03095 -318.4647
v 49.5073 38.10857 -318.4645
v 49.5073 24.03095 -318.4646

vt 4.030332 -5.019046
vt -1.033187 -5.019046
vt 4.030324 9.058574
vt -1.033191 9.058574
vt 0.9999311 -5.019052
vt -6.890696E-05 -5.019052
vt 1.000023 9.058567
vt 2.264621E-05 9.058567
vt 1.033195 -5.019053
vt -4.030321 -5.019053
vt 1.033199 9.058567
vt -4.030321 9.058567
vt -1.000021 -5.019055
vt -1.000112 9.058565
vt -4.030318 1.000058
vt 1.033198 1.000024
vt -4.030321 5.828111E-05
vt 1.033199 2.387788E-05
vt 4.030321 -3.327162E-05
vt -1.033195 -6.76753E-05
vt 4.030325 0.9999667
vt -1.033194 0.9999323
vt 7.023989 -1.145239E-05
vt 7.023994 0.9999886
vt -7.023989 9.058567
vt -7.023989 -5.019053
vt 7.024001 -5.019046
vt 7.023993 9.058574
vt -7.023986 1.00008
vt -7.023989 8.010035E-05
vt 8.03389 -1.749686E-05
vt 8.033895 0.9999825
vt -7.023814 9.058378
vt -8.033709 9.058378
vt -8.033712 -5.019241
vt 7.023988 -5.019046
vt 8.033889 -5.019046
vt 8.033881 9.058574
vt -8.033887 1.000074
vt -8.033886 7.405632E-05
vt -29.5754 9.058571
vt -29.57549 -5.019049
vt -8.033876 -29.5754
vt -7.023981 -29.5754
vt 7.023981 -29.57549
vt 8.03388 -29.57549
vt 29.57549 -5.019051
vt 29.57539 9.058569

vn -0.0001224251 -6.503428E-06 1
vn -1 -2.709838E-07 -0.0001144409
vn 0.0001224274 6.503457E-06 -1
vn 1 2.71007E-07 0.0001108646
vn 0 1 0
vn 0 -1 0

usemtl Red
f 115/303/74 116/304/74 114/302/74 113/301/74
f 116/307/75 118/308/75 117/306/75 114/305/75
f 118/311/76 120/312/76 119/310/76 117/309/76
f 123/308/77 124/314/77 122/313/77 121/306/77
f 120/317/78 118/318/78 116/316/78 115/315/78
f 113/321/79 114/322/79 117/320/79 119/319/79
f 125/323/79 126/324/79 113/321/79 119/319/79
f 127/325/76 125/326/76 119/310/76 120/312/76
f 126/327/74 128/328/74 115/303/74 113/301/74
f 128/329/78 127/330/78 120/317/78 115/315/78
f 121/331/79 122/332/79 126/324/79 125/323/79
f 131/334/76 132/335/76 130/326/76 129/333/76
f 122/337/74 124/338/74 128/328/74 126/336/74
f 124/339/78 123/340/78 127/330/78 128/329/78
f 129/341/75 130/342/75 125/306/75 127/308/75
f 131/343/78 129/344/78 127/330/78 123/340/78
f 130/345/79 132/346/79 121/331/79 125/323/79
f 132/347/77 131/348/77 123/308/77 121/306/77

g wALLS (1)
v 32.17823 24.06677 -264.4601
v 28.1501 24.06677 -264.4605
v 32.17823 38.10857 -264.4601
v 28.15011 38.10857 -264.4605
v 27.15269 24.06677 -264.4606
v 27.15281 24.06677 -265.4761
v 27.15269 38.10857 -264.4606
v 27.15281 38.10857 -265.4761
v 28.15022 24.06677 -265.476
v 32.17835 24.06677 -265.4756
v 28.15022 38.10857 -265.476
v 32.17835 38.10857 -265.4755
v 35.26672 24.06677 -265.4752
v 35.26659 24.06677 -264.4597
v 35.26672 38.10857 -265.4752
v 35.26659 38.10857 -264.4597
v 28.40454 38.10857 -252.0197
v 28.40453 24.06677 -252.0197
v 27.40713 38.10857 -252.0198
v 27.40712 24.06677 -252.0198

vt -0.9916548 -4.983228
vt -5.019783 -4.983228
vt -0.9916548 9.058569
vt -5.01978 9.058569
vt 1.000048 -4.983232
vt -0.01542478 -4.983232
vt 1.000078 9.058565
vt -0.01539426 9.058565
vt 5.019782 -4.983231
vt 0.9916485 -4.983231
vt 5.019778 9.058567
vt 0.9916485 9.058567
vt 0.01544038 -4.983231
vt -1.000032 -4.983231
vt 0.01540986 9.058567
vt -1.000062 9.058567
vt 0.9916506 1.000054
vt 5.019775 1.000071
vt 0.9916486 -0.01541791
vt 5.019778 -0.01540109
vt -0.9916486 -0.01544843
vt -5.019782 -0.01543161
vt -0.9916506 1.000024
vt -5.019779 1.000041
vt 2.096717 -0.01543054
vt 2.096712 1.000042
vt -2.096717 9.058567
vt -2.096717 -4.983231
vt 2.096718 -4.983228
vt 2.096718 9.058569
vt -2.096712 1.000072
vt -2.096717 -0.01540002
vt -6.017191 1.000065
vt -6.017194 -0.01540783
vt -4.764227 9.058597
vt -4.764231 -4.983202
vt -5.761639 9.058597
vt -5.761643 -4.983202
vt 6.017193 -4.983231
vt 6.01719 9.058567
vt 6.01719 -0.01537731
vt 6.017187 1.000095
vt -0.8966399 9.058566
vt -0.8966093 -4.983232
vt -13.34004 9.058566
vt -13.34001 -4.983232
vt 5.761318 13.44086
vt 4.763906 13.44084
vt -4.76391 13.44081
vt -5.761322 13.44083
vt 0.8761237 -4.983232
vt 0.8761543 9.058566
vt 13.31952 -4.983232
vt 13.31955 9.058566

vn -0.0001114602 -2.173338E-06 1
vn -1 2.716612E-07 -0.0001128156
vn 0.0001114575 2.173339E-06 -1
vn 1 -1.020538E-11 0.0001203287
vn 0 1 0
vn 0 -1 0
vn 0.999791 -2.269202E-07 -0.02044705
vn -0.999791 2.269202E-07 0.02044705

usemtl Red
f 135/351/80 136/352/80 134/350/80 133/349/80
f 139/355/81 140/356/81 138/354/81 137/353/81
f 143/359/82 144/360/82 142/358/82 141/357/82
f 147/363/83 148/364/83 146/362/83 145/361/83
f 144/367/84 143/368/84 136/366/84 135/365/84
f 133/371/85 134/372/85 141/370/85 142/369/85
f 145/373/85 146/374/85 133/371/85 142/369/85
f 147/375/82 145/376/82 142/358/82 144/360/82
f 146/377/80 148/378/80 135/351/80 133/349/80
f 148/379/84 147/380/84 144/367/84 135/365/84
f 137/381/85 138/382/85 141/370/85 134/372/85
f 151/385/80 152/386/80 150/384/80 149/383/80
f 138/387/82 140/388/82 143/359/82 141/357/82
f 140/389/84 139/390/84 136/366/84 143/368/84
f 149/393/86 150/394/86 134/392/86 136/391/86
f 151/395/84 149/396/84 136/366/84 139/390/84
f 150/397/85 152/398/85 137/381/85 134/372/85
f 152/401/87 151/402/87 139/400/87 137/399/87

g wALLS (7)
v 54.19823 24.06677 -264.5401
v 49.18122 24.06677 -264.5407
v 54.19823 38.10857 -264.5401
v 49.18123 38.10857 -264.5406
v 49.18134 24.06677 -265.5562
v 49.18134 38.10857 -265.5561
v 54.19835 24.06677 -265.5556
v 54.19835 38.10857 -265.5555
v 57.19201 24.06677 -265.53
v 57.19189 24.06677 -264.5394
v 57.19201 38.10857 -265.53
v 57.19189 38.10857 -264.5394

vt -0.9916507 -4.983228
vt -6.008655 -4.983228
vt -0.9916507 9.058569
vt -6.008651 9.058569
vt 1.000013 -4.983232
vt -0.01545942 -4.983232
vt 1.000044 9.058565
vt -0.0154289 9.058565
vt 6.008657 -4.983231
vt 0.9916486 -4.983231
vt 6.008653 9.058567
vt 0.9916486 9.058567
vt -0.009766945 -4.983231
vt -1.000337 -4.983231
vt -0.009797462 9.058567
vt -1.000368 9.058567
vt 0.9916506 1.000054
vt 6.008651 1.000055
vt 0.9916486 -0.01541791
vt 6.008653 -0.01541761
vt -0.9916486 -0.01544843
vt -6.008657 -0.01544813
vt -0.9916506 1.000024
vt -6.008655 1.000024
vt 2.002018 0.009774654
vt 2.002015 1.000345
vt -2.00203 9.058567
vt -2.00203 -4.983231
vt 2.002122 -4.983228
vt 2.002122 9.058569
vt -2.002015 1.000375
vt -2.002018 0.009805172

vn -0.0001155617 -2.173339E-06 1
vn -1 2.716632E-07 -0.0001137547
vn 0.0001155736 2.173339E-06 -1
vn 1 -8.369552E-12 0.000119484
vn 0 1 0
vn 0 -1 0
vn 0.00854081 2.173261E-06 -0.9999636

usemtl Red
f 155/405/88 156/406/88 154/404/88 153/403/88
f 156/409/89 158/410/89 157/408/89 154/407/89
f 158/413/90 160/414/90 159/412/90 157/411/90
f 163/417/91 164/418/91 162/416/91 161/415/91
f 160/421/92 158/422/92 156/420/92 155/419/92
f 153/425/93 154/426/93 157/424/93 159/423/93
f 161/427/93 162/428/93 153/425/93 159/423/93
f 163/429/94 161/430/94 159/412/94 160/414/94
f 162/431/88 164/432/88 155/405/88 153/403/88
f 164/433/92 163/434/92 160/421/92 155/419/92

g wALLS (10)
v 110.4882 24.06677 -264.6301
v 102.2621 24.06677 -264.6311
v 110.4882 38.10857 -264.6301
v 102.4767 38.10857 -264.631
v 97.1216 32.86712 -264.6318
v 97.12173 32.86712 -265.6261
v 97.1216 38.10479 -264.6317
v 97.12173 38.10479 -265.626
v 102.2623 24.06677 -265.642
v 110.4884 24.06677 -265.6411
v 102.4768 38.10857 -265.642
v 110.4884 38.10857 -265.641
v 113.482 24.06677 -265.6452
v 113.4819 24.06677 -264.6297
v 113.482 38.10857 -265.6452
v 113.4819 38.10857 -264.6297
v 102.2212 32.86712 -264.6311
v 102.2214 32.86712 -265.6421
v 102.4358 38.10479 -264.6311
v 102.4359 38.10479 -265.642

vt -0.9916459 -4.983228
vt -9.217768 -4.983228
vt -0.9916459 9.058569
vt -9.003222 9.058569
vt 1.000098 3.81712
vt 0.005805054 3.81712
vt 1.000129 9.05479
vt 0.005835573 9.05479
vt 9.217752 -4.983231
vt 0.9916316 -4.983231
vt 9.003213 9.058567
vt 0.9916316 9.058567
vt 0.01542899 -4.983231
vt -1.000043 -4.983231
vt 0.01539847 9.058567
vt -1.000074 9.058567
vt 0.9916506 1.000054
vt 9.003226 1.000022
vt 0.9916315 -0.01091453
vt 9.003213 -0.01093417
vt -0.9916315 -0.01094505
vt -9.217752 -0.0109704
vt -0.9916506 1.000024
vt -9.217772 0.9999854
vt 2.002021 -0.01541959
vt 2.002016 1.000053
vt -2.002042 9.058567
vt -2.002042 -4.983231
vt 2.002026 -4.983228
vt 2.002026 9.058569
vt -2.002016 1.000083
vt -2.002021 -0.01538907
vt 1.000177 -4.940344
vt -0.0107791 -4.940344
vt 1.000121 3.860101
vt -0.01083456 3.860101
vt -9.001839 9.058548
vt -9.216385 -4.983249
vt -9.04274 9.054771
vt -9.257278 3.817101
vt 9.258649 3.81712
vt 9.044118 9.05479
vt 8.132212 -0.01092221
vt 8.132225 1.000034
vt 8.173287 -0.01097852
vt 8.173301 0.9999774
vt -9.258666 0.9999291
vt -9.258645 -0.01102671
vt -14.35828 0.9998779
vt -14.35827 0.005584707
vt -9.044117 9.054797
vt -9.258656 3.817126
vt -14.35827 9.054797
vt -14.35827 3.817126
vt 14.35821 3.817114
vt 14.35822 9.054785
vt 9.044114 -0.01099048
vt 9.044127 0.9999654
vt 14.35828 0.005615226
vt 14.35828 0.9999084

vn -0.000120321 -2.173339E-06 1
vn -1 8.941645E-11 -0.0001309794
vn 0.0001187148 2.532891E-06 -1
vn 1 -1.020538E-11 0.0001203287
vn 0 1 0
vn 0 -1 0
vn -0.001379041 2.173336E-06 -0.9999991
vn -0.9999892 -0.00464676 -0.000136385
vn -0.001494472 1.848235E-05 0.9999989
vn -0.0009510013 1.175983E-05 0.9999994
vn -0.000407531 5.037305E-06 0.9999999
vn 0.0005662254 -4.304431E-06 -0.9999998
vn 0.001031537 -2.698054E-05 -0.9999993
vn -0.09194242 0.9957644 -1.184584E-05
vn -0.003141731 0.000140336 -0.9999951

usemtl Red
f 167/437/95 168/438/95 166/436/95 165/435/95
f 171/441/96 172/442/96 170/440/96 169/439/96
f 175/445/97 176/446/97 174/444/97 173/443/97
f 179/449/98 180/450/98 178/448/98 177/447/98
f 176/453/99 175/454/99 168/452/99 167/451/99
f 165/457/100 166/458/100 173/456/100 174/455/100
f 177/459/100 178/460/100 165/457/100 174/455/100
f 179/461/101 177/462/101 174/444/101 176/446/101
f 178/463/95 180/464/95 167/437/95 165/435/95
f 180/465/99 179/466/99 176/453/99 167/451/99
f 181/469/102 182/470/102 173/468/102 166/467/102
f 183/473/104 181/474/105 166/472/104 168/471/103
f 182/475/107 184/476/107 175/445/107 173/443/106
f 184/479/108 183/480/108 168/478/108 175/477/108
f 169/483/100 170/484/100 182/482/100 181/481/100
f 171/487/95 169/488/95 181/486/95 183/485/95
f 170/489/109 172/490/109 184/476/109 182/475/109
f 172/493/99 171/494/99 183/492/99 184/491/99

g wALLS (8)
v 67.17823 24.06677 -264.5401
v 62.16123 24.06677 -264.5407
v 67.17823 38.10857 -264.5401
v 62.16123 38.10857 -264.5406
v 57.19087 32.96269 -264.5413
v 57.19098 32.96269 -265.5426
v 57.19086 38.06224 -264.5413
v 57.19097 38.06224 -265.5425
v 62.16134 24.06677 -265.5562
v 67.17835 24.06677 -265.5556
v 62.16135 38.10857 -265.5561
v 67.17835 38.10857 -265.5555
v 97.31549 24.06677 -265.6241
v 97.31536 24.06677 -264.6086
v 97.31549 38.10857 -265.6241
v 97.31536 38.10857 -264.6086
v 70.17202 24.06677 -265.5797
v 70.1719 24.06677 -264.5643
v 70.17202 38.10857 -265.5797
v 70.1719 38.10857 -264.5642
v 62.15445 24.06677 -264.5407
v 62.15456 24.06677 -265.5562
v 62.15445 38.10857 -264.5406
v 62.15457 38.10857 -265.5561
v 83.20557 24.06677 -265.5782
v 83.20545 24.06677 -264.5628
v 83.20557 38.10857 -265.5782
v 83.20545 38.10857 -264.5627
v 84.1918 24.06677 -265.5781
v 84.19169 24.06677 -264.5627
v 84.1918 38.10857 -265.5781
v 83.20169 24.06677 -232.0662
v 83.20169 38.10857 -232.0662
v 84.18793 24.06677 -232.0661
v 84.18793 38.10857 -232.066
v 84.19169 38.10857 -264.5626
v 62.12646 32.96269 -264.5407
v 62.12658 32.96269 -265.5562
v 62.12645 38.06224 -264.5407
v 62.12656 38.06224 -265.5562

vt -0.9916507 -4.983228
vt -6.008655 -4.983228
vt -0.9916507 9.058569
vt -6.008651 9.058569
vt 0.9999682 3.912718
vt -0.001313564 3.912718
vt 0.9999987 9.01227
vt -0.001283045 9.01227
vt 6.008657 -4.983231
vt 0.9916486 -4.983231
vt 6.008653 9.058567
vt 0.9916486 9.058567
vt 0.08765002 -4.983231
vt -0.9278224 -4.983231
vt 0.08761951 9.058567
vt -0.9278529 9.058567
vt 0.9916506 1.000054
vt 6.008651 1.000055
vt 0.9916486 -0.01541791
vt 6.008653 -0.01541761
vt -0.9916486 -0.01544843
vt -6.008657 -0.01544813
vt -0.9916506 1.000024
vt -6.008655 1.000024
vt 2.00202 -0.03997455
vt 2.002016 0.9754979
vt 0.991489 9.058567
vt 0.9914887 -4.983231
vt -2.00228 9.058567
vt -2.002281 -4.983231
vt -0.9998099 -4.983228
vt -0.9998102 9.058569
vt 1.993957 -4.983228
vt 1.993957 9.058569
vt -2.002016 0.9755284
vt -2.00202 -0.03994403
vt -6.015434 1.000015
vt -6.015437 -0.01545738
vt -6.007273 9.058569
vt -6.007277 -4.983228
vt -6.014052 9.058569
vt -6.014056 -4.983228
vt 6.015452 -4.983231
vt 6.015448 9.058567
vt 6.015433 -0.01542687
vt 6.01543 1.000046
vt 15.03557 -0.0399863
vt 15.03557 0.9754861
vt -15.03557 9.058567
vt -15.03557 -4.983231
vt 2.002015 -4.983229
vt 2.002015 9.058569
vt 15.03557 -4.983229
vt 15.03557 9.058569
vt -15.03557 0.9755166
vt -15.03557 -0.03995578
vt 16.0218 -0.03997827
vt 16.02181 0.9754941
vt -16.0218 9.058567
vt -16.0218 -4.983231
vt 16.02206 -4.983158
vt 16.02206 9.05864
vt -16.02181 0.9755247
vt -16.0218 -0.03994776
vt 0.9754843 -4.983231
vt 0.9755148 9.058567
vt 33.47208 -4.983231
vt 33.47211 9.058567
vt 16.0218 33.47209
vt 15.03557 33.47208
vt -15.03557 33.47211
vt -16.0218 33.47212
vt -0.9755228 9.058567
vt -0.9754922 -4.983231
vt -33.47212 9.058567
vt -33.47209 -4.983231
vt 29.14548 -0.08748579
vt 29.14547 0.9279866
vt -29.14561 9.058567
vt -29.14561 -4.983231
vt 16.01817 -4.983228
vt 16.01817 9.058569
vt 29.14192 -4.983228
vt 29.14192 9.058569
vt -29.14547 0.9280171
vt -29.14548 -0.08745527
vt 0.9999981 -4.96428
vt -0.01547433 -4.96428
vt 0.9999707 3.931687
vt -0.01550169 3.931687
vt -6.042459 9.012247
vt -6.042448 3.912695
vt 6.043443 3.912693
vt 6.043454 9.012245
vt -0.01544381 4.639963
vt 1.000029 4.639963
vt -0.01547117 4.585834
vt 1.000001 4.585834
vt -6.043422 0.9999878
vt -6.043425 -0.01548466
vt -10.97902 0.9999787
vt -10.97902 -0.001303107
vt -6.043432 9.012251
vt -6.04342 3.912699
vt -10.97902 9.012251
vt -10.97901 3.912699
vt 10.97897 3.912693
vt 10.97898 9.012245
vt 6.043437 -0.01545415
vt 6.043434 1.000018
vt 10.97903 -0.001272588
vt 10.97903 1.000009

vn -0.0001155617 -2.173339E-06 1
vn -1 -2.244142E-06 -0.0001146806
vn 0.0001155736 2.173339E-06 -1
vn 1 -1.224646E-11 0.0001212679
vn 0 1 0
vn 0 -1 0
vn -0.008076759 2.173265E-06 -0.9999674
vn 0.008076746 -2.173266E-06 0.9999674
vn -0.001487229 -2.172964E-06 0.9999989
vn 0.001480305 2.172965E-06 -0.9999989
vn -0.003504329 2.173324E-06 -0.9999939
vn 0.003504333 -2.173324E-06 0.9999939
vn -0.9999951 -0.003146193 -0.000112815
vn -0.002038074 -4.076087E-06 0.9999975
vn -0.002989278 -5.9791E-06 0.9999955
vn 0.001780978 2.172817E-06 -0.9999985
vn -0.8557719 0.5173534 -9.654441E-05
vn -0.002757681 5.978075E-06 -0.9999962

usemtl Red
f 187/497/110 188/498/110 186/496/110 185/495/110
f 191/501/111 192/502/111 190/500/111 189/499/111
f 195/505/112 196/506/112 194/504/112 193/503/112
f 199/509/113 200/510/113 198/508/113 197/507/113
f 196/513/114 195/514/114 188/512/114 187/511/114
f 185/517/115 186/518/115 193/516/115 194/515/115
f 201/519/115 202/520/115 185/517/115 194/515/115
f 203/523/116 201/524/116 194/522/116 196/521/116
f 202/527/117 204/528/117 187/526/117 185/525/117
f 204/529/114 203/530/114 196/513/114 187/511/114
f 205/531/115 206/532/115 193/516/115 186/518/115
f 207/535/118 205/536/118 186/534/118 188/533/118
f 206/537/119 208/538/119 195/505/119 193/503/119
f 208/539/114 207/540/114 188/512/114 195/514/114
f 209/541/115 210/542/115 202/520/115 201/519/115
f 211/543/112 209/544/112 201/524/112 203/523/112
f 210/547/110 212/548/110 204/546/110 202/545/110
f 212/549/114 211/550/114 203/530/114 204/529/114
f 213/551/115 214/552/115 210/542/115 209/541/115
f 215/553/112 213/554/112 209/544/112 211/543/112
f 218/555/110 219/556/110 217/548/110 216/547/110
f 220/557/114 215/558/114 211/550/114 212/549/114
f 216/561/111 217/562/111 212/560/111 210/559/111
f 218/563/115 216/564/115 210/542/115 214/552/115
f 217/565/114 219/566/114 220/557/114 212/549/114
f 219/569/113 218/570/113 214/568/113 220/567/113
f 197/571/115 198/572/115 214/552/115 213/551/115
f 199/573/120 197/574/120 213/554/120 215/553/120
f 198/577/121 200/578/121 220/576/121 214/575/121
f 200/579/114 199/580/114 215/558/114 220/557/114
f 221/583/122 222/584/122 206/582/122 205/581/122
f 223/585/123 221/586/124 205/536/123 207/535/118
f 222/587/119 224/588/119 208/538/119 206/537/125
f 224/591/126 223/592/126 207/590/126 208/589/126
f 189/595/115 190/596/115 222/594/115 221/593/115
f 191/599/110 189/600/110 221/598/110 223/597/110
f 190/601/127 192/602/127 224/588/127 222/587/127
f 192/605/114 191/606/114 223/604/114 224/603/114

g wALLS (9)
v 67.17823 24.06677 -287.9501
v 62.16123 24.06677 -287.9507
v 67.17823 38.10857 -287.9501
v 62.16123 38.10857 -287.9507
v 57.44189 33.07483 -287.8974
v 57.442 33.07483 -288.9129
v 57.4419 38.0976 -287.8974
v 57.44202 38.0976 -288.9129
v 62.16134 24.06677 -288.9662
v 67.17835 24.06677 -288.9656
v 62.16135 38.10857 -288.9661
v 67.17835 38.10857 -288.9655
v 97.45367 24.06677 -289.0419
v 97.45354 24.06677 -288.0265
v 97.45367 38.10857 -289.0419
v 97.45354 38.10857 -288.0264
v 70.17202 24.06677 -288.9897
v 70.1719 24.06677 -287.9743
v 70.17202 38.10857 -288.9897
v 70.1719 38.10857 -287.9742
v 62.15445 24.06677 -287.9507
v 62.15456 24.06677 -288.9662
v 62.15445 38.10857 -287.9507
v 62.15457 38.10857 -288.9661
v 83.20557 24.06677 -288.9883
v 83.20544 24.06677 -287.9728
v 83.20557 38.10857 -288.9882
v 83.20544 38.10857 -287.9727
v 84.19181 24.06677 -288.9881
v 84.19168 24.06677 -287.9727
v 83.20899 38.10857 -318.3524
v 83.20899 24.06677 -318.3525
v 84.19523 38.10857 -318.3523
v 84.19523 24.06677 -318.3524
v 84.19168 38.10857 -287.9726
v 84.19181 38.10857 -288.9881
v 62.16317 33.07483 -287.9507
v 62.16329 33.07483 -288.9662
v 62.16319 38.0976 -287.9507
v 62.1633 38.0976 -288.9661

vt -0.9916507 -4.983228
vt -6.008655 -4.983228
vt -0.9916507 9.058569
vt -6.008651 9.058569
vt 1.053783 4.024797
vt 0.03831049 4.024797
vt 1.053813 9.047567
vt 0.03834101 9.047567
vt 6.008657 -4.983231
vt 0.9916486 -4.983231
vt 6.008653 9.058567
vt 0.9916486 9.058567
vt 0.0956993 -4.983231
vt -0.9197731 -4.983231
vt 0.09566878 9.058567
vt -0.9198036 9.058567
vt 0.9916506 1.000054
vt 6.008651 1.000055
vt 0.9916486 -0.01541791
vt 6.008653 -0.01541761
vt -0.9916486 -0.01544843
vt -6.008657 -0.01544813
vt -0.9916506 1.000024
vt -6.008655 1.000024
vt 2.00202 -0.03997455
vt 2.002016 0.9754979
vt 0.991489 9.058567
vt 0.9914887 -4.983231
vt -2.00228 9.058567
vt -2.002281 -4.983231
vt -0.9998099 -4.983228
vt -0.9998102 9.058569
vt 1.993957 -4.983228
vt 1.993957 9.058569
vt -2.002016 0.9755284
vt -2.00202 -0.03994403
vt -6.015434 1.000015
vt -6.015437 -0.01545738
vt -6.007273 9.058569
vt -6.007277 -4.983228
vt -6.014052 9.058569
vt -6.014056 -4.983228
vt 6.015452 -4.983231
vt 6.015448 9.058567
vt 6.015433 -0.01542687
vt 6.01543 1.000046
vt 15.03557 -0.0399863
vt 15.03556 0.9754861
vt -15.03557 9.058567
vt -15.03557 -4.983231
vt 2.002015 -4.983229
vt 2.002015 9.058569
vt 15.03555 -4.983229
vt 15.03555 9.058569
vt -15.03556 0.9755166
vt -15.03557 -0.03995578
vt 16.0218 -0.03997827
vt 16.02179 0.9754941
vt -15.03531 9.058503
vt -15.03531 -4.983294
vt -16.02154 9.058503
vt -16.02154 -4.983294
vt 16.0218 -4.983229
vt 16.0218 9.058569
vt -16.02179 0.9755247
vt -16.0218 -0.03994776
vt -0.0399675 9.058567
vt -0.03999802 -4.983231
vt -29.4042 9.058567
vt -29.40423 -4.983231
vt -16.02183 -29.40417
vt -15.03559 -29.40418
vt 15.03559 -29.40421
vt 16.02183 -29.40421
vt 0.03999076 -4.983231
vt 0.03996024 9.058567
vt 29.40422 -4.983231
vt 29.40419 9.058567
vt 29.28366 -0.09531427
vt 29.28364 0.9201581
vt -29.2838 9.058567
vt -29.2838 -4.983231
vt 16.01758 -4.983228
vt 16.01758 9.058569
vt 29.27955 -4.983228
vt 29.27955 9.058569
vt -29.28364 0.9201887
vt -29.28366 -0.09528375
vt 0.9999981 -4.989055
vt -0.01547433 -4.989055
vt 0.9999971 4.01901
vt -0.01547532 4.01901
vt 6.015536 9.058569
vt 6.01554 -4.983228
vt 6.006799 9.047602
vt 6.006814 4.024832
vt -6.015383 -4.983231
vt -6.015379 9.058567
vt -6.006658 4.02483
vt -6.006642 9.0476
vt -0.01544381 10.83331
vt 1.000029 10.83331
vt -0.0154448 10.81929
vt 1.000028 10.81929
vt -6.006708 1.000014
vt -6.006711 -0.01545839
vt -10.72799 1.053813
vt -10.72799 0.03834072
vt -6.017698 9.047606
vt -6.017713 4.024836
vt -10.73929 9.047606
vt -10.7393 4.024836
vt 6.006145 4.024829
vt 6.00613 9.047599
vt 10.72773 4.024829
vt 10.72772 9.047599
vt 6.006696 -0.01542788
vt 6.006693 1.000045
vt 10.72798 0.03837124
vt 10.72797 1.053844

vn -0.0001155617 -2.173339E-06 1
vn -1 3.037906E-06 -0.0001128156
vn 0.0001155736 2.173339E-06 -1
vn 1 -2.857507E-11 0.000128781
vn 0 1 0
vn 0 -1 0
vn -0.008076759 2.173265E-06 -0.9999674
vn 0.008076746 -2.173266E-06 0.9999674
vn -0.001487229 -2.172964E-06 0.9999989
vn 0.001480305 2.172965E-06 -0.9999989
vn -0.004056902 2.17332E-06 -0.9999918
vn 0.004056902 -2.173319E-06 0.9999918
vn -0.9999996 0.0009686479 -0.0001128155
vn -0.003138451 4.134269E-06 -0.9999901
vn -0.006286111 6.09517E-06 -0.9999803
vn 0.002244335 -2.173907E-06 0.9999975
vn 0.001118365 -4.124855E-06 0.9999987
vn -0.7821445 -0.6230971 -8.823808E-05
vn 0.01127864 -6.110066E-06 0.9999364
vn -0.01127866 6.109696E-06 -0.9999364

usemtl Red
f 227/609/128 228/610/128 226/608/128 225/607/128
f 231/613/129 232/614/129 230/612/129 229/611/129
f 235/617/130 236/618/130 234/616/130 233/615/130
f 239/621/131 240/622/131 238/620/131 237/619/131
f 236/625/132 235/626/132 228/624/132 227/623/132
f 225/629/133 226/630/133 233/628/133 234/627/133
f 241/631/133 242/632/133 225/629/133 234/627/133
f 243/635/134 241/636/134 234/634/134 236/633/134
f 242/639/135 244/640/135 227/638/135 225/637/135
f 244/641/132 243/642/132 236/625/132 227/623/132
f 245/643/133 246/644/133 233/628/133 226/630/133
f 247/647/136 245/648/136 226/646/136 228/645/136
f 246/649/137 248/650/137 235/617/137 233/615/137
f 248/651/132 247/652/132 228/624/132 235/626/132
f 249/653/133 250/654/133 242/632/133 241/631/133
f 251/655/130 249/656/130 241/636/130 243/635/130
f 250/659/128 252/660/128 244/658/128 242/657/128
f 252/661/132 251/662/132 243/642/132 244/641/132
f 253/663/133 254/664/133 250/654/133 249/653/133
f 257/667/130 258/668/130 256/666/130 255/665/130
f 254/669/128 259/670/128 252/660/128 250/659/128
f 259/671/132 260/672/132 251/662/132 252/661/132
f 255/675/129 256/676/129 249/674/129 251/673/129
f 257/677/132 255/678/132 251/662/132 260/672/132
f 256/679/133 258/680/133 253/663/133 249/653/133
f 258/683/131 257/684/131 260/682/131 253/681/131
f 237/685/133 238/686/133 254/664/133 253/663/133
f 239/687/138 237/688/138 253/668/138 260/667/138
f 238/691/139 240/692/139 259/690/139 254/689/139
f 240/693/132 239/694/132 260/672/132 259/671/132
f 261/697/140 262/698/140 246/696/140 245/695/140
f 263/701/141 261/702/142 245/700/141 247/699/130
f 262/705/144 264/706/128 248/704/144 246/703/143
f 264/709/145 263/710/145 247/708/145 248/707/145
f 229/713/133 230/714/133 262/712/133 261/711/133
f 231/717/146 229/718/146 261/716/146 263/715/146
f 230/721/147 232/722/147 264/720/147 262/719/147
f 232/725/132 231/726/132 263/724/132 264/723/132

g wALLS (2)
v 27.60499 24.12 -264.5544
v -16.58804 24.12 -252.0782
v 27.60501 38.07962 -264.5544
v -16.58801 38.07962 -252.0781
v -16.61032 24.12 -252.0987
v -16.61029 38.07962 -252.0987
v 27.19714 24.12 -265.4675
v 27.19716 38.07962 -265.4674

vt 45.0753 5.078536E-06
vt -0.8450799 5.078534E-06
vt 45.07529 13.95962
vt -0.845054 13.95962
vt 0.5245647 -1.142832E-06
vt 0.494243 -1.142832E-06
vt 0.5245945 13.95962
vt 0.4942741 13.95962
vt 0.8840614 1.878711E-06
vt -44.91788 1.878711E-06
vt 0.884041 13.95962
vt -44.91788 13.95962
vt -6.632481 -2.428732E-05
vt -7.632486 -2.428732E-05
vt -6.632545 13.9596
vt -7.632548 13.9596
vt -44.43886 7.632548
vt 0.9999771 1.000023
vt -44.43887 6.632545
vt 1.011941 0.9721623
vt 44.43887 6.632481
vt -1.011958 0.9721359
vt 44.43887 7.632486
vt -1 1

vn 0.2716935 -4.478627E-06 0.9623838
vn -0.6781978 8.701796E-07 0.7348794
vn -0.678036 3.914054E-07 0.7350287
vn -0.2918819 1.723992E-06 -0.9564543
vn 0.9130507 5.465331E-07 -0.407846
vn 0 1 0
vn 0 -1 0

usemtl Red
f 267/729/148 268/730/148 266/728/148 265/727/148
f 268/733/149 270/734/150 269/732/149 266/731/149
f 270/737/151 272/738/151 271/736/151 269/735/151
f 272/741/152 267/742/152 265/740/152 271/739/152
f 272/745/153 270/746/153 268/744/153 267/743/153
f 265/749/154 266/750/154 269/748/154 271/747/154

g wALLS (3)
v 27.42669 24.12 -287.9017
v -15.54816 24.12 -298.7308
v 27.42667 38.07962 -287.9016
v -15.54814 38.07962 -298.7308
v -15.5302 24.12 -298.7831
v -15.53019 38.07962 -298.783
v 27.75157 24.12 -288.8474
v 27.75155 38.07962 -288.8474

vt 43.42229 -3.89522E-07
vt -0.8959463 -3.895248E-07
vt 43.42229 13.95962
vt -0.895925 13.95962
vt -0.00879366 -1.510287E-06
vt -0.06403977 -1.510287E-06
vt -0.00876945 13.95962
vt -0.06401339 13.95962
vt 0.8881415 -3.180383E-07
vt -43.51938 -3.180386E-07
vt 0.8881272 13.95962
vt -43.51937 13.95962
vt 4.729325 7.610305E-10
vt 3.729338 7.610305E-10
vt 4.72926 13.95962
vt 3.729274 13.95962
vt -43.26195 -3.729109
vt 0.8998502 -0.008925756
vt -43.26195 -4.729095
vt 0.899847 -0.0641697
vt 43.26195 -4.72916
vt -0.8998641 -0.06419608
vt 43.26195 -3.729173
vt -0.8998737 -0.00894997

vn -0.2443486 -4.612117E-06 0.9696875
vn -0.9456971 1.678329E-06 -0.3250493
vn -0.9457157 1.451935E-06 -0.3249953
vn 0.2237371 2.008189E-06 -0.9746495
vn 0.9457523 -1.759123E-11 0.3248887
vn 0 1 0
vn 0 -1 0

usemtl Red
f 275/753/155 276/754/155 274/752/155 273/751/155
f 276/757/157 278/758/157 277/756/157 274/755/156
f 278/761/158 280/762/158 279/760/158 277/759/158
f 280/765/159 275/766/159 273/764/159 279/763/159
f 280/769/160 278/770/160 276/768/160 275/767/160
f 273/773/161 274/774/161 277/772/161 279/771/161

g Cube (2)
v 40.47 32.97817 -287.8894
v 35.4646 32.97817 -287.8923
v 40.47 38.12773 -287.903
v 35.4646 38.12773 -287.9058
v 35.4646 32.97817 -288.8923
v 35.4646 38.12773 -288.9058
v 40.47 32.97817 -288.8894
v 40.47 38.12773 -288.903

vt 0.000561988 -4.054397
vt -5.004837 -4.054397
vt 0.0005542224 1.09518
vt -5.004844 1.09518
vt 0.9777222 -4.05183
vt -0.02227783 -4.05183
vt 0.9641724 1.097729
vt -0.03582764 1.097729
vt 5.00541 -4.051765
vt 1.112363E-05 -4.051765
vt 5.005417 1.097812
vt 1.888918E-05 1.097812
vt 0.01940918 -4.05183
vt -0.9805908 -4.05183
vt 0.03295898 1.097729
vt -0.967041 1.097729
vt 0 0.967041
vt 5.005398 0.9641724
vt 0 -0.03295898
vt 5.005398 -0.03582764
vt 0 -0.01940918
vt -5.005398 -0.02227783
vt 0 0.9805908
vt -5.005398 0.9777222

vn -0.0005731097 0.002631246 0.9999964
vn -1 0 0
vn 0.0005731097 -0.002631246 -0.9999964
vn 1 0 0
vn 0 1 0
vn 0 -1 0

usemtl Red
f 283/777/162 284/778/162 282/776/162 281/775/162
f 284/781/163 286/782/163 285/780/163 282/779/163
f 286/785/164 288/786/164 287/784/164 285/783/164
f 288/789/165 283/790/165 281/788/165 287/787/165
f 288/793/166 286/794/166 284/792/166 283/791/166
f 281/797/167 282/798/167 285/796/167 287/795/167

g Wall 1
v 27.39735 24.098 -251.0894
v -15.60711 24.098 -251.0916
v 27.39733 38.13208 -251.0893
v -15.60713 38.13208 -251.0915
v -16.60649 24.098 -251.0989
v -16.59914 24.098 -252.0989
v -16.60651 38.13208 -251.0989
v -16.59918 38.13208 -252.0988
v -15.59975 24.098 -252.0916
v 27.40471 24.098 -252.0894
v -15.59978 38.13208 -252.0915
v 27.40469 38.13208 -252.0893
v 28.41141 24.098 -252.0819
v 28.40405 24.098 -251.082
v 28.41139 38.13208 -252.0819
v 28.40403 38.13208 -251.0819
v -67.25577 38.13208 -183.2502
v -67.25574 24.098 -183.2503
v -68.26242 38.55817 -182.2715
v -68.26238 24.098 -182.2716
v -15.6184 38.13208 -236.1133
v -15.61836 24.098 -236.1134
v -16.93027 38.13208 -236.1229
v -16.93025 24.098 -236.123
v -67.25566 38.13208 -183.2642
v -67.25563 24.098 -183.2642
v -68.25507 38.55817 -183.2715
v -68.25503 24.098 -183.2716
v -200.2972 24.098 -238.0871
v -200.2973 38.13208 -238.0871
v -200.2997 24.098 -237.7581
v -200.2997 38.13208 -237.7581
v -144.2619 24.098 -183.2093
v -144.262 38.55817 -183.2092
v -144.1351 24.098 -182.2083
v -144.1291 38.55817 -183.0216
v -199.2559 24.098 -238.0795
v -199.2559 38.65761 -238.0795
v -199.2632 24.098 -237.0795
v -199.2573 38.13208 -237.8928
v -199.3 24.098 -262.0711
v -199.3001 38.65761 -262.071
v -200.3414 24.098 -262.0786
v -200.3414 38.13208 -262.0786
v 27.37265 24.098 -206.0674
v 27.37263 38.13208 -206.0673
v 28.37936 24.098 -206.0599
v 28.37934 38.13208 -206.0599
v 27.37999 24.098 -207.0646
v 27.37997 38.13208 -207.0646
v 28.57122 24.098 -232.1357
v 28.57119 38.13208 -232.1357
v 114.4802 38.13208 -207.0798
v 114.4803 24.098 -207.0798
v 114.4729 38.13208 -206.0825
v 114.473 24.098 -206.0825
v 113.5498 38.13208 -232.1665
v 113.5499 24.098 -232.1665
v 113.358 38.13208 -206.0907
v 113.358 24.098 -206.0907
v 113.3416 38.12128 -278.1428
v 113.3417 31.20453 -278.1429
v 114.4541 38.11169 -278.2209
v 114.4542 31.19494 -278.221
v 113.4244 38.13208 -274.0755
v 113.4244 24.098 -274.0755
v 114.5393 38.13208 -274.0673
v 114.5394 24.098 -274.0674
v 113.4272 38.12128 -274.0441
v 113.4273 31.20453 -274.0441
v 114.5397 38.11169 -274.1222
v 114.5398 31.19494 -274.1223

vt -0.007306514 3.054318E-06
vt -43.01176 3.054318E-06
vt -0.007329783 14.03408
vt -43.01179 14.03408
vt 1.314079 7.176458E-05
vt 0.3140799 7.176458E-05
vt 1.314124 14.03415
vt 0.3141233 14.03415
vt 43.00446 -4.589062E-14
vt 0 0
vt 43.00449 14.03408
vt 2.121999E-05 14.03408
vt -1 -1.436641E-06
vt -1.000045 14.03408
vt 2.295499E-05 1.000043
vt 43.00334 1.314257
vt 43.00334 0.3142582
vt -43.00331 0.3142136
vt -43.00331 1.314213
vt -44.00272 1.314247
vt -44.00272 0.3142478
vt -115.8572 14.03407
vt -115.8571 -1.321408E-05
vt -117.2612 14.46016
vt -117.2611 -1.321409E-05
vt 43.00333 9.935175E-07
vt 43.00335 14.03408
vt 44.00274 9.935175E-07
vt 44.00278 14.03408
vt 44.00277 0.3142912
vt 44.00274 1.314291
vt -1.030161 14.03416
vt -1.030117 8.273384E-05
vt -16.00838 14.03416
vt -16.00834 8.273382E-05
vt 44.2163 16.2922
vt 42.9044 16.29215
vt -42.90435 16.29211
vt -44.21628 16.29215
vt 1.941461 6.972696E-05
vt 1.941506 14.03415
vt 16.92089 6.972696E-05
vt 16.92093 14.03415
vt -41.49408 14.03408
vt -41.49402 -2.767538E-07
vt -115.3821 14.03408
vt -115.382 -2.767539E-07
vt 44.2163 16.40402
vt 42.90439 16.40397
vt 95.15083 69.63334
vt 94.15141 69.6299
vt -94.15138 69.51974
vt -95.1508 69.51975
vt 42.34098 -2.227057E-05
vt 42.34103 14.03406
vt 116.0126 -2.227057E-05
vt 116.0126 14.46015
vt -69.51978 14.03429
vt -69.51974 0.0002047353
vt -69.53375 14.03429
vt -69.53371 0.0002047353
vt 93.19916 69.51981
vt 92.11269 69.51978
vt 93.19916 70.51984
vt 92.11269 69.53375
vt -94.15138 69.53371
vt -95.1508 70.51978
vt 15.67721 0.0007423621
vt 15.67725 14.03482
vt 16.00625 0.0007423621
vt 16.0063 14.03482
vt 95.71607 0.0002886507
vt 95.71611 14.46046
vt 171.723 0.0002886507
vt 171.7231 14.46046
vt -171.021 71.14127
vt -171.1552 70.14125
vt 95.15084 69.51981
vt 95.15084 70.51984
vt 171.1553 70.14131
vt 171.021 70.32801
vt -94.97223 14.46047
vt -94.97219 0.0002991436
vt -170.8426 14.46047
vt -170.8405 0.000302582
vt 72.87258 0.0008890275
vt 72.87257 14.46106
vt 150.5583 0.0008890275
vt 150.5583 14.5605
vt -226.5513 16.67718
vt -226.5514 15.67715
vt 171.2407 70.19979
vt 171.1064 70.38649
vt 226.6365 15.73515
vt 226.6332 15.91954
vt -72.81432 7.630492
vt -72.24473 -6.841325
vt -150.5959 7.204059
vt -150.0262 -6.84201
vt 226.7713 -2.346539E-05
vt 226.7714 14.55959
vt 227.8127 -2.346539E-05
vt 227.8128 14.03406
vt -227.5927 16.00625
vt -227.5927 15.67721
vt -220.2316 -4.544068
vt -220.1986 -5.100805
vt -221.2566 -5.100805
vt -221.1985 -5.207716
vt -226.6121 14.86922
vt -226.7222 0.812025
vt -227.6632 14.86922
vt -227.6631 0.8582156
vt -13.59283 0.0009584407
vt -13.59289 14.56057
vt 10.39876 0.0009584407
vt 10.39872 14.56057
vt -227.8134 -8.313342
vt -226.772 -8.31343
vt 195.6961 15.20021
vt 196.8625 15.20026
vt 195.8931 -8.790585
vt 197.0596 -8.790541
vt 13.58306 14.03483
vt 13.58302 0.0007491752
vt -10.40855 14.03483
vt -10.40854 0.0007491752
vt 1.00673 1.800741E-06
vt 1.00673 1.000001
vt -1.00671 14.03408
vt -1.00673 -1.317575E-12
vt 0.3067341 0.0001462968
vt 0.3067123 14.03423
vt 1.313467 0.0001462968
vt 1.313445 14.03423
vt -1.006708 1.000045
vt 0.9999758 1.153803E-08
vt 1.000019 14.03408
vt 45.02472 -1.895811E-06
vt 45.02477 14.03408
vt 1.313289 19.94452
vt 0.3065583 45.02368
vt -0.3065364 45.02372
vt -1.313263 19.94456
vt -1.016202 14.03408
vt -1.016158 -1.590128E-06
vt -19.9632 14.03408
vt -19.96316 -3.497483E-06
vt 45.02368 -2.384426E-06
vt 45.02372 14.03408
vt 46.021 -4.291775E-06
vt 46.02105 14.03408
vt 1.313293 46.021
vt 0.3065598 46.021
vt -0.3065379 46.02105
vt -1.313271 46.02105
vt -44.36969 14.03375
vt -44.36965 -0.0003326138
vt -45.36702 14.03375
vt -45.36697 -0.000334521
vt -1.159249 14.03414
vt -1.159275 6.018369E-05
vt -86.13788 14.03414
vt -86.13793 6.01837E-05
vt -86.28938 45.365
vt -86.28936 19.28851
vt 86.28941 19.28847
vt 86.2894 45.36496
vt 0.9579644 0.000133257
vt 0.9579423 14.03422
vt 85.9366 0.000133257
vt 85.93658 14.03422
vt -87.55094 14.0232
vt -87.55096 7.106447
vt -88.66618 14.01361
vt -88.66621 7.096859
vt -87.40437 45.36501
vt -87.40434 44.36768
vt 87.4044 44.36764
vt 87.40439 45.36496
vt 86.28971 0.0001441551
vt 86.2897 14.03423
vt 87.4047 0.0001460624
vt 87.40468 14.03423
vt 20.18066 14.03375
vt 20.18061 -0.0003321453
vt -21.72857 14.03375
vt -21.7286 -0.0003302378
vt -86.97054 -22.61845
vt -85.85556 -22.61847
vt 85.85558 -22.6185
vt 86.97057 -22.61851
vt -44.93275 -0.0003331912
vt -44.9328 14.03375
vt 22.0548 -0.0003312838
vt 22.05474 14.03375
vt 14.0856 14.03392
vt 14.08562 -0.0001598097
vt 14.05403 14.02312
vt 14.05406 7.106368
vt -86.97044 -16.3186
vt -85.85545 -16.31862
vt -86.97044 -16.37717
vt -85.85855 -16.29293
vt -85.85577 -0.09998582
vt -86.97076 -0.09998391
vt -85.85887 7.006611
vt -86.97077 6.996641
vt 22.65501 -0.0001870337
vt 22.65495 14.03389
vt 22.70992 7.09675
vt 22.70986 14.0135
vt -20.154 14.02298
vt -20.15403 7.106231
vt -24.25364 14.02299
vt -24.25367 7.106233
vt -86.84673 -22.66978
vt -85.73479 -22.58348
vt -86.73099 -26.7678
vt -85.61906 -26.68149
vt 85.79436 -22.58518
vt 86.9063 -22.67152
vt 85.67862 -26.68319
vt 86.79056 -26.76953
vt 20.20894 7.096531
vt 20.20888 14.01328
vt 24.30859 7.096533
vt 24.30853 14.01329

vn -5.118674E-05 -3.054399E-06 1
vn -0.9999729 -1.630912E-06 -0.007353885
vn 5.116671E-05 3.164857E-06 -1
vn 0.9999729 1.427037E-06 0.007357938
vn 0 1 0
vn 0 -1 0
vn 0.6970848 -7.946163E-07 0.7169887
vn 0.007323468 3.176802E-06 -0.9999732
vn 0.9999997 1.923549E-06 0.0007520067
vn -0.9997664 -1.585442E-06 -0.02161359
vn 0.71526 -1.411453E-08 0.6988586
vn 5.861959E-05 0.999968 -0.008004856
vn 0.1821771 0.9302729 0.1739685
vn 0.3642955 0.8605778 0.355942
vn -0.7173919 1.076797E-06 -0.6966699
vn 0.3921693 0.9198886 0.002885542
vn -0.0008191844 4.199203E-06 -0.9999996
vn -0.009886046 -4.227572E-06 0.9999511
vn -0.004526904 0.02807337 0.9991865
vn 0.0008322378 0.05615097 0.9984219
vn 0.7063102 5.229258E-06 -0.7079025
vn 0.006164556 0.9999715 -0.004366202
vn -0.3393256 0.6227367 0.3408753
vn -0.6848158 0.2455019 0.6861168
vn -0.7050407 0.04011149 0.7080315
vn -0.7049454 0.0407224 0.7080913
vn -0.7048503 0.04133331 0.7081509
vn -0.1733736 0.3300898 0.9278914
vn -0.0866868 0.6650449 0.4639457
vn 0.12796 0.05732151 0.9901215
vn -0.2098974 0.02865856 0.9133802
vn -0.5477548 -4.39431E-06 0.8366389
vn 0.9999983 4.228055E-06 -0.00183964
vn -0.45055 0.8927508 0.0008291356
vn -0.9999983 -3.289791E-06 0.001840906
vn -0.007361489 -3.261805E-06 0.9999729
vn -1 -1.656973E-06 -0.0003943924
vn 0.9999611 1.605511E-06 -0.008822445
vn -0.0003624615 3.111699E-06 -0.9999999
vn 0.0003624606 -2.977893E-06 0.9999999
vn -0.07005332 4.142796E-06 -0.9975433
vn -0.9999956 -3.836179E-06 0.00299335
vn 0.9958701 1.823051E-06 -0.09079038
vn 0.9958315 2.776257E-06 -0.09121166
vn 0.9957929 3.729463E-06 -0.09163295
vn 0.002568275 0.9374617 -0.3480789
vn -0.01410711 -0.004354835 -0.3351388
vn -0.03078249 -0.9461714 -0.3221987
vn 0.007349067 0.004420677 -0.9999632
vn -0.03139667 -0.001646626 -0.9987352
vn -0.0701424 -0.007713928 -0.9975072
vn 0.9999698 2.172708E-06 0.007777427
vn -0.9997821 -3.432342E-06 0.02087752
vn 0.0086075 0.9999629 -0.0001788117
vn -0.008605691 -0.9999629 0.0001792393
vn 0.9997821 4.659502E-06 -0.0208775

usemtl Red
f 291/801/168 292/802/168 290/800/168 289/799/168
f 299/809/170 300/810/170 298/808/170 297/807/170
f 303/810/171 304/812/171 302/811/171 301/808/171
f 300/808/172 299/815/172 292/814/172 291/813/172
f 289/813/173 290/817/173 297/816/173 298/808/173
f 293/818/173 294/819/173 297/816/173 290/817/173
f 307/822/174 308/823/174 306/821/174 305/820/174
f 294/826/175 296/827/175 299/825/175 297/824/175
f 296/828/172 295/829/172 292/814/172 299/815/172
f 309/832/176 310/833/176 290/831/176 292/830/176
f 311/834/172 309/835/172 292/814/172 295/829/172
f 310/836/173 312/837/173 293/818/173 290/817/173
f 313/844/178 314/845/178 310/843/178 309/842/178
f 315/848/180 313/849/181 309/847/180 311/846/179
f 314/850/173 316/851/173 312/837/173 310/836/173
f 305/858/171 306/859/171 314/857/171 313/856/171
f 307/862/183 305/863/183 313/861/183 315/860/183
f 306/864/173 308/865/173 316/851/173 314/850/173
f 319/868/169 320/869/169 318/867/169 317/866/169
f 323/874/173 321/875/173 316/851/173 308/865/173
f 322/878/172 324/879/172 307/877/172 315/876/172
f 324/882/186 323/883/187 308/881/186 307/880/185
f 327/888/173 325/889/173 321/875/173 323/874/173
f 328/896/193 327/897/194 323/895/193 324/894/192
f 331/900/175 332/901/175 330/899/175 329/898/175
f 319/902/173 317/903/173 325/889/173 327/888/173
f 318/906/196 320/907/172 328/905/196 326/904/195
f 320/910/198 319/911/199 327/909/198 328/908/197
f 331/916/173 329/917/173 325/889/173 317/903/173
f 330/920/201 332/921/201 318/919/201 326/918/201
f 332/924/202 331/925/202 317/923/202 318/922/202
f 301/926/173 302/927/173 289/813/173 298/808/173
f 303/928/175 301/929/175 298/808/175 300/810/175
f 335/932/203 336/933/203 334/931/203 333/930/203
f 304/934/172 303/929/172 300/808/172 291/813/172
f 337/937/204 338/938/204 291/936/204 289/935/204
f 339/939/173 337/940/173 289/813/173 302/927/173
f 338/941/172 340/942/172 304/934/172 291/813/172
f 340/945/205 339/946/205 302/944/205 304/943/205
f 333/949/169 334/950/169 338/948/169 337/947/169
f 335/951/173 333/952/173 337/940/173 339/939/173
f 334/953/172 336/954/172 340/942/172 338/941/172
f 343/957/171 344/958/171 342/956/171 341/955/171
f 345/961/206 346/962/206 339/960/206 340/959/206
f 347/963/172 345/964/172 340/942/172 336/954/172
f 346/965/173 348/966/173 335/951/173 339/939/173
f 348/969/207 347/970/207 336/968/207 335/967/207
f 351/973/208 352/974/208 350/972/208 349/971/208
f 343/975/172 341/976/172 345/964/172 347/963/172
f 342/977/173 344/978/173 348/966/173 346/965/173
f 344/981/203 343/982/203 347/980/203 348/979/203
f 353/985/209 354/986/209 346/984/209 345/983/209
f 355/987/172 353/988/172 345/964/172 341/976/172
f 354/989/173 356/990/173 342/977/173 346/965/173
f 356/993/176 355/994/176 341/992/176 342/991/176
f 357/997/211 358/998/212 354/996/211 353/995/210
f 359/1001/214 357/1002/215 353/1000/214 355/999/213
f 358/1005/217 360/1006/218 356/1004/217 354/1003/216
f 360/1009/219 359/1010/171 355/1008/219 356/1007/219
f 349/1013/220 350/1014/220 358/1012/220 357/1011/220
f 351/1017/221 349/1018/221 357/1016/221 359/1015/221
f 350/1021/222 352/1022/222 360/1020/222 358/1019/222
f 352/1025/223 351/1026/223 359/1024/223 360/1023/223

usemtl Red
f 295/805/169 296/806/169 294/804/169 293/803/169
f 312/840/177 311/841/177 295/839/177 293/838/177
f 316/854/182 315/855/182 311/853/182 312/852/182
f 321/872/184 322/873/184 315/871/184 316/870/184
f 325/886/188 326/887/188 322/885/188 321/884/188
f 326/892/190 328/893/191 324/891/190 322/890/189
f 329/914/200 330/915/200 326/913/200 325/912/200

g Wall 2
v 27.37864 24.091 -300.0938
v 26.37869 24.091 -300.1046
v 27.37861 38.12508 -300.0938
v 26.37867 38.12508 -300.1047
v -15.5926 24.091 -298.741
v -15.56699 24.091 -301.0893
v -15.59262 38.12508 -298.7411
v -15.567 38.12508 -301.0894
v 26.3896 24.091 -301.1046
v 27.38954 24.091 -301.0937
v 26.38958 38.12508 -301.1047
v 27.38952 38.12508 -301.0938
v 28.40028 24.091 -301.0827
v 28.38938 24.091 -300.0828
v 28.40026 38.12508 -301.0828
v 28.38936 38.12508 -300.0829
v -14.38287 24.091 -298.7277
v -14.35726 24.091 -301.076
v -14.38289 38.12508 -298.7278
v -14.35727 38.12508 -301.0761
v -14.21498 24.091 -314.1187
v -14.21501 38.12508 -314.1188
v -15.42471 24.091 -314.132
v -15.42472 38.12508 -314.132
v -14.22626 24.091 -313.0851
v -14.22629 38.12508 -313.0851
v -15.43385 24.091 -313.2946
v -15.43386 38.12508 -313.2947
v -199.7307 38.12508 -312.9172
v -199.7307 24.091 -312.9171
v -198.685 38.12508 -313.9381
v -198.6851 24.091 -313.938
v -69.17333 38.12508 -367.4999
v -69.17331 24.091 -367.4999
v -69.35577 38.12508 -368.5357
v -69.35575 24.091 -368.5357
v -144.5903 38.12508 -368.856
v -144.5903 24.091 -368.856
v -144.9331 38.12508 -369.8936
v -144.9331 24.091 -369.8935
v -198.5394 38.12508 -312.9324
v -198.5394 24.091 -312.9324
v -198.5866 38.12508 -313.9652
v -198.5867 24.091 -313.9651
v -199.0952 38.12508 -290.0787
v -199.0952 24.091 -290.0786
v -200.2865 38.12508 -290.0635
v -200.2865 24.091 -290.0634
v -198.6885 38.12508 -310.0259
v -198.6885 24.091 -310.0258
v -199.8798 38.12508 -310.0106
v -199.8798 24.091 -310.0105
v 27.44535 38.12507 -346.1014
v 27.44537 24.09099 -346.1013
v 28.45609 38.12507 -346.0905
v 28.45611 24.09099 -346.0903
v 27.4343 38.12507 -345.0845
v 27.43432 24.091 -345.0844
v 28.15313 38.12507 -318.3094
v 28.15315 24.091 -318.3092
v 114.467 24.091 -345.0846
v 114.467 38.12507 -345.0847
v 114.4781 24.09099 -346.1015
v 114.4781 38.12507 -346.1016
v 113.0787 24.091 -318.3324
v 113.0787 38.12507 -318.3325
v 113.3817 24.09099 -346.1134
v 113.3817 38.12507 -346.1136
v 113.3362 24.091 -278.1327
v 113.3362 38.12508 -278.1328
v 114.4326 24.091 -278.1207
v 114.4325 38.12508 -278.1208

vt 0 -6.532096E-06
vt -1 -6.532096E-06
vt -2.132487E-05 14.03407
vt -1.000023 14.03407
vt 2.821237 4.670149E-05
vt 0.4727634 4.670149E-05
vt 2.821146 14.03412
vt 0.4726714 14.03412
vt 1 0
vt 1.000022 14.03408
vt -0.9999211 -1.811654E-06
vt -0.9998282 14.03407
vt 2.132487E-05 0.9999083
vt 1.000023 0.9999087
vt 0 1
vt -1 1
vt -41.74412 2.821426
vt -41.74413 0.4729491
vt -1.043681 14.03407
vt -1.043662 -6.268805E-06
vt -41.8285 14.03407
vt -41.82848 -6.268805E-06
vt 0.9999326 6.425241E-08
vt 0.999954 14.03408
vt 41.74681 6.425285E-08
vt 41.74681 14.03408
vt 41.74414 0.4728569
vt 41.74414 2.821335
vt -42.95393 2.821377
vt -42.95393 0.472903
vt -41.74403 14.03406
vt -41.74401 -1.836893E-05
vt -42.95383 14.03406
vt -42.95381 -1.836893E-05
vt 41.74427 2.904195E-05
vt 41.74429 14.03411
vt 42.95407 2.904195E-05
vt 42.95407 14.03411
vt 42.95394 0.472811
vt 42.95394 2.821285
vt -0.4730021 2.269386E-05
vt -0.47291 14.0341
vt 11.53677 2.269386E-05
vt 11.5368 14.0341
vt -42.95392 -11.73311
vt -41.74411 -11.53682
vt 41.74414 -11.53685
vt 42.95392 -11.7332
vt -11.73313 14.0341
vt -11.73304 2.335164E-05
vt 12.57021 7.942812E-05
vt 12.57025 14.03416
vt -42.95391 -12.57054
vt -41.74411 -12.57052
vt 41.74413 -12.57055
vt 42.95391 -12.5706
vt 154.2526 14.03471
vt 154.2527 0.0006353608
vt 152.7912 14.03471
vt 152.7913 0.0006353608
vt -38.81432 14.03398
vt -38.81425 -9.7153E-05
vt -115.1435 14.03398
vt -115.1435 -9.715266E-05
vt 97.47512 -66.38284
vt 97.28139 -65.3491
vt -97.28137 -65.3491
vt -97.4751 -66.38284
vt 39.40145 -6.267749E-05
vt 39.4015 14.03401
vt 116.0064 -6.267749E-05
vt 116.0065 14.03401
vt -97.7411 14.03408
vt -97.74108 -7.457613E-07
vt -173.1702 14.03408
vt -173.1702 -7.457613E-07
vt 173.0627 -66.91637
vt 172.7086 -65.88253
vt -172.7086 -65.88253
vt -173.0627 -66.91628
vt 97.94114 -7.560772E-07
vt 97.94116 14.03408
vt 173.5307 -7.560772E-07
vt 173.5307 14.03408
vt -70.63508 14.03408
vt -70.63508 0
vt -148.3393 14.03408
vt -148.3393 0
vt 226.1031 -10.40617
vt 226.0446 -9.373878
vt -226.0446 -9.373878
vt -226.1031 -10.40607
vt 69.64734 0.0007678199
vt 69.64728 14.03484
vt 147.1502 0.0007678198
vt 147.1501 14.03484
vt -226.6072 14.03402
vt -226.6072 -5.292559E-05
vt -227.7986 14.03402
vt -227.7986 -5.292558E-05
vt 226.2012 -10.37799
vt 227.2357 -9.345732
vt -227.2357 -9.345641
vt -226.2012 -10.3779
vt 214.4502 0.0004275231
vt 214.4502 14.0345
vt 214.5523 0.0004275231
vt 214.5522 14.0345
vt 0.2488867 14.03408
vt 0.2488867 0
vt -2.661433 14.03408
vt -2.661525 0
vt 227.3531 -6.437686
vt 226.162 -6.465928
vt -226.162 -6.465836
vt -227.3531 -6.437596
vt -0.1741164 -0.0001878645
vt -0.1742076 14.03389
vt 2.736296 -0.0001878645
vt 2.736205 14.03389
vt 4.321166 14.03384
vt 4.321074 -0.0002319502
vt -15.63013 14.03384
vt -15.63022 -0.0002319502
vt 227.5422 13.51272
vt 226.3512 13.48447
vt -226.3512 13.48457
vt -227.5423 13.51281
vt -4.281716 -0.0004807029
vt -4.281806 14.0336
vt 15.66958 -0.0004807029
vt 15.66949 14.0336
vt 1.010801 -6.452732E-05
vt 1.010801 0.9999217
vt 0.4315025 14.03447
vt 0.4314829 0.0003979807
vt -0.5792981 14.03447
vt -0.5793179 0.0003979804
vt 1.010702 14.03407
vt -1.010779 0.9998288
vt -1.010776 -0.000127111
vt -43.99084 14.03407
vt -43.99075 -1.907346E-06
vt -0.5757822 -17.22298
vt 0.4350319 -43.98868
vt -0.4350105 -43.98859
vt 0.5757981 -17.22286
vt -0.02545757 -1.696721E-06
vt -0.02539437 14.03407
vt 17.20283 -3.60407E-06
vt 17.20296 14.03407
vt -43.9887 14.03407
vt -43.98861 -1.247571E-06
vt -45.00566 14.03407
vt -45.00553 -5.062266E-06
vt -0.5756803 -45.00572
vt 0.4351203 -45.00564
vt -0.4350497 -45.00552
vt 0.5757511 -45.00557
vt 44.93284 -0.0001431017
vt 44.93293 14.03393
vt 45.94973 -0.0001469164
vt 45.94988 14.03393
vt 0.7682937 0.0001503817
vt 0.7682793 14.03423
vt 85.69388 0.0001503817
vt 85.69386 14.03423
vt 85.49602 -45.95494
vt 85.49607 -18.17223
vt -85.49606 -18.17235
vt -85.49603 -45.95509
vt -1.078806 14.03457
vt -1.078824 0.0004964168
vt -86.00441 14.03457
vt -86.0044 0.0004964169
vt 86.19153 -0.0001926535
vt 86.19151 14.03388
vt 87.28799 -0.0001926535
vt 87.28796 14.03388
vt 86.59247 -45.95493
vt 86.59253 -44.93803
vt -86.59255 -44.93812
vt -86.59253 -45.95507
vt -85.49554 14.03457
vt -85.49554 0.0004939409
vt -86.592 14.03457
vt -86.59199 0.0004939409
vt -16.68956 -8.205845E-05
vt -16.68968 14.03399
vt 23.51098 -7.824375E-05
vt 23.51085 14.034
vt 87.28841 22.02226
vt 86.19195 22.02228
vt -86.19196 22.02216
vt -87.28841 22.02217
vt 44.03585 14.03394
vt 44.03576 -0.0001379758
vt -22.92806 14.03394
vt -22.92816 -0.0001341612

vn -0.01090651 6.532096E-06 0.9999405
vn -0.9999406 -1.087246E-06 -0.01090326
vn 0.01090651 -5.517592E-06 -0.9999405
vn 0.9999405 1.792294E-06 0.01090711
vn 0 1 0
vn 0 -1 0
vn 0.03376114 6.568714E-06 0.9994299
vn -0.0007005365 -5.535658E-06 -0.9999998
vn -0.6985778 -3.801795E-06 -0.7155341
vn -0.7101511 4.452259E-06 0.7040492
vn 0.7101853 -2.952735E-06 -0.7040147
vn -0.01797778 -1.153367E-08 0.9998384
vn 0.01796278 1.15092E-08 -0.9998387
vn 0.7196978 0 0.6942875
vn -0.7216299 -4.464541E-06 -0.692279
vn 0.01279971 6.521769E-06 0.9999181
vn -0.2654802 -5.90487E-06 -0.9641163
vn -0.2655243 -5.571925E-06 -0.9641042
vn 0.9986869 0 0.0512296
vn -0.9986873 8.260403E-07 -0.05122307
vn 0.9997921 -1.025361E-06 0.02038747
vn -0.9997921 2.113873E-06 -0.02038671
vn -0.9999995 -1.557928E-06 -0.001017916
vn 0.9998971 1.679123E-06 -0.01434482
vn 0.0002723443 8.846123E-06 1
vn -0.0002723183 -1.115955E-05 -1
vn -0.9999795 -9.341857E-07 0.006404239
vn 0.9999999 1.563021E-06 0.0005147188

usemtl Red
f 363/1029/224 364/1030/224 362/1028/224 361/1027/224
f 371/1036/226 372/1029/226 370/1027/226 369/1035/226
f 375/1029/227 376/1038/227 374/1037/227 373/1027/227
f 372/1027/228 371/1035/228 364/1040/228 363/1039/228
f 361/1041/229 362/1042/229 369/1028/229 370/1027/229
f 377/1043/229 378/1044/229 369/1028/229 362/1042/229
f 379/1047/230 377/1048/230 362/1046/230 364/1045/230
f 378/1051/231 380/1052/231 371/1050/231 369/1049/231
f 380/1053/228 379/1054/228 364/1040/228 371/1035/228
f 365/1055/229 366/1056/229 378/1044/229 377/1043/229
f 367/1059/224 365/1060/224 377/1058/224 379/1057/224
f 383/1063/226 384/1064/226 382/1062/226 381/1061/226
f 368/1065/228 367/1066/228 379/1054/228 380/1053/228
f 385/1069/227 386/1070/227 380/1068/227 378/1067/227
f 387/1071/229 385/1072/229 378/1044/229 366/1056/229
f 386/1073/228 388/1074/228 368/1065/228 380/1053/228
f 381/1077/227 382/1078/227 386/1070/227 385/1069/227
f 383/1079/229 381/1080/229 385/1072/229 387/1071/229
f 382/1081/228 384/1082/228 388/1074/228 386/1073/228
f 391/1085/232 392/1086/232 390/1084/232 389/1083/232
f 395/1091/228 393/1092/228 388/1074/228 384/1082/228
f 394/1093/229 396/1094/229 383/1079/229 387/1071/229
f 396/1097/234 395/1098/234 384/1096/234 383/1095/234
f 398/1105/229 400/1106/229 396/1094/229 394/1093/229
f 400/1109/236 399/1110/236 395/1108/236 396/1107/236
f 403/1115/228 401/1116/228 397/1104/228 399/1103/228
f 402/1117/229 404/1118/229 400/1106/229 398/1105/229
f 404/1121/238 403/1122/238 399/1120/238 400/1119/238
f 407/1125/239 408/1126/239 406/1124/239 405/1123/239
f 391/1127/228 389/1128/228 401/1116/228 403/1115/228
f 390/1129/229 392/1130/229 404/1118/229 402/1117/229
f 392/1133/241 391/1134/241 403/1132/241 404/1131/240
f 409/1137/242 410/1138/242 402/1136/242 401/1135/242
f 411/1139/228 409/1140/228 401/1116/228 389/1128/228
f 410/1141/229 412/1142/229 390/1129/229 402/1117/229
f 412/1145/243 411/1146/243 389/1144/243 390/1143/243
f 405/1149/244 406/1150/244 410/1148/244 409/1147/244
f 407/1151/228 405/1152/228 409/1140/228 411/1139/228
f 406/1153/229 408/1154/229 412/1142/229 410/1141/229
f 408/1157/245 407/1158/245 411/1156/245 412/1155/245
f 373/1159/229 374/1160/229 361/1041/229 370/1027/229
f 415/1163/226 416/1164/226 414/1162/226 413/1161/226
f 374/1159/224 376/1165/224 363/1029/224 361/1027/224
f 376/1166/228 375/1167/228 372/1027/228 363/1039/228
f 417/1168/246 418/1169/246 370/1027/246 372/1029/246
f 419/1170/228 417/1171/228 372/1027/228 375/1167/228
f 418/1172/229 420/1173/229 373/1159/229 370/1027/229
f 420/1176/247 419/1177/247 375/1175/247 373/1174/247
f 413/1180/225 414/1181/225 418/1179/225 417/1178/225
f 415/1182/228 413/1183/228 417/1171/228 419/1170/228
f 414/1184/229 416/1185/229 420/1173/229 418/1172/229
f 423/1188/227 424/1189/227 422/1187/227 421/1186/227
f 425/1192/248 426/1193/248 419/1191/248 420/1190/248
f 427/1194/229 425/1195/229 420/1173/229 416/1185/229
f 426/1196/228 428/1197/228 415/1182/228 419/1170/228
f 428/1200/249 427/1201/249 416/1199/249 415/1198/249
f 431/1204/224 432/1205/224 430/1203/224 429/1202/224
f 423/1206/229 421/1207/229 425/1195/229 427/1194/229
f 422/1208/228 424/1209/228 428/1197/228 426/1196/228
f 424/1212/226 423/1213/226 427/1211/226 428/1210/226
f 429/1216/250 430/1217/250 426/1215/250 425/1214/250
f 431/1218/229 429/1219/229 425/1195/229 421/1207/229
f 430/1220/228 432/1221/228 422/1208/228 426/1196/228
f 432/1224/251 431/1225/251 421/1223/251 422/1222/251

usemtl Red
f 367/1033/225 368/1034/225 366/1032/225 365/1031/225
f 388/1075/225 387/1076/225 366/1032/225 368/1034/225
f 393/1089/233 394/1090/233 387/1088/233 388/1087/233
f 397/1101/235 398/1102/235 394/1100/235 393/1099/235
f 399/1103/228 397/1104/228 393/1092/228 395/1091/228
f 401/1113/237 402/1114/237 398/1112/237 397/1111/237

g Cube (3)
v -200.3512 23.107 -261.0874
v -201.3512 23.107 -261.0905
v -200.3512 24.107 -261.0874
v -201.3512 24.107 -261.0905
v -260.3868 23.107 -262.2582
v -260.3011 23.107 -290.291
v -260.3868 24.107 -262.2582
v -260.3011 24.107 -290.291
v -201.2594 23.107 -291.1093
v -200.2594 23.107 -291.1062
v -201.2594 24.107 -291.1093
v -200.2594 24.107 -291.1062
v -200.2624 23.107 -290.1072
v -200.3482 23.107 -262.0744
v -200.2624 24.107 -290.1072
v -200.3482 24.107 -262.0744
v -201.3482 24.107 -262.0775
v -201.2624 24.107 -290.1103
v -201.2624 23.107 -290.1103
v -201.3482 23.107 -262.0775
v -260.3898 23.107 -261.2713
v -260.3898 24.107 -261.2713
v -201.3482 38.12299 -262.0775
v -200.3482 38.12299 -262.0744
v -201.3512 38.12299 -261.0905
v -200.3512 38.12299 -261.0874
v -260.298 24.107 -291.29
v -260.298 23.107 -291.29
v -200.2624 38.15347 -290.1072
v -201.2624 38.15347 -290.1103
v -200.2594 38.15347 -291.1062
v -201.2594 38.15347 -291.1093
v -260.3011 38.15347 -290.291
v -260.298 38.15347 -291.29
v -260.3898 38.12299 -261.2712
v -260.3868 38.12299 -262.2582
v -259.2665 23.107 -290.2879
v -259.3523 23.107 -262.255
v -259.3553 23.107 -261.2681
v -259.2665 24.107 -290.2879
v -259.2665 38.15347 -290.2879
v -259.3523 24.107 -262.255
v -259.3523 39.28166 -262.2551
v -260.3868 39.28166 -262.2582
v -260.3011 39.28166 -290.291
v -259.2665 39.28166 -290.2879
v -259.2635 23.107 -291.2868
v -259.2635 24.107 -291.2868
v -259.2635 38.15347 -291.2868
v -259.2665 39.28445 -290.2879
v -260.3011 39.28445 -290.291
v -260.298 39.28445 -291.29
v -259.2635 39.28445 -291.2868
v -259.3553 24.107 -261.2681
v -259.3553 38.12299 -261.2681
v -259.3523 38.12299 -262.255
v -259.3553 39.30967 -261.2681
v -260.3898 39.30967 -261.2712
v -260.3868 39.30967 -262.2582
v -259.3523 39.30967 -262.255
v -260.3011 38.09498 -290.291
v -259.2665 38.09498 -290.2879
v -260.3868 38.09498 -262.2583
v -259.3523 38.09498 -262.2551
v -198.7981 38.09498 -290.1005
v -199.3887 38.09498 -262.0738
v -199.0505 39.28166 -290.1035
v -199.1363 39.28166 -262.0708
v -199.3665 38.12299 -262.0714
v -199.3696 38.12299 -261.0845
v -199.3665 39.30967 -262.0714
v -199.3696 39.30967 -261.0845
v -199.2777 38.15347 -291.1032
v -199.2808 38.15347 -290.1043
v -199.2777 39.28445 -291.1032
v -199.2808 39.28445 -290.1043

vt 0.0005414012 0
vt -0.999454 0
vt 0.0005414012 1
vt -0.999454 1
vt 28.0328 0
vt -0.0001469476 0
vt 28.0328 1
vt -0.0001469476 1
vt 0.9999812 0
vt 0.9999812 1
vt -28.03299 0
vt -28.03299 1
vt -4.66084E-05 28.03299
vt 0.9999487 28.03297
vt 1 0
vt -1 0
vt -0.9999487 28.03297
vt 4.323823E-05 29.01996
vt -0.9999521 29.01994
vt -29.01996 1
vt -29.01996 0
vt 28.03409 0
vt 28.03409 1
vt 29.02105 0
vt 29.02105 1
vt 0.9999369 29.01994
vt -0.999994 -0.9989642
vt 3.307823E-06 -0.9989771
vt -0.9983078 1
vt -0.9983078 0
vt 0.9989771 0
vt 0.9989771 1
vt 0.999994 -0.9989642
vt -1 1
vt 7.01887E-06 15.04647
vt -0.9999903 15.04647
vt 0.9989771 15.04647
vt 0.0006634014 15.04647
vt -0.9983078 15.04647
vt 0.9999812 15.04647
vt 0.9994675 1
vt -0.0005278288 1
vt 0.9994523 15.01599
vt -0.0005430548 15.01599
vt 29.02105 0.9998693
vt 28.03409 0.9998693
vt 29.02106 15.01585
vt 28.03409 15.01585
vt -28.03299 15.01599
vt -29.01996 15.01599
vt 0.0005566272 15.01599
vt -0.9994387 15.01599
vt -59.00437 -3.266152E-05
vt -59.00432 28.03293
vt -60.03891 -2.4397E-05
vt -60.03886 28.03293
vt -59.00433 29.0199
vt -60.03888 29.01989
vt -59.00437 1
vt -59.00437 15.04647
vt -60.03891 1
vt -60.03891 15.04647
vt 59.00432 28.03293
vt 59.00437 -3.266152E-05
vt 60.03885 28.0329
vt 60.03891 -2.4397E-05
vt -59.00436 -0.9990039
vt -60.0389 -0.9989956
vt 59.00436 1
vt 60.0389 1
vt 59.00436 15.04647
vt 60.0389 15.04647
vt 59.00436 -0.9990039
vt 60.0389 -0.9989956
vt -0.9998199 15.01599
vt -0.9998351 1.000004
vt -59.00418 15.01599
vt -60.03873 15.01599
vt -0.9998351 0
vt 60.03874 15.01599
vt 59.0042 15.01599
vt 0.9998205 15.01599
vt 59.0043 29.0199
vt 60.03885 29.01991
vt 60.03891 14.98798
vt 59.00437 14.98798
vt 28.0328 0.9999836
vt -0.0001469476 0.9999836
vt 28.03276 14.98797
vt -0.0001469476 14.98797
vt -28.03278 14.98798
vt -59.00411 0.9999083
vt -60.03865 0.9999083
vt -59.00411 14.98789
vt -60.03865 14.98789
vt 60.03891 16.17466
vt 59.00437 16.17466
vt 28.03276 16.17466
vt -0.0001551178 16.17466
vt 0.02410292 14.35526
vt -28.00879 14.35526
vt 0.0218352 15.5685
vt -28.00652 15.46344
vt -59.00411 16.17466
vt -60.03865 16.17466
vt 60.03865 15.01635
vt 59.00411 15.01635
vt 60.03865 16.20303
vt 59.00411 16.20303
vt 29.0192 15.01599
vt 28.03223 15.01599
vt 29.01921 16.20267
vt 28.03225 16.20267
vt -28.03293 16.20267
vt -29.01991 16.20267
vt -59.00409 15.01636
vt -60.03863 15.01636
vt -59.00409 16.20304
vt -60.03863 16.20304
vt 0.0006634014 16.17745
vt -0.9983078 16.17745
vt -59.00437 16.17745
vt -60.03891 16.17745
vt 60.03889 16.17745
vt 59.00435 16.17745
vt 0.9990142 15.04647
vt 0.9990142 16.17745
vt 4.293424E-05 16.17745
vt 1.464337 0.00226882
vt 0.9594905 28.03062
vt -1.211888 16.17466
vt -1.464337 14.98798
vt -59.00537 14.98798
vt -59.00537 16.17466
vt 0.9584286 14.98798
vt 1.210893 16.17466
vt -1.211955 28.0329
vt -1.211888 -1.021723E-05
vt 0.9816363 -0.9990028
vt 0.9816247 -3.157173E-05
vt -0.9816363 16.17745
vt -0.9816363 15.04647
vt 0.9816247 15.04647
vt 0.9816247 16.17745
vt -0.9816247 -3.157173E-05
vt -0.9816363 -0.9990028
vt 0.9816825 28.03292
vt 0.9816944 29.01989
vt 59.00433 16.20267
vt -0.9816763 16.20267
vt -0.9816763 15.01599
vt 0.981687 15.01636
vt 0.981686 16.20304
vt -0.9816934 29.0199
vt -0.9816825 28.03292

vn -0.0030781 0 0.9999952
vn -0.9999953 0 -0.003058892
vn 0.003048059 0 -0.9999954
vn 0.9999953 0 0.003059271
vn 0 1 0
vn 0 -1 0
vn 0.9778947 0.2080798 0.02060827
vn 0.9779997 -5.923212E-06 0.01179992
vn 0.9781048 -0.2080916 0.002991565
vn 0.003080147 -0.0009562076 -0.9999943
vn 0.003098988 -0.001912415 -0.9999934
vn -0.003042052 -0.0009603455 0.9999945
vn -0.003061055 -0.001920691 0.9999935

usemtl Red
f 435/1228/252 436/1229/252 434/1227/252 433/1226/252
f 439/1232/253 440/1233/253 438/1231/253 437/1230/253
f 443/1235/254 444/1233/254 442/1231/254 441/1234/254
f 447/1233/255 448/1237/255 446/1236/255 445/1231/255
f 446/1238/257 452/1242/257 451/1241/257 445/1231/257
f 433/1243/257 434/1244/257 452/1242/257 446/1238/257
f 435/1245/255 433/1246/255 446/1236/255 448/1237/255
f 453/1249/253 454/1250/253 439/1248/253 437/1247/253
f 457/1251/256 458/1243/256 456/1238/256 455/1239/256
f 441/1252/257 442/1253/257 445/1231/257 451/1241/257
f 459/1254/253 460/1255/253 438/1226/253 440/1228/253
f 442/1256/255 444/1257/255 447/1233/255 445/1231/255
f 463/1253/256 464/1258/256 462/1234/256 461/1231/256
f 461/1260/252 462/1261/252 450/1259/252 447/1233/252
f 463/1262/255 461/1260/255 447/1233/255 444/1257/255
f 465/1263/253 466/1264/253 459/1254/253 440/1228/253
f 464/1265/254 463/1260/254 444/1233/254 443/1235/254
f 455/1268/254 456/1269/254 448/1267/254 449/1266/254
f 467/1272/253 468/1273/253 439/1271/253 454/1270/253
f 456/1274/255 458/1275/255 435/1245/255 448/1237/255
f 458/1276/252 457/1277/252 436/1229/252 435/1228/252
f 470/1279/257 469/1278/257 451/1241/257 452/1242/257
f 437/1281/257 438/1280/257 469/1278/257 470/1279/257
f 471/1282/257 470/1279/257 452/1242/257 434/1244/257
f 453/1283/257 437/1281/257 470/1279/257 471/1282/257
f 473/1285/252 472/1284/252 450/1259/252 462/1261/252
f 473/1285/252 465/1287/252 440/1286/252 472/1284/252
f 476/1290/256 475/1288/256 478/1289/256 477/1291/256
f 469/1278/257 479/1292/257 441/1252/257 451/1241/257
f 438/1280/257 460/1293/257 479/1292/257 469/1278/257
f 479/1289/254 480/1294/254 443/1235/254 441/1234/254
f 460/1291/254 459/1295/254 480/1294/254 479/1289/254
f 480/1294/254 481/1296/254 464/1265/254 443/1235/254
f 459/1295/254 466/1297/254 481/1296/254 480/1294/254
f 473/1289/256 462/1234/256 464/1258/256 481/1298/256
f 482/1289/256 485/1298/256 484/1299/256 483/1291/256
f 487/1302/252 486/1284/252 436/1301/252 457/1300/252
f 467/1303/252 454/1286/252 486/1284/252 487/1302/252
f 436/1301/252 486/1284/252 471/1278/252 434/1304/252
f 486/1284/252 454/1286/252 453/1280/252 471/1278/252
f 439/1295/254 468/1305/254 488/1306/254 474/1294/254
f 455/1307/254 449/1235/254 474/1294/254 488/1306/254
f 487/1308/256 457/1251/256 455/1239/256 488/1288/256
f 490/1309/256 489/1308/256 492/1288/256 491/1290/256
f 493/1310/254 494/1311/254 472/1294/254 440/1295/254
f 495/1314/253 493/1315/253 440/1313/253 439/1312/253
f 494/1315/255 496/1316/255 474/1237/255 472/1233/255
f 496/1319/252 495/1320/252 439/1318/252 474/1317/252
f 477/1321/254 478/1322/254 494/1311/254 493/1310/254
f 476/1323/253 477/1324/253 493/1315/253 495/1314/253
f 499/1327/259 500/1328/260 498/1326/259 497/1325/258
f 475/1329/252 476/1330/252 495/1320/252 496/1319/252
f 491/1333/254 492/1334/254 488/1332/254 468/1331/254
f 490/1337/253 491/1338/253 468/1336/253 467/1335/253
f 503/1339/255 504/1340/255 502/1275/255 501/1274/255
f 489/1343/252 490/1344/252 467/1342/252 487/1341/252
f 483/1345/253 484/1346/253 466/1264/253 465/1263/253
f 482/1347/252 483/1348/252 465/1287/252 473/1285/252
f 484/1349/254 485/1350/254 481/1296/254 466/1297/254
f 507/1352/255 508/1353/255 506/1260/255 505/1351/255
f 497/1354/257 498/1355/257 496/1279/257 494/1278/257
f 499/1356/261 497/1357/262 494/1311/261 478/1322/254
f 498/1360/263 500/1361/264 475/1359/263 496/1358/252
f 500/1362/256 499/1363/256 478/1289/256 475/1288/256
f 505/1364/257 506/1365/257 473/1278/257 481/1292/257
f 507/1366/254 505/1367/254 481/1296/254 485/1350/254
f 506/1368/252 508/1369/252 482/1347/252 473/1285/252
f 508/1370/256 507/1371/256 485/1298/256 482/1289/256
f 501/1372/257 502/1373/257 487/1282/257 488/1279/257
f 503/1375/254 501/1376/254 488/1306/254 492/1374/254
f 502/1377/252 504/1378/252 489/1343/252 487/1341/252
f 504/1379/256 503/1380/256 492/1288/256 489/1308/256

usemtl White
f 447/1231/256 450/1240/256 449/1239/256 448/1238/256
f 474/1288/256 449/1239/256 450/1240/256 472/1289/256

g PolyShape (1)
v -108.0674 126.44 -275.5146
v -107.6805 126.44 -275.8247
v -107.2574 126.44 -275.8135
v -106.9577 126.44 -275.5081
v -106.9642 126.44 -275.0748
v -107.6802 126.44 -274.7761
v -108.0754 126.44 -275.0943
v -107.2549 126.44 -274.7743
v -199.083 37.46147 -313.3389
v -144.8564 37.55092 -369.4999
v -69.13258 37.55092 -367.5829
v -15.29965 38.08594 -313.3779
v -16.87687 38.08594 -235.9889
v -144.349 38.21019 -183.1509
v -199.5536 38.0764 -238.0057
v -68.31222 38.23552 -183.2845

vt 93.19449 31.59178
vt 93.55924 31.2558
vt 93.98212 31.23804
vt 94.30199 31.52209
vt 94.32529 31.9549
vt 93.63144 32.302
vt 93.2153 32.01157
vt 94.05582 32.27457
vt 17.71679 -45.70943
vt 18.01597 -46.10493
vt -109.7869 -82.78347
vt -68.52033 -148.6646
vt 89.35384 -50.98229
vt 89.77638 -51.00688
vt 42.30229 -176.8572
vt 117.9181 -181.3312
vt 134.6271 8.260933
vt 134.8959 8.593737
vt 209.489 -102.0663
vt 257.4515 -42.60566
vt 139.1613 31.19582
vt 139.178 31.62893
vt 264.4502 -12.89998
vt 267.1312 64.45803
vt 34.11747 102.1963
vt 33.75057 101.8457
vt -34.22676 215.5688
vt -86.16502 157.8858
vt -4.744559 36.77985
vt -4.75948 36.35982
vt -129.9528 80.07901
vt -133.7478 4.837834
vt 100.2576 90.23629
vt 99.834 90.27435
vt 150.7789 213.1774
vt 75.07862 220.318
vt 136.8021 40.58786
vt 136.5849 40.94515
vt 263.7056 77.26687
vt 225.1805 140.0297

vn 0 -1 0
vn 0.4486347 -0.696804 0.5596347
vn 0.474868 -0.7075332 0.521166
vn 0.5011013 -0.7182624 0.4826973
vn -0.01844124 -0.7216073 0.692057
vn -0.01797822 -0.7217066 0.6919654
vn -0.4973453 -0.7172245 0.488095
vn -0.4934027 -0.7181898 0.4906466
vn -0.4894601 -0.7191553 0.4931982
vn -0.6961851 -0.7177879 -0.01033919
vn -0.6965858 -0.7173657 -0.01227203
vn -0.6969864 -0.7169436 -0.01420487
vn 0.4283585 -0.7304421 -0.531943
vn 0.4603306 -0.7236569 -0.5128182
vn 0.4923027 -0.7168717 -0.4936934
vn 0.697481 -0.7164798 0.01330752
vn 0.6971659 -0.7168117 0.01175726
vn 0.6968508 -0.7171435 0.010207
vn 0.002819806 -0.7193116 -0.6946818
vn 0.000920203 -0.7197214 -0.6942595
vn -0.0009794038 -0.7201312 -0.6938372
vn -0.4979895 -0.7209471 -0.4819145
vn -0.4975852 -0.7208079 -0.4825395
vn -0.4971809 -0.7206687 -0.4831644

usemtl Lighter_Black
f 516/1388/265 509/1381/265 513/1385/265
f 516/1388/265 514/1386/265 509/1381/265
f 509/1381/265 514/1386/265 515/1387/265
f 513/1385/265 509/1381/265 512/1384/265
f 509/1381/265 511/1383/265 512/1384/265
f 509/1381/265 510/1382/265 511/1383/265

usemtl Red
f 518/1395/270 519/1396/270 511/1394/270 510/1393/269
f 520/1403/275 521/1404/276 513/1402/275 512/1401/274
f 523/1411/281 517/1412/282 509/1410/281 515/1409/280
f 524/1415/284 522/1416/285 514/1414/284 516/1413/283

usemtl White
f 517/1391/267 518/1392/268 510/1390/267 509/1389/266
f 519/1399/272 520/1400/273 512/1398/272 511/1397/271
f 522/1407/278 523/1408/279 515/1406/278 514/1405/277
f 521/1419/287 524/1420/288 516/1418/287 513/1417/286

