# This file uses meters as units for non-parametric coordinates.

g default
v -0.403774 0.009021 0.686890
v 0.242424 0.009021 0.686890
v -0.403774 0.028856 0.686890
v 0.242424 0.028856 0.686890
v -0.403774 0.028856 -0.720436
v 0.242424 0.028856 -0.720436
v -0.403774 0.009021 -0.720436
v 0.242424 0.009021 -0.720436
v -0.369198 0.056362 0.639915
v 0.207848 0.056362 0.639915
v 0.207848 0.056362 -0.673466
v -0.369198 0.056362 -0.673466
v -0.369198 0.071763 0.639915
v 0.207848 0.071763 0.639915
v 0.207848 0.071763 -0.673466
v -0.369198 0.071763 -0.673466
v -0.310019 0.098433 0.586777
v 0.148668 0.098433 0.586777
v 0.148668 0.098433 -0.620319
v -0.310019 0.098433 -0.620319
v -0.310019 0.110567 0.586777
v 0.148668 0.110567 0.586777
v 0.148668 0.110567 -0.620319
v -0.310019 0.110567 -0.620319
v -0.288897 0.133362 0.531189
v 0.127546 0.133362 0.531189
v 0.127546 0.133362 -0.564737
v -0.288897 0.133362 -0.564737
v 0.030083 0.194389 0.360535
v 0.093132 0.214630 0.360535
v -0.265629 1.115509 0.360535
v -0.202581 1.135750 0.360535
v -0.265629 1.115509 -0.406619
v -0.202581 1.135750 -0.406619
v 0.030083 0.194389 -0.406619
v 0.093132 0.214630 -0.406619
v 0.076323 0.266989 -0.363011
v 0.076323 0.266989 0.316925
v -0.185772 1.083389 -0.363011
v -0.185772 1.083389 0.316925
v 0.054942 0.260124 -0.363011
v 0.054942 0.260124 0.316925
v -0.207151 1.076523 -0.363011
v -0.207151 1.076523 0.316925
v -0.265629 1.115509 -0.351480
v 0.030083 0.194389 -0.351480
v 0.076323 0.266989 -0.314141
v 0.054942 0.260124 -0.314141
v -0.207151 1.076523 -0.314141
v -0.185772 1.083389 -0.314141
v -0.265629 1.115509 0.303596
v 0.030083 0.194389 0.303596
v 0.076323 0.266989 0.266464
v 0.054942 0.260124 0.266464
v -0.207151 1.076523 0.266464
v -0.185772 1.083389 0.266464
v -0.000454 0.289511 0.360535
v -0.000454 0.289511 0.303596
v -0.000454 0.289511 -0.351480
v -0.000454 0.289511 -0.406619
v 0.049256 0.351295 -0.363011
v 0.027877 0.344433 -0.363011
v 0.027877 0.344433 -0.314141
v 0.027877 0.344433 0.266464
v 0.027877 0.344433 0.316925
v 0.049256 0.351295 0.316925
v -0.242674 1.044006 -0.406619
v -0.242674 1.044006 -0.351480
v -0.242674 1.044006 0.303596
v -0.242674 1.044006 0.360535
v -0.165426 1.020012 0.316925
v -0.186806 1.013153 0.316925
v -0.186806 1.013153 0.266464
v -0.186806 1.013153 -0.314141
v -0.186806 1.013153 -0.363011
v -0.165426 1.020012 -0.363011
v 0.033643 0.179987 0.372269
v 0.098619 0.200848 0.372269
v 0.067148 0.298880 0.372269
v 0.002171 0.278019 0.372269
v 0.033643 0.179987 0.313591
v 0.098619 0.200848 0.313591
v -0.271118 1.129288 0.372269
v -0.206141 1.150154 0.372269
v -0.206141 1.150154 0.313591
v -0.271118 1.129288 0.313591
v -0.247459 1.055595 0.372269
v -0.182483 1.076462 0.372269
v 0.002171 0.278019 -0.418355
v 0.067148 0.298880 -0.418355
v 0.098619 0.200848 -0.418355
v 0.033643 0.179987 -0.418355
v 0.098619 0.200848 -0.361529
v 0.033643 0.179987 -0.361529
v -0.206141 1.150154 -0.361529
v -0.271118 1.129288 -0.361529
v -0.206141 1.150154 -0.418355
v -0.271118 1.129288 -0.418355
v -0.182483 1.076462 -0.418355
v -0.247459 1.055595 -0.418355
v 0.097681 0.203203 -0.359812
v 0.093132 0.214630 -0.366336
v 0.089371 0.226343 -0.343127
v 0.081419 0.210869 -0.351480
v 0.097685 0.203197 0.311890
v 0.081419 0.210869 0.303596
v 0.089371 0.226343 0.295292
v 0.093132 0.214630 0.318436
v -0.205532 1.147690 -0.359812
v -0.214293 1.131989 -0.351480
v -0.198821 1.124039 -0.343127
v -0.202581 1.135750 -0.366336
v -0.205534 1.147697 0.311890
v -0.202581 1.135750 0.318436
v -0.198821 1.124039 0.295292
v -0.214293 1.131989 0.303596
v 0.067678 0.293915 0.360535
v 0.058831 0.321472 0.348236
v 0.050881 0.305990 0.360535
v -0.182459 1.076355 0.372177
v -0.191339 1.060486 0.360535
v -0.175620 1.051765 0.348236
v -0.184833 1.080467 0.360535
v 0.050881 0.305990 -0.406619
v 0.058831 0.321472 -0.394317
v 0.067678 0.293915 -0.406619
v -0.182459 1.076355 -0.418257
v -0.184833 1.080467 -0.406619
v -0.175620 1.051765 -0.394317
v -0.191339 1.060486 -0.406619
v -0.120073 0.122045 0.478455
v -0.052778 0.122045 0.478455
v -0.120073 0.557743 0.478455
v -0.120073 0.557743 0.405312
v -0.052778 0.557743 0.405312
v -0.120073 0.122045 0.405312
v -0.052778 0.122045 0.405312
v -0.120073 0.764046 0.478455
v -0.052778 0.764046 0.405312
v -0.120073 0.764046 0.405312
v -0.084236 0.844551 0.468399
v -0.088615 0.844551 0.415359
v -0.113035 0.844551 0.441856
v -0.085038 0.949631 0.481209
v -0.087812 0.949631 0.447617
v -0.103281 0.949631 0.464401
v -0.072672 0.557743 0.478455
v -0.052778 0.444477 0.478455
v -0.052778 0.557743 0.458557
v -0.072870 0.764046 0.478455
v -0.052778 0.764046 0.458176
v -0.073703 0.844551 0.456970
v -0.075762 0.844551 0.427208
v -0.084363 0.949631 0.450798
v -0.083490 0.949631 0.479530
v -0.120073 0.122045 -0.523651
v -0.052778 0.122045 -0.523651
v -0.120073 0.557743 -0.523651
v -0.120073 0.557743 -0.450506
v -0.052778 0.557743 -0.450506
v -0.120073 0.122045 -0.450506
v -0.052778 0.122045 -0.450506
v -0.120073 0.764046 -0.523651
v -0.052778 0.764046 -0.450506
v -0.120073 0.764046 -0.450506
v -0.084236 0.844551 -0.513599
v -0.088615 0.844551 -0.460560
v -0.113035 0.844551 -0.487057
v -0.085038 0.949631 -0.526409
v -0.087812 0.949631 -0.492813
v -0.103281 0.949631 -0.509596
v -0.072672 0.557743 -0.523651
v -0.052778 0.444477 -0.523651
v -0.052778 0.557743 -0.503756
v -0.072870 0.764046 -0.523651
v -0.052778 0.764046 -0.503372
v -0.073703 0.844551 -0.502171
v -0.075762 0.844551 -0.472404
v -0.084363 0.949631 -0.495993
v -0.083490 0.949631 -0.524731
v -0.074017 0.698158 -0.375752
v -0.072161 0.689690 -0.375725
v -0.072279 0.682114 -0.375700
v -0.074360 0.676178 -0.375680
v -0.078201 0.672455 -0.375668
v -0.083425 0.671326 -0.375664
v -0.089520 0.672882 -0.375669
v -0.095891 0.676979 -0.375683
v -0.101914 0.683220 -0.375704
v -0.106999 0.690987 -0.375729
v -0.110648 0.699524 -0.375757
v -0.112504 0.708000 -0.375785
v -0.112386 0.715576 -0.375810
v -0.110304 0.721512 -0.375830
v -0.106464 0.725227 -0.375842
v -0.101240 0.726364 -0.375846
v -0.095144 0.724808 -0.375840
v -0.088773 0.720711 -0.375827
v -0.082751 0.714470 -0.375807
v -0.077666 0.706696 -0.375781
v -0.096161 0.710426 -0.450563
v -0.093524 0.709602 -0.450617
v -0.090820 0.707886 -0.450472
v -0.088249 0.705254 -0.450310
v -0.086117 0.701927 -0.450602
v -0.084546 0.698311 -0.450415
v -0.083730 0.694695 -0.450232
v -0.083852 0.691521 -0.450686
v -0.084751 0.689034 -0.450813
v -0.086336 0.687401 -0.450481
v -0.088552 0.686920 -0.450470
v -0.091140 0.687592 -0.450525
v -0.091140 0.687592 -0.450527
v -0.093843 0.689323 -0.450491
v -0.096395 0.691971 -0.450537
v -0.098547 0.695267 -0.450590
v -0.100106 0.698891 -0.450508
v -0.100894 0.702484 -0.450518
v -0.100852 0.705704 -0.450474
v -0.099971 0.708229 -0.450459
v -0.098337 0.709808 -0.450481
v -0.086365 0.687393 -0.450491
v -0.088575 0.686920 -0.450474
v -0.091127 0.687584 -0.450527
v -0.093806 0.689301 -0.450493
v -0.074017 0.700500 0.334755
v -0.072161 0.692032 0.334785
v -0.072279 0.684456 0.334808
v -0.074360 0.678520 0.334831
v -0.078201 0.674797 0.334839
v -0.083425 0.673668 0.334846
v -0.089520 0.675224 0.334839
v -0.095891 0.679321 0.334824
v -0.101914 0.685562 0.334808
v -0.106999 0.693329 0.334778
v -0.110648 0.701866 0.334755
v -0.112504 0.710342 0.334724
v -0.112386 0.717918 0.334702
v -0.110304 0.723854 0.334679
v -0.106464 0.727570 0.334663
v -0.101240 0.728706 0.334663
v -0.095144 0.727150 0.334671
v -0.088773 0.723053 0.334679
v -0.082751 0.716812 0.334702
v -0.077666 0.709038 0.334724
v -0.096161 0.713264 0.409485
v -0.093524 0.712440 0.409546
v -0.090820 0.710724 0.409409
v -0.088249 0.708092 0.409264
v -0.086117 0.704765 0.409576
v -0.084546 0.701141 0.409416
v -0.083730 0.697525 0.409256
v -0.083852 0.694359 0.409729
v -0.084751 0.691872 0.409874
v -0.086336 0.690239 0.409554
v -0.088552 0.689751 0.409546
v -0.091140 0.690422 0.409599
v -0.091140 0.690422 0.409599
v -0.093843 0.692154 0.409554
v -0.096395 0.694809 0.409584
v -0.098547 0.698105 0.409607
v -0.100106 0.701721 0.409508
v -0.100894 0.705315 0.409492
v -0.100852 0.708542 0.409424
v -0.099971 0.711067 0.409393
v -0.098337 0.712646 0.409409
v -0.086365 0.690231 0.409561
v -0.088575 0.689758 0.409554
v -0.091127 0.690422 0.409599
v -0.093806 0.692131 0.409554
vt 0.375000 0.000000
vt 0.625000 0.000000
vt 0.375000 0.250000
vt 0.625000 0.250000
vt 0.375000 0.500000
vt 0.625000 0.500000
vt 0.375000 0.750000
vt 0.625000 0.750000
vt 0.375000 1.000000
vt 0.625000 1.000000
vt 0.875000 0.000000
vt 0.875000 0.250000
vt 0.125000 0.000000
vt 0.125000 0.250000
vt 0.375000 0.250000
vt 0.625000 0.250000
vt 0.625000 0.500000
vt 0.375000 0.500000
vt 0.375000 0.250000
vt 0.625000 0.250000
vt 0.625000 0.500000
vt 0.375000 0.500000
vt 0.375000 0.250000
vt 0.625000 0.250000
vt 0.625000 0.500000
vt 0.375000 0.500000
vt 0.375000 0.250000
vt 0.625000 0.250000
vt 0.625000 0.500000
vt 0.375000 0.500000
vt 0.375000 0.250000
vt 0.625000 0.250000
vt 0.625000 0.500000
vt 0.375000 0.500000
vt 0.375000 0.000000
vt 0.625000 0.000000
vt 0.625000 0.025817
vt 0.375000 0.025817
vt 0.375000 0.250000
vt 0.625000 0.250000
vt 0.625000 0.268555
vt 0.375000 0.268555
vt 0.375000 0.724183
vt 0.625000 0.724183
vt 0.625000 0.750000
vt 0.375000 0.750000
vt 0.375000 0.981445
vt 0.625000 0.981445
vt 0.625000 1.000000
vt 0.375000 1.000000
vt 0.625000 0.000000
vt 0.643555 0.000000
vt 0.643555 0.025817
vt 0.625000 0.025817
vt 0.375000 0.025817
vt 0.356445 0.025817
vt 0.356445 0.000000
vt 0.375000 0.000000
vt 0.625000 0.000000
vt 0.638719 0.000000
vt 0.643555 0.000000
vt 0.643555 0.000000
vt 0.625000 0.000000
vt 0.875000 0.000000
vt 0.875000 0.021519
vt 0.875000 0.025817
vt 0.875000 0.025817
vt 0.875000 0.000000
vt 0.643555 0.250000
vt 0.643555 0.250000
vt 0.638719 0.250000
vt 0.625000 0.250000
vt 0.625000 0.250000
vt 0.625000 0.025817
vt 0.625000 0.025817
vt 0.625000 0.021519
vt 0.875000 0.025817
vt 0.875000 0.000000
vt 0.643555 0.250000
vt 0.625000 0.250000
vt 0.125000 0.000000
vt 0.142969 0.000000
vt 0.142969 0.025817
vt 0.125000 0.025817
vt 0.625000 0.767969
vt 0.375000 0.767969
vt 0.857031 0.000000
vt 0.857031 0.000000
vt 0.861873 0.000000
vt 0.857031 0.000000
vt 0.857031 0.025817
vt 0.875000 0.250000
vt 0.857032 0.250000
vt 0.857032 0.250000
vt 0.875000 0.250000
vt 0.875000 0.250000
vt 0.861873 0.250000
vt 0.857032 0.250000
vt 0.375000 0.482031
vt 0.625000 0.482031
vt 0.625000 0.500000
vt 0.375000 0.500000
vt 0.375000 0.767969
vt 0.578556 0.767969
vt 0.578556 0.981445
vt 0.375000 0.981445
vt 0.375000 0.268555
vt 0.578556 0.268555
vt 0.578556 0.482031
vt 0.375000 0.482031
vt 0.356445 0.250000
vt 0.356445 0.230593
vt 0.375000 0.230593
vt 0.375000 0.250000
vt 0.142969 0.250000
vt 0.142969 0.230593
vt 0.125000 0.230593
vt 0.125000 0.250000
vt 0.625000 0.519407
vt 0.375000 0.519407
vt 0.875000 0.230593
vt 0.875000 0.230593
vt 0.875000 0.234995
vt 0.875000 0.230593
vt 0.857032 0.230593
vt 0.643555 0.230593
vt 0.625000 0.230593
vt 0.625000 0.230593
vt 0.625000 0.234995
vt 0.625000 0.230593
vt 0.375000 0.230593
vt 0.625000 0.230593
vt 0.578556 0.025817
vt 0.578556 0.230593
vt 0.375000 0.519407
vt 0.578556 0.519407
vt 0.578556 0.724183
vt 0.375000 0.724183
vt 0.625000 0.250000
vt 0.625000 0.265108
vt 0.624999 0.268555
vt 0.624999 0.268555
vt 0.625000 0.250000
vt 0.375000 0.268555
vt 0.375000 0.724183
vt 0.559851 0.724183
vt 0.625000 0.724183
vt 0.625000 0.724183
vt 0.375000 0.724183
vt 0.375000 0.750000
vt 0.375000 0.724183
vt 0.375000 0.981445
vt 0.578555 0.981445
vt 0.625000 0.981445
vt 0.625000 0.981445
vt 0.375000 1.000000
vt 0.625000 0.750000
vt 0.625000 0.764630
vt 0.625000 0.767969
vt 0.625000 0.750000
vt 0.375000 0.767969
vt 0.375000 0.482031
vt 0.557643 0.482031
vt 0.625000 0.482031
vt 0.625000 0.482031
vt 0.375000 0.482031
vt 0.375000 0.500000
vt 0.375000 0.482031
vt 0.625000 0.500000
vt 0.625000 0.515801
vt 0.624999 0.519407
vt 0.624999 0.519407
vt 0.625000 0.500000
vt 0.375000 0.519407
vt 0.375000 0.230593
vt 0.568295 0.230593
vt 0.625000 0.230593
vt 0.625000 0.230593
vt 0.375000 0.230593
vt 0.625000 0.485370
vt 0.625000 0.500000
vt 0.625000 0.500000
vt 0.559851 0.268555
vt 0.375000 0.268555
vt 0.375000 0.268555
vt 0.557643 0.519407
vt 0.375000 0.519407
vt 0.375000 0.519407
vt 0.625000 0.728979
vt 0.625000 0.750000
vt 0.625000 0.750000
vt 0.625000 0.985654
vt 0.625000 1.000000
vt 0.625000 1.000000
vt 0.583380 0.767969
vt 0.375000 0.767969
vt 0.375000 0.767969
vt 0.625000 0.234198
vt 0.625000 0.250000
vt 0.625000 0.250000
vt 0.625000 0.770691
vt 0.625000 0.978738
vt 0.857032 0.250000
vt 0.643556 0.250000
vt 0.875000 0.025817
vt 0.875000 0.230593
vt 0.859937 0.000000
vt 0.857032 0.000000
vt 0.640553 0.000000
vt 0.643555 0.000000
vt 0.859937 0.250000
vt 0.640553 0.250000
vt 0.625000 0.234217
vt 0.875000 0.020965
vt 0.875000 0.234217
vt 0.375000 0.000000
vt 0.625000 0.000000
vt 0.625000 0.241928
vt 0.551092 0.250000
vt 0.375000 0.250000
vt 0.375000 0.250000
vt 0.400023 0.250000
vt 0.625000 0.452729
vt 0.625000 0.500000
vt 0.375000 0.500000
vt 0.375000 0.500000
vt 0.625000 0.500000
vt 0.625000 0.750000
vt 0.375000 0.750000
vt 0.875000 0.000000
vt 0.875000 0.250000
vt 0.692998 0.250000
vt 0.125000 0.000000
vt 0.125000 0.250000
vt 0.375000 0.500000
vt 0.625000 0.500000
vt 0.375000 0.250000
vt 0.375000 0.500000
vt 0.625000 0.500000
vt 0.375000 0.250000
vt 0.625000 0.317998
vt 0.625000 0.319310
vt 0.550356 0.250000
vt 0.625000 0.388429
vt 0.482820 0.250000
vt 0.375000 0.000000
vt 0.375000 0.250000
vt 0.551092 0.250000
vt 0.625000 0.241928
vt 0.625000 0.000000
vt 0.375000 0.250000
vt 0.375000 0.500000
vt 0.625000 0.500000
vt 0.625000 0.452729
vt 0.400023 0.250000
vt 0.375000 0.500000
vt 0.375000 0.750000
vt 0.625000 0.750000
vt 0.625000 0.500000
vt 0.692998 0.250000
vt 0.875000 0.250000
vt 0.875000 0.000000
vt 0.125000 0.000000
vt 0.125000 0.250000
vt 0.625000 0.500000
vt 0.375000 0.500000
vt 0.375000 0.250000
vt 0.625000 0.500000
vt 0.375000 0.500000
vt 0.375000 0.250000
vt 0.550356 0.250000
vt 0.625000 0.319310
vt 0.625000 0.317998
vt 0.482820 0.250000
vt 0.625000 0.388429
vt 0.625000 0.500000
vt 0.650000 0.500000
vt 0.563580 0.788067
vt 0.553729 0.785085
vt 0.675000 0.500000
vt 0.574364 0.787531
vt 0.700000 0.500000
vt 0.585222 0.786945
vt 0.725000 0.500000
vt 0.595352 0.788107
vt 0.750000 0.500000
vt 0.606284 0.787431
vt 0.250000 0.500000
vt 0.275000 0.500000
vt 0.404049 0.786775
vt 0.393716 0.787431
vt 0.300000 0.500000
vt 0.415425 0.788561
vt 0.325000 0.500000
vt 0.426180 0.789086
vt 0.350000 0.500000
vt 0.436349 0.787830
vt 0.375000 0.500000
vt 0.446949 0.787796
vt 0.436493 0.787870
vt 0.400000 0.500000
vt 0.457600 0.787998
vt 0.457546 0.788004
vt 0.457601 0.788005
vt 0.447045 0.787809
vt 0.425000 0.500000
vt 0.468176 0.787840
vt 0.468035 0.787852
vt 0.450000 0.500000
vt 0.478799 0.787989
vt 0.475000 0.500000
vt 0.489407 0.788146
vt 0.500000 0.500000
vt 0.500000 0.787787
vt 0.525000 0.500000
vt 0.510611 0.787780
vt 0.550000 0.500000
vt 0.521243 0.787566
vt 0.575000 0.500000
vt 0.531878 0.787478
vt 0.600000 0.500000
vt 0.542491 0.787545
vt 0.625000 0.500000
vt 0.553729 0.785085
vt 0.563580 0.788067
vt 0.650000 0.500000
vt 0.574364 0.787531
vt 0.675000 0.500000
vt 0.585222 0.786945
vt 0.700000 0.500000
vt 0.595352 0.788107
vt 0.725000 0.500000
vt 0.606284 0.787431
vt 0.750000 0.500000
vt 0.250000 0.500000
vt 0.393716 0.787431
vt 0.404049 0.786775
vt 0.275000 0.500000
vt 0.415425 0.788561
vt 0.300000 0.500000
vt 0.426180 0.789086
vt 0.325000 0.500000
vt 0.436349 0.787830
vt 0.350000 0.500000
vt 0.436493 0.787870
vt 0.446949 0.787796
vt 0.375000 0.500000
vt 0.447045 0.787809
vt 0.457601 0.788005
vt 0.457546 0.788004
vt 0.457600 0.787998
vt 0.400000 0.500000
vt 0.468035 0.787852
vt 0.468176 0.787840
vt 0.425000 0.500000
vt 0.478799 0.787989
vt 0.450000 0.500000
vt 0.489407 0.788146
vt 0.475000 0.500000
vt 0.500000 0.787787
vt 0.500000 0.500000
vt 0.510611 0.787780
vt 0.525000 0.500000
vt 0.521243 0.787566
vt 0.550000 0.500000
vt 0.531878 0.787478
vt 0.575000 0.500000
vt 0.542491 0.787545
vt 0.600000 0.500000
vn 0.000000 0.000000 1.000000
vn 0.000000 0.000000 1.000000
vn 0.000000 0.000000 1.000000
vn 0.000000 0.000000 1.000000
vn 0.000000 1.000000 0.000000
vn 0.000000 1.000000 0.000000
vn 0.000000 1.000000 0.000000
vn 0.000000 1.000000 0.000000
vn 0.000000 0.000000 -1.000000
vn 0.000000 0.000000 -1.000000
vn 0.000000 0.000000 -1.000000
vn 0.000000 0.000000 -1.000000
vn 0.000000 -1.000000 0.000000
vn 0.000000 -1.000000 0.000000
vn 0.000000 -1.000000 0.000000
vn 0.000000 -1.000000 0.000000
vn 1.000000 0.000000 0.000000
vn 1.000000 0.000000 0.000000
vn 1.000000 0.000000 0.000000
vn 1.000000 0.000000 0.000000
vn -1.000000 0.000000 0.000000
vn -1.000000 0.000000 0.000000
vn -1.000000 0.000000 0.000000
vn -1.000000 0.000000 0.000000
vn 0.000000 0.862942 0.505303
vn 0.000000 0.862942 0.505303
vn 0.000000 0.862942 0.505303
vn 0.000000 0.862942 0.505303
vn 0.622553 0.782578 0.000000
vn 0.622553 0.782577 0.000000
vn 0.622553 0.782578 0.000000
vn 0.622553 0.782578 0.000000
vn 0.000000 0.862924 -0.505333
vn 0.000000 0.862924 -0.505333
vn 0.000000 0.862924 -0.505333
vn 0.000000 0.862924 -0.505333
vn -0.622553 0.782578 0.000000
vn -0.622553 0.782577 0.000000
vn -0.622553 0.782577 0.000000
vn -0.622553 0.782577 0.000000
vn 0.000000 0.000000 1.000000
vn 0.000000 0.000000 1.000000
vn 0.000000 0.000000 1.000000
vn 0.000000 0.000000 1.000000
vn 1.000000 0.000000 0.000000
vn 1.000000 0.000000 0.000000
vn 1.000000 0.000000 0.000000
vn 1.000000 0.000000 0.000000
vn 0.000000 0.000000 -1.000000
vn 0.000000 0.000000 -1.000000
vn 0.000000 0.000000 -1.000000
vn 0.000000 0.000000 -1.000000
vn -1.000000 0.000000 0.000000
vn -1.000000 0.000000 0.000000
vn -1.000000 0.000000 0.000000
vn -1.000000 0.000000 0.000000
vn 0.000000 0.893753 0.448560
vn 0.000000 0.893753 0.448560
vn 0.000000 0.893753 0.448560
vn 0.000000 0.893753 0.448560
vn 0.410862 0.911698 0.000000
vn 0.410862 0.911698 0.000000
vn 0.410862 0.911698 0.000000
vn 0.410862 0.911698 0.000000
vn 0.000000 0.893778 -0.448509
vn 0.000000 0.893778 -0.448509
vn 0.000000 0.893778 -0.448509
vn 0.000000 0.893778 -0.448509
vn -0.410862 0.911698 0.000000
vn -0.410862 0.911698 0.000000
vn -0.410862 0.911698 0.000000
vn -0.410862 0.911698 0.000000
vn 0.000000 0.000000 1.000000
vn 0.000000 0.000000 1.000000
vn 0.000000 0.000000 1.000000
vn 0.000000 0.000000 1.000000
vn 1.000000 0.000000 0.000000
vn 1.000000 0.000000 0.000000
vn 1.000000 0.000000 0.000000
vn 1.000000 0.000000 0.000000
vn 0.000000 0.000000 -1.000000
vn 0.000000 0.000000 -1.000000
vn 0.000000 0.000000 -1.000000
vn 0.000000 0.000000 -1.000000
vn -1.000000 0.000000 0.000000
vn -1.000000 0.000000 0.000000
vn -1.000000 0.000000 0.000000
vn -1.000000 0.000000 0.000000
vn 0.000000 0.925230 0.379407
vn 0.000000 0.925230 0.379407
vn 0.000000 0.925230 0.379407
vn 0.000000 0.925230 0.379407
vn 0.733508 0.679681 0.000000
vn 0.733508 0.679681 0.000000
vn 0.733508 0.679681 0.000000
vn 0.733508 0.679681 0.000000
vn 0.000000 0.925216 -0.379440
vn 0.000000 0.925216 -0.379440
vn 0.000000 0.925216 -0.379440
vn 0.000000 0.925216 -0.379440
vn -0.733508 0.679681 0.000000
vn -0.733508 0.679681 0.000000
vn -0.733508 0.679681 0.000000
vn -0.733508 0.679681 0.000000
vn 0.000000 0.000000 1.000000
vn 0.000000 0.000000 1.000000
vn 0.000000 0.000000 1.000000
vn 0.000000 0.000000 1.000000
vn -0.305753 0.952111 0.000000
vn -0.305753 0.952111 0.000000
vn -0.305753 0.952111 0.000000
vn -0.305753 0.952111 0.000000
vn 0.000000 0.000000 -1.000000
vn 0.000000 0.000000 -1.000000
vn 0.000000 0.000000 -1.000000
vn 0.000000 0.000000 -1.000000
vn 0.305681 -0.952134 0.000000
vn 0.305681 -0.952134 0.000000
vn 0.305681 -0.952134 0.000000
vn 0.305681 -0.952134 0.000000
vn 0.952140 0.305662 0.000000
vn 0.952140 0.305662 0.000000
vn 0.952138 0.305669 0.000000
vn 0.952138 0.305669 0.000000
vn -0.952138 -0.305669 0.000000
vn -0.952138 -0.305669 0.000000
vn -0.952140 -0.305664 0.000000
vn -0.952140 -0.305664 0.000000
vn 0.952137 0.305671 -0.000008
vn 0.952137 0.305671 -0.000008
vn 0.952140 0.305662 -0.000002
vn 0.952141 0.305660 -0.000000
vn 0.952137 0.305671 -0.000008
vn 0.952136 0.305676 0.000007
vn 0.952136 0.305676 0.000007
vn 0.952137 0.305673 0.000009
vn 0.952137 0.305672 0.000011
vn 0.952136 0.305676 0.000007
vn 0.952143 0.305654 0.000000
vn 0.952142 0.305655 0.000001
vn 0.952140 0.305662 0.000006
vn 0.952140 0.305662 0.000006
vn 0.952140 0.305662 0.000006
vn 0.952137 0.305671 -0.000011
vn 0.952137 0.305673 -0.000009
vn 0.952136 0.305676 -0.000007
vn 0.952136 0.305676 -0.000007
vn 0.952136 0.305676 -0.000007
vn -0.305697 0.952129 0.000000
vn -0.305697 0.952129 0.000000
vn -0.305697 0.952129 0.000000
vn -0.305697 0.952129 0.000000
vn -0.000001 0.000000 1.000000
vn -0.000000 0.000000 1.000000
vn -0.000000 0.000000 1.000000
vn -0.000001 0.000000 1.000000
vn 0.305786 -0.952100 0.000000
vn 0.305786 -0.952100 0.000000
vn 0.305786 -0.952100 0.000000
vn 0.305786 -0.952100 0.000000
vn 0.000000 0.000000 -1.000000
vn 0.000000 0.000000 -1.000000
vn 0.000000 0.000000 -1.000000
vn 0.000000 0.000000 -1.000000
vn -0.952140 -0.305664 0.000000
vn -0.952140 -0.305664 0.000000
vn -0.952138 -0.305669 0.000000
vn -0.952138 -0.305669 0.000000
vn 0.305681 -0.952134 0.000000
vn 0.305681 -0.952134 0.000000
vn 0.305681 -0.952134 0.000000
vn 0.305681 -0.952134 0.000000
vn 0.952141 0.305660 0.000000
vn 0.952140 0.305662 0.000002
vn 0.952137 0.305670 0.000008
vn 0.952137 0.305670 0.000008
vn 0.952138 0.305670 0.000008
vn -0.305697 0.952129 0.000000
vn -0.305697 0.952129 0.000000
vn -0.305697 0.952129 0.000000
vn -0.305697 0.952129 0.000000
vn 0.952138 0.305669 0.000000
vn 0.952138 0.305669 0.000000
vn 0.952140 0.305662 0.000000
vn 0.952140 0.305662 0.000000
vn 0.305787 -0.952100 0.000000
vn 0.305786 -0.952100 0.000000
vn 0.305786 -0.952100 0.000000
vn 0.305787 -0.952100 0.000000
vn 0.952140 0.305662 -0.000006
vn 0.952140 0.305662 -0.000006
vn 0.952142 0.305655 -0.000001
vn 0.952143 0.305654 -0.000000
vn 0.952140 0.305662 -0.000006
vn -0.305753 0.952111 0.000000
vn -0.305753 0.952111 0.000000
vn -0.305753 0.952111 0.000000
vn -0.305753 0.952111 0.000000
vn 0.305649 -0.952145 0.000000
vn 0.305649 -0.952145 0.000000
vn 0.305649 -0.952145 0.000000
vn 0.305649 -0.952145 0.000000
vn -0.305654 0.952143 0.000000
vn -0.305654 0.952143 0.000000
vn -0.305654 0.952143 0.000000
vn -0.305654 0.952143 0.000000
vn -0.952137 -0.305670 0.000000
vn -0.952138 -0.305670 0.000000
vn -0.952138 -0.305670 0.000000
vn -0.952137 -0.305670 0.000000
vn -0.952137 -0.305670 0.000000
vn -0.952138 -0.305670 0.000000
vn -0.952138 -0.305670 0.000000
vn -0.952137 -0.305670 0.000000
vn 0.000000 0.000000 -1.000000
vn 0.000000 0.000000 -1.000000
vn 0.000000 0.000000 -1.000000
vn 0.000000 0.000000 -1.000000
vn 0.952137 0.305671 0.000011
vn 0.952138 0.305669 0.000013
vn 0.952139 0.305665 0.000016
vn 0.952139 0.305665 0.000016
vn 0.952139 0.305665 0.000016
vn 0.000000 0.000000 1.000000
vn 0.000000 0.000000 1.000000
vn 0.000000 0.000000 1.000000
vn 0.000000 0.000000 1.000000
vn 0.952130 0.305694 0.000000
vn 0.952137 0.305672 0.000000
vn 0.952137 0.305672 0.000000
vn 0.952130 0.305694 0.000000
vn 0.952130 0.305694 0.000000
vn 0.952137 0.305672 0.000000
vn 0.952137 0.305672 0.000000
vn 0.952130 0.305694 0.000000
vn -0.000001 0.000000 -1.000000
vn -0.000000 0.000000 -1.000000
vn -0.000000 0.000000 -1.000000
vn -0.000001 0.000000 -1.000000
vn 0.952139 0.305665 -0.000016
vn 0.952139 0.305665 -0.000016
vn 0.952138 0.305669 -0.000013
vn 0.952137 0.305671 -0.000011
vn 0.952139 0.305665 -0.000016
vn 0.000000 0.000000 1.000000
vn 0.000000 0.000000 1.000000
vn 0.000000 0.000000 1.000000
vn 0.000000 0.000000 1.000000
vn 0.000000 0.000000 1.000000
vn 0.000000 0.000000 1.000000
vn 0.000000 0.000000 1.000000
vn 0.000000 0.000000 1.000000
vn 0.000000 0.000000 -1.000000
vn 0.000000 0.000000 -1.000000
vn 0.000000 0.000000 -1.000000
vn 0.000000 0.000000 -1.000000
vn 0.948614 0.304537 -0.085953
vn 0.948614 0.304537 -0.085953
vn 0.948614 0.304537 -0.085953
vn 0.948614 0.304537 -0.085953
vn -0.948608 -0.304535 -0.086030
vn -0.948608 -0.304535 -0.086030
vn -0.948608 -0.304535 -0.086030
vn -0.948608 -0.304535 -0.086030
vn 0.171077 -0.532840 -0.828742
vn 0.171077 -0.532840 -0.828742
vn 0.171077 -0.532840 -0.828742
vn 0.171077 -0.532840 -0.828742
vn 0.171077 -0.532840 -0.828742
vn -0.970782 -0.239964 0.000000
vn -0.970782 -0.239964 0.000000
vn -0.970782 -0.239964 0.000000
vn -0.970782 -0.239964 0.000000
vn 0.970805 0.239871 -0.000004
vn 0.970805 0.239871 -0.000004
vn 0.970805 0.239871 -0.000004
vn 0.970805 0.239871 -0.000004
vn 0.970805 0.239871 -0.000004
vn -0.928990 -0.370106 0.000000
vn -0.928990 -0.370106 0.000000
vn -0.928990 -0.370105 0.000000
vn -0.928990 -0.370106 0.000000
vn 0.209157 -0.651620 0.729140
vn 0.209157 -0.651620 0.729140
vn 0.209157 -0.651620 0.729140
vn 0.209157 -0.651620 0.729140
vn 0.209157 -0.651620 0.729140
vn -0.948598 -0.304539 -0.086127
vn -0.948598 -0.304539 -0.086127
vn -0.948598 -0.304539 -0.086127
vn -0.948598 -0.304539 -0.086127
vn -0.216071 0.673053 -0.707328
vn -0.216071 0.673054 -0.707328
vn -0.216071 0.673053 -0.707328
vn -0.216071 0.673054 -0.707328
vn -0.948609 -0.304536 0.086016
vn -0.948609 -0.304536 0.086016
vn -0.948609 -0.304536 0.086016
vn -0.948609 -0.304536 0.086016
vn 0.929069 0.369906 0.000005
vn 0.929069 0.369906 0.000005
vn 0.929069 0.369906 0.000005
vn 0.929069 0.369907 0.000005
vn 0.929069 0.369906 0.000005
vn -0.970782 -0.239964 0.000000
vn -0.970782 -0.239964 0.000000
vn -0.970782 -0.239964 0.000000
vn -0.970782 -0.239964 0.000000
vn -0.171712 0.534827 0.827330
vn -0.171712 0.534827 0.827330
vn -0.171712 0.534827 0.827330
vn -0.171712 0.534827 0.827330
vn -0.171712 0.534827 0.827330
vn -0.928990 -0.370104 0.000000
vn -0.928990 -0.370104 0.000000
vn -0.928990 -0.370104 0.000000
vn -0.928990 -0.370104 0.000000
vn 0.948607 0.304533 0.086055
vn 0.948606 0.304533 0.086055
vn 0.948606 0.304533 0.086055
vn 0.948606 0.304533 0.086055
vn 0.948606 0.304533 0.086055
vn -0.948599 -0.304540 0.086113
vn -0.948599 -0.304540 0.086113
vn -0.948599 -0.304540 0.086113
vn -0.948599 -0.304540 0.086113
vn 0.171714 -0.534874 0.827299
vn 0.171714 -0.534874 0.827299
vn 0.171714 -0.534874 0.827299
vn 0.171714 -0.534874 0.827299
vn 0.171714 -0.534874 0.827299
vn 0.929071 0.369902 0.000009
vn 0.929071 0.369902 0.000009
vn 0.929071 0.369902 0.000009
vn 0.929071 0.369902 0.000009
vn 0.929071 0.369902 0.000009
vn 0.970805 0.239871 0.000004
vn 0.970805 0.239871 0.000004
vn 0.970805 0.239871 0.000004
vn 0.970805 0.239871 0.000004
vn 0.970805 0.239871 0.000004
vn -0.171064 0.532840 -0.828745
vn -0.171064 0.532840 -0.828745
vn -0.171064 0.532840 -0.828745
vn -0.171064 0.532840 -0.828745
vn -0.171064 0.532840 -0.828745
vn -0.216054 0.672998 0.707385
vn -0.216054 0.672998 0.707385
vn -0.216054 0.672998 0.707385
vn -0.216054 0.672998 0.707385
vn 0.948607 0.304528 -0.086071
vn 0.948607 0.304528 -0.086071
vn 0.948607 0.304528 -0.086071
vn 0.948607 0.304528 -0.086071
vn 0.948607 0.304528 -0.086071
vn 0.948615 0.304538 0.085939
vn 0.948615 0.304538 0.085939
vn 0.948615 0.304538 0.085939
vn 0.948615 0.304538 0.085939
vn 0.209221 -0.651685 -0.729063
vn 0.209221 -0.651685 -0.729063
vn 0.209221 -0.651685 -0.729063
vn 0.209221 -0.651685 -0.729063
vn 0.209221 -0.651685 -0.729063
vn 0.889440 -0.457053 0.000000
vn 0.889439 -0.457053 0.000000
vn 0.889439 -0.457053 0.000000
vn 0.889439 -0.457053 0.000000
vn 0.457011 0.889461 0.000000
vn 0.457011 0.889461 0.000000
vn 0.457011 0.889461 0.000000
vn 0.457011 0.889461 0.000000
vn 0.673193 0.216120 0.707180
vn 0.673193 0.216120 0.707180
vn 0.673193 0.216120 0.707180
vn 0.673193 0.216120 0.707180
vn 0.673298 0.216153 -0.707070
vn 0.673298 0.216153 -0.707070
vn 0.673298 0.216153 -0.707070
vn 0.673298 0.216153 -0.707070
vn 0.794483 -0.140642 0.590777
vn 0.794483 -0.140642 0.590777
vn 0.794483 -0.140642 0.590777
vn 0.794483 -0.140642 0.590777
vn 0.794148 -0.138984 -0.591619
vn 0.794148 -0.138984 -0.591619
vn 0.794148 -0.138984 -0.591619
vn 0.794148 -0.138984 -0.591619
vn 0.564107 0.576839 0.590796
vn 0.564107 0.576839 0.590796
vn 0.564107 0.576839 0.590796
vn 0.564107 0.576839 0.590796
vn 0.564816 0.575304 -0.591614
vn 0.564816 0.575304 -0.591614
vn 0.564816 0.575304 -0.591614
vn 0.564816 0.575304 -0.591614
vn 0.509014 0.708046 0.489464
vn 0.509014 0.708046 0.489464
vn 0.509014 0.708046 0.489464
vn 0.509014 0.708046 0.489463
vn 0.819093 -0.266697 0.507897
vn 0.819093 -0.266697 0.507897
vn 0.819093 -0.266697 0.507897
vn 0.819093 -0.266697 0.507897
vn 0.509044 0.708086 -0.489375
vn 0.509044 0.708086 -0.489375
vn 0.509044 0.708086 -0.489375
vn 0.509044 0.708086 -0.489375
vn 0.819083 -0.266695 -0.507914
vn 0.819083 -0.266695 -0.507914
vn 0.819083 -0.266695 -0.507914
vn 0.819083 -0.266695 -0.507914
vn 0.000000 0.000000 1.000000
vn 0.000000 0.000000 1.000000
vn 0.000000 0.000000 1.000000
vn 0.000000 0.000000 1.000000
vn 0.000000 0.000000 1.000000
vn 0.000000 1.000000 0.000000
vn 0.000000 1.000000 0.000000
vn 0.000000 1.000000 0.000000
vn 0.000000 1.000000 0.000000
vn 0.000000 1.000000 0.000000
vn 0.000000 0.000000 -1.000000
vn 0.000000 0.000000 -1.000000
vn 0.000000 0.000000 -1.000000
vn 0.000000 0.000000 -1.000000
vn 1.000000 0.000000 0.000000
vn 1.000000 0.000000 0.000000
vn 1.000000 0.000000 0.000000
vn 1.000000 0.000000 0.000000
vn 1.000000 0.000000 0.000000
vn -1.000000 0.000000 0.000000
vn -1.000000 0.000000 0.000000
vn -1.000000 0.000000 0.000000
vn -1.000000 0.000000 0.000000
vn 0.000000 0.000000 -1.000000
vn 0.000000 0.000000 -1.000000
vn 0.000000 0.000000 -1.000000
vn 0.000000 0.000000 -1.000000
vn -1.000000 0.000000 0.000000
vn -1.000000 0.000000 0.000000
vn -1.000000 0.000000 0.000000
vn -1.000000 0.000000 0.000000
vn -0.270585 0.222631 -0.936600
vn -0.270585 0.222631 -0.936600
vn -0.270585 0.222631 -0.936600
vn -0.270585 0.222631 -0.936600
vn -0.940172 0.205667 0.271623
vn -0.940171 0.205667 0.271623
vn -0.940172 0.205667 0.271623
vn -0.940171 0.205667 0.271623
vn -0.719105 0.208944 -0.662745
vn -0.719105 0.208944 -0.662745
vn -0.719105 0.208944 -0.662745
vn -0.719105 0.208944 -0.662745
vn -0.674631 -0.094421 0.732092
vn -0.674631 -0.094421 0.732091
vn -0.674631 -0.094421 0.732091
vn -0.674631 -0.094421 0.732092
vn 0.708772 0.000993 0.705437
vn 0.708772 0.000993 0.705437
vn 0.785839 0.070847 0.614360
vn 0.777826 0.062965 0.625317
vn 0.982675 0.156898 0.098658
vn 0.980183 0.162532 0.113250
vn 0.993949 0.097901 -0.049807
vn 0.993949 0.097901 -0.049807
vn 0.037817 0.029201 0.998858
vn 0.029475 0.022759 0.999306
vn 0.998135 0.052688 -0.030822
vn 0.997479 0.061250 -0.035831
vn 0.192039 0.148284 0.970120
vn 0.192039 0.148284 0.970120
vn 0.930596 0.315957 -0.184832
vn 0.930596 0.315957 -0.184832
vn 0.733155 -0.076782 0.675713
vn 0.733155 -0.076782 0.675713
vn 0.733155 -0.076782 0.675713
vn 0.733155 -0.076782 0.675713
vn 0.661927 0.215352 -0.717966
vn 0.661927 0.215352 -0.717966
vn 0.661927 0.215352 -0.717966
vn 0.661927 0.215352 -0.717966
vn 0.701766 0.123261 0.701663
vn 0.701766 0.123261 0.701663
vn 0.701766 0.123261 0.701663
vn 0.000000 0.000000 -1.000000
vn 0.000000 0.000000 -1.000000
vn 0.000000 0.000000 -1.000000
vn 0.000000 0.000000 -1.000000
vn 0.000000 0.000000 -1.000000
vn 0.000000 1.000000 -0.000002
vn 0.000000 1.000000 -0.000002
vn 0.000000 1.000000 -0.000002
vn 0.000000 1.000000 -0.000002
vn 0.000000 1.000000 -0.000002
vn 0.000000 0.000000 1.000000
vn 0.000000 0.000000 1.000000
vn 0.000000 0.000000 1.000000
vn 0.000000 0.000000 1.000000
vn 1.000000 -0.000000 0.000000
vn 1.000000 -0.000000 0.000000
vn 1.000000 -0.000000 0.000000
vn 1.000000 -0.000000 0.000000
vn 1.000000 -0.000000 0.000000
vn -1.000000 0.000000 0.000000
vn -1.000000 0.000000 0.000000
vn -1.000000 0.000000 0.000000
vn -1.000000 0.000000 0.000000
vn 0.000000 0.000000 1.000000
vn 0.000000 0.000000 1.000000
vn 0.000000 0.000000 1.000000
vn 0.000000 0.000000 1.000000
vn -1.000000 0.000000 0.000000
vn -1.000000 0.000000 0.000000
vn -1.000000 0.000000 0.000000
vn -1.000000 0.000000 0.000000
vn -0.270581 0.222694 0.936586
vn -0.270581 0.222694 0.936586
vn -0.270581 0.222694 0.936586
vn -0.270581 0.222694 0.936586
vn -0.940176 0.205652 -0.271619
vn -0.940176 0.205652 -0.271619
vn -0.940176 0.205652 -0.271619
vn -0.940176 0.205652 -0.271619
vn -0.719094 0.208919 0.662764
vn -0.719094 0.208919 0.662764
vn -0.719094 0.208919 0.662764
vn -0.719094 0.208919 0.662764
vn -0.674681 -0.094392 -0.732049
vn -0.674681 -0.094392 -0.732049
vn -0.674681 -0.094392 -0.732049
vn -0.674681 -0.094392 -0.732049
vn 0.708755 0.000996 -0.705454
vn 0.777824 0.062970 -0.625320
vn 0.785837 0.070850 -0.614362
vn 0.708755 0.000996 -0.705454
vn 0.980186 0.162520 -0.113233
vn 0.982678 0.156887 -0.098644
vn 0.993950 0.097898 0.049799
vn 0.993950 0.097898 0.049799
vn 0.029475 0.022752 -0.999307
vn 0.037817 0.029192 -0.998858
vn 0.998136 0.052685 0.030821
vn 0.997480 0.061244 0.035828
vn 0.192040 0.148239 -0.970127
vn 0.192040 0.148239 -0.970127
vn 0.930593 0.315962 0.184837
vn 0.930593 0.315962 0.184837
vn 0.733155 -0.076782 -0.675713
vn 0.733155 -0.076782 -0.675713
vn 0.733155 -0.076782 -0.675713
vn 0.733155 -0.076782 -0.675713
vn 0.661789 0.215361 0.718091
vn 0.661789 0.215361 0.718091
vn 0.661789 0.215361 0.718091
vn 0.661789 0.215361 0.718091
vn 0.701733 0.123256 -0.701697
vn 0.701733 0.123256 -0.701697
vn 0.701733 0.123256 -0.701697
vn 0.025208 0.977754 -0.208235
vn 0.403854 0.898257 -0.173311
vn 0.420461 0.890947 -0.171541
vn 0.050571 0.977166 -0.206373
vn 0.628941 0.763168 -0.148350
vn 0.636060 0.757400 -0.147555
vn 0.775056 0.617609 -0.133593
vn 0.779145 0.612514 -0.133263
vn 0.874388 0.467877 -0.128592
vn 0.874822 0.467066 -0.128589
vn 0.943990 0.302197 -0.132514
vn 0.941462 0.310142 -0.132141
vn 0.984221 0.099790 -0.146122
vn 0.983429 0.108247 -0.145431
vn 0.970688 -0.168885 -0.171003
vn 0.972459 -0.159363 -0.170081
vn 0.828821 -0.521080 -0.203795
vn 0.843638 -0.497539 -0.201815
vn 0.459862 -0.859853 -0.221765
vn 0.450032 -0.865046 -0.221734
vn -0.026566 -0.978976 -0.202240
vn -0.053431 -0.978286 -0.200254
vn 0.206199 -0.955002 -0.213198
vn -0.397836 -0.901832 -0.168597
vn -0.411678 -0.895873 -0.167128
vn -0.243144 -0.952776 -0.181932
vn -0.243144 -0.952776 -0.181932
vn -0.243144 -0.952776 -0.181932
vn -0.628823 -0.764228 -0.143311
vn -0.637228 -0.757402 -0.142414
vn -0.534476 -0.831435 -0.151828
vn -0.774913 -0.618657 -0.129511
vn -0.778825 -0.613785 -0.129229
vn -0.874393 -0.468699 -0.125532
vn -0.874220 -0.469022 -0.125531
vn -0.944035 -0.302907 -0.130554
vn -0.942126 -0.308930 -0.130234
vn -0.984212 -0.100831 -0.145463
vn -0.982980 -0.113673 -0.144324
vn -0.970720 0.167578 -0.172108
vn -0.974402 0.147138 -0.169974
vn -0.828699 0.519904 -0.207263
vn -0.839536 0.502847 -0.205729
vn -0.469312 0.853447 -0.226660
vn -0.467261 0.854571 -0.226662
vn 0.025078 0.979116 0.201752
vn 0.050536 0.978515 0.199888
vn 0.420465 0.892063 0.165630
vn 0.403882 0.899374 0.167349
vn 0.636013 0.758402 0.142525
vn 0.628953 0.764127 0.143276
vn 0.779164 0.613362 0.129193
vn 0.775082 0.618450 0.129488
vn 0.874898 0.467766 0.125495
vn 0.874457 0.468590 0.125492
vn 0.941478 0.310957 0.130098
vn 0.943991 0.303059 0.130521
vn 0.983425 0.109232 0.144719
vn 0.984219 0.100760 0.145468
vn 0.972455 -0.158254 0.171135
vn 0.970686 -0.167762 0.172118
vn 0.843605 -0.496245 0.205116
vn 0.828786 -0.519770 0.207252
vn 0.454194 -0.861385 0.227429
vn 0.460139 -0.858225 0.227424
vn 0.207255 -0.953338 0.219528
vn -0.064923 -0.976441 0.205787
vn -0.025998 -0.977630 0.208720
vn -0.243122 -0.951568 0.188179
vn -0.243122 -0.951567 0.188179
vn -0.000000 -0.000000 0.000000
vn -0.412974 -0.894192 0.172840
vn -0.397889 -0.900688 0.174487
vn -0.534518 -0.830401 0.157242
vn -0.638777 -0.755180 0.147198
vn -0.628981 -0.763145 0.148296
vn -0.778923 -0.612797 0.133265
vn -0.775038 -0.617636 0.133576
vn -0.874154 -0.468307 0.128622
vn -0.874333 -0.467973 0.128621
vn -0.942096 -0.308160 0.132262
vn -0.943998 -0.302159 0.132542
vn -0.982982 -0.112708 0.145065
vn -0.984219 -0.099802 0.146125
vn -0.974411 0.148204 0.168995
vn -0.970725 0.168684 0.170996
vn -0.839451 0.504338 0.202398
vn -0.828636 0.521365 0.203815
vn -0.467209 0.856087 0.220978
vn -0.469313 0.854933 0.220984
s off
g pCube4
f 1/1/1 2/2/2 4/4/3 3/3/4
f 25/31/5 26/32/6 27/33/7 28/34/8
f 5/5/9 6/6/10 8/8/11 7/7/12
f 7/7/13 8/8/14 2/10/15 1/9/16
f 2/2/17 8/11/18 6/12/19 4/4/20
f 7/13/21 1/1/22 3/3/23 5/14/24
f 3/3/25 4/4/26 10/16/27 9/15/28
f 4/4/29 6/6/30 11/17/31 10/16/32
f 6/6/33 5/5/34 12/18/35 11/17/36
f 5/5/37 3/3/38 9/15/39 12/18/40
f 9/15/41 10/16/42 14/20/43 13/19/44
f 10/16/45 11/17/46 15/21/47 14/20/48
f 11/17/49 12/18/50 16/22/51 15/21/52
f 12/18/53 9/15/54 13/19/55 16/22/56
f 13/19/57 14/20/58 18/24/59 17/23/60
f 14/20/61 15/21/62 19/25/63 18/24/64
f 15/21/65 16/22/66 20/26/67 19/25/68
f 16/22/69 13/19/70 17/23/71 20/26/72
f 17/23/73 18/24/74 22/28/75 21/27/76
f 18/24/77 19/25/78 23/29/79 22/28/80
f 19/25/81 20/26/82 24/30/83 23/29/84
f 20/26/85 17/23/86 21/27/87 24/30/88
f 21/27/89 22/28/90 26/32/91 25/31/92
f 22/28/93 23/29/94 27/33/95 26/32/96
f 23/29/97 24/30/98 28/34/99 27/33/100
f 24/30/101 21/27/102 25/31/103 28/34/104
f 77/35/105 78/36/106 79/37/107 80/38/108
f 83/39/109 84/40/110 85/41/111 86/42/112
f 89/43/113 90/44/114 91/45/115 92/46/116
f 81/47/117 82/48/118 78/49/119 77/50/120
s 1
f 42/51/121 54/52/122 64/53/123 65/54/124
s 2
f 57/55/125 58/56/126 52/57/127 29/58/128
s 3
f 30/59/129 108/60/130 107/61/131 53/62/132 38/63/133
s 4
f 36/64/134 126/65/135 125/66/136 61/67/137 37/68/138
s 5
f 56/69/139 115/70/140 114/71/141 32/72/142 40/73/143
s 6
f 66/74/144 118/75/145 117/76/146 30/59/147 38/63/148
s 7
f 38/63/149 53/62/150 54/52/151 42/51/152
s 8
f 37/68/153 61/67/154 62/77/155 41/78/156
s 9
f 55/79/157 56/69/158 40/73/159 44/80/160
s 10
f 65/54/161 66/74/162 38/63/163 42/51/164
s 2
f 35/81/165 46/82/166 59/83/167 60/84/168
s off
f 92/46/169 91/45/170 93/85/171 94/86/172
s 3
f 47/87/173 103/88/174 102/89/175 36/64/176 37/68/177
s 7
f 48/90/178 47/87/179 37/68/180 41/78/181
s 1
f 62/77/182 63/91/183 48/90/184 41/78/185
s 9
f 39/92/186 50/93/187 49/94/188 43/95/189
s 5
f 34/96/190 112/97/191 111/98/192 50/93/193 39/92/194
s off
f 96/99/195 95/100/196 97/101/197 98/102/198
s 2
f 58/56/126 59/83/167 46/82/166 52/57/127
s off
f 46/103/199 104/104/200 106/105/201 52/106/202
s 3
f 53/62/132 107/61/131 103/88/174 47/87/173
s 7
f 54/52/151 53/62/150 47/87/179 48/90/178
s 1
f 63/91/183 64/53/123 54/52/122 48/90/184
s 9
f 49/94/188 50/93/187 56/69/158 55/79/157
s 5
f 50/93/193 111/98/192 115/70/140 56/69/139
s off
f 51/107/203 116/108/204 110/109/205 45/110/206
s 2
f 51/111/207 69/112/208 70/113/209 31/114/210
f 45/115/211 68/116/212 69/112/208 51/111/207
f 67/117/213 68/116/212 45/115/211 33/118/214
s off
f 98/102/215 97/101/216 99/119/217 100/120/218
s 4
f 76/121/219 129/122/220 128/123/221 34/96/222 39/92/223
s 8
f 75/124/224 76/121/225 39/92/226 43/95/227
s 1
f 49/94/228 74/125/229 75/124/230 43/95/231
f 55/79/232 73/126/233 74/125/229 49/94/228
f 72/127/234 73/126/233 55/79/232 44/80/235
s 10
f 40/73/236 71/128/237 72/127/238 44/80/239
s 6
f 32/72/240 123/129/241 122/130/242 71/128/243 40/73/244
s off
f 87/131/245 88/132/246 84/40/247 83/39/248
s 2
f 60/84/168 59/83/167 68/116/212 67/117/213
f 69/112/208 68/116/212 59/83/167 58/56/126
f 70/113/209 69/112/208 58/56/126 57/55/125
s off
f 57/55/249 119/133/250 121/134/251 70/113/252
s 6
f 71/128/243 122/130/242 118/75/145 66/74/144
s 10
f 72/127/238 71/128/237 66/74/162 65/54/161
s 1
f 65/54/124 64/53/123 73/126/233 72/127/234
f 74/125/229 73/126/233 64/53/123 63/91/183
f 75/124/230 74/125/229 63/91/183 62/77/182
s 8
f 62/77/155 61/67/154 76/121/225 75/124/224
s 4
f 61/67/137 125/66/136 129/122/220 76/121/219
s off
f 67/135/253 130/136/254 124/137/255 60/138/256
f 30/59/257 117/76/258 79/37/259 78/36/260
f 57/55/261 29/58/262 77/35/263 80/38/264
f 52/139/265 106/140/266 105/141/267 82/142/268 81/143/269
f 29/144/270 52/114/271 81/39/272 77/42/273
f 32/145/274 114/146/275 113/147/276 85/148/277 84/149/278
f 51/150/279 31/151/280 83/43/281 86/46/282
f 70/152/283 121/153/284 120/154/285 88/155/286 87/47/287
f 31/156/288 70/152/289 87/47/290 83/50/291
f 60/157/292 124/158/293 90/159/294 89/160/295
f 35/161/296 60/150/297 89/46/298 92/86/299
f 36/162/300 102/163/301 101/164/302 93/165/303 91/166/304
f 46/167/305 35/168/306 92/99/307 94/102/308
f 45/169/309 110/170/310 109/171/311 95/172/312 96/173/313
f 33/174/314 45/167/315 96/102/316 98/120/317
f 34/175/318 128/176/319 127/177/320 99/178/321 97/179/322
f 67/114/323 33/113/324 98/131/325 100/39/326
f 101/164/327 104/180/328 46/181/329 94/182/330 93/165/331
f 105/141/332 108/183/333 30/184/334 78/185/335 82/142/336
f 109/171/337 112/186/338 34/187/339 97/188/340 95/172/341
f 113/147/342 116/189/343 51/190/344 86/191/345 85/148/346
f 79/37/347 119/133/348 57/55/349 80/38/350
f 120/154/351 123/192/352 32/193/353 84/194/354 88/155/355
f 90/159/356 126/195/357 36/196/358 91/197/359
f 127/177/360 130/198/361 67/199/362 100/200/363 99/178/364
f 104/104/365 103/201/366 107/202/367 106/105/368
f 111/98/369 110/203/370 116/204/371 115/70/372
f 119/133/373 118/75/374 122/130/375 121/134/376
f 125/66/377 124/205/378 130/206/379 129/122/380
f 101/207/381 102/89/382 103/88/383 104/208/384
f 105/209/385 106/210/386 107/61/387 108/60/388
f 109/211/389 110/203/390 111/98/391 112/97/392
f 113/212/393 114/71/394 115/70/395 116/204/396
f 79/37/397 117/76/398 118/75/399 119/133/400
f 120/213/401 121/134/402 122/130/403 123/129/404
f 90/214/405 124/205/406 125/66/407 126/65/408
f 127/215/409 128/123/410 129/122/411 130/206/412
s 14
f 131/216/413 132/217/414 148/218/415 147/219/416 133/220/417
s off
f 144/221/418 155/222/419 154/223/420 145/224/421 146/225/422
f 134/226/423 135/227/424 137/228/425 136/229/426
s 15
f 132/217/427 137/230/428 135/231/429 149/232/430 148/218/431
s off
f 136/233/432 131/216/433 133/220/434 134/234/435
f 135/227/436 134/226/437 140/235/438 139/236/439
f 134/226/440 133/220/441 138/237/442 140/235/443
f 139/236/444 140/235/445 143/238/446 142/239/447
f 140/235/448 138/237/449 141/240/450 143/238/451
f 142/239/452 143/238/453 146/225/454 145/224/455
f 143/238/456 141/240/457 144/221/458 146/225/459
s 16
f 147/219/460 149/241/461 151/242/462 150/243/463
f 150/243/463 151/242/462 153/244/464 152/245/465
f 152/245/465 153/244/464 154/223/466 155/222/467
s 14
f 133/220/417 147/219/416 150/243/468 138/237/469
s 15
f 151/242/470 149/241/430 135/227/429 139/236/471
s 14
f 138/237/469 150/243/468 152/245/472 141/240/473
s 15
f 151/242/470 139/236/471 142/239/474 153/244/475
s off
f 141/240/476 152/245/477 155/222/478 144/221/479
f 153/244/480 142/239/481 145/224/482 154/223/483
f 147/219/484 148/218/485 149/232/486
s 17
f 156/246/487 158/247/488 172/248/489 173/249/490 157/250/491
s off
f 169/251/492 171/252/493 170/253/494 179/254/495 180/255/496
f 159/256/497 161/257/498 162/258/499 160/259/500
s 18
f 157/250/501 173/249/502 174/260/503 160/261/504 162/262/505
s off
f 161/263/506 159/264/507 158/247/508 156/246/509
f 160/259/510 164/265/511 165/266/512 159/256/513
f 159/256/514 165/266/515 163/267/516 158/247/517
f 164/265/518 167/268/519 168/269/520 165/266/521
f 165/266/522 168/269/523 166/270/524 163/267/525
f 167/268/526 170/253/527 171/252/528 168/269/529
f 168/269/530 171/252/531 169/251/532 166/270/533
s 19
f 172/248/534 175/271/535 176/272/536 174/273/537
f 175/271/535 177/274/538 178/275/539 176/272/536
f 177/274/538 180/255/540 179/254/541 178/275/539
s 17
f 158/247/488 163/267/542 175/271/543 172/248/489
s 18
f 176/272/544 164/265/545 160/259/504 174/273/503
s 17
f 163/267/542 166/270/546 177/274/547 175/271/543
s 18
f 176/272/544 178/275/548 167/268/549 164/265/545
s off
f 166/270/550 169/251/551 180/255/552 177/274/553
f 178/275/554 179/254/555 170/253/556 167/268/557
f 172/248/558 174/260/559 173/249/560
s 20
f 196/276/561 197/277/562 202/278/563 201/279/564
f 197/277/562 198/280/565 203/281/566 202/278/563
f 198/280/565 199/282/567 204/283/568 203/281/566
f 199/282/567 200/284/569 205/285/570 204/283/568
f 200/284/569 181/286/571 206/287/572 205/285/570
f 181/288/571 182/289/573 207/290/574 206/291/572
f 182/289/573 183/292/575 208/293/576 207/290/574
f 183/292/575 184/294/577 209/295/578 208/293/576
f 184/294/577 185/296/579 210/297/580 209/295/578
f 185/296/579 186/298/581 211/299/582 222/300/583 210/297/580
f 186/298/581 187/301/584 212/302/585 224/303/586 213/304/587 223/305/588 211/299/582
f 213/304/587 224/303/586 212/302/585
f 187/301/584 188/306/589 214/307/590 225/308/591 212/302/585
f 188/306/589 189/309/592 215/310/593 214/307/590
f 189/309/592 190/311/594 216/312/595 215/310/593
f 190/311/594 191/313/596 217/314/597 216/312/595
f 191/313/596 192/315/598 218/316/599 217/314/597
f 192/315/598 193/317/600 219/318/601 218/316/599
f 193/317/600 194/319/602 220/320/603 219/318/601
f 194/319/602 195/321/604 221/322/605 220/320/603
f 195/321/604 196/276/561 201/279/564 221/322/605
s 21
f 241/323/606 246/324/607 247/325/608 242/326/609
f 242/326/609 247/325/608 248/327/610 243/328/611
f 243/328/611 248/327/610 249/329/612 244/330/613
f 244/330/613 249/329/612 250/331/614 245/332/615
f 245/332/615 250/331/614 251/333/616 226/334/617
f 226/335/617 251/336/616 252/337/618 227/338/619
f 227/338/619 252/337/618 253/339/620 228/340/621
f 228/340/621 253/339/620 254/341/622 229/342/623
f 229/342/623 254/341/622 255/343/624 230/344/625
f 230/344/625 255/343/624 267/345/626 256/346/627 231/347/628
f 231/347/628 256/346/627 268/348/629 258/349/630 269/350/631 257/351/632 232/352/633
f 258/349/630 257/351/632 269/350/631
f 232/352/633 257/351/632 270/353/634 259/354/635 233/355/636
f 233/355/636 259/354/635 260/356/637 234/357/638
f 234/357/638 260/356/637 261/358/639 235/359/640
f 235/359/640 261/358/639 262/360/641 236/361/642
f 236/361/642 262/360/641 263/362/643 237/363/644
f 237/363/644 263/362/643 264/364/645 238/365/646
f 238/365/646 264/364/645 265/366/647 239/367/648
f 239/367/648 265/366/647 266/368/649 240/369/650
f 240/369/650 266/368/649 246/324/607 241/323/606
