# This file uses meters as units for non-parametric coordinates.

g default
v 3.653261 37.321373 44.176552
v -9.564358 37.372182 39.882744
v -9.564359 37.536597 25.987686
v 3.653260 37.587406 21.693874
v 11.822196 37.454390 32.935215
v 1.826631 26.381799 38.184967
v -4.782179 26.407204 36.038063
v -4.782179 26.489409 29.090532
v 1.826630 26.514816 26.943626
v 5.911098 26.448308 32.564297
v 0.000000 37.454390 32.935215
v 0.000000 15.442223 32.193378
v 3.490457 36.977186 43.451557
v -8.874710 37.024713 39.434669
v -4.400951 26.766911 35.837948
v 1.781633 26.743144 37.846390
v -8.874710 37.178531 26.435749
v -4.400951 26.843815 29.338490
v 3.490456 37.226062 22.418869
v 1.781632 26.867582 27.330046
v 11.132548 37.101624 32.935215
v 5.602678 26.805363 32.588219
v 3.620666 37.321373 44.176552
v -9.426282 37.372182 39.882744
v 0.014577 37.454390 32.935215
v -9.426283 37.536597 25.987686
v 3.620664 37.587406 21.693874
v 11.684121 37.454390 32.935215
v 3.620666 37.687312 44.176552
v -9.426282 37.738114 39.882744
v 0.014577 37.820324 32.935215
v -9.426283 37.902531 25.987686
v 3.620664 37.953342 21.693876
v 11.684121 37.820324 32.935215
v 11.822196 37.820324 32.935215
v 3.653261 37.687312 44.176552
v 0.000000 37.820324 32.935215
v 3.808055 36.983389 22.910015
v 10.736328 36.870571 32.444065
v 5.551438 27.046565 32.237648
v 2.087301 27.102970 27.470617
v 3.493499 37.039975 23.140507
v 10.421773 36.927158 32.674557
v 5.236882 27.103155 32.468136
v 1.772745 27.159560 27.701115
v 10.682312 36.847983 33.362782
v 3.766011 36.735363 42.880352
v 2.073383 27.058933 37.687393
v 5.531533 27.115246 32.928612
v 10.389881 36.905616 33.152218
v 3.473581 36.792995 42.669792
v 1.780952 27.116568 37.476830
v 5.239101 27.172878 32.718048
v 2.954387 36.681606 43.130650
v -8.258279 36.724707 39.488144
v -4.163566 27.141846 36.100407
v 1.442767 27.120291 37.921654
v 3.063940 36.739662 42.795368
v -8.148726 36.782749 39.152866
v -4.054013 27.199897 35.765129
v 1.552320 27.178339 37.586372
v -8.731714 36.703833 38.727509
v -8.731714 36.841177 27.120731
v -4.581531 27.255293 29.700531
v -4.581530 27.186623 35.503918
v -8.342694 36.763156 38.729507
v -8.342694 36.900501 27.122728
v -4.192509 27.314614 29.702530
v -4.192509 27.245949 35.505917
v -8.304594 36.796802 26.412098
v 3.022891 36.840348 22.732311
v 1.457469 27.351140 27.231342
v -4.206274 27.329366 29.071247
v -8.194289 36.847219 26.753347
v 3.133196 36.890765 23.073561
v 1.567775 27.401558 27.572594
v -4.095969 27.379784 29.412498
vt 0.577254 0.012236
vt 0.297746 0.103054
vt 0.297746 0.396946
vt 0.577254 0.487764
vt 0.750000 0.250000
vt 0.250000 0.500000
vt 0.350000 0.500000
vt 0.450000 0.500000
vt 0.550000 0.500000
vt 0.650000 0.500000
vt 0.750000 0.500000
vt 0.375000 0.750000
vt 0.425000 0.750000
vt 0.475000 0.750000
vt 0.525000 0.750000
vt 0.575000 0.750000
vt 0.625000 0.750000
vt 0.500000 0.250000
vt 0.500000 1.000000
vt 0.250000 0.500000
vt 0.350000 0.500000
vt 0.425000 0.750000
vt 0.375000 0.750000
vt 0.450000 0.500000
vt 0.475000 0.750000
vt 0.550000 0.500000
vt 0.525000 0.750000
vt 0.650000 0.500000
vt 0.575000 0.750000
vt 0.750000 0.500000
vt 0.625000 0.750000
vt 0.297746 0.103054
vt 0.577254 0.012236
vt 0.500000 0.250000
vt 0.297746 0.396946
vt 0.577254 0.487764
vt 0.750000 0.250000
vt 0.297746 0.103054
vt 0.577254 0.012236
vt 0.500000 0.250000
vt 0.297746 0.396946
vt 0.577254 0.487764
vt 0.750000 0.250000
vt 0.577254 0.012236
vt 0.750000 0.250000
vt 0.500000 0.250000
vt 0.550000 0.500000
vt 0.650000 0.500000
vt 0.575000 0.750000
vt 0.525000 0.750000
vt 0.550000 0.500000
vt 0.650000 0.500000
vt 0.575000 0.750000
vt 0.525000 0.750000
vt 0.650000 0.500000
vt 0.750000 0.500000
vt 0.625000 0.750000
vt 0.575000 0.750000
vt 0.650000 0.500000
vt 0.750000 0.500000
vt 0.625000 0.750000
vt 0.575000 0.750000
vt 0.250000 0.500000
vt 0.350000 0.500000
vt 0.425000 0.750000
vt 0.375000 0.750000
vt 0.250000 0.500000
vt 0.350000 0.500000
vt 0.425000 0.750000
vt 0.375000 0.750000
vt 0.350000 0.500000
vt 0.450000 0.500000
vt 0.475000 0.750000
vt 0.425000 0.750000
vt 0.350000 0.500000
vt 0.450000 0.500000
vt 0.475000 0.750000
vt 0.425000 0.750000
vt 0.450000 0.500000
vt 0.550000 0.500000
vt 0.525000 0.750000
vt 0.475000 0.750000
vt 0.450000 0.500000
vt 0.550000 0.500000
vt 0.525000 0.750000
vt 0.475000 0.750000
vn -0.281228 -0.424435 0.860678
vn -0.281228 -0.424435 0.860678
vn -0.281228 -0.424435 0.860678
vn -0.281228 -0.424435 0.860678
vn -0.917211 -0.398373 -0.004714
vn -0.917211 -0.398373 -0.004714
vn -0.917211 -0.398373 -0.004714
vn -0.917211 -0.398373 -0.004714
vn -0.285531 -0.371711 -0.883348
vn -0.285531 -0.371711 -0.883348
vn -0.285531 -0.371711 -0.883348
vn -0.285531 -0.371711 -0.883348
vn 0.745468 -0.381964 -0.546242
vn 0.745468 -0.381964 -0.546242
vn 0.745468 -0.381964 -0.546242
vn 0.745468 -0.381964 -0.546242
vn 0.738501 -0.414552 0.531754
vn 0.738501 -0.414552 0.531754
vn 0.738501 -0.414552 0.531754
vn 0.738501 -0.414552 0.531754
vn -0.000000 0.999930 0.011832
vn -0.000000 0.999930 0.011832
vn -0.000000 0.999930 0.011832
vn -0.000000 0.999930 0.011832
vn -0.000000 0.999930 0.011833
vn 0.000000 0.999930 0.011833
vn 0.000000 0.999930 0.011831
vn 0.000000 0.999930 0.011831
vn 0.000000 0.999930 0.011831
vn -0.281227 -0.424434 0.860678
vn -0.281227 -0.424434 0.860678
vn -0.281227 -0.424434 0.860678
vn -0.917212 -0.398373 -0.004714
vn -0.917212 -0.398373 -0.004714
vn -0.917212 -0.398373 -0.004714
vn -0.285532 -0.371710 -0.883348
vn -0.285532 -0.371710 -0.883348
vn -0.285532 -0.371710 -0.883348
vn 0.745469 -0.381964 -0.546242
vn 0.745469 -0.381964 -0.546242
vn 0.745469 -0.381964 -0.546242
vn 0.738502 -0.414552 0.531754
vn 0.738502 -0.414552 0.531754
vn 0.738502 -0.414552 0.531754
vn -0.149990 -0.879676 0.451302
vn -0.149990 -0.879676 0.451302
vn -0.149990 -0.879676 0.451302
vn -0.149990 -0.879676 0.451302
vn -0.232692 0.649385 0.723985
vn -0.232692 0.649385 0.723985
vn -0.232692 0.649385 0.723985
vn -0.232692 0.649385 0.723985
vn -0.455373 -0.890238 -0.010534
vn -0.455373 -0.890238 -0.010534
vn -0.455373 -0.890238 -0.010534
vn -0.455373 -0.890238 -0.010534
vn -0.683853 0.729569 0.008633
vn -0.683853 0.729569 0.008633
vn -0.683853 0.729569 0.008633
vn -0.683853 0.729569 0.008633
vn -0.148568 -0.871339 -0.467649
vn -0.148568 -0.871339 -0.467649
vn -0.148568 -0.871339 -0.467649
vn -0.148568 -0.871339 -0.467649
vn -0.220850 0.707357 -0.671470
vn -0.220850 0.707357 -0.671470
vn -0.220850 0.707357 -0.671470
vn -0.220850 0.707357 -0.671470
vn 0.430963 -0.842524 -0.323146
vn 0.430963 -0.842524 -0.323146
vn 0.430963 -0.842524 -0.323146
vn 0.430963 -0.842524 -0.323146
vn 0.653190 0.595547 -0.467618
vn 0.653190 0.595547 -0.467618
vn 0.653190 0.595547 -0.467618
vn 0.653190 0.595547 -0.467618
vn 0.433681 -0.847835 0.305118
vn 0.433681 -0.847835 0.305118
vn 0.433681 -0.847835 0.305118
vn 0.433681 -0.847835 0.305118
vn 0.673357 0.548419 0.495809
vn 0.673357 0.548419 0.495809
vn 0.673357 0.548419 0.495809
vn 0.673357 0.548419 0.495809
vn 0.000000 0.999929 0.011870
vn 0.000000 0.999929 0.011870
vn 0.000000 0.999929 0.011870
vn 0.000000 0.999930 0.011870
vn 0.000000 0.999930 0.011829
vn 0.000000 0.999930 0.011829
vn 0.000000 0.999930 0.011829
vn 0.000000 0.999930 0.011829
vn 0.000000 0.999930 0.011832
vn 0.000000 0.999930 0.011832
vn 0.000000 0.999930 0.011832
vn 0.000000 0.999930 0.011832
vn 0.000000 0.999929 0.011875
vn 0.000000 0.999929 0.011875
vn 0.000000 0.999930 0.011875
vn 0.000000 0.999930 0.011875
vn 0.000000 0.999930 0.011819
vn 0.000000 0.999930 0.011819
vn 0.000000 0.999930 0.011819
vn 0.000000 0.999930 0.011819
vn 0.000000 0.000000 -0.000000
vn 0.000000 0.000000 -0.000000
vn 0.000000 0.000000 -0.000000
vn 0.000000 0.000000 -0.000000
vn -0.312610 0.000000 0.949882
vn -0.312610 0.000000 0.949882
vn -0.312610 0.000000 0.949882
vn -0.312610 0.000000 0.949882
vn 0.952206 0.000000 -0.305458
vn 0.952206 0.000000 -0.305458
vn 0.952206 0.000000 -0.305458
vn 0.952206 0.000000 -0.305458
vn -1.000000 0.000000 0.000000
vn -1.000000 0.000000 0.000000
vn -1.000000 0.000000 0.000000
vn -1.000000 0.000000 0.000000
vn -0.312610 0.000003 -0.949882
vn -0.312610 0.000003 -0.949882
vn -0.312610 0.000003 -0.949882
vn -0.312610 0.000003 -0.949882
vn 0.812571 0.000002 -0.582862
vn 0.812571 0.000002 -0.582862
vn 0.812571 0.000002 -0.582862
vn 0.812571 0.000002 -0.582862
vn 0.000000 0.000000 1.000000
vn 0.000000 0.000000 1.000000
vn 0.000000 0.000000 1.000000
vn 0.000000 0.000000 1.000000
vn 0.808961 0.000000 0.587863
vn 0.808961 0.000000 0.587863
vn 0.808961 0.000000 0.587863
vn 0.808961 0.000000 0.587863
vn 0.000000 0.000000 -1.000000
vn 0.000000 0.000000 -1.000000
vn 0.000000 0.000000 -1.000000
vn 0.000000 0.000000 -1.000000
vn -0.951038 0.000000 0.309074
vn -0.951038 0.000000 0.309074
vn -0.951038 0.000000 0.309074
vn -0.951038 0.000000 0.309074
vn 0.801032 -0.132935 -0.583674
vn 0.801032 -0.132935 -0.583674
vn 0.801032 -0.132935 -0.583674
vn 0.801032 -0.132935 -0.583674
vn 0.801324 -0.414882 -0.430990
vn 0.801324 -0.414882 -0.430990
vn 0.801324 -0.414882 -0.430990
vn 0.801324 -0.414882 -0.430990
vn 0.662265 -0.568573 -0.487986
vn 0.662265 -0.568573 -0.487986
vn 0.662264 -0.568573 -0.487986
vn 0.662264 -0.568573 -0.487986
vn 0.646753 -0.410446 -0.642842
vn 0.646753 -0.410446 -0.642842
vn 0.646753 -0.410446 -0.642842
vn 0.646753 -0.410446 -0.642842
vn -0.121763 -0.989585 0.076775
vn -0.121763 -0.989585 0.076775
vn -0.121763 -0.989585 0.076775
vn -0.121763 -0.989585 0.076775
vn -0.529326 0.296075 -0.795081
vn -0.529326 0.296075 -0.795081
vn -0.529326 0.296075 -0.795081
vn -0.529326 0.296075 -0.795081
vn 0.121770 0.989584 -0.076782
vn 0.121770 0.989584 -0.076782
vn 0.121770 0.989584 -0.076782
vn 0.121770 0.989584 -0.076782
vn 0.601302 0.246155 0.760161
vn 0.601302 0.246155 0.760160
vn 0.601302 0.246155 0.760160
vn 0.601302 0.246155 0.760160
vn 0.738508 -0.414531 0.531760
vn 0.738508 -0.414531 0.531760
vn 0.738508 -0.414531 0.531760
vn 0.738508 -0.414531 0.531760
vn 0.738493 -0.414557 0.531762
vn 0.738493 -0.414557 0.531762
vn 0.738493 -0.414557 0.531762
vn 0.738493 -0.414557 0.531762
vn 0.738500 -0.414554 0.531755
vn 0.738500 -0.414554 0.531755
vn 0.738500 -0.414554 0.531755
vn 0.738500 -0.414554 0.531755
vn 0.738508 -0.414553 0.531743
vn 0.738508 -0.414553 0.531743
vn 0.738508 -0.414553 0.531743
vn 0.738508 -0.414553 0.531743
vn -0.122230 -0.987400 -0.100503
vn -0.122230 -0.987400 -0.100504
vn -0.122230 -0.987400 -0.100504
vn -0.122230 -0.987400 -0.100503
vn 0.595856 0.296343 -0.746416
vn 0.595856 0.296343 -0.746416
vn 0.595856 0.296343 -0.746416
vn 0.595856 0.296343 -0.746416
vn 0.122231 0.987400 0.100507
vn 0.122231 0.987400 0.100506
vn 0.122231 0.987400 0.100506
vn 0.122231 0.987400 0.100507
vn -0.533856 0.246442 0.808866
vn -0.533856 0.246442 0.808866
vn -0.533856 0.246442 0.808866
vn -0.533856 0.246442 0.808866
vn -0.281229 -0.424414 0.860687
vn -0.281229 -0.424414 0.860687
vn -0.281229 -0.424414 0.860687
vn -0.281229 -0.424414 0.860687
vn -0.281229 -0.424433 0.860678
vn -0.281229 -0.424433 0.860678
vn -0.281229 -0.424433 0.860678
vn -0.281229 -0.424433 0.860678
vn -0.281228 -0.424436 0.860677
vn -0.281228 -0.424436 0.860677
vn -0.281228 -0.424436 0.860677
vn -0.281228 -0.424436 0.860677
vn -0.281201 -0.424440 0.860684
vn -0.281201 -0.424440 0.860684
vn -0.281201 -0.424440 0.860684
vn -0.281201 -0.424440 0.860684
vn 0.046743 -0.986720 -0.155562
vn 0.046743 -0.986720 -0.155562
vn 0.046743 -0.986720 -0.155562
vn 0.046743 -0.986719 -0.155562
vn 0.902067 0.265030 0.340638
vn 0.902067 0.265030 0.340638
vn 0.902067 0.265030 0.340638
vn 0.902067 0.265030 0.340638
vn -0.046742 0.986719 0.155569
vn -0.046742 0.986719 0.155569
vn -0.046742 0.986719 0.155569
vn -0.046742 0.986719 0.155569
vn -0.924827 0.284050 -0.253005
vn -0.924826 0.284050 -0.253005
vn -0.924826 0.284050 -0.253005
vn -0.924826 0.284050 -0.253005
vn -0.917218 -0.398357 -0.004714
vn -0.917218 -0.398357 -0.004714
vn -0.917218 -0.398357 -0.004714
vn -0.917218 -0.398357 -0.004714
vn -0.917211 -0.398374 -0.004722
vn -0.917211 -0.398374 -0.004722
vn -0.917211 -0.398374 -0.004722
vn -0.917211 -0.398374 -0.004722
vn -0.917210 -0.398377 -0.004714
vn -0.917210 -0.398377 -0.004714
vn -0.917210 -0.398377 -0.004714
vn -0.917210 -0.398377 -0.004714
vn -0.917209 -0.398378 -0.004706
vn -0.917209 -0.398378 -0.004706
vn -0.917209 -0.398378 -0.004706
vn -0.917209 -0.398378 -0.004706
vn 0.150801 -0.988495 -0.011697
vn 0.150801 -0.988495 -0.011697
vn 0.150801 -0.988495 -0.011697
vn 0.150801 -0.988495 -0.011697
vn -0.041979 0.242661 0.969203
vn -0.041979 0.242661 0.969203
vn -0.041979 0.242661 0.969203
vn -0.041979 0.242661 0.969203
vn -0.150801 0.988495 0.011696
vn -0.150801 0.988495 0.011696
vn -0.150801 0.988495 0.011696
vn -0.150801 0.988495 0.011696
vn -0.041505 0.304248 -0.951688
vn -0.041505 0.304248 -0.951688
vn -0.041505 0.304248 -0.951688
vn -0.041505 0.304248 -0.951688
vn -0.285530 -0.371711 -0.883348
vn -0.285530 -0.371711 -0.883348
vn -0.285530 -0.371711 -0.883348
vn -0.285530 -0.371711 -0.883348
vn -0.285523 -0.371712 -0.883350
vn -0.285523 -0.371712 -0.883350
vn -0.285523 -0.371712 -0.883350
vn -0.285523 -0.371712 -0.883350
vn -0.285532 -0.371711 -0.883347
vn -0.285532 -0.371711 -0.883347
vn -0.285532 -0.371711 -0.883347
vn -0.285532 -0.371711 -0.883347
vn -0.285526 -0.371710 -0.883350
vn -0.285526 -0.371709 -0.883350
vn -0.285526 -0.371709 -0.883350
vn -0.285526 -0.371709 -0.883350
vn 0.046456 -0.990256 0.131281
vn 0.046456 -0.990256 0.131281
vn 0.046456 -0.990256 0.131281
vn 0.046456 -0.990256 0.131281
vn -0.925907 0.275355 0.258604
vn -0.925907 0.275355 0.258604
vn -0.925907 0.275355 0.258604
vn -0.925907 0.275355 0.258604
vn -0.046457 0.990256 -0.131285
vn -0.046457 0.990256 -0.131285
vn -0.046457 0.990256 -0.131285
vn -0.046457 0.990256 -0.131285
vn 0.895828 0.294248 -0.333033
vn 0.895828 0.294248 -0.333033
vn 0.895827 0.294248 -0.333033
vn 0.895828 0.294248 -0.333033
s off
g pasted__pCone1
f 58/67/1 59/68/2 60/69/3 61/70/4
f 66/75/5 67/76/6 68/77/7 69/78/8
f 74/83/9 75/84/10 76/85/11 77/86/12
f 42/51/13 43/52/14 44/53/15 45/54/16
f 50/59/17 51/60/18 52/61/19 53/62/20
s 1
f 30/38/21 29/39/22 31/40/23
f 32/41/24 30/38/21 31/40/23
f 33/42/25 32/41/24 31/40/23
f 34/43/26 33/42/25 31/40/23
s off
f 36/44/27 35/45/28 37/46/29
f 6/12/30 7/13/31 12/19/32
f 7/13/33 8/14/34 12/19/35
f 8/14/36 9/15/37 12/19/38
f 9/15/39 10/16/40 12/19/41
f 10/16/42 6/17/43 12/19/44
f 1/6/45 2/7/46 14/21/47 13/20/48
f 7/13/49 6/12/50 16/23/51 15/22/52
f 2/7/53 3/8/54 17/24/55 14/21/56
f 8/14/57 7/13/58 15/22/59 18/25/60
f 3/8/61 4/9/62 19/26/63 17/24/64
f 9/15/65 8/14/66 18/25/67 20/27/68
f 4/9/69 5/10/70 21/28/71 19/26/72
f 10/16/73 9/15/74 20/27/75 22/29/76
f 5/10/77 1/11/78 13/30/79 21/28/80
f 6/17/81 10/16/82 22/29/83 16/31/84
f 2/2/85 1/1/86 23/33/87 24/32/88
f 1/1/89 11/18/90 25/34/91 23/33/92
f 3/3/93 2/2/94 24/32/95 26/35/96
f 4/4/97 3/3/98 26/35/99 27/36/100
f 5/5/101 4/4/102 27/36/103 28/37/104
f 11/18/105 5/5/106 28/37/107 25/34/108
f 24/32/109 23/33/110 29/39/111 30/38/112
f 23/33/113 25/34/114 31/40/115 29/39/116
f 26/35/117 24/32/118 30/38/119 32/41/120
f 27/36/121 26/35/122 32/41/123 33/42/124
f 28/37/125 27/36/126 33/42/127 34/43/128
f 25/34/129 28/37/130 34/43/131 31/40/132
f 1/1/133 5/5/134 35/45/135 36/44/136
f 5/5/137 11/18/138 37/46/139 35/45/140
f 11/18/141 1/1/142 36/44/143 37/46/144
f 19/26/145 21/28/146 39/48/147 38/47/148
f 21/28/149 22/29/150 40/49/151 39/48/152
f 22/29/153 20/27/154 41/50/155 40/49/156
f 20/27/157 19/26/158 38/47/159 41/50/160
f 38/47/161 39/48/162 43/52/163 42/51/164
f 39/48/165 40/49/166 44/53/167 43/52/168
f 40/49/169 41/50/170 45/54/171 44/53/172
f 41/50/173 38/47/174 42/51/175 45/54/176
f 21/28/177 13/30/178 47/56/179 46/55/180
f 13/30/181 16/31/182 48/57/183 47/56/184
f 16/31/185 22/29/186 49/58/187 48/57/188
f 22/29/189 21/28/190 46/55/191 49/58/192
f 46/55/193 47/56/194 51/60/195 50/59/196
f 47/56/197 48/57/198 52/61/199 51/60/200
f 48/57/201 49/58/202 53/62/203 52/61/204
f 49/58/205 46/55/206 50/59/207 53/62/208
f 13/20/209 14/21/210 55/64/211 54/63/212
f 14/21/213 15/22/214 56/65/215 55/64/216
f 15/22/217 16/23/218 57/66/219 56/65/220
f 16/23/221 13/20/222 54/63/223 57/66/224
f 54/63/225 55/64/226 59/68/227 58/67/228
f 55/64/229 56/65/230 60/69/231 59/68/232
f 56/65/233 57/66/234 61/70/235 60/69/236
f 57/66/237 54/63/238 58/67/239 61/70/240
f 14/21/241 17/24/242 63/72/243 62/71/244
f 17/24/245 18/25/246 64/73/247 63/72/248
f 18/25/249 15/22/250 65/74/251 64/73/252
f 15/22/253 14/21/254 62/71/255 65/74/256
f 62/71/257 63/72/258 67/76/259 66/75/260
f 63/72/261 64/73/262 68/77/263 67/76/264
f 64/73/265 65/74/266 69/78/267 68/77/268
f 65/74/269 62/71/270 66/75/271 69/78/272
f 17/24/273 19/26/274 71/80/275 70/79/276
f 19/26/277 20/27/278 72/81/279 71/80/280
f 20/27/281 18/25/282 73/82/283 72/81/284
f 18/25/285 17/24/286 70/79/287 73/82/288
f 70/79/289 71/80/290 75/84/291 74/83/292
f 71/80/293 72/81/294 76/85/295 75/84/296
f 72/81/297 73/82/298 77/86/299 76/85/300
f 73/82/301 70/79/302 74/83/303 77/86/304
