# This file uses meters as units for non-parametric coordinates.

g default
v 8.499752 44.491683 -23.993776
v -8.499752 44.491683 -23.993776
v -8.499750 44.491683 -40.993282
v 8.499750 44.491683 -40.993282
v 4.249877 25.602112 -28.243654
v -4.249877 25.602112 -28.243651
v -4.249877 25.602112 -36.743401
v 4.249877 25.602112 -36.743401
v 0.000000 6.712538 -32.493528
v 7.856231 43.869913 -24.637297
v -7.856231 43.869913 -24.637297
v -3.928116 26.410477 -28.565412
v 3.928116 26.410477 -28.565415
v -7.856229 43.869913 -40.349764
v -3.928116 26.410477 -36.421641
v 7.856229 43.869913 -40.349764
v 3.928116 26.410477 -36.421641
v 8.499752 45.224074 -23.993776
v -8.499752 45.224074 -23.993776
v 0.000000 45.224074 -32.493528
v -8.499750 45.224074 -40.993282
v 8.499750 45.224074 -40.993282
v 7.753022 43.411150 -39.874962
v 7.753024 43.411150 -25.112098
v 4.062308 27.006913 -28.802817
v 4.062308 27.006913 -36.184239
v 7.154137 43.545892 -39.874962
v 7.154137 43.545892 -25.112097
v 3.463420 27.141653 -28.802821
v 3.463420 27.141653 -36.184235
v -7.291114 43.323905 -40.226924
v 7.291114 43.323905 -40.226924
v 3.645555 27.120362 -36.581355
v -3.645555 27.120362 -36.581355
v -7.291114 43.382360 -39.967103
v 7.291114 43.382360 -39.967103
v 3.645555 27.178818 -36.321534
v -3.645555 27.178818 -36.321534
v -7.727222 43.296509 -25.230764
v -7.727222 43.296509 -39.756298
v -4.095840 27.155972 -36.124906
v -4.095840 27.155972 -28.862146
v -7.479646 43.352211 -25.230766
v -7.479648 43.352211 -39.756295
v -3.848263 27.211674 -36.124906
v -3.848263 27.211674 -28.862146
v 7.224432 43.259481 -24.774644
v -7.224432 43.259481 -24.774644
v -3.612221 27.204114 -28.386852
v 3.612221 27.204114 -28.386855
v 7.224432 43.259481 -24.774644
v -7.224432 43.259481 -24.774644
v -3.612221 27.204114 -28.386852
v 3.612221 27.204114 -28.386855
v 7.224431 43.301324 -24.960621
v -7.224431 43.301324 -24.960621
v -3.612220 27.245955 -28.572828
v 3.612220 27.245955 -28.572832
vt 0.500000 0.000000
vt 0.250000 0.250000
vt 0.500000 0.500000
vt 0.750000 0.250000
vt 0.250000 0.500000
vt 0.375000 0.500000
vt 0.500000 0.500000
vt 0.625000 0.500000
vt 0.750000 0.500000
vt 0.375000 0.750000
vt 0.437500 0.750000
vt 0.500000 0.750000
vt 0.562500 0.750000
vt 0.625000 0.750000
vt 0.500000 0.250000
vt 0.500000 1.000000
vt 0.250000 0.500000
vt 0.375000 0.500000
vt 0.437500 0.750000
vt 0.375000 0.750000
vt 0.500000 0.500000
vt 0.500000 0.750000
vt 0.625000 0.500000
vt 0.562500 0.750000
vt 0.750000 0.500000
vt 0.625000 0.750000
vt 0.250000 0.250000
vt 0.500000 0.000000
vt 0.500000 0.500000
vt 0.750000 0.250000
vt 0.625000 0.500000
vt 0.750000 0.500000
vt 0.625000 0.750000
vt 0.562500 0.750000
vt 0.625000 0.500000
vt 0.750000 0.500000
vt 0.625000 0.750000
vt 0.562500 0.750000
vt 0.500000 0.500000
vt 0.625000 0.500000
vt 0.562500 0.750000
vt 0.500000 0.750000
vt 0.500000 0.500000
vt 0.625000 0.500000
vt 0.562500 0.750000
vt 0.500000 0.750000
vt 0.375000 0.500000
vt 0.500000 0.500000
vt 0.500000 0.750000
vt 0.437500 0.750000
vt 0.375000 0.500000
vt 0.500000 0.500000
vt 0.500000 0.750000
vt 0.437500 0.750000
vt 0.250000 0.500000
vt 0.375000 0.500000
vt 0.437500 0.750000
vt 0.375000 0.750000
vt 0.250000 0.500000
vt 0.375000 0.500000
vt 0.437500 0.750000
vt 0.375000 0.750000
vt 7.224431 43.259480
vt -7.224431 43.259480
vt -7.224431 43.259480
vt 7.224431 43.259480
vt -3.612222 27.204113
vt -3.612222 27.204113
vt 3.612222 27.204113
vt 3.612222 27.204113
vt 0.250000 0.500000
vt 0.375000 0.500000
vt 0.437500 0.750000
vt 0.375000 0.750000
vn 0.000000 -0.219498 0.975613
vn 0.000000 -0.219498 0.975613
vn 0.000000 -0.219498 0.975613
vn 0.000000 -0.219498 0.975613
vn -0.975613 -0.219499 0.000000
vn -0.975613 -0.219499 0.000000
vn -0.975613 -0.219499 0.000000
vn -0.975613 -0.219499 0.000000
vn 0.000000 -0.219499 -0.975613
vn 0.000000 -0.219499 -0.975613
vn 0.000000 -0.219499 -0.975613
vn 0.000000 -0.219499 -0.975613
vn 0.975613 -0.219499 0.000000
vn 0.975613 -0.219499 0.000000
vn 0.975613 -0.219499 0.000000
vn 0.975613 -0.219499 0.000000
vn -0.000001 -0.719157 0.694848
vn -0.000001 -0.719157 0.694848
vn -0.000001 -0.719157 0.694848
vn -0.000001 -0.719157 0.694848
vn 0.000000 0.369819 0.929104
vn 0.000000 0.369819 0.929104
vn 0.000000 0.369819 0.929104
vn 0.000000 0.369819 0.929104
vn -0.694848 -0.719156 -0.000000
vn -0.694848 -0.719156 -0.000000
vn -0.694848 -0.719156 -0.000000
vn -0.694848 -0.719156 -0.000000
vn -0.929104 0.369819 0.000000
vn -0.929104 0.369819 0.000000
vn -0.929104 0.369819 0.000000
vn -0.929104 0.369819 0.000000
vn -0.000000 -0.719154 -0.694850
vn -0.000000 -0.719154 -0.694850
vn -0.000000 -0.719155 -0.694850
vn -0.000000 -0.719155 -0.694850
vn 0.000000 0.369819 -0.929104
vn 0.000000 0.369819 -0.929104
vn 0.000000 0.369819 -0.929104
vn 0.000000 0.369819 -0.929104
vn 0.694848 -0.719157 -0.000001
vn 0.694848 -0.719157 -0.000001
vn 0.694848 -0.719157 -0.000001
vn 0.694848 -0.719157 -0.000001
vn 0.929104 0.369819 0.000000
vn 0.929104 0.369819 0.000000
vn 0.929104 0.369819 0.000000
vn 0.929104 0.369819 0.000000
vn 0.000001 0.000000 1.000000
vn 0.000001 0.000000 1.000000
vn 0.000001 0.000000 1.000000
vn 0.000001 0.000000 1.000000
vn -1.000000 -0.000000 -0.000001
vn -1.000000 -0.000000 -0.000001
vn -1.000000 -0.000000 -0.000001
vn -1.000000 -0.000000 -0.000001
vn 0.000000 -0.000000 -1.000000
vn 0.000000 -0.000000 -1.000000
vn 0.000000 -0.000000 -1.000000
vn 0.000000 -0.000000 -1.000000
vn 1.000000 0.000000 0.000001
vn 1.000000 0.000000 0.000001
vn 1.000000 0.000000 0.000001
vn 1.000000 0.000000 0.000001
vn 0.975617 -0.219482 0.000001
vn 0.975616 -0.219482 0.000001
vn 0.975616 -0.219482 0.000001
vn 0.975616 -0.219482 0.000001
vn 0.975612 -0.219502 0.000014
vn 0.975612 -0.219502 0.000014
vn 0.975612 -0.219502 0.000014
vn 0.975612 -0.219502 0.000014
vn 0.975612 -0.219503 0.000000
vn 0.975612 -0.219503 0.000000
vn 0.975612 -0.219503 0.000000
vn 0.975612 -0.219503 0.000000
vn 0.975612 -0.219502 -0.000015
vn 0.975612 -0.219502 -0.000015
vn 0.975612 -0.219502 -0.000015
vn 0.975612 -0.219502 -0.000015
vn -0.219502 -0.975612 -0.000001
vn -0.219502 -0.975612 -0.000001
vn -0.219502 -0.975612 -0.000001
vn -0.219502 -0.975612 -0.000001
vn 0.047061 0.209166 -0.976747
vn 0.047061 0.209166 -0.976747
vn 0.047061 0.209166 -0.976747
vn 0.047061 0.209166 -0.976747
vn 0.219497 0.975613 0.000000
vn 0.219497 0.975613 0.000000
vn 0.219497 0.975613 0.000000
vn 0.219497 0.975613 0.000000
vn 0.047062 0.209166 0.976747
vn 0.047062 0.209166 0.976747
vn 0.047062 0.209166 0.976747
vn 0.047062 0.209166 0.976747
vn -0.000000 -0.219492 -0.975614
vn -0.000000 -0.219492 -0.975614
vn -0.000000 -0.219492 -0.975614
vn -0.000000 -0.219492 -0.975614
vn 0.000005 -0.219500 -0.975612
vn 0.000005 -0.219500 -0.975612
vn 0.000005 -0.219500 -0.975612
vn 0.000005 -0.219500 -0.975612
vn 0.000000 -0.219499 -0.975613
vn 0.000000 -0.219499 -0.975613
vn 0.000000 -0.219499 -0.975613
vn 0.000000 -0.219499 -0.975613
vn -0.000004 -0.219500 -0.975613
vn -0.000004 -0.219500 -0.975613
vn -0.000004 -0.219500 -0.975613
vn -0.000004 -0.219500 -0.975613
vn 0.000001 -0.975613 0.219499
vn 0.000001 -0.975613 0.219499
vn 0.000001 -0.975613 0.219499
vn 0.000001 -0.975613 0.219499
vn -0.976747 0.209166 -0.047060
vn -0.976747 0.209166 -0.047060
vn -0.976747 0.209166 -0.047060
vn -0.976747 0.209166 -0.047060
vn 0.000000 0.975613 -0.219498
vn 0.000000 0.975613 -0.219498
vn 0.000000 0.975613 -0.219498
vn 0.000000 0.975613 -0.219498
vn 0.976747 0.209166 -0.047057
vn 0.976747 0.209166 -0.047057
vn 0.976747 0.209166 -0.047057
vn 0.976747 0.209166 -0.047057
vn -0.975613 -0.219499 0.000001
vn -0.975613 -0.219499 0.000001
vn -0.975613 -0.219499 0.000001
vn -0.975613 -0.219499 0.000001
vn -0.975613 -0.219498 0.000001
vn -0.975613 -0.219498 0.000001
vn -0.975613 -0.219498 0.000001
vn -0.975613 -0.219498 0.000001
vn -0.975613 -0.219497 0.000000
vn -0.975613 -0.219497 0.000000
vn -0.975613 -0.219497 0.000000
vn -0.975613 -0.219497 0.000000
vn -0.975613 -0.219498 -0.000003
vn -0.975613 -0.219498 -0.000003
vn -0.975613 -0.219498 -0.000003
vn -0.975613 -0.219498 -0.000003
vn 0.219503 -0.975612 0.000000
vn 0.219503 -0.975612 0.000000
vn 0.219503 -0.975612 0.000000
vn 0.219503 -0.975612 0.000000
vn -0.047067 0.209165 0.976747
vn -0.047067 0.209165 0.976747
vn -0.047067 0.209165 0.976747
vn -0.047067 0.209165 0.976747
vn -0.219500 0.975612 0.000000
vn -0.219500 0.975612 0.000000
vn -0.219500 0.975612 0.000000
vn -0.219500 0.975612 0.000000
vn -0.047062 0.209165 -0.976747
vn -0.047062 0.209165 -0.976747
vn -0.047062 0.209165 -0.976747
vn -0.047062 0.209165 -0.976747
vn 0.000001 -0.219513 0.975610
vn 0.000001 -0.219513 0.975610
vn 0.000001 -0.219513 0.975610
vn 0.000001 -0.219513 0.975610
vn 0.000006 -0.219497 0.975613
vn 0.000006 -0.219497 0.975613
vn 0.000006 -0.219497 0.975613
vn 0.000006 -0.219497 0.975613
vn 0.000000 -0.219502 0.975612
vn 0.000000 -0.219502 0.975612
vn 0.000000 -0.219502 0.975612
vn 0.000000 -0.219502 0.975612
vn -0.000007 -0.219497 0.975613
vn -0.000006 -0.219497 0.975613
vn -0.000006 -0.219497 0.975613
vn -0.000006 -0.219497 0.975613
vn 0.000000 -0.000000 0.000000
vn 0.000000 -0.000000 0.000000
vn 0.000000 -0.000000 0.000000
vn 0.000000 -0.000000 0.000000
vn 0.000000 -0.000000 0.000000
vn 0.000000 -0.000000 0.000000
vn 0.000000 -0.000000 0.000000
vn 0.000000 -0.000000 0.000000
vn 0.000000 -0.000000 0.000000
vn 0.000000 -0.000000 0.000000
vn 0.000000 -0.000000 0.000000
vn 0.000000 -0.000000 0.000000
vn 0.000000 -0.000000 0.000000
vn 0.000000 -0.000000 0.000000
vn 0.000000 -0.000000 0.000000
vn 0.000000 -0.000000 0.000000
vn 0.000000 1.000000 0.000000
vn -0.000000 1.000000 -0.000000
vn 0.000000 1.000000 0.000000
vn 0.000000 1.000000 0.000000
vn -0.000000 1.000000 -0.000000
vn 0.000000 -0.219499 0.975613
vn 0.000000 -0.219498 0.975613
vn 0.000000 -0.219498 0.975613
vn -0.975613 -0.219499 0.000000
vn -0.975613 -0.219499 0.000000
vn -0.975613 -0.219499 0.000000
vn 0.000000 -0.219498 -0.975613
vn 0.000000 -0.219498 -0.975613
vn 0.000000 -0.219498 -0.975613
vn 0.975613 -0.219499 0.000000
vn 0.975613 -0.219499 0.000000
vn 0.975613 -0.219499 0.000000
vn 0.000001 -0.975612 -0.219501
vn 0.000001 -0.975612 -0.219501
vn 0.000001 -0.975612 -0.219501
vn 0.000001 -0.975612 -0.219501
vn 0.976747 0.209164 0.047066
vn 0.976747 0.209164 0.047066
vn 0.976747 0.209164 0.047066
vn 0.976747 0.209164 0.047066
vn -0.000000 0.975614 0.219495
vn -0.000000 0.975614 0.219495
vn -0.000000 0.975614 0.219495
vn -0.000000 0.975614 0.219495
vn -0.976747 0.209164 0.047067
vn -0.976747 0.209164 0.047067
vn -0.976747 0.209164 0.047067
vn -0.976747 0.209164 0.047067
s off
g pCone2
f 55/71/1 56/72/2 57/73/3 58/74/4
f 43/51/5 44/52/6 45/53/7 46/54/8
f 35/43/9 36/44/10 37/45/11 38/46/12
f 27/35/13 28/36/14 29/37/15 30/38/16
f 1/5/17 2/6/18 11/18/19 10/17/20
f 6/11/21 5/10/22 13/20/23 12/19/24
f 2/6/25 3/7/26 14/21/27 11/18/28
f 7/12/29 6/11/30 12/19/31 15/22/32
f 3/7/33 4/8/34 16/23/35 14/21/36
f 8/13/37 7/12/38 15/22/39 17/24/40
f 4/8/41 1/9/42 10/25/43 16/23/44
f 5/14/45 8/13/46 17/24/47 13/26/48
f 2/2/49 1/1/50 18/28/51 19/27/52
f 3/3/53 2/2/54 19/27/55 21/29/56
f 4/4/57 3/3/58 21/29/59 22/30/60
f 1/1/61 4/4/62 22/30/63 18/28/64
f 16/23/65 10/25/66 24/32/67 23/31/68
f 10/25/69 13/26/70 25/33/71 24/32/72
f 13/26/73 17/24/74 26/34/75 25/33/76
f 17/24/77 16/23/78 23/31/79 26/34/80
f 23/31/81 24/32/82 28/36/83 27/35/84
f 24/32/85 25/33/86 29/37/87 28/36/88
f 25/33/89 26/34/90 30/38/91 29/37/92
f 26/34/93 23/31/94 27/35/95 30/38/96
f 14/21/97 16/23/98 32/40/99 31/39/100
f 16/23/101 17/24/102 33/41/103 32/40/104
f 17/24/105 15/22/106 34/42/107 33/41/108
f 15/22/109 14/21/110 31/39/111 34/42/112
f 31/39/113 32/40/114 36/44/115 35/43/116
f 32/40/117 33/41/118 37/45/119 36/44/120
f 33/41/121 34/42/122 38/46/123 37/45/124
f 34/42/125 31/39/126 35/43/127 38/46/128
f 11/18/129 14/21/130 40/48/131 39/47/132
f 14/21/133 15/22/134 41/49/135 40/48/136
f 15/22/137 12/19/138 42/50/139 41/49/140
f 12/19/141 11/18/142 39/47/143 42/50/144
f 39/47/145 40/48/146 44/52/147 43/51/148
f 40/48/149 41/49/150 45/53/151 44/52/152
f 41/49/153 42/50/154 46/54/155 45/53/156
f 42/50/157 39/47/158 43/51/159 46/54/160
f 10/17/161 11/18/162 48/56/163 47/55/164
f 11/18/165 12/19/166 49/57/167 48/56/168
f 12/19/169 13/20/170 50/58/171 49/57/172
f 13/20/173 10/17/174 47/55/175 50/58/176
f 47/63/177 48/64/178 52/65/179 51/66/180
f 48/64/181 49/67/182 53/68/183 52/65/184
f 49/67/185 50/69/186 54/70/187 53/68/188
f 50/69/189 47/63/190 51/66/191 54/70/192
s 1
f 19/27/193 18/28/194 20/15/195
f 21/29/196 19/27/193 20/15/195
f 22/30/197 21/29/196 20/15/195
f 18/28/194 22/30/197 20/15/195
s off
f 5/10/198 6/11/199 9/16/200
f 6/11/201 7/12/202 9/16/203
f 7/12/204 8/13/205 9/16/206
f 8/13/207 5/14/208 9/16/209
f 51/59/210 52/60/211 56/72/212 55/71/213
f 52/60/214 53/61/215 57/73/216 56/72/217
f 53/61/218 54/62/219 58/74/220 57/73/221
f 54/62/222 51/59/223 55/71/224 58/74/225
