# This file uses meters as units for non-parametric coordinates.

g default
v 3.653261 44.857574 11.612254
v -9.564358 44.943321 7.318446
v -9.564359 45.220795 -6.576612
v 3.653260 45.306541 -10.870421
v 11.822196 45.082058 0.370917
v 1.826631 26.395506 5.620669
v -4.782179 26.438381 3.473765
v -4.782179 26.577114 -3.473764
v 1.826630 26.619991 -5.620669
v 5.911098 26.507750 0.000000
v 0.000000 45.082058 0.370917
v 0.000000 7.933435 -0.370917
v 3.490457 44.276711 10.887261
v -8.874710 44.356918 6.870374
v -4.400951 27.045437 3.273651
v 1.781633 27.005327 5.282094
v -8.874710 44.616508 -6.128548
v -4.400951 27.175224 -3.225807
v 3.490456 44.696724 -10.145428
v 1.781632 27.215334 -5.234251
v 11.132548 44.486717 0.370917
v 5.602678 27.110331 0.023923
v 3.620666 44.857574 11.612254
v -9.426282 44.943321 7.318446
v 0.014577 45.082058 0.370917
v -9.426283 45.220795 -6.576612
v 3.620664 45.306541 -10.870421
v 11.684121 45.082058 0.370917
v 3.620666 45.475147 11.612254
v -9.426282 45.560883 7.318446
v 0.014577 45.699623 0.370917
v -9.426283 45.838360 -6.576612
v 3.620664 45.924110 -10.870420
v 11.684121 45.699623 0.370917
v 11.822196 45.699623 0.370917
v 3.653261 45.475147 11.612254
v 0.000000 45.699623 0.370917
v 3.808055 44.287178 -9.654282
v 10.736328 44.096783 -0.120231
v 5.551438 27.517393 -0.326650
v 2.087301 27.612583 -5.093679
v 3.493499 44.382675 -9.423790
v 10.421773 44.192280 0.110261
v 5.236882 27.612896 -0.096159
v 1.772745 27.708088 -4.863183
v 10.682312 44.058662 0.798483
v 3.766011 43.868599 10.316056
v 2.073383 27.538265 5.123096
v 5.531533 27.633301 0.364314
v 10.389881 44.155926 0.587920
v 3.473581 43.965862 10.105495
v 1.780952 27.635532 4.912532
v 5.239101 27.730564 0.153751
v 2.954387 43.777878 10.566352
v -8.258279 43.850616 6.923849
v -4.163566 27.678192 3.536110
v 1.442767 27.641815 5.357356
v 3.063940 43.875854 10.231071
v -8.148726 43.948570 6.588568
v -4.054013 27.776161 3.200831
v 1.552320 27.739780 5.022076
v -8.731714 43.815388 6.163211
v -8.731714 44.047176 -5.443565
v -4.581531 27.869650 -2.863765
v -4.581530 27.753759 2.939620
v -8.342694 43.915504 6.165210
v -8.342694 44.147293 -5.441568
v -4.192509 27.969763 -2.861766
v -4.192509 27.853882 2.941619
v -8.304594 43.972286 -6.152199
v 3.022891 44.045776 -9.831985
v 1.457469 28.031406 -5.332954
v -4.206274 27.994659 -3.493049
v -8.194289 44.057373 -5.810949
v 3.133196 44.130863 -9.490736
v 1.567775 28.116493 -4.991704
v -4.095969 28.079746 -3.151797
v 10.495569 32.650257 5.327179
v 8.624765 32.655495 4.719440
v 8.624764 32.672447 2.752750
v 10.495569 32.677685 2.145010
v 11.651790 32.663971 3.736095
v 10.237030 31.522400 4.479137
v 9.301628 31.525019 4.175266
v 9.301628 31.533495 3.191923
v 10.237030 31.536114 2.888054
v 10.815140 31.529257 3.683598
v 9.978492 32.663971 3.736095
v 9.978492 30.394543 3.631096
v 13.548418 31.405199 6.590913
v 12.615000 31.405199 6.590913
v 12.615000 31.982229 5.857219
v 13.548418 31.982229 5.857219
v 13.315063 30.734188 5.766303
v 12.848354 30.734188 5.766303
v 12.848354 31.022701 5.399456
v 13.315063 31.022701 5.399456
v 13.081709 31.693714 6.224066
v 13.081709 30.063175 4.941693
v 9.410440 28.897198 5.782731
v 8.587009 29.365643 6.671996
v 7.647036 28.599646 6.205119
v 8.470468 28.131203 5.315854
v 9.076497 28.540710 6.135925
v 8.664782 28.774933 6.580557
v 8.194795 28.391933 6.347119
v 8.606510 28.157711 5.902486
v 8.528738 28.748423 5.993925
v 8.742554 28.184221 6.489119
vt 0.577254 0.012236
vt 0.297746 0.103054
vt 0.297746 0.396946
vt 0.577254 0.487764
vt 0.750000 0.250000
vt 0.250000 0.500000
vt 0.350000 0.500000
vt 0.450000 0.500000
vt 0.550000 0.500000
vt 0.650000 0.500000
vt 0.750000 0.500000
vt 0.375000 0.750000
vt 0.425000 0.750000
vt 0.475000 0.750000
vt 0.525000 0.750000
vt 0.575000 0.750000
vt 0.625000 0.750000
vt 0.500000 0.250000
vt 0.500000 1.000000
vt 0.250000 0.500000
vt 0.350000 0.500000
vt 0.425000 0.750000
vt 0.375000 0.750000
vt 0.450000 0.500000
vt 0.475000 0.750000
vt 0.550000 0.500000
vt 0.525000 0.750000
vt 0.650000 0.500000
vt 0.575000 0.750000
vt 0.750000 0.500000
vt 0.625000 0.750000
vt 0.297746 0.103054
vt 0.577254 0.012236
vt 0.500000 0.250000
vt 0.297746 0.396946
vt 0.577254 0.487764
vt 0.750000 0.250000
vt 0.297746 0.103054
vt 0.577254 0.012236
vt 0.500000 0.250000
vt 0.297746 0.396946
vt 0.577254 0.487764
vt 0.750000 0.250000
vt 0.577254 0.012236
vt 0.750000 0.250000
vt 0.500000 0.250000
vt 0.550000 0.500000
vt 0.650000 0.500000
vt 0.575000 0.750000
vt 0.525000 0.750000
vt 0.550000 0.500000
vt 0.650000 0.500000
vt 0.575000 0.750000
vt 0.525000 0.750000
vt 0.650000 0.500000
vt 0.750000 0.500000
vt 0.625000 0.750000
vt 0.575000 0.750000
vt 0.650000 0.500000
vt 0.750000 0.500000
vt 0.625000 0.750000
vt 0.575000 0.750000
vt 0.250000 0.500000
vt 0.350000 0.500000
vt 0.425000 0.750000
vt 0.375000 0.750000
vt 0.250000 0.500000
vt 0.350000 0.500000
vt 0.425000 0.750000
vt 0.375000 0.750000
vt 0.350000 0.500000
vt 0.450000 0.500000
vt 0.475000 0.750000
vt 0.425000 0.750000
vt 0.350000 0.500000
vt 0.450000 0.500000
vt 0.475000 0.750000
vt 0.425000 0.750000
vt 0.450000 0.500000
vt 0.550000 0.500000
vt 0.525000 0.750000
vt 0.475000 0.750000
vt 0.450000 0.500000
vt 0.550000 0.500000
vt 0.525000 0.750000
vt 0.475000 0.750000
vt 0.250000 0.500000
vt 0.350000 0.500000
vt 0.425000 0.750000
vt 0.375000 0.750000
vt 0.450000 0.500000
vt 0.475000 0.750000
vt 0.550000 0.500000
vt 0.525000 0.750000
vt 0.650000 0.500000
vt 0.575000 0.750000
vt 0.750000 0.500000
vt 0.625000 0.750000
vt 0.297746 0.103054
vt 0.577254 0.012236
vt 0.500000 0.250000
vt 0.297746 0.396946
vt 0.577254 0.487764
vt 0.750000 0.250000
vt 0.500000 1.000000
vt 0.250000 0.500000
vt 0.375000 0.500000
vt 0.437500 0.750000
vt 0.375000 0.750000
vt 0.500000 0.500000
vt 0.500000 0.750000
vt 0.625000 0.500000
vt 0.562500 0.750000
vt 0.750000 0.500000
vt 0.625000 0.750000
vt 0.250000 0.250000
vt 0.500000 0.000000
vt 0.500000 0.250000
vt 0.500000 0.500000
vt 0.750000 0.250000
vt 0.500000 1.000000
vt 0.250000 0.500000
vt 0.375000 0.500000
vt 0.437500 0.750000
vt 0.375000 0.750000
vt 0.500000 0.500000
vt 0.500000 0.750000
vt 0.625000 0.500000
vt 0.562500 0.750000
vt 0.750000 0.500000
vt 0.625000 0.750000
vt 0.250000 0.250000
vt 0.500000 0.000000
vt 0.500000 0.250000
vt 0.500000 0.500000
vt 0.750000 0.250000
vt 0.500000 1.000000
vn -0.299262 -0.267624 0.915871
vn -0.299262 -0.267624 0.915871
vn -0.299262 -0.267624 0.915871
vn -0.299262 -0.267624 0.915871
vn -0.968430 -0.249235 -0.004977
vn -0.968430 -0.249235 -0.004977
vn -0.968430 -0.249235 -0.004977
vn -0.968430 -0.249235 -0.004977
vn -0.299262 -0.230846 -0.925825
vn -0.299262 -0.230846 -0.925825
vn -0.299262 -0.230846 -0.925825
vn -0.299262 -0.230846 -0.925825
vn 0.783477 -0.237870 -0.574093
vn 0.783477 -0.237870 -0.574093
vn 0.783477 -0.237870 -0.574093
vn 0.783477 -0.237870 -0.574093
vn 0.783477 -0.260600 0.564138
vn 0.783477 -0.260600 0.564138
vn 0.783477 -0.260600 0.564138
vn 0.783477 -0.260600 0.564138
vn -0.000000 0.999801 0.019965
vn -0.000001 0.999801 0.019965
vn -0.000000 0.999801 0.019966
vn -0.000000 0.999801 0.019966
vn -0.000000 0.999801 0.019966
vn 0.000000 0.999801 0.019966
vn 0.000000 0.999801 0.019964
vn 0.000000 0.999801 0.019964
vn 0.000000 0.999801 0.019964
vn -0.299262 -0.267623 0.915871
vn -0.299262 -0.267623 0.915871
vn -0.299262 -0.267623 0.915871
vn -0.968430 -0.249235 -0.004977
vn -0.968430 -0.249235 -0.004977
vn -0.968430 -0.249235 -0.004977
vn -0.299261 -0.230846 -0.925825
vn -0.299261 -0.230846 -0.925825
vn -0.299261 -0.230846 -0.925826
vn 0.783477 -0.237870 -0.574093
vn 0.783477 -0.237870 -0.574093
vn 0.783477 -0.237870 -0.574093
vn 0.783477 -0.260600 0.564138
vn 0.783477 -0.260599 0.564138
vn 0.783477 -0.260599 0.564138
vn -0.212572 -0.738729 0.639604
vn -0.212572 -0.738729 0.639604
vn -0.212572 -0.738729 0.639604
vn -0.212572 -0.738729 0.639604
vn -0.273027 0.451486 0.849481
vn -0.273027 0.451486 0.849481
vn -0.273027 0.451486 0.849481
vn -0.273027 0.451486 0.849481
vn -0.653381 -0.756878 -0.015115
vn -0.653381 -0.756878 -0.015115
vn -0.653381 -0.756878 -0.015115
vn -0.653381 -0.756878 -0.015115
vn -0.845221 0.534311 0.010670
vn -0.845221 0.534311 0.010670
vn -0.845221 0.534311 0.010670
vn -0.845221 0.534311 0.010670
vn -0.208581 -0.724866 -0.656554
vn -0.208581 -0.724866 -0.656554
vn -0.208582 -0.724866 -0.656554
vn -0.208582 -0.724866 -0.656554
vn -0.268746 0.510037 -0.817091
vn -0.268746 0.510037 -0.817091
vn -0.268746 0.510037 -0.817091
vn -0.268746 0.510037 -0.817091
vn 0.586801 -0.679755 -0.439997
vn 0.586801 -0.679755 -0.439997
vn 0.586801 -0.679755 -0.439997
vn 0.586801 -0.679755 -0.439997
vn 0.744450 0.402191 -0.532951
vn 0.744450 0.402191 -0.532951
vn 0.744450 0.402191 -0.532951
vn 0.744450 0.402191 -0.532951
vn 0.593716 -0.687764 0.417712
vn 0.593716 -0.687764 0.417712
vn 0.593716 -0.687764 0.417712
vn 0.593716 -0.687764 0.417712
vn 0.750571 0.362224 0.552664
vn 0.750571 0.362224 0.552664
vn 0.750571 0.362224 0.552664
vn 0.750571 0.362224 0.552664
vn 0.000000 0.999799 0.020029
vn 0.000000 0.999799 0.020029
vn 0.000000 0.999799 0.020029
vn 0.000000 0.999799 0.020029
vn 0.000000 0.999801 0.019961
vn 0.000000 0.999801 0.019961
vn 0.000000 0.999801 0.019961
vn 0.000000 0.999801 0.019961
vn 0.000000 0.999801 0.019965
vn 0.000000 0.999801 0.019965
vn 0.000000 0.999801 0.019965
vn 0.000000 0.999801 0.019965
vn 0.000000 0.999799 0.020037
vn 0.000000 0.999799 0.020037
vn 0.000000 0.999799 0.020037
vn 0.000000 0.999799 0.020037
vn 0.000000 0.999801 0.019944
vn 0.000000 0.999801 0.019944
vn 0.000000 0.999801 0.019944
vn 0.000000 0.999801 0.019944
vn 0.000000 0.000000 -0.000000
vn 0.000000 0.000000 -0.000000
vn 0.000000 0.000000 -0.000000
vn 0.000000 0.000000 -0.000000
vn -0.312610 0.000000 0.949882
vn -0.312610 0.000000 0.949882
vn -0.312610 0.000000 0.949882
vn -0.312610 0.000000 0.949882
vn 0.952206 0.000000 -0.305458
vn 0.952206 0.000000 -0.305458
vn 0.952206 0.000000 -0.305458
vn 0.952206 0.000000 -0.305458
vn -1.000000 0.000000 0.000000
vn -1.000000 0.000000 0.000000
vn -1.000000 0.000000 0.000000
vn -1.000000 0.000000 0.000000
vn -0.312610 0.000001 -0.949882
vn -0.312610 0.000001 -0.949882
vn -0.312610 0.000001 -0.949882
vn -0.312610 0.000001 -0.949882
vn 0.812571 0.000001 -0.582862
vn 0.812571 0.000001 -0.582862
vn 0.812571 0.000001 -0.582862
vn 0.812571 0.000001 -0.582862
vn 0.000000 -0.000000 1.000000
vn 0.000000 -0.000000 1.000000
vn 0.000000 -0.000000 1.000000
vn 0.000000 -0.000000 1.000000
vn 0.808961 0.000000 0.587863
vn 0.808961 0.000000 0.587863
vn 0.808961 0.000000 0.587863
vn 0.808961 0.000000 0.587863
vn 0.000000 0.000000 -1.000000
vn 0.000000 0.000000 -1.000000
vn 0.000000 0.000000 -1.000000
vn 0.000000 0.000000 -1.000000
vn -0.951038 0.000000 0.309074
vn -0.951038 0.000000 0.309074
vn -0.951038 0.000000 0.309074
vn -0.951038 0.000000 0.309074
vn 0.805665 -0.079227 -0.587050
vn 0.805665 -0.079227 -0.587050
vn 0.805665 -0.079227 -0.587050
vn 0.805665 -0.079227 -0.587050
vn 0.850212 -0.260832 -0.457282
vn 0.850212 -0.260832 -0.457282
vn 0.850212 -0.260832 -0.457282
vn 0.850212 -0.260832 -0.457282
vn 0.744997 -0.378994 -0.548947
vn 0.744997 -0.378994 -0.548947
vn 0.744997 -0.378994 -0.548947
vn 0.744997 -0.378994 -0.548947
vn 0.685296 -0.257699 -0.681147
vn 0.685296 -0.257699 -0.681147
vn 0.685296 -0.257699 -0.681147
vn 0.685296 -0.257699 -0.681147
vn -0.201667 -0.971165 0.127157
vn -0.201667 -0.971165 0.127157
vn -0.201667 -0.971165 0.127157
vn -0.201667 -0.971165 0.127157
vn -0.545060 0.180651 -0.818703
vn -0.545060 0.180651 -0.818703
vn -0.545060 0.180651 -0.818703
vn -0.545060 0.180650 -0.818703
vn 0.201678 0.971161 -0.127168
vn 0.201678 0.971161 -0.127168
vn 0.201678 0.971161 -0.127168
vn 0.201678 0.971161 -0.127168
vn 0.613481 0.148813 0.775562
vn 0.613481 0.148813 0.775562
vn 0.613481 0.148813 0.775562
vn 0.613481 0.148813 0.775562
vn 0.783479 -0.260587 0.564141
vn 0.783479 -0.260587 0.564141
vn 0.783479 -0.260587 0.564141
vn 0.783479 -0.260587 0.564141
vn 0.783474 -0.260600 0.564142
vn 0.783474 -0.260600 0.564142
vn 0.783474 -0.260600 0.564142
vn 0.783474 -0.260600 0.564142
vn 0.783476 -0.260599 0.564140
vn 0.783476 -0.260599 0.564140
vn 0.783476 -0.260599 0.564140
vn 0.783476 -0.260599 0.564140
vn 0.783482 -0.260601 0.564130
vn 0.783482 -0.260601 0.564130
vn 0.783482 -0.260601 0.564130
vn 0.783482 -0.260601 0.564130
vn -0.201666 -0.965316 -0.165820
vn -0.201666 -0.965316 -0.165820
vn -0.201666 -0.965316 -0.165820
vn -0.201666 -0.965316 -0.165820
vn 0.613594 0.180824 -0.768639
vn 0.613594 0.180824 -0.768639
vn 0.613594 0.180824 -0.768639
vn 0.613594 0.180824 -0.768639
vn 0.201669 0.965314 0.165825
vn 0.201669 0.965314 0.165825
vn 0.201669 0.965314 0.165825
vn 0.201669 0.965314 0.165825
vn -0.544692 0.148994 0.825295
vn -0.544692 0.148994 0.825295
vn -0.544692 0.148994 0.825295
vn -0.544692 0.148994 0.825295
vn -0.299262 -0.267610 0.915875
vn -0.299262 -0.267610 0.915875
vn -0.299262 -0.267610 0.915875
vn -0.299262 -0.267610 0.915875
vn -0.299261 -0.267623 0.915872
vn -0.299261 -0.267623 0.915871
vn -0.299261 -0.267623 0.915872
vn -0.299261 -0.267623 0.915872
vn -0.299263 -0.267624 0.915871
vn -0.299263 -0.267624 0.915871
vn -0.299263 -0.267624 0.915871
vn -0.299263 -0.267624 0.915871
vn -0.299247 -0.267626 0.915875
vn -0.299247 -0.267626 0.915875
vn -0.299247 -0.267626 0.915875
vn -0.299247 -0.267626 0.915875
vn 0.077030 -0.963508 -0.256356
vn 0.077030 -0.963508 -0.256356
vn 0.077030 -0.963508 -0.256356
vn 0.077030 -0.963508 -0.256356
vn 0.923357 0.160747 0.348672
vn 0.923357 0.160747 0.348672
vn 0.923357 0.160747 0.348672
vn 0.923357 0.160747 0.348672
vn -0.077029 0.963505 0.256368
vn -0.077029 0.963505 0.256368
vn -0.077029 0.963505 0.256368
vn -0.077029 0.963505 0.256368
vn -0.950031 0.172898 -0.259900
vn -0.950031 0.172898 -0.259900
vn -0.950031 0.172898 -0.259900
vn -0.950031 0.172898 -0.259900
vn -0.968433 -0.249223 -0.004977
vn -0.968433 -0.249223 -0.004977
vn -0.968433 -0.249223 -0.004977
vn -0.968433 -0.249223 -0.004977
vn -0.968430 -0.249236 -0.004985
vn -0.968430 -0.249236 -0.004985
vn -0.968430 -0.249236 -0.004985
vn -0.968430 -0.249236 -0.004985
vn -0.968430 -0.249237 -0.004977
vn -0.968430 -0.249237 -0.004977
vn -0.968430 -0.249237 -0.004977
vn -0.968430 -0.249237 -0.004977
vn -0.968430 -0.249236 -0.004969
vn -0.968430 -0.249236 -0.004969
vn -0.968430 -0.249236 -0.004969
vn -0.968430 -0.249236 -0.004969
vn 0.249282 -0.968238 -0.019336
vn 0.249282 -0.968238 -0.019336
vn 0.249282 -0.968238 -0.019336
vn 0.249282 -0.968238 -0.019336
vn -0.042809 0.146615 0.988267
vn -0.042809 0.146615 0.988267
vn -0.042809 0.146615 0.988267
vn -0.042809 0.146615 0.988267
vn -0.249283 0.968238 0.019334
vn -0.249283 0.968238 0.019334
vn -0.249283 0.968238 0.019334
vn -0.249283 0.968238 0.019334
vn -0.042812 0.185952 -0.981626
vn -0.042812 0.185952 -0.981626
vn -0.042812 0.185952 -0.981626
vn -0.042812 0.185952 -0.981626
vn -0.299260 -0.230846 -0.925826
vn -0.299260 -0.230846 -0.925826
vn -0.299260 -0.230846 -0.925826
vn -0.299260 -0.230846 -0.925826
vn -0.299256 -0.230847 -0.925827
vn -0.299256 -0.230847 -0.925827
vn -0.299256 -0.230847 -0.925827
vn -0.299256 -0.230847 -0.925827
vn -0.299262 -0.230846 -0.925825
vn -0.299262 -0.230846 -0.925825
vn -0.299262 -0.230846 -0.925825
vn -0.299262 -0.230846 -0.925825
vn -0.299257 -0.230845 -0.925827
vn -0.299257 -0.230845 -0.925827
vn -0.299257 -0.230845 -0.925827
vn -0.299257 -0.230845 -0.925827
vn 0.077033 -0.972974 0.217689
vn 0.077033 -0.972973 0.217689
vn 0.077033 -0.972974 0.217689
vn 0.077033 -0.972973 0.217689
vn -0.949560 0.167329 0.265211
vn -0.949560 0.167329 0.265211
vn -0.949560 0.167329 0.265211
vn -0.949560 0.167329 0.265211
vn -0.077034 0.972972 -0.217695
vn -0.077034 0.972972 -0.217695
vn -0.077034 0.972972 -0.217695
vn -0.077034 0.972972 -0.217695
vn 0.922105 0.179470 -0.342802
vn 0.922105 0.179470 -0.342802
vn 0.922105 0.179470 -0.342802
vn 0.922105 0.179470 -0.342802
vn 0.240865 -0.617949 0.748414
vn -0.638293 -0.608891 0.470992
vn -0.646410 -0.608566 0.460220
vn 0.245723 -0.617903 0.746871
vn -0.664017 -0.577673 -0.474737
vn -0.656010 -0.577319 -0.486162
vn 0.256762 -0.567402 -0.782386
vn 0.251652 -0.567349 -0.784083
vn 0.804684 -0.593656 0.007465
vn 0.805045 -0.593138 -0.009485
vn -0.000000 0.999963 0.008617
vn -0.000000 0.999963 0.008619
vn 0.000000 0.999963 0.008619
vn 0.000000 0.999963 0.008618
vn 0.000000 0.999963 0.008618
vn 0.000000 0.999963 0.008622
vn -0.261184 -0.541154 0.799334
vn -0.858896 -0.512132 -0.004415
vn -0.269532 -0.481709 -0.833852
vn 0.701567 -0.493494 -0.514070
vn 0.688045 -0.530232 0.495427
vn 0.673821 -0.654874 0.342207
vn -0.673821 -0.654874 0.342207
vn -0.673821 -0.654873 0.342207
vn 0.673822 -0.654873 0.342207
vn -0.673821 0.178225 -0.717078
vn -0.673821 0.178225 -0.717078
vn 0.673821 0.178226 -0.717078
vn 0.673821 0.178226 -0.717078
vn 0.000000 0.786028 0.618191
vn 0.000000 0.786028 0.618191
vn 0.000000 0.786029 0.618190
vn 0.000000 0.786030 0.618188
vn 0.000000 0.786030 0.618188
vn 0.000000 -0.775645 0.631170
vn -0.975612 -0.172536 -0.135690
vn 0.000000 0.430583 -0.902551
vn 0.975613 -0.172534 -0.135690
vn 0.830096 -0.446028 0.334664
vn 0.249826 -0.115917 0.961327
vn 0.249826 -0.115917 0.961327
vn 0.830096 -0.446028 0.334665
vn -0.412571 -0.655712 0.632318
vn -0.412571 -0.655712 0.632319
vn 0.167700 -0.985822 0.005655
vn 0.167699 -0.985822 0.005656
vn -0.273930 0.722827 -0.634416
vn -0.273929 0.722826 -0.634418
vn -0.273930 0.722826 -0.634417
vn -0.273931 0.722827 -0.634416
vn -0.273930 0.722826 -0.634418
vn 0.731268 -0.009299 0.682027
vn -0.311850 -0.185308 0.931885
vn -0.380786 -0.915524 0.129682
vn 0.662332 -0.739509 -0.120178
s off
g pCone3
f 58/67/1 59/68/2 60/69/3 61/70/4
f 66/75/5 67/76/6 68/77/7 69/78/8
f 74/83/9 75/84/10 76/85/11 77/86/12
f 42/51/13 43/52/14 44/53/15 45/54/16
f 50/59/17 51/60/18 52/61/19 53/62/20
s 1
f 30/38/21 29/39/22 31/40/23
f 32/41/24 30/38/21 31/40/23
f 33/42/25 32/41/24 31/40/23
f 34/43/26 33/42/25 31/40/23
s off
f 36/44/27 35/45/28 37/46/29
f 6/12/30 7/13/31 12/19/32
f 7/13/33 8/14/34 12/19/35
f 8/14/36 9/15/37 12/19/38
f 9/15/39 10/16/40 12/19/41
f 10/16/42 6/17/43 12/19/44
f 1/6/45 2/7/46 14/21/47 13/20/48
f 7/13/49 6/12/50 16/23/51 15/22/52
f 2/7/53 3/8/54 17/24/55 14/21/56
f 8/14/57 7/13/58 15/22/59 18/25/60
f 3/8/61 4/9/62 19/26/63 17/24/64
f 9/15/65 8/14/66 18/25/67 20/27/68
f 4/9/69 5/10/70 21/28/71 19/26/72
f 10/16/73 9/15/74 20/27/75 22/29/76
f 5/10/77 1/11/78 13/30/79 21/28/80
f 6/17/81 10/16/82 22/29/83 16/31/84
f 2/2/85 1/1/86 23/33/87 24/32/88
f 1/1/89 11/18/90 25/34/91 23/33/92
f 3/3/93 2/2/94 24/32/95 26/35/96
f 4/4/97 3/3/98 26/35/99 27/36/100
f 5/5/101 4/4/102 27/36/103 28/37/104
f 11/18/105 5/5/106 28/37/107 25/34/108
f 24/32/109 23/33/110 29/39/111 30/38/112
f 23/33/113 25/34/114 31/40/115 29/39/116
f 26/35/117 24/32/118 30/38/119 32/41/120
f 27/36/121 26/35/122 32/41/123 33/42/124
f 28/37/125 27/36/126 33/42/127 34/43/128
f 25/34/129 28/37/130 34/43/131 31/40/132
f 1/1/133 5/5/134 35/45/135 36/44/136
f 5/5/137 11/18/138 37/46/139 35/45/140
f 11/18/141 1/1/142 36/44/143 37/46/144
f 19/26/145 21/28/146 39/48/147 38/47/148
f 21/28/149 22/29/150 40/49/151 39/48/152
f 22/29/153 20/27/154 41/50/155 40/49/156
f 20/27/157 19/26/158 38/47/159 41/50/160
f 38/47/161 39/48/162 43/52/163 42/51/164
f 39/48/165 40/49/166 44/53/167 43/52/168
f 40/49/169 41/50/170 45/54/171 44/53/172
f 41/50/173 38/47/174 42/51/175 45/54/176
f 21/28/177 13/30/178 47/56/179 46/55/180
f 13/30/181 16/31/182 48/57/183 47/56/184
f 16/31/185 22/29/186 49/58/187 48/57/188
f 22/29/189 21/28/190 46/55/191 49/58/192
f 46/55/193 47/56/194 51/60/195 50/59/196
f 47/56/197 48/57/198 52/61/199 51/60/200
f 48/57/201 49/58/202 53/62/203 52/61/204
f 49/58/205 46/55/206 50/59/207 53/62/208
f 13/20/209 14/21/210 55/64/211 54/63/212
f 14/21/213 15/22/214 56/65/215 55/64/216
f 15/22/217 16/23/218 57/66/219 56/65/220
f 16/23/221 13/20/222 54/63/223 57/66/224
f 54/63/225 55/64/226 59/68/227 58/67/228
f 55/64/229 56/65/230 60/69/231 59/68/232
f 56/65/233 57/66/234 61/70/235 60/69/236
f 57/66/237 54/63/238 58/67/239 61/70/240
f 14/21/241 17/24/242 63/72/243 62/71/244
f 17/24/245 18/25/246 64/73/247 63/72/248
f 18/25/249 15/22/250 65/74/251 64/73/252
f 15/22/253 14/21/254 62/71/255 65/74/256
f 62/71/257 63/72/258 67/76/259 66/75/260
f 63/72/261 64/73/262 68/77/263 67/76/264
f 64/73/265 65/74/266 69/78/267 68/77/268
f 65/74/269 62/71/270 66/75/271 69/78/272
f 17/24/273 19/26/274 71/80/275 70/79/276
f 19/26/277 20/27/278 72/81/279 71/80/280
f 20/27/281 18/25/282 73/82/283 72/81/284
f 18/25/285 17/24/286 70/79/287 73/82/288
f 70/79/289 71/80/290 75/84/291 74/83/292
f 71/80/293 72/81/294 76/85/295 75/84/296
f 72/81/297 73/82/298 77/86/299 76/85/300
f 73/82/301 70/79/302 74/83/303 77/86/304
s 2
f 78/87/305 79/88/306 84/89/307 83/90/308
f 79/88/306 80/91/309 85/92/310 84/89/307
f 80/91/309 81/93/311 86/94/312 85/92/310
f 81/93/311 82/95/313 87/96/314 86/94/312
f 82/95/313 78/97/305 83/98/308 87/96/314
s 3
f 79/99/315 78/100/316 88/101/317
f 80/102/318 79/99/315 88/101/317
f 81/103/319 80/102/318 88/101/317
f 82/104/320 81/103/319 88/101/317
f 78/100/316 82/104/320 88/101/317
s 2
f 83/90/308 84/89/307 89/105/321
f 84/89/307 85/92/310 89/105/322
f 85/92/310 86/94/312 89/105/323
f 86/94/312 87/96/314 89/105/324
f 87/96/314 83/98/308 89/105/325
s 4
f 90/106/326 91/107/327 95/108/328 94/109/329
f 91/107/327 92/110/330 96/111/331 95/108/328
f 92/110/330 93/112/332 97/113/333 96/111/331
f 93/112/332 90/114/326 94/115/329 97/113/333
s 5
f 91/116/334 90/117/335 98/118/336
f 92/119/337 91/116/334 98/118/336
f 93/120/338 92/119/337 98/118/336
f 90/117/335 93/120/338 98/118/336
s 4
f 94/109/329 95/108/328 99/121/339
f 95/108/328 96/111/331 99/121/340
f 96/111/331 97/113/333 99/121/341
f 97/113/333 94/115/329 99/121/342
s 6
f 100/122/343 101/123/344 105/124/345 104/125/346
f 101/123/344 102/126/347 106/127/348 105/124/345
f 102/126/347 103/128/349 107/129/350 106/127/348
f 103/128/349 100/130/343 104/131/346 107/129/350
s 7
f 101/132/351 100/133/352 108/134/353
f 102/135/354 101/132/351 108/134/353
f 103/136/355 102/135/354 108/134/353
f 100/133/352 103/136/355 108/134/353
s 6
f 104/125/346 105/124/345 109/137/356
f 105/124/345 106/127/348 109/137/357
f 106/127/348 107/129/350 109/137/358
f 107/129/350 104/131/346 109/137/359
