# This file uses meters as units for non-parametric coordinates.

g default
v 8.499752 37.704667 -57.800019
v -8.499750 37.704667 -57.800019
v -8.499751 37.704667 -74.799523
v 8.499751 37.704667 -74.799523
v 4.249876 25.602112 -62.049897
v -4.249875 25.602112 -62.049897
v -4.249876 25.602112 -70.549645
v 4.249876 25.602112 -70.549645
v 0.000000 13.499556 -66.299775
v 7.954401 37.367064 -58.345387
v -7.954399 37.367064 -58.345387
v -3.977199 26.041036 -62.322564
v 3.977200 26.041036 -62.322564
v -7.954400 37.367064 -74.254182
v -3.977200 26.041036 -70.276978
v 7.954400 37.367064 -74.254182
v 3.977200 26.041036 -70.276978
v 8.499752 38.288794 -57.800019
v -8.499750 38.288794 -57.800019
v 0.000000 38.288794 -66.299775
v -8.499751 38.288794 -74.799523
v 8.499751 38.288794 -74.799523
v 7.837647 37.034592 -73.717118
v 7.837648 37.034592 -58.882466
v 4.128987 26.473286 -62.591111
v 4.128987 26.473286 -70.008424
v 7.500194 37.110512 -73.717118
v 7.500195 37.110512 -58.882466
v 3.791534 26.549209 -62.591111
v 3.791534 26.549209 -70.008424
v -7.339108 36.986179 -74.120438
v 7.339108 36.986179 -74.120438
v 3.669554 26.536233 -70.450852
v -3.669554 26.536233 -70.450852
v -7.339108 37.062378 -73.781762
v 7.339108 37.062378 -73.781762
v 3.669554 26.612432 -70.112176
v -3.669554 26.612432 -70.112176
v -7.810316 36.956765 -59.008195
v -7.810317 36.956765 -73.591347
v -4.164527 26.574490 -69.945588
v -4.164526 26.574490 -62.653981
v -7.485595 37.029823 -59.008195
v -7.485596 37.029823 -73.591347
v -3.839806 26.647549 -69.945588
v -3.839805 26.647549 -62.653981
v 7.373714 37.007614 -58.471566
v -7.373713 37.007614 -58.471566
v -3.686856 26.508361 -62.158475
v 3.686857 26.508361 -62.158475
v 7.373714 37.121310 -58.976899
v -7.373713 37.121310 -58.976899
v -3.686856 26.622055 -62.663808
v 3.686857 26.622055 -62.663808
vt 0.500000 0.000000
vt 0.250000 0.250000
vt 0.500000 0.500000
vt 0.750000 0.250000
vt 0.250000 0.500000
vt 0.375000 0.500000
vt 0.500000 0.500000
vt 0.625000 0.500000
vt 0.750000 0.500000
vt 0.375000 0.750000
vt 0.437500 0.750000
vt 0.500000 0.750000
vt 0.562500 0.750000
vt 0.625000 0.750000
vt 0.500000 0.250000
vt 0.500000 1.000000
vt 0.250000 0.500000
vt 0.375000 0.500000
vt 0.437500 0.750000
vt 0.375000 0.750000
vt 0.500000 0.500000
vt 0.500000 0.750000
vt 0.625000 0.500000
vt 0.562500 0.750000
vt 0.750000 0.500000
vt 0.625000 0.750000
vt 0.250000 0.250000
vt 0.500000 0.000000
vt 0.500000 0.500000
vt 0.750000 0.250000
vt 0.625000 0.500000
vt 0.750000 0.500000
vt 0.625000 0.750000
vt 0.562500 0.750000
vt 0.625000 0.500000
vt 0.750000 0.500000
vt 0.625000 0.750000
vt 0.562500 0.750000
vt 0.500000 0.500000
vt 0.625000 0.500000
vt 0.562500 0.750000
vt 0.500000 0.750000
vt 0.500000 0.500000
vt 0.625000 0.500000
vt 0.562500 0.750000
vt 0.500000 0.750000
vt 0.375000 0.500000
vt 0.500000 0.500000
vt 0.500000 0.750000
vt 0.437500 0.750000
vt 0.375000 0.500000
vt 0.500000 0.500000
vt 0.500000 0.750000
vt 0.437500 0.750000
vt 0.250000 0.500000
vt 0.375000 0.500000
vt 0.437500 0.750000
vt 0.375000 0.750000
vt 0.250000 0.500000
vt 0.375000 0.500000
vt 0.437500 0.750000
vt 0.375000 0.750000
vn 0.000000 -0.331325 0.943517
vn 0.000000 -0.331325 0.943517
vn 0.000000 -0.331325 0.943517
vn 0.000000 -0.331324 0.943517
vn -0.943518 -0.331321 0.000000
vn -0.943518 -0.331321 0.000000
vn -0.943518 -0.331321 0.000000
vn -0.943518 -0.331321 0.000000
vn 0.000000 -0.331324 -0.943517
vn 0.000000 -0.331324 -0.943517
vn 0.000000 -0.331324 -0.943517
vn 0.000000 -0.331324 -0.943517
vn 0.943518 -0.331322 0.000000
vn 0.943518 -0.331322 0.000000
vn 0.943518 -0.331322 0.000000
vn 0.943518 -0.331322 0.000000
vn 0.000000 1.000000 -0.000000
vn 0.000000 1.000000 -0.000000
vn 0.000000 1.000000 0.000000
vn 0.000000 1.000000 0.000000
vn 0.000000 1.000000 0.000000
vn 0.000000 -0.331321 0.943518
vn 0.000000 -0.331322 0.943518
vn 0.000000 -0.331321 0.943518
vn -0.943518 -0.331321 0.000000
vn -0.943518 -0.331321 0.000000
vn -0.943518 -0.331321 0.000000
vn 0.000000 -0.331321 -0.943518
vn 0.000000 -0.331321 -0.943518
vn 0.000000 -0.331321 -0.943518
vn 0.943518 -0.331321 -0.000000
vn 0.943518 -0.331321 -0.000000
vn 0.943518 -0.331321 -0.000000
vn 0.000000 -0.850269 0.526349
vn 0.000000 -0.850269 0.526349
vn 0.000000 -0.850269 0.526349
vn 0.000000 -0.850269 0.526349
vn 0.000000 0.527685 0.849440
vn 0.000000 0.527685 0.849440
vn 0.000000 0.527685 0.849440
vn 0.000000 0.527685 0.849440
vn -0.526360 -0.850262 0.000000
vn -0.526360 -0.850262 0.000000
vn -0.526360 -0.850262 0.000000
vn -0.526360 -0.850262 0.000000
vn -0.849432 0.527698 0.000000
vn -0.849432 0.527698 0.000000
vn -0.849432 0.527698 0.000000
vn -0.849432 0.527698 0.000000
vn 0.000000 -0.850257 -0.526367
vn 0.000000 -0.850257 -0.526367
vn 0.000000 -0.850257 -0.526367
vn 0.000000 -0.850257 -0.526367
vn 0.000000 0.527685 -0.849440
vn 0.000000 0.527685 -0.849440
vn 0.000000 0.527685 -0.849440
vn 0.000000 0.527685 -0.849440
vn 0.526359 -0.850263 0.000000
vn 0.526359 -0.850263 0.000000
vn 0.526359 -0.850263 0.000000
vn 0.526359 -0.850263 0.000000
vn 0.849432 0.527698 0.000000
vn 0.849432 0.527698 0.000000
vn 0.849432 0.527698 0.000000
vn 0.849432 0.527698 0.000000
vn 0.000000 0.000000 1.000000
vn 0.000000 0.000000 1.000000
vn 0.000000 0.000000 1.000000
vn 0.000000 0.000000 1.000000
vn -1.000000 0.000000 0.000000
vn -1.000000 0.000000 0.000000
vn -1.000000 0.000000 0.000000
vn -1.000000 0.000000 0.000000
vn 0.000000 0.000000 -1.000000
vn 0.000000 0.000000 -1.000000
vn 0.000000 0.000000 -1.000000
vn 0.000000 0.000000 -1.000000
vn 1.000000 0.000000 -0.000000
vn 1.000000 0.000000 -0.000000
vn 1.000000 0.000000 -0.000000
vn 1.000000 0.000000 -0.000000
vn 0.943515 -0.331329 -0.000000
vn 0.943515 -0.331329 -0.000000
vn 0.943515 -0.331329 -0.000000
vn 0.943515 -0.331329 -0.000000
vn 0.943518 -0.331321 -0.000002
vn 0.943518 -0.331321 -0.000002
vn 0.943518 -0.331321 -0.000002
vn 0.943518 -0.331321 -0.000002
vn 0.943518 -0.331322 -0.000000
vn 0.943518 -0.331322 -0.000000
vn 0.943518 -0.331322 -0.000000
vn 0.943518 -0.331322 -0.000000
vn 0.943519 -0.331320 0.000001
vn 0.943519 -0.331320 0.000001
vn 0.943519 -0.331320 0.000001
vn 0.943519 -0.331320 0.000001
vn -0.219495 -0.975614 0.000000
vn -0.219495 -0.975614 0.000000
vn -0.219495 -0.975614 0.000000
vn -0.219495 -0.975614 0.000000
vn 0.069460 0.308718 -0.948614
vn 0.069460 0.308718 -0.948614
vn 0.069460 0.308718 -0.948614
vn 0.069460 0.308718 -0.948614
vn 0.219501 0.975612 -0.000000
vn 0.219501 0.975612 -0.000000
vn 0.219501 0.975612 -0.000000
vn 0.219501 0.975612 -0.000000
vn 0.069459 0.308723 0.948612
vn 0.069459 0.308723 0.948612
vn 0.069459 0.308723 0.948612
vn 0.069459 0.308723 0.948612
vn 0.000000 -0.331310 -0.943522
vn 0.000000 -0.331310 -0.943522
vn 0.000000 -0.331310 -0.943522
vn 0.000000 -0.331310 -0.943522
vn -0.000010 -0.331319 -0.943519
vn -0.000010 -0.331319 -0.943519
vn -0.000010 -0.331319 -0.943519
vn -0.000010 -0.331319 -0.943519
vn 0.000000 -0.331293 -0.943528
vn 0.000000 -0.331293 -0.943528
vn 0.000000 -0.331293 -0.943528
vn 0.000000 -0.331293 -0.943528
vn 0.000010 -0.331320 -0.943519
vn 0.000010 -0.331320 -0.943519
vn 0.000010 -0.331320 -0.943519
vn 0.000010 -0.331320 -0.943519
vn 0.000000 -0.975612 0.219500
vn 0.000000 -0.975612 0.219500
vn 0.000000 -0.975612 0.219500
vn 0.000000 -0.975612 0.219500
vn -0.948614 0.308719 -0.069460
vn -0.948614 0.308719 -0.069460
vn -0.948614 0.308719 -0.069460
vn -0.948614 0.308719 -0.069460
vn 0.000000 0.975612 -0.219504
vn 0.000000 0.975612 -0.219504
vn 0.000000 0.975612 -0.219504
vn 0.000000 0.975612 -0.219504
vn 0.948614 0.308719 -0.069460
vn 0.948614 0.308719 -0.069460
vn 0.948614 0.308719 -0.069460
vn 0.948614 0.308719 -0.069460
vn -0.943515 -0.331330 0.000000
vn -0.943515 -0.331330 0.000000
vn -0.943515 -0.331330 0.000000
vn -0.943515 -0.331330 0.000000
vn -0.943519 -0.331320 0.000002
vn -0.943519 -0.331320 0.000002
vn -0.943518 -0.331320 0.000002
vn -0.943518 -0.331320 0.000002
vn -0.943517 -0.331325 0.000000
vn -0.943517 -0.331324 0.000000
vn -0.943517 -0.331324 0.000000
vn -0.943517 -0.331324 0.000000
vn -0.943518 -0.331321 -0.000003
vn -0.943518 -0.331321 -0.000003
vn -0.943518 -0.331321 -0.000003
vn -0.943518 -0.331321 -0.000003
vn 0.219501 -0.975612 0.000000
vn 0.219501 -0.975612 0.000000
vn 0.219501 -0.975612 0.000000
vn 0.219501 -0.975612 0.000000
vn -0.069461 0.308718 0.948614
vn -0.069461 0.308718 0.948614
vn -0.069461 0.308718 0.948614
vn -0.069461 0.308718 0.948614
vn -0.219501 0.975612 0.000000
vn -0.219501 0.975612 0.000000
vn -0.219501 0.975612 0.000000
vn -0.219501 0.975612 0.000000
vn -0.069459 0.308720 -0.948613
vn -0.069459 0.308720 -0.948613
vn -0.069459 0.308720 -0.948613
vn -0.069459 0.308720 -0.948613
vn 0.000000 -0.331219 0.943554
vn 0.000000 -0.331219 0.943554
vn 0.000000 -0.331219 0.943554
vn 0.000000 -0.331219 0.943554
vn -0.000032 -0.331331 0.943515
vn -0.000032 -0.331331 0.943515
vn -0.000032 -0.331331 0.943515
vn -0.000032 -0.331331 0.943515
vn 0.000000 -0.331296 0.943527
vn 0.000000 -0.331296 0.943527
vn 0.000000 -0.331296 0.943527
vn 0.000000 -0.331296 0.943527
vn 0.000033 -0.331331 0.943515
vn 0.000033 -0.331331 0.943515
vn 0.000033 -0.331331 0.943515
vn 0.000033 -0.331331 0.943515
vn 0.000000 -0.975612 -0.219504
vn 0.000000 -0.975612 -0.219504
vn 0.000000 -0.975612 -0.219504
vn 0.000000 -0.975612 -0.219504
vn 0.948614 0.308719 0.069459
vn 0.948614 0.308719 0.069459
vn 0.948614 0.308719 0.069459
vn 0.948614 0.308719 0.069459
vn 0.000000 0.975612 0.219502
vn 0.000000 0.975612 0.219502
vn 0.000000 0.975612 0.219502
vn 0.000000 0.975612 0.219502
vn -0.948614 0.308719 0.069459
vn -0.948614 0.308719 0.069459
vn -0.948614 0.308719 0.069459
vn -0.948614 0.308719 0.069459
s off
g pasted__pCone2
f 51/59/1 52/60/2 53/61/3 54/62/4
f 43/51/5 44/52/6 45/53/7 46/54/8
f 35/43/9 36/44/10 37/45/11 38/46/12
f 27/35/13 28/36/14 29/37/15 30/38/16
s 1
f 19/27/17 18/28/18 20/15/19
f 21/29/20 19/27/17 20/15/19
f 22/30/21 21/29/20 20/15/19
f 18/28/18 22/30/21 20/15/19
s off
f 5/10/22 6/11/23 9/16/24
f 6/11/25 7/12/26 9/16/27
f 7/12/28 8/13/29 9/16/30
f 8/13/31 5/14/32 9/16/33
f 1/5/34 2/6/35 11/18/36 10/17/37
f 6/11/38 5/10/39 13/20/40 12/19/41
f 2/6/42 3/7/43 14/21/44 11/18/45
f 7/12/46 6/11/47 12/19/48 15/22/49
f 3/7/50 4/8/51 16/23/52 14/21/53
f 8/13/54 7/12/55 15/22/56 17/24/57
f 4/8/58 1/9/59 10/25/60 16/23/61
f 5/14/62 8/13/63 17/24/64 13/26/65
f 2/2/66 1/1/67 18/28/68 19/27/69
f 3/3/70 2/2/71 19/27/72 21/29/73
f 4/4/74 3/3/75 21/29/76 22/30/77
f 1/1/78 4/4/79 22/30/80 18/28/81
f 16/23/82 10/25/83 24/32/84 23/31/85
f 10/25/86 13/26/87 25/33/88 24/32/89
f 13/26/90 17/24/91 26/34/92 25/33/93
f 17/24/94 16/23/95 23/31/96 26/34/97
f 23/31/98 24/32/99 28/36/100 27/35/101
f 24/32/102 25/33/103 29/37/104 28/36/105
f 25/33/106 26/34/107 30/38/108 29/37/109
f 26/34/110 23/31/111 27/35/112 30/38/113
f 14/21/114 16/23/115 32/40/116 31/39/117
f 16/23/118 17/24/119 33/41/120 32/40/121
f 17/24/122 15/22/123 34/42/124 33/41/125
f 15/22/126 14/21/127 31/39/128 34/42/129
f 31/39/130 32/40/131 36/44/132 35/43/133
f 32/40/134 33/41/135 37/45/136 36/44/137
f 33/41/138 34/42/139 38/46/140 37/45/141
f 34/42/142 31/39/143 35/43/144 38/46/145
f 11/18/146 14/21/147 40/48/148 39/47/149
f 14/21/150 15/22/151 41/49/152 40/48/153
f 15/22/154 12/19/155 42/50/156 41/49/157
f 12/19/158 11/18/159 39/47/160 42/50/161
f 39/47/162 40/48/163 44/52/164 43/51/165
f 40/48/166 41/49/167 45/53/168 44/52/169
f 41/49/170 42/50/171 46/54/172 45/53/173
f 42/50/174 39/47/175 43/51/176 46/54/177
f 10/17/178 11/18/179 48/56/180 47/55/181
f 11/18/182 12/19/183 49/57/184 48/56/185
f 12/19/186 13/20/187 50/58/188 49/57/189
f 13/20/190 10/17/191 47/55/192 50/58/193
f 47/55/194 48/56/195 52/60/196 51/59/197
f 48/56/198 49/57/199 53/61/200 52/60/201
f 49/57/202 50/58/203 54/62/204 53/61/205
f 50/58/206 47/55/207 51/59/208 54/62/209
