# This file uses meters as units for non-parametric coordinates.

g default
v -0.243418 0.616669 -0.107682
v -0.643297 1.670892 -0.107682
v -1.505342 0.514251 0.255351
v -1.801296 0.326446 0.832141
v -1.214242 0.145116 1.698822
v -1.291254 1.583160 0.538548
v -1.221224 1.567072 0.832140
v -0.926410 1.622750 1.043396
v -1.538426 0.830168 -0.008150
v -1.088189 1.628864 0.082153
v -1.698795 0.835147 0.085750
v -1.372851 1.478802 0.369040
v -1.732651 0.740802 0.444517
v -0.678150 0.329426 -0.118181
v -1.073387 0.233984 0.343855
v -0.372827 0.429976 -0.107682
v -0.894099 0.048554 1.045807
v -0.355758 0.188192 0.690447
v -0.796450 0.864222 1.525474
v -1.542495 0.447639 1.507486
v -1.278320 0.308455 1.897489
v -1.298314 0.704480 1.663612
v -0.850959 0.638411 -0.342472
v -0.655849 0.497837 -0.154304
v -1.091044 0.572561 -0.307636
v -1.079462 0.442364 -0.093101
v -0.789946 0.377675 -0.185610
v -0.350148 0.254432 0.984303
v -0.166885 0.934373 1.072945
v -0.802318 0.170332 1.698822
v -0.867052 0.704480 2.049501
v -1.111237 0.447639 1.893370
v -0.847061 0.308455 2.283381
v -0.410794 0.409621 2.301370
v -0.520825 0.661736 1.911366
v -0.099390 0.349055 2.085385
v -0.371058 0.170332 2.084710
v 0.081113 0.254432 1.370188
v 0.150213 0.495675 0.931221
v 0.057146 0.731887 1.458834
v -0.782980 0.239019 2.084710
v 0.058434 0.429976 0.278208
v 0.075502 0.282095 1.076337
v 0.136248 0.616669 0.278208
v -0.337352 1.652024 0.304958
v -0.180624 1.177624 0.304958
v -0.216220 1.229472 0.836240
v -0.579675 1.197908 1.039879
v -0.425667 1.636544 0.744425
v -0.826142 1.639800 0.635726
v -1.662276 0.632306 0.837911
vt 0.838104 0.676208
vt 0.088104 0.823792
vt 0.088104 0.176208
vt 0.338104 0.323792
vt 0.588104 0.176208
vt 1.088104 0.823792
vt 1.088104 0.176208
vt 0.257156 0.588104
vt 0.338104 0.500000
vt 0.419052 0.588104
vt 1.088104 0.500000
vt 1.132156 0.661896
vt 0.132156 0.661896
vt 1.132156 0.338104
vt 0.132156 0.338104
vt 0.216682 0.544052
vt 0.257156 0.411896
vt 0.919052 0.411896
vt 0.963104 0.250000
vt 0.838104 0.500000
vt 0.713104 0.250000
vt 0.757156 0.411896
vt 0.544052 0.661896
vt 0.588104 0.500000
vt 0.419052 0.411896
vt 0.544052 0.338104
vt 0.459526 0.544052
vt 1.044052 0.661896
vt 0.919052 0.588104
vt 1.044052 0.500000
vt 1.044052 0.338104
vt 0.959526 0.455948
vt 0.757156 0.588104
vt 0.716682 0.455948
vt 0.632156 0.661896
vt 0.632156 0.338104
vt 0.632156 0.500000
vt 0.459526 0.544052
vt 0.419052 0.411896
vt 0.544052 0.338104
vt 0.544052 0.661896
vt 0.632156 0.338104
vt 0.716682 0.455948
vt 0.588104 0.176208
vt 0.757156 0.411896
vt 0.838104 0.500000
vt 0.838104 0.676208
vt 0.632156 0.661896
vt 0.838104 0.823792
vt 0.338104 0.823792
vt 0.713104 0.750000
vt 0.610130 0.742844
vt 0.566078 0.742844
vt 0.491943 0.780143
vt 0.491618 0.772690
vt 0.301842 0.671576
vt 0.317072 0.411896
vn -0.114531 -0.749490 -0.652033
vn -0.417659 -0.730659 -0.540091
vn -0.403733 0.098716 -0.909535
vn -0.119335 0.157178 -0.980334
vn 0.302997 -0.075506 -0.949996
vn -0.962395 0.254505 -0.094993
vn -0.864726 0.499343 -0.053902
vn -0.447111 0.515337 -0.731108
vn -0.633879 0.156363 -0.757461
vn -0.866666 0.125206 -0.482922
vn 0.176933 -0.981065 -0.078787
vn -0.053519 -0.998564 -0.002262
vn -0.162474 -0.959106 -0.231772
vn 0.663796 0.559643 0.496161
vn 0.791863 0.485272 0.370762
vn 0.902851 0.313431 -0.294313
vn 0.725909 0.634848 -0.264619
vn 0.617126 0.781853 0.088662
vn 0.349166 0.934277 0.072178
vn -0.312020 0.703392 0.638657
vn 0.093834 -0.959842 -0.264382
vn 0.093834 -0.959842 -0.264382
vn 0.093834 -0.959842 -0.264382
vn -0.158886 0.650291 0.742884
vn -0.017206 0.105630 0.994257
vn 0.303725 0.290214 0.907484
vn 0.269341 0.765270 0.584651
vn -0.773314 0.491034 0.401088
vn -0.815185 0.465536 0.344601
vn -0.879414 0.394692 0.266174
vn -0.793590 0.572807 0.205201
vn -0.791894 -0.448504 -0.414426
vn -0.791893 -0.448504 -0.414426
vn -0.511382 -0.852677 -0.106914
vn 0.841725 0.149308 0.518851
vn 0.629632 -0.580134 0.516729
vn 0.938452 -0.265895 0.220473
vn 0.982947 -0.177649 0.047498
vn 0.943045 -0.031570 0.331163
vn -0.736977 -0.577006 0.352035
vn -0.736977 -0.577006 0.352035
vn -0.736977 -0.577006 0.352035
vn -0.736977 -0.577006 0.352035
vn 0.175965 -0.169448 -0.969703
vn 0.157174 -0.883095 -0.442085
vn 0.082361 -0.922975 -0.375943
vn -0.578188 -0.610708 -0.541050
vn -0.361855 0.308451 -0.879727
vn 0.361311 0.033170 -0.931855
vn 0.361311 0.033170 -0.931855
vn 0.134894 -0.748428 0.649353
vn 0.268272 -0.950547 0.156497
vn 0.268272 -0.950547 0.156497
vn 0.268272 -0.950547 0.156497
vn 0.921482 -0.379274 -0.083803
vn 0.921482 -0.379274 -0.083803
vn 0.921482 -0.379274 -0.083803
vn 0.953914 0.298052 0.034825
vn -0.656161 0.178056 0.733314
vn -0.656161 0.178056 0.733314
vn -0.656161 0.178056 0.733314
vn -0.656161 0.178056 0.733314
vn -0.514990 0.635248 0.575539
vn -0.514990 0.635248 0.575539
vn -0.514990 0.635248 0.575539
vn -0.514990 0.635248 0.575539
vn -0.038699 0.957270 0.286595
vn -0.038699 0.957270 0.286595
vn -0.038699 0.957270 0.286595
vn -0.038699 0.957270 0.286595
vn 0.066903 -0.994954 -0.074769
vn 0.066903 -0.994954 -0.074769
vn 0.066903 -0.994954 -0.074769
vn 0.066903 -0.994954 -0.074769
vn -0.051856 -0.982749 0.177525
vn -0.051856 -0.982749 0.177525
vn -0.051856 -0.982749 0.177525
vn -0.051856 -0.982749 0.177525
vn -0.278842 -0.865131 0.416887
vn -0.278842 -0.865131 0.416887
vn -0.278842 -0.865131 0.416887
vn -0.278842 -0.865131 0.416887
vn 0.307904 -0.922739 -0.231836
vn 0.307904 -0.922739 -0.231836
vn 0.307904 -0.922739 -0.231836
vn 0.307904 -0.922739 -0.231836
vn 0.643885 -0.357346 -0.676547
vn 0.643885 -0.357346 -0.676547
vn 0.643885 -0.357346 -0.676547
vn 0.643885 -0.357346 -0.676547
vn 0.050837 -0.996625 0.064447
vn 0.050837 -0.996625 0.064447
vn 0.050837 -0.996625 0.064447
vn 0.050837 -0.996625 0.064447
vn 0.170457 0.913643 0.369055
vn 0.170457 0.913643 0.369055
vn 0.170457 0.913643 0.369055
vn 0.170457 0.913643 0.369055
vn 0.488432 0.858390 -0.156849
vn 0.488432 0.858390 -0.156849
vn 0.488432 0.858390 -0.156849
vn 0.488432 0.858390 -0.156849
vn 0.367220 0.657717 0.657691
vn 0.367220 0.657717 0.657691
vn 0.367184 0.542353 0.755665
vn 0.999664 -0.021078 -0.015120
vn 0.789791 0.287581 -0.541781
vn 0.789791 0.287581 -0.541781
vn -0.041422 0.998643 0.031579
vn 0.991542 0.093935 -0.089554
vn 0.301386 0.547689 0.780515
vn 0.301386 0.547689 0.780515
vn -0.726614 0.321807 0.607019
vn -0.500304 -0.857710 -0.118446
vn -0.447469 -0.809609 -0.379874
vn -0.778318 0.524032 0.345849
vn -0.768790 0.494250 0.405807
s 1
g Rock_Solo_2
f 27/32/1 26/31/2 25/30/3 23/28/4 24/29/5
f 13/17/6 12/16/7 10/12/8 9/11/9 11/15/10
f 18/22/11 17/21/12 15/19/13
f 49/55/14 47/52/15 46/51/16 45/50/17 49/54/18 50/56/19 8/10/20
s off
f 3/3/21 5/5/22 4/4/23
s 5
f 31/38/24 33/40/25 34/24/26 35/41/27
s 1
f 20/25/28 51/57/29 4/4/30
f 6/8/31 10/13/8 12/16/7
f 13/17/6 11/15/10 3/3/32 4/4/33
f 3/7/34 15/19/13 17/21/12
s 5
f 36/37/35 37/42/36 38/43/37 39/33/38 40/48/39
s off
f 4/4/40 5/5/41 21/26/42 20/25/43
s 1
f 27/32/1 24/29/5 1/1/44 16/20/45 14/18/46
f 26/31/2 27/32/1 14/18/46 15/19/13
f 25/30/3 26/31/2 3/7/47 11/14/10 9/11/9
f 23/28/4 25/30/3 9/11/9 10/12/8 2/6/48
f 24/29/5 23/28/4 2/6/49 1/1/50
s 5
f 41/44/51 37/42/36 36/37/35 34/24/26 33/40/25
s 1
f 17/21/12 18/22/11 28/34/52 30/36/53 5/5/54
s 5
f 43/45/55 42/46/56 44/47/57 39/33/38 38/43/37
f 36/37/35 40/48/39 35/41/27 34/24/26
f 44/47/58 40/48/39 39/33/38
s off
f 22/27/59 20/25/60 32/39/61 31/38/62
f 20/25/63 21/26/64 33/40/65 32/39/66
f 19/23/67 22/27/68 31/38/69 35/41/70
f 30/36/71 28/34/72 38/43/73 37/42/74
f 5/5/75 30/36/76 37/42/77 41/44/78
f 21/26/79 5/5/80 41/44/81 33/40/82
f 18/22/83 16/20/84 42/46/85 43/45/86
f 16/20/87 1/1/88 44/47/89 42/46/90
f 28/34/91 18/22/92 43/45/93 38/43/94
f 29/35/95 19/23/96 35/41/97 40/48/98
f 1/1/99 29/35/100 40/48/101 44/47/102
s 1
f 19/23/103 29/35/104 47/52/15 48/53/105
f 1/1/106 46/51/16 47/52/15
f 1/1/107 2/6/108 45/49/17 46/51/16
f 10/13/8 50/56/19 2/2/109
f 1/1/106 47/52/15 29/35/110
f 48/53/105 8/10/20 22/27/111 19/23/112
s 5
f 31/38/24 32/39/113 33/40/25
s 1
f 3/7/34 17/21/12 5/5/114
f 18/22/11 15/19/13 14/18/46 16/20/45
f 26/31/2 15/19/13 3/7/115
f 48/53/105 47/52/15 49/55/14 8/10/20
f 50/56/19 45/50/17 2/2/109
f 8/10/20 50/56/19 7/9/116
f 50/56/19 49/54/18 45/50/17
f 7/9/116 50/56/19 6/8/31
f 6/8/31 50/56/19 10/13/8
f 7/9/116 51/57/29 20/25/28 22/27/117 8/10/20
f 7/9/116 6/8/31 12/16/7 13/17/6 51/57/29
f 4/4/30 51/57/29 13/17/6
