# This file uses meters as units for non-parametric coordinates.

mtllib Rock_Solo_Big_2.mtl
g default
v 10.233133 14.188167 -29.559578
v -5.664490 62.308686 -29.559580
v -45.012788 9.513287 -12.988864
v -58.521825 8.508540 13.338991
v -31.725450 -7.336081 52.898964
v -35.240732 58.304214 -0.062196
v -21.614921 62.331107 6.669496
v -16.578447 64.539735 14.160221
v -32.044288 57.569720 13.338993
v -18.587314 60.111165 22.981792
v -46.523017 23.933397 -25.016469
v -25.971813 60.390368 -20.894495
v -53.843205 24.160789 -20.730309
v -38.965302 53.540550 -7.799439
v -55.388568 19.854309 -4.354287
v -7.255379 1.076866 -30.038917
v -25.296123 -3.279625 -8.949051
v 6.681227 5.666498 -29.559578
v -17.112435 -11.743696 23.091887
v 7.460339 -5.369844 6.871300
v -19.759301 16.245354 44.986550
v -46.708853 6.472755 44.165322
v -34.650480 0.119615 61.967310
v -35.562957 18.196289 51.291938
v -15.143286 15.180605 -40.276711
v -6.237403 8.764057 -31.687708
v -26.102054 12.174887 -38.686628
v -25.573475 6.231944 -28.894111
v -12.358381 3.279197 -33.116803
v 7.716443 -2.346296 20.284483
v 6.622424 19.447362 24.330623
v -12.923078 -6.185093 52.898964
v -15.877875 18.196288 68.906005
v -27.023771 6.472754 61.779388
v -14.965398 0.119614 79.581380
v 4.948182 4.737401 80.402606
v -0.074216 16.245352 62.600613
v 19.162409 1.972837 70.544089
v 6.762006 -6.185094 70.513027
v 27.401528 -2.346297 37.898548
v 30.555670 8.665373 17.861566
v 26.307508 19.447361 41.944691
v -12.040365 -3.049825 70.513027
v 26.366310 5.666496 -11.945512
v 27.145424 -1.083587 24.485367
v 29.918221 14.188165 -11.945512
v 3.582258 61.447469 -10.724502
v 10.736188 39.793236 -10.724502
v 9.111368 42.159871 13.526087
v -2.760408 40.718967 22.821255
v -1.329024 62.451438 8.949406
vt 0.838104 0.676208
vt 0.088104 0.823792
vt 0.088104 0.176208
vt 0.338104 0.323792
vt 0.588104 0.176208
vt 1.088104 0.823792
vt 1.088104 0.176208
vt 0.257156 0.588104
vt 0.213104 0.750000
vt 0.463104 0.750000
vt 0.338104 0.500000
vt 0.419052 0.588104
vt 1.088104 0.500000
vt 1.132156 0.661896
vt 0.132156 0.661896
vt 1.132156 0.338104
vt 0.132156 0.338104
vt 0.216682 0.544052
vt 0.257156 0.411896
vt 0.919052 0.411896
vt 0.963104 0.250000
vt 0.838104 0.500000
vt 0.713104 0.250000
vt 0.757156 0.411896
vt 0.544052 0.661896
vt 0.588104 0.500000
vt 0.419052 0.411896
vt 0.544052 0.338104
vt 0.459526 0.544052
vt 1.044052 0.661896
vt 0.919052 0.588104
vt 1.044052 0.500000
vt 1.044052 0.338104
vt 0.959526 0.455948
vt 0.757156 0.588104
vt 0.716682 0.455948
vt 0.632156 0.661896
vt 0.632156 0.338104
vt 0.632156 0.500000
vt 0.459526 0.544052
vt 0.419052 0.411896
vt 0.544052 0.338104
vt 0.544052 0.661896
vt 0.632156 0.338104
vt 0.716682 0.455948
vt 0.588104 0.176208
vt 0.757156 0.411896
vt 0.838104 0.500000
vt 0.838104 0.676208
vt 0.632156 0.661896
vt 0.838104 0.823792
vt 0.338104 0.823792
vt 0.713104 0.750000
vt 0.610130 0.742844
vt 0.566078 0.742844
vt 0.525604 0.786896
vn -0.236118 -0.787911 -0.568722
vn -0.410084 -0.762672 -0.500164
vn -0.403732 0.098718 -0.909536
vn -0.122579 0.160357 -0.979418
vn 0.321742 -0.080660 -0.943385
vn -0.955369 0.286252 -0.073005
vn -0.776912 0.625144 -0.074853
vn -0.447989 0.610747 -0.652911
vn -0.633879 0.156361 -0.757462
vn -0.870465 0.127936 -0.475314
vn 0.150788 -0.978631 -0.139801
vn -0.107355 -0.992792 -0.053281
vn -0.218737 -0.950430 -0.220992
vn 0.027388 -0.936779 -0.348848
vn 0.126064 -0.920246 -0.370479
vn 0.537959 0.708841 0.456229
vn 0.548393 0.409610 0.729030
vn 0.939624 0.190129 0.284529
vn 0.983211 0.167206 -0.073066
vn 0.678204 0.728581 -0.095963
vn -0.765225 0.540000 0.350473
vn -0.155851 0.623949 0.765767
vn 0.278921 0.768832 0.575414
vn -0.153331 0.988168 -0.003634
vn -0.690296 0.716800 0.098433
vn -0.286287 -0.940547 -0.182790
vn -0.286287 -0.940547 -0.182790
vn -0.286287 -0.940547 -0.182790
vn -0.209700 0.633916 0.744430
vn -0.209700 0.633916 0.744430
vn -0.139150 0.283288 0.948886
vn 0.162779 0.319132 0.933626
vn 0.142633 0.759890 0.634210
vn -0.873735 0.454146 0.174177
vn -0.250074 0.965874 -0.067454
vn -0.790684 -0.507858 -0.341904
vn -0.790684 -0.507858 -0.341904
vn -0.509447 -0.853578 -0.108943
vn -0.509447 -0.853578 -0.108943
vn 0.841723 0.149311 0.518853
vn 0.629633 -0.580132 0.516728
vn 0.938452 -0.265895 0.220473
vn 0.982947 -0.177651 0.047497
vn 0.943045 -0.031568 0.331164
vn -0.751384 0.500812 0.429662
vn -0.751384 0.500812 0.429662
vn -0.751384 0.500812 0.429662
vn -0.730851 -0.635437 0.249150
vn -0.730851 -0.635437 0.249150
vn -0.730851 -0.635437 0.249150
vn -0.730851 -0.635437 0.249150
vn 0.181059 -0.155983 -0.971024
vn -0.361398 -0.849580 -0.384194
vn -0.578189 -0.610708 -0.541048
vn -0.361854 0.308451 -0.879727
vn 0.389924 0.032404 -0.920277
vn 0.389924 0.032404 -0.920277
vn 0.134890 -0.748428 0.649354
vn 0.268272 -0.950546 0.156498
vn 0.268272 -0.950546 0.156498
vn 0.268272 -0.950546 0.156498
vn 0.921479 -0.379279 -0.083804
vn 0.921479 -0.379279 -0.083804
vn 0.921479 -0.379279 -0.083804
vn 0.953912 0.298059 0.034826
vn -0.656162 0.178059 0.733312
vn -0.656162 0.178059 0.733312
vn -0.656162 0.178059 0.733312
vn -0.656162 0.178059 0.733312
vn -0.514989 0.635249 0.575539
vn -0.514989 0.635249 0.575539
vn -0.514989 0.635249 0.575539
vn -0.514989 0.635249 0.575539
vn 0.084687 0.991902 -0.094644
vn 0.084687 0.991902 -0.094644
vn 0.084687 0.991902 -0.094644
vn 0.084687 0.991902 -0.094644
vn 0.066903 -0.994954 -0.074770
vn 0.066903 -0.994954 -0.074770
vn 0.066903 -0.994954 -0.074770
vn 0.066903 -0.994954 -0.074770
vn -0.051856 -0.982749 0.177526
vn -0.051856 -0.982749 0.177526
vn -0.051856 -0.982749 0.177526
vn -0.051856 -0.982749 0.177526
vn -0.278839 -0.865133 0.416886
vn -0.278839 -0.865133 0.416886
vn -0.278839 -0.865133 0.416886
vn -0.278839 -0.865133 0.416886
vn 0.307905 -0.922739 -0.231836
vn 0.307905 -0.922739 -0.231836
vn 0.307905 -0.922739 -0.231836
vn 0.307905 -0.922739 -0.231836
vn 0.642465 -0.267785 -0.718004
vn 0.642465 -0.267785 -0.718004
vn 0.642465 -0.267785 -0.718004
vn 0.642465 -0.267785 -0.718004
vn 0.050837 -0.996625 0.064446
vn 0.050837 -0.996625 0.064446
vn 0.050837 -0.996625 0.064446
vn 0.050837 -0.996625 0.064446
vn -0.064428 0.995321 0.072003
vn -0.064428 0.995321 0.072003
vn -0.064428 0.995321 0.072004
vn -0.064428 0.995321 0.072004
vn 0.081763 0.992454 -0.091376
vn 0.081763 0.992454 -0.091376
vn 0.081763 0.992454 -0.091376
vn 0.081763 0.992454 -0.091376
vn 0.449074 0.434155 0.780924
vn 0.449074 0.434155 0.780924
vn 0.564321 0.303400 0.767782
vn 0.564321 0.303400 0.767782
vn 0.994531 -0.073858 0.073843
vn 0.994531 -0.073858 0.073843
vn 0.865304 0.285871 -0.411735
vn 0.865305 0.285871 -0.411735
vn 0.030036 0.998604 -0.043461
s 1
g Rock_Solo_2
usemtl initialShadingGroup
f 29/34/1 28/33/2 27/32/3 25/30/4 26/31/5
f 15/19/6 14/18/7 12/14/8 11/13/9 13/17/10
f 20/24/11 19/23/12 17/21/13 16/20/14 18/22/15
f 51/56/16 50/55/17 49/54/18 48/53/19 47/52/20
f 9/11/21 10/12/22 8/10/23 7/9/24 6/8/25
s off
f 3/3/26 5/5/27 4/4/28
s 6
f 33/40/29 34/41/30 35/42/31 36/26/32 37/43/33
s 1
f 14/18/7 15/19/6 4/4/34 9/11/21 6/8/25
f 2/2/35 12/15/8 14/18/7 6/8/25 7/9/24
f 15/19/6 13/17/10 3/3/36 4/4/37
f 3/7/38 17/21/13 19/23/12 5/5/39
s 6
f 38/39/40 39/44/41 40/45/42 41/35/43 42/50/44
s 1
f 10/12/22 9/11/21 4/4/45 22/27/46 24/29/47
s off
f 4/4/48 5/5/49 23/28/50 22/27/51
s 1
f 29/34/1 26/31/5 1/1/52 18/22/15 16/20/14
f 28/33/2 29/34/1 16/20/14 17/21/13 3/7/53
f 27/32/3 28/33/2 3/7/54 13/16/10 11/13/9
f 25/30/4 27/32/3 11/13/9 12/14/8 2/6/55
f 26/31/5 25/30/4 2/6/56 1/1/57
s 6
f 43/46/58 39/44/41 38/39/40 36/26/32 35/42/31
s 1
f 19/23/12 20/24/11 30/36/59 32/38/60 5/5/61
s 6
f 45/47/62 44/48/63 46/49/64 41/35/43 40/45/42
f 38/39/40 42/50/44 37/43/33 36/26/32
f 46/49/65 42/50/44 41/35/43
s off
f 24/29/66 22/27/67 34/41/68 33/40/69
f 22/27/70 23/28/71 35/42/72 34/41/73
f 21/25/74 24/29/75 33/40/76 37/43/77
f 32/38/78 30/36/79 40/45/80 39/44/81
f 5/5/82 32/38/83 39/44/84 43/46/85
f 23/28/86 5/5/87 43/46/88 35/42/89
f 20/24/90 18/22/91 44/48/92 45/47/93
f 18/22/94 1/1/95 46/49/96 44/48/97
f 30/36/98 20/24/99 45/47/100 40/45/101
f 31/37/102 21/25/103 37/43/104 42/50/105
f 1/1/106 31/37/107 42/50/108 46/49/109
s 1
f 50/55/17 51/56/16 8/10/23 10/12/22 24/29/110 21/25/111
f 21/25/112 31/37/113 49/54/18 50/55/17
f 1/1/114 48/53/19 49/54/18 31/37/115
f 1/1/116 2/6/117 47/51/20 48/53/19
f 2/2/118 7/9/24 8/10/23 51/56/16 47/52/20
