# This file uses centimeters as units for non-parametric coordinates.

mtllib Shelf.mtl
g default
v -8.872060 -0.699779 1.688246
v -6.408271 -0.699779 1.688246
v -8.872060 0.300221 1.688246
v -6.408271 0.300221 1.688246
v -8.872060 0.300221 -6.299164
v -6.408271 0.300221 -6.299165
v -8.872060 -0.699779 -6.299164
v -6.408271 -0.699779 -6.299165
v -8.108743 -2.251575 -1.358992
v -7.171588 -2.251575 -1.358992
v -7.171588 -2.251575 1.679188
v -8.108743 -2.251575 1.679188
vt 0.375000 0.000000
vt 0.625000 0.000000
vt 0.375000 0.250000
vt 0.625000 0.250000
vt 0.375000 0.500000
vt 0.625000 0.500000
vt 0.375000 0.750000
vt 0.625000 0.750000
vt 0.375000 1.000000
vt 0.625000 1.000000
vt 0.875000 0.000000
vt 0.875000 0.250000
vt 0.125000 0.000000
vt 0.125000 0.250000
vt 0.375000 0.750000
vt 0.625000 0.750000
vt 0.625000 1.000000
vt 0.375000 1.000000
vn 0.000000 -0.002519 0.999997
vn 0.000000 -0.002519 0.999997
vn 0.000000 0.000000 1.000000
vn 0.000000 0.000000 1.000000
vn 0.000000 1.000000 0.000000
vn 0.000000 1.000000 0.000000
vn 0.000000 1.000000 0.000000
vn 0.000000 1.000000 0.000000
vn -0.000000 0.000000 -1.000000
vn -0.000000 0.000000 -1.000000
vn -0.000000 -0.843213 -0.537580
vn -0.000000 -0.843213 -0.537580
vn 0.000000 -1.000000 0.000000
vn 0.000000 -1.000000 0.000000
vn 0.000000 -1.000000 0.000000
vn 0.000000 -1.000000 0.000000
vn 0.969230 -0.246156 0.000000
vn 0.995808 -0.091463 0.000000
vn 1.000000 0.000000 0.000000
vn 1.000000 0.000000 0.000000
vn -0.995809 -0.091463 0.000000
vn -0.969230 -0.246156 0.000000
vn -1.000000 0.000000 0.000000
vn -1.000000 0.000000 0.000000
vn -0.000000 -0.954040 -0.299681
vn -0.000000 -0.954040 -0.299681
vn 0.897318 -0.441384 0.000000
vn 0.897318 -0.441384 0.000000
vn 0.000000 -0.005837 0.999983
vn 0.000000 -0.005837 0.999983
vn -0.897318 -0.441384 0.000000
vn -0.897318 -0.441384 0.000000
s 1
g pasted__pCube2
usemtl initialShadingGroup
f 1/1/1 2/2/2 4/4/3 3/3/4
s off
f 3/3/5 4/4/6 6/6/7 5/5/8
s 2
f 5/5/9 6/6/10 8/8/11 7/7/12
s off
f 9/15/13 10/16/14 11/17/15 12/18/16
s 3
f 2/2/17 8/11/18 6/12/19 4/4/20
s 4
f 7/13/21 1/1/22 3/3/23 5/14/24
s 2
f 7/7/12 8/8/11 10/16/25 9/15/26
s 3
f 8/8/18 2/10/17 11/17/27 10/16/28
s 1
f 2/10/2 1/9/1 12/18/29 11/17/30
s 4
f 1/9/22 7/7/21 9/15/31 12/18/32
g default
v 6.515342 -0.699779 1.688246
v 8.979131 -0.699779 1.688246
v 6.515342 0.300221 1.688246
v 8.979131 0.300221 1.688246
v 6.515342 0.300221 -6.299164
v 8.979131 0.300221 -6.299165
v 6.515342 -0.699779 -6.299164
v 8.979131 -0.699779 -6.299165
v 7.278659 -2.251575 -1.358992
v 8.215814 -2.251575 -1.358992
v 8.215814 -2.251575 1.679188
v 7.278659 -2.251575 1.679188
vt 0.375000 0.000000
vt 0.625000 0.000000
vt 0.375000 0.250000
vt 0.625000 0.250000
vt 0.375000 0.500000
vt 0.625000 0.500000
vt 0.375000 0.750000
vt 0.625000 0.750000
vt 0.375000 1.000000
vt 0.625000 1.000000
vt 0.875000 0.000000
vt 0.875000 0.250000
vt 0.125000 0.000000
vt 0.125000 0.250000
vt 0.375000 0.750000
vt 0.625000 0.750000
vt 0.625000 1.000000
vt 0.375000 1.000000
vn 0.000000 -0.002519 0.999997
vn 0.000000 -0.002519 0.999997
vn 0.000000 0.000000 1.000000
vn 0.000000 0.000000 1.000000
vn 0.000000 1.000000 0.000000
vn 0.000000 1.000000 0.000000
vn 0.000000 1.000000 0.000000
vn 0.000000 1.000000 0.000000
vn -0.000000 0.000000 -1.000000
vn -0.000000 0.000000 -1.000000
vn -0.000000 -0.843212 -0.537580
vn -0.000000 -0.843213 -0.537580
vn 0.000000 -1.000000 0.000000
vn 0.000000 -1.000000 0.000000
vn 0.000000 -1.000000 0.000000
vn 0.000000 -1.000000 0.000000
vn 0.969230 -0.246156 0.000000
vn 0.995808 -0.091463 0.000000
vn 1.000000 0.000000 0.000000
vn 1.000000 0.000000 0.000000
vn -0.995808 -0.091463 0.000000
vn -0.969230 -0.246156 0.000000
vn -1.000000 0.000000 0.000000
vn -1.000000 0.000000 0.000000
vn 0.000000 -0.954040 -0.299681
vn 0.000000 -0.954040 -0.299681
vn 0.897318 -0.441384 0.000000
vn 0.897318 -0.441384 0.000000
vn 0.000000 -0.005837 0.999983
vn 0.000000 -0.005837 0.999983
vn -0.897318 -0.441384 0.000000
vn -0.897318 -0.441384 0.000000
s 1
g pCube2
usemtl initialShadingGroup
f 13/19/33 14/20/34 16/22/35 15/21/36
s off
f 15/21/37 16/22/38 18/24/39 17/23/40
s 2
f 17/23/41 18/24/42 20/26/43 19/25/44
s off
f 21/33/45 22/34/46 23/35/47 24/36/48
s 3
f 14/20/49 20/29/50 18/30/51 16/22/52
s 4
f 19/31/53 13/19/54 15/21/55 17/32/56
s 2
f 19/25/44 20/26/43 22/34/57 21/33/58
s 3
f 20/26/50 14/28/49 23/35/59 22/34/60
s 1
f 14/28/34 13/27/33 24/36/61 23/35/62
s 4
f 13/27/54 19/25/53 21/33/63 24/36/64
g default
v 11.058861 0.315774 1.708945
v 11.058861 1.708945 1.708945
v 11.058861 1.708945 -9.049922
v 11.058861 0.315774 -9.049922
v -0.000000 0.315774 1.708945
v -0.000000 1.708945 1.708945
v -0.000000 1.708944 -9.049922
v -0.000000 0.315774 -9.049922
v -11.014994 0.315774 1.708945
v -11.014991 1.708945 1.708945
v -11.014994 1.708944 -9.049922
v -11.014994 0.315774 -9.049922
vt 0.625000 0.000000
vt 0.625000 0.250000
vt 0.625000 0.500000
vt 0.625000 0.750000
vt 0.625000 1.000000
vt 0.875000 0.000000
vt 0.875000 0.250000
vt 0.500000 0.000000
vt 0.500000 1.000000
vt 0.500000 0.250000
vt 0.500000 0.500000
vt 0.500000 0.750000
vt 0.625000 0.000000
vt 0.875000 0.000000
vt 0.875000 0.250000
vt 0.625000 0.250000
vt 0.500000 0.250000
vt 0.500000 0.000000
vt 0.500000 0.500000
vt 0.625000 0.500000
vt 0.500000 0.750000
vt 0.625000 0.750000
vt 0.500000 1.000000
vt 0.625000 1.000000
vn 1.000000 0.000000 0.000000
vn 1.000000 0.000000 0.000000
vn 1.000000 0.000000 0.000000
vn 1.000000 0.000000 0.000000
vn 0.000000 0.000000 1.000000
vn 0.000000 0.000000 1.000000
vn 0.000000 0.000000 1.000000
vn 0.000000 0.000000 1.000000
vn -0.000000 1.000000 -0.000000
vn -0.000000 1.000000 -0.000000
vn -0.000000 1.000000 -0.000000
vn -0.000000 1.000000 -0.000000
vn 0.000000 0.000000 -1.000000
vn 0.000000 0.000000 -1.000000
vn 0.000000 0.000000 -1.000000
vn 0.000000 0.000000 -1.000000
vn 0.000000 -1.000000 0.000000
vn 0.000000 -1.000000 0.000000
vn 0.000000 -1.000000 0.000000
vn 0.000000 -1.000000 0.000000
vn -1.000000 0.000001 0.000000
vn -1.000000 0.000001 0.000000
vn -1.000000 0.000001 0.000000
vn -1.000000 0.000001 0.000000
vn 0.000000 0.000000 1.000000
vn 0.000000 0.000000 1.000000
vn 0.000000 1.000000 -0.000000
vn 0.000000 1.000000 -0.000000
vn 0.000000 0.000000 -1.000000
vn 0.000000 0.000000 -1.000000
vn 0.000000 -1.000000 0.000000
vn 0.000000 -1.000000 0.000000
s off
g pCube1
usemtl initialShadingGroup
f 25/37/65 28/42/66 27/43/67 26/38/68
s 1
f 30/46/69 29/44/70 25/37/71 26/38/72
s 2
f 31/47/73 30/46/74 26/38/75 27/39/76
s 3
f 32/48/77 31/47/78 27/39/79 28/40/80
s 4
f 29/45/81 32/48/82 28/40/83 25/41/84
s off
f 33/49/85 34/52/86 35/51/87 36/50/88
s 1
f 30/53/69 34/52/89 33/49/90 29/54/70
s 2
f 31/55/73 35/56/91 34/52/92 30/53/74
s 3
f 32/57/77 36/58/93 35/56/94 31/55/78
s 4
f 29/59/81 33/60/95 36/58/96 32/57/82
