# This file uses meters as units for non-parametric coordinates.

g default
v 2.360470 2.351133 -1.159998
v 2.222168 2.877430 -2.084055
v 2.129492 3.083630 -3.243367
v 2.129492 3.103418 -4.954423
v 2.373689 6.231914 6.226135
v 2.373689 5.888466 6.569584
v 2.598338 5.888466 6.226135
v 2.598338 1.319331 6.226135
v 2.373689 1.319331 6.569584
v 2.373663 6.231914 -0.466821
v 2.598338 5.888425 -0.517968
v 2.137712 6.233721 -1.629666
v 2.360470 5.887545 -1.662775
v 1.993026 6.245636 -2.825133
v 2.222168 5.901008 -2.799829
v 1.902514 6.259766 -3.858467
v 2.129492 5.917167 -3.813847
v 2.129492 5.916657 -4.954423
v 1.904843 6.260105 -4.954423
v 2.598338 1.531773 -0.517968
v 2.598338 1.319331 -0.274943
v 2.550769 1.525671 -0.646361
v 2.598338 1.319331 3.166636
v 2.598338 1.319331 5.374449
v 2.598338 1.518417 5.345861
v 2.598338 1.833200 5.176547
v 2.598338 2.081861 4.932706
v 2.598338 2.248062 4.600934
v 2.598338 2.295540 4.262167
v 2.598338 2.238953 3.914771
v 2.598338 2.083957 3.599995
v 2.598338 1.826144 3.359791
v 2.598338 1.512656 3.188914
v 1.922118 1.512656 3.188914
v 1.922118 1.319331 3.166636
v 1.922118 1.826144 3.359791
v 1.922118 2.083957 3.599995
v 1.922118 2.238953 3.914771
v 1.922118 2.295540 4.262167
v 1.922118 2.248062 4.600934
v 1.922118 2.081861 4.932706
v 1.922118 1.833200 5.176547
v 1.922118 1.518417 5.345861
v 1.922118 1.319331 5.374449
v 1.912963 1.319331 3.162586
v 1.939911 1.319331 5.378690
v 0.126356 1.319331 6.569584
v 0.126356 5.888466 6.569584
v 0.126356 6.231914 6.226135
v 0.126356 6.231914 -0.466821
v 0.126356 6.233721 -1.629666
v 0.126356 6.245636 -2.825133
v 0.126356 6.259766 -3.858467
v 0.126356 6.260105 -4.954423
v 0.126356 3.103418 -4.954423
v 0.126356 3.083630 -3.243367
v 0.126356 2.877430 -2.084055
v 0.126356 2.351133 -1.159998
v 0.126356 1.525671 -0.646361
v 0.126356 1.319331 -0.274943
v -2.107758 2.351133 -1.159998
v -1.969455 2.877430 -2.084055
v -1.876780 3.083630 -3.243367
v -1.876780 3.103418 -4.954423
v -2.120977 6.231914 6.226135
v -2.120977 5.888466 6.569584
v -2.345626 5.888466 6.226135
v -2.345626 1.319331 6.226135
v -2.120977 1.319331 6.569584
v -2.120951 6.231914 -0.466821
v -2.345626 5.888425 -0.517968
v -1.885000 6.233721 -1.629666
v -2.107758 5.887545 -1.662775
v -1.740314 6.245636 -2.825133
v -1.969455 5.901008 -2.799829
v -1.649802 6.259766 -3.858467
v -1.876780 5.917167 -3.813847
v -1.876780 5.916657 -4.954423
v -1.652131 6.260105 -4.954423
v -2.345626 1.531773 -0.517968
v -2.345626 1.319331 -0.274943
v -2.298057 1.525671 -0.646361
v -2.345626 1.319331 3.166636
v -2.345626 1.319331 5.374449
v -2.345626 1.518417 5.345861
v -2.345626 1.833200 5.176547
v -2.345626 2.081861 4.932706
v -2.345626 2.248062 4.600934
v -2.345626 2.295540 4.262167
v -2.345626 2.238953 3.914771
v -2.345626 2.083957 3.599995
v -2.345626 1.826144 3.359791
v -2.345626 1.512656 3.188914
v -1.669406 1.512656 3.188914
v -1.669406 1.319331 3.166636
v -1.669406 1.826144 3.359791
v -1.669406 2.083957 3.599995
v -1.669406 2.238953 3.914771
v -1.669406 2.295540 4.262167
v -1.669406 2.248062 4.600934
v -1.669406 2.081861 4.932706
v -1.669406 1.833200 5.176547
v -1.669406 1.518417 5.345861
v -1.669406 1.319331 5.374449
v -1.660250 1.319331 3.162586
v -1.687198 1.319331 5.378690
v 0.126356 1.414441 6.569584
v 0.126356 5.793355 6.569584
v 2.280129 1.414441 6.569584
v 2.280129 5.793355 6.569584
v -2.027416 5.793355 6.569584
v -2.027416 1.414441 6.569584
v 0.126356 1.458394 6.812711
v 0.126356 5.749403 6.812711
v 2.236893 1.458394 6.812711
v 2.236893 5.749403 6.812711
v -1.984180 5.749403 6.812711
v -1.984180 1.458394 6.812711
v 0.126356 1.319331 5.378691
v 0.126356 1.319331 3.162585
v -1.687198 1.074545 5.378690
v 0.126356 1.074545 5.378691
v -1.660250 1.074545 3.162586
v 0.126356 1.074545 3.162585
v 1.939911 1.074545 5.378690
v 1.912963 1.074545 3.162586
v 2.376271 1.989176 3.918042
v 2.376271 1.829561 3.604780
v 2.376271 1.580955 3.356174
v 2.376271 1.267693 3.196559
v 2.376271 0.920440 3.141560
v 2.376271 0.573187 3.196559
v 2.376271 0.259925 3.356174
v 2.376271 0.011319 3.604780
v 2.376271 -0.148296 3.918042
v 2.376271 -0.203295 4.265295
v 2.376271 -0.148296 4.612549
v 2.376271 0.011319 4.925811
v 2.376271 0.259925 5.174416
v 2.376271 0.573187 5.334031
v 2.376271 0.920440 5.389031
v 2.376271 1.267693 5.334031
v 2.376271 1.580955 5.174416
v 2.376271 1.829561 4.925811
v 2.376271 1.989175 4.612549
v 2.376271 2.044175 4.265295
v 2.146623 1.989176 3.918042
v 2.146623 1.829561 3.604780
v 2.146623 1.580955 3.356174
v 2.146623 1.267693 3.196559
v 2.146623 0.920440 3.141560
v 2.146623 0.573187 3.196559
v 2.146623 0.259925 3.356174
v 2.146623 0.011319 3.604780
v 2.146623 -0.148296 3.918042
v 2.146623 -0.203295 4.265295
v 2.146623 -0.148296 4.612549
v 2.146623 0.011319 4.925811
v 2.146623 0.259925 5.174416
v 2.146623 0.573187 5.334031
v 2.146623 0.920440 5.389031
v 2.146623 1.267693 5.334031
v 2.146623 1.580955 5.174416
v 2.146623 1.829561 4.925811
v 2.146623 1.989175 4.612549
v 2.146623 2.044175 4.265295
v 2.376271 0.920440 4.265295
v 2.146623 0.920440 4.265295
v -1.911768 1.989176 3.918042
v -1.911768 1.829561 3.604780
v -1.911768 1.580955 3.356174
v -1.911768 1.267693 3.196559
v -1.911768 0.920440 3.141560
v -1.911768 0.573187 3.196559
v -1.911768 0.259925 3.356174
v -1.911768 0.011319 3.604780
v -1.911768 -0.148296 3.918042
v -1.911768 -0.203295 4.265295
v -1.911768 -0.148296 4.612549
v -1.911768 0.011319 4.925811
v -1.911768 0.259925 5.174416
v -1.911768 0.573187 5.334031
v -1.911768 0.920440 5.389031
v -1.911768 1.267693 5.334031
v -1.911768 1.580955 5.174416
v -1.911768 1.829561 4.925811
v -1.911768 1.989175 4.612549
v -1.911768 2.044175 4.265295
v -2.141416 1.989176 3.918042
v -2.141416 1.829561 3.604780
v -2.141416 1.580955 3.356174
v -2.141416 1.267693 3.196559
v -2.141416 0.920440 3.141560
v -2.141416 0.573187 3.196559
v -2.141416 0.259925 3.356174
v -2.141416 0.011319 3.604780
v -2.141416 -0.148296 3.918042
v -2.141416 -0.203295 4.265295
v -2.141416 -0.148296 4.612549
v -2.141416 0.011319 4.925811
v -2.141416 0.259925 5.174416
v -2.141416 0.573187 5.334031
v -2.141416 0.920440 5.389031
v -2.141416 1.267693 5.334031
v -2.141416 1.580955 5.174416
v -2.141416 1.829561 4.925811
v -2.141416 1.989175 4.612549
v -2.141416 2.044175 4.265295
v -1.911768 0.920440 4.265295
v -2.141416 0.920440 4.265295
v 2.192628 1.091714 4.209174
v 2.192628 1.067651 4.161947
v 2.192628 1.030172 4.124468
v 2.192628 0.982946 4.100405
v 2.192628 0.930595 4.092113
v 2.192628 0.878244 4.100405
v 2.192628 0.831017 4.124468
v 2.192628 0.793538 4.161947
v 2.192628 0.769475 4.209174
v 2.192628 0.761184 4.261524
v 2.192628 0.769475 4.313875
v 2.192628 0.793538 4.361101
v 2.192628 0.831017 4.398580
v 2.192628 0.878244 4.422643
v 2.192628 0.930595 4.430935
v 2.192628 0.982945 4.422643
v 2.192628 1.030172 4.398580
v 2.192628 1.067651 4.361101
v 2.192628 1.091714 4.313875
v 2.192628 1.100006 4.261524
v -1.971805 1.091714 4.209174
v -1.971805 1.067651 4.161947
v -1.971805 1.030172 4.124468
v -1.971805 0.982946 4.100405
v -1.971805 0.930595 4.092113
v -1.971805 0.878244 4.100405
v -1.971805 0.831017 4.124468
v -1.971805 0.793538 4.161947
v -1.971805 0.769475 4.209174
v -1.971805 0.761184 4.261524
v -1.971805 0.769475 4.313875
v -1.971805 0.793538 4.361101
v -1.971805 0.831017 4.398580
v -1.971805 0.878244 4.422643
v -1.971805 0.930595 4.430935
v -1.971805 0.982945 4.422643
v -1.971805 1.030172 4.398580
v -1.971805 1.067651 4.361101
v -1.971805 1.091714 4.313875
v -1.971805 1.100006 4.261524
v 2.192628 0.930595 4.261524
v -1.971805 0.930595 4.261524
v 0.021651 -0.293008 -4.153672
v 0.255469 -0.293008 -4.153672
v 0.021651 3.115989 -4.153672
v 0.255469 3.115989 -4.153672
v 0.021651 3.115989 -4.387490
v 0.255469 3.115989 -4.387490
v 0.021651 -0.293008 -4.387490
v 0.255469 -0.293008 -4.387490
vt 0.625000 0.262114
vt 0.625000 0.500000
vt 0.607522 0.232522
vt 0.600320 0.500000
vt 0.607522 0.000000
vt 0.607522 0.262114
vt 0.607520 0.498196
vt 0.603159 0.500000
vt 0.601045 0.500000
vt 0.625000 0.522298
vt 0.625000 0.750000
vt 0.599816 0.500000
vt 0.625000 0.525619
vt 0.625000 0.750000
vt 0.625000 0.526991
vt 0.625000 0.750000
vt 0.625000 0.526474
vt 0.637114 0.232522
vt 0.637114 0.000000
vt 0.866428 0.000000
vt 0.875000 0.010811
vt 0.875000 0.232520
vt 0.625000 0.517480
vt 0.625000 0.739189
vt 0.625000 0.987886
vt 0.607522 1.000000
vt 0.625000 0.750000
vt 0.625000 0.750000
vt 0.625000 0.758572
vt 0.625000 0.879968
vt 0.745032 0.000000
vt 0.625000 0.958689
vt 0.666311 0.000000
vt 0.668164 0.010131
vt 0.674137 0.026151
vt 0.682738 0.038805
vt 0.694440 0.047263
vt 0.706390 0.049679
vt 0.718644 0.046799
vt 0.729747 0.038912
vt 0.738219 0.025792
vt 0.744247 0.009838
vt 0.745032 0.000000
vt 0.744247 0.009838
vt 0.738219 0.025792
vt 0.729747 0.038912
vt 0.718644 0.046799
vt 0.706390 0.049679
vt 0.694440 0.047263
vt 0.682738 0.038805
vt 0.674137 0.026151
vt 0.668164 0.010131
vt 0.666311 0.000000
vt 0.571677 0.879825
vt 0.573774 0.958553
vt 0.498196 -0.000000
vt 0.498196 1.000000
vt 0.498196 0.232522
vt 0.498196 0.262114
vt 0.498196 0.498196
vt 0.496746 0.500000
vt 0.497615 0.500000
vt 0.498073 0.500000
vt 0.498317 0.500000
vt 0.499728 0.750000
vt 0.499728 0.750000
vt 0.499728 0.750000
vt 0.499728 0.750000
vt 0.499728 0.750000
vt 0.499728 0.758572
vt 0.499728 0.750000
vt 0.498317 0.500000
vt 0.600320 0.500000
vt 0.625000 0.526474
vt 0.625000 0.750000
vt 0.607522 0.262114
vt 0.625000 0.262114
vt 0.625000 0.500000
vt 0.607520 0.498196
vt 0.637114 0.232522
vt 0.607522 0.232522
vt 0.607522 0.000000
vt 0.637114 0.000000
vt 0.625000 0.517480
vt 0.625000 0.522298
vt 0.603159 0.500000
vt 0.625000 0.525619
vt 0.601045 0.500000
vt 0.625000 0.526991
vt 0.599816 0.500000
vt 0.666311 0.000000
vt 0.668164 0.010131
vt 0.674137 0.026151
vt 0.682738 0.038805
vt 0.694440 0.047263
vt 0.706390 0.049679
vt 0.718644 0.046799
vt 0.729747 0.038912
vt 0.738219 0.025792
vt 0.744247 0.009838
vt 0.745032 0.000000
vt 0.866428 0.000000
vt 0.875000 0.010811
vt 0.875000 0.232520
vt 0.625000 0.739189
vt 0.625000 0.750000
vt 0.625000 0.750000
vt 0.625000 0.750000
vt 0.625000 0.750000
vt 0.625000 0.758572
vt 0.745032 0.000000
vt 0.744247 0.009838
vt 0.738219 0.025792
vt 0.729747 0.038912
vt 0.718644 0.046799
vt 0.706390 0.049679
vt 0.694440 0.047263
vt 0.682738 0.038805
vt 0.674137 0.026151
vt 0.668164 0.010131
vt 0.666311 0.000000
vt 0.498196 0.232522
vt 0.498196 -0.000000
vt 0.498196 0.262114
vt 0.498196 0.498196
vt 0.496746 0.500000
vt 0.497615 0.500000
vt 0.498073 0.500000
vt 0.499728 0.750000
vt 0.499728 0.750000
vt 0.499728 0.750000
vt 0.499728 0.750000
vt 0.499728 0.758572
vt 0.498196 1.000000
vt 0.625000 0.879968
vt 0.571677 0.879825
vt 0.573774 0.958553
vt 0.625000 0.958689
vt 0.625000 0.987886
vt 0.607522 1.000000
vt 0.498196 -0.000000
vt 0.607522 0.000000
vt 0.607522 0.232522
vt 0.498196 0.232522
vt 0.498196 0.232522
vt 0.607522 0.232522
vt 0.607522 0.000000
vt 0.498196 -0.000000
vt 0.498196 -0.000000
vt 0.607522 0.000000
vt 0.607522 0.232522
vt 0.498196 0.232522
vt 0.498196 0.232522
vt 0.607522 0.232522
vt 0.607522 0.000000
vt 0.498196 -0.000000
vt 0.498463 0.957994
vt 0.498463 0.957994
vt 0.498959 0.879825
vt 0.498959 0.879825
vt 0.498463 0.957994
vt 0.573774 0.958553
vt 0.571677 0.879825
vt 0.498959 0.879825
vt 0.573774 0.958553
vt 0.498463 0.957994
vt 0.498959 0.879825
vt 0.571677 0.879825
vt 0.375000 0.312500
vt 0.387500 0.312500
vt 0.387500 0.687500
vt 0.375000 0.687500
vt 0.400000 0.312500
vt 0.400000 0.687500
vt 0.412500 0.312500
vt 0.412500 0.687500
vt 0.425000 0.312500
vt 0.425000 0.687500
vt 0.437500 0.312500
vt 0.437500 0.687500
vt 0.450000 0.312500
vt 0.450000 0.687500
vt 0.462500 0.312500
vt 0.462500 0.687500
vt 0.475000 0.312500
vt 0.475000 0.687500
vt 0.487500 0.312500
vt 0.487500 0.687500
vt 0.500000 0.312500
vt 0.500000 0.687500
vt 0.512500 0.312500
vt 0.512500 0.687500
vt 0.525000 0.312500
vt 0.525000 0.687500
vt 0.537500 0.312500
vt 0.537500 0.687500
vt 0.550000 0.312500
vt 0.550000 0.687500
vt 0.562500 0.312500
vt 0.562500 0.687500
vt 0.575000 0.312500
vt 0.575000 0.687500
vt 0.587500 0.312500
vt 0.587500 0.687500
vt 0.600000 0.312500
vt 0.600000 0.687500
vt 0.612500 0.312500
vt 0.612500 0.687500
vt 0.625000 0.312500
vt 0.625000 0.687500
vt 0.626409 0.064408
vt 0.648603 0.107966
vt 0.500000 0.156250
vt 0.591842 0.029841
vt 0.548284 0.007647
vt 0.500000 -0.000000
vt 0.451716 0.007647
vt 0.408159 0.029841
vt 0.373591 0.064409
vt 0.351397 0.107966
vt 0.343750 0.156250
vt 0.351397 0.204534
vt 0.373591 0.248091
vt 0.408159 0.282659
vt 0.451716 0.304853
vt 0.500000 0.312500
vt 0.548284 0.304853
vt 0.591841 0.282659
vt 0.626409 0.248091
vt 0.648603 0.204534
vt 0.656250 0.156250
vt 0.648603 0.892034
vt 0.626409 0.935591
vt 0.500000 0.843750
vt 0.591841 0.970159
vt 0.548284 0.992353
vt 0.500000 1.000000
vt 0.451716 0.992353
vt 0.408159 0.970159
vt 0.373591 0.935591
vt 0.351397 0.892034
vt 0.343750 0.843750
vt 0.351397 0.795466
vt 0.373591 0.751909
vt 0.408159 0.717341
vt 0.451716 0.695147
vt 0.500000 0.687500
vt 0.548284 0.695147
vt 0.591842 0.717341
vt 0.626409 0.751908
vt 0.648603 0.795466
vt 0.656250 0.843750
vt 0.375000 0.312500
vt 0.387500 0.312500
vt 0.387500 0.687500
vt 0.375000 0.687500
vt 0.400000 0.312500
vt 0.400000 0.687500
vt 0.412500 0.312500
vt 0.412500 0.687500
vt 0.425000 0.312500
vt 0.425000 0.687500
vt 0.437500 0.312500
vt 0.437500 0.687500
vt 0.450000 0.312500
vt 0.450000 0.687500
vt 0.462500 0.312500
vt 0.462500 0.687500
vt 0.475000 0.312500
vt 0.475000 0.687500
vt 0.487500 0.312500
vt 0.487500 0.687500
vt 0.500000 0.312500
vt 0.500000 0.687500
vt 0.512500 0.312500
vt 0.512500 0.687500
vt 0.525000 0.312500
vt 0.525000 0.687500
vt 0.537500 0.312500
vt 0.537500 0.687500
vt 0.550000 0.312500
vt 0.550000 0.687500
vt 0.562500 0.312500
vt 0.562500 0.687500
vt 0.575000 0.312500
vt 0.575000 0.687500
vt 0.587500 0.312500
vt 0.587500 0.687500
vt 0.600000 0.312500
vt 0.600000 0.687500
vt 0.612500 0.312500
vt 0.612500 0.687500
vt 0.625000 0.312500
vt 0.625000 0.687500
vt 0.626409 0.064408
vt 0.648603 0.107966
vt 0.500000 0.156250
vt 0.591842 0.029841
vt 0.548284 0.007647
vt 0.500000 -0.000000
vt 0.451716 0.007647
vt 0.408159 0.029841
vt 0.373591 0.064409
vt 0.351397 0.107966
vt 0.343750 0.156250
vt 0.351397 0.204534
vt 0.373591 0.248091
vt 0.408159 0.282659
vt 0.451716 0.304853
vt 0.500000 0.312500
vt 0.548284 0.304853
vt 0.591841 0.282659
vt 0.626409 0.248091
vt 0.648603 0.204534
vt 0.656250 0.156250
vt 0.648603 0.892034
vt 0.626409 0.935591
vt 0.500000 0.843750
vt 0.591841 0.970159
vt 0.548284 0.992353
vt 0.500000 1.000000
vt 0.451716 0.992353
vt 0.408159 0.970159
vt 0.373591 0.935591
vt 0.351397 0.892034
vt 0.343750 0.843750
vt 0.351397 0.795466
vt 0.373591 0.751909
vt 0.408159 0.717341
vt 0.451716 0.695147
vt 0.500000 0.687500
vt 0.548284 0.695147
vt 0.591842 0.717341
vt 0.626409 0.751908
vt 0.648603 0.795466
vt 0.656250 0.843750
vt 0.375000 0.312500
vt 0.387500 0.312500
vt 0.387500 0.687500
vt 0.375000 0.687500
vt 0.400000 0.312500
vt 0.400000 0.687500
vt 0.412500 0.312500
vt 0.412500 0.687500
vt 0.425000 0.312500
vt 0.425000 0.687500
vt 0.437500 0.312500
vt 0.437500 0.687500
vt 0.450000 0.312500
vt 0.450000 0.687500
vt 0.462500 0.312500
vt 0.462500 0.687500
vt 0.475000 0.312500
vt 0.475000 0.687500
vt 0.487500 0.312500
vt 0.487500 0.687500
vt 0.500000 0.312500
vt 0.500000 0.687500
vt 0.512500 0.312500
vt 0.512500 0.687500
vt 0.525000 0.312500
vt 0.525000 0.687500
vt 0.537500 0.312500
vt 0.537500 0.687500
vt 0.550000 0.312500
vt 0.550000 0.687500
vt 0.562500 0.312500
vt 0.562500 0.687500
vt 0.575000 0.312500
vt 0.575000 0.687500
vt 0.587500 0.312500
vt 0.587500 0.687500
vt 0.600000 0.312500
vt 0.600000 0.687500
vt 0.612500 0.312500
vt 0.612500 0.687500
vt 0.625000 0.312500
vt 0.625000 0.687500
vt 0.626409 0.064408
vt 0.648603 0.107966
vt 0.500000 0.156250
vt 0.591842 0.029841
vt 0.548284 0.007647
vt 0.500000 -0.000000
vt 0.451716 0.007647
vt 0.408159 0.029841
vt 0.373591 0.064409
vt 0.351397 0.107966
vt 0.343750 0.156250
vt 0.351397 0.204534
vt 0.373591 0.248091
vt 0.408159 0.282659
vt 0.451716 0.304853
vt 0.500000 0.312500
vt 0.548284 0.304853
vt 0.591841 0.282659
vt 0.626409 0.248091
vt 0.648603 0.204534
vt 0.656250 0.156250
vt 0.648603 0.892034
vt 0.626409 0.935591
vt 0.500000 0.843750
vt 0.591841 0.970159
vt 0.548284 0.992353
vt 0.500000 1.000000
vt 0.451716 0.992353
vt 0.408159 0.970159
vt 0.373591 0.935591
vt 0.351397 0.892034
vt 0.343750 0.843750
vt 0.351397 0.795466
vt 0.373591 0.751909
vt 0.408159 0.717341
vt 0.451716 0.695147
vt 0.500000 0.687500
vt 0.548284 0.695147
vt 0.591842 0.717341
vt 0.626409 0.751908
vt 0.648603 0.795466
vt 0.656250 0.843750
vt 0.375000 0.000000
vt 0.625000 0.000000
vt 0.625000 0.250000
vt 0.375000 0.250000
vt 0.625000 0.500000
vt 0.375000 0.500000
vt 0.625000 0.750000
vt 0.375000 0.750000
vt 0.625000 1.000000
vt 0.375000 1.000000
vt 0.875000 0.000000
vt 0.875000 0.250000
vt 0.125000 0.000000
vt 0.125000 0.250000
vn 0.000000 0.000000 -1.000000
vn 0.000000 0.000000 -1.000000
vn 0.000000 0.000000 -1.000000
vn 0.000000 0.000000 -1.000000
vn 0.000000 0.000000 -1.000000
vn 0.836874 0.547396 -0.000003
vn 0.836873 0.547396 -0.000003
vn 0.835365 0.549023 -0.027175
vn 0.835608 0.548825 -0.023459
vn 0.836874 0.000000 0.547396
vn 0.836874 0.000000 0.547396
vn 0.836874 0.000000 0.547396
vn 0.836874 0.000000 0.547396
vn 0.825552 0.548707 -0.131851
vn 0.825670 0.548667 -0.131279
vn 0.833445 0.546334 -0.082992
vn 0.833602 0.546446 -0.080652
vn 0.835298 0.548723 -0.034362
vn 0.835360 0.548968 -0.028430
vn 0.835236 0.549892 0.000828
vn 0.835236 0.549892 0.000828
vn 1.000000 0.000000 0.000000
vn 1.000000 0.000000 0.000000
vn 1.000000 0.000000 0.000000
vn 1.000000 0.000000 0.000000
vn 1.000000 0.000000 0.000000
vn 1.000000 0.000000 0.000000
vn 1.000000 0.000000 0.000000
vn 1.000000 0.000000 0.000000
vn 1.000000 0.000000 0.000000
vn 1.000000 0.000000 0.000000
vn 1.000000 0.000000 0.000000
vn 1.000000 0.000000 0.000000
vn 1.000000 0.000000 0.000000
vn 1.000000 0.000000 0.000000
vn 0.999898 -0.000459 -0.014272
vn 0.999810 -0.000374 -0.019480
vn 0.973038 -0.007873 -0.230509
vn 0.984598 -0.017508 -0.173953
vn 0.963866 -0.041040 -0.263207
vn 0.992188 -0.023711 -0.122482
vn 0.993719 -0.022051 -0.109708
vn 0.998902 -0.010047 -0.045749
vn 0.999447 -0.007130 -0.032467
vn 1.000000 0.000000 0.000000
vn 1.000000 0.000000 0.000000
vn 0.734085 0.480166 0.480166
vn 0.734085 0.480166 0.480166
vn 0.734085 0.480166 0.480166
vn 0.882144 -0.354596 -0.309975
vn 1.000000 -0.000000 0.000000
vn 1.000000 -0.000000 0.000000
vn 1.000000 -0.000000 0.000000
vn 1.000000 -0.000000 0.000000
vn 1.000000 -0.000000 0.000000
vn 1.000000 -0.000000 0.000000
vn 1.000000 -0.000000 0.000000
vn 1.000000 -0.000000 0.000000
vn 1.000000 -0.000000 0.000000
vn 1.000000 -0.000000 0.000000
vn 1.000000 -0.000000 0.000000
vn 0.000000 -0.114475 0.993426
vn 0.000000 -0.114475 0.993426
vn 0.000000 -0.114475 0.993426
vn 0.000000 -0.114475 0.993426
vn 0.000000 -0.478601 0.878032
vn 0.000000 -0.478601 0.878032
vn 0.000000 -0.478601 0.878032
vn 0.000000 -0.478601 0.878032
vn 0.000000 -0.681679 0.731651
vn 0.000000 -0.681679 0.731651
vn 0.000000 -0.681679 0.731651
vn 0.000000 -0.681679 0.731651
vn 0.000000 -0.897137 0.441752
vn 0.000000 -0.897137 0.441752
vn 0.000000 -0.897137 0.441752
vn 0.000000 -0.897137 0.441752
vn 0.000000 -0.986992 0.160769
vn 0.000000 -0.986992 0.160769
vn 0.000000 -0.986992 0.160769
vn 0.000000 -0.986992 0.160769
vn 0.000000 -0.990322 -0.138792
vn 0.000000 -0.990322 -0.138792
vn 0.000000 -0.990322 -0.138792
vn 0.000000 -0.990322 -0.138792
vn 0.000000 -0.894087 -0.447894
vn 0.000000 -0.894087 -0.447894
vn 0.000000 -0.894087 -0.447894
vn 0.000000 -0.894087 -0.447894
vn 0.000000 -0.700154 -0.713991
vn 0.000000 -0.700154 -0.713991
vn 0.000000 -0.700154 -0.713991
vn 0.000000 -0.700154 -0.713991
vn 0.000000 -0.473697 -0.880688
vn 0.000000 -0.473697 -0.880688
vn 0.000000 -0.473697 -0.880688
vn 0.000000 -0.473697 -0.880688
vn 0.000000 -0.142139 -0.989847
vn 0.000000 -0.142139 -0.989847
vn 0.000000 -0.142139 -0.989847
vn 0.000000 -0.142139 -0.989847
vn 0.000000 0.000000 1.000000
vn 0.000000 0.000000 1.000000
vn 0.000000 0.000000 1.000000
vn 0.000000 0.000000 1.000000
vn 0.000000 0.707108 0.707106
vn 0.000000 0.707108 0.707106
vn 0.000000 0.707108 0.707106
vn 0.000000 0.707108 0.707106
vn 0.000000 1.000000 0.000220
vn 0.000000 1.000000 -0.000000
vn 0.000000 1.000000 -0.000000
vn 0.000000 1.000000 0.000195
vn 0.000000 0.999984 0.005622
vn 0.000000 0.999987 0.005205
vn 0.000000 0.999932 0.011628
vn 0.000000 0.999934 0.011508
vn 0.000000 0.999976 0.006877
vn 0.000000 0.999975 0.007053
vn 0.000000 1.000000 0.000309
vn 0.000000 1.000000 0.000309
vn 0.000000 -0.996686 -0.081349
vn 0.000000 -0.996843 -0.079398
vn 0.000000 -0.999933 -0.011564
vn 0.000000 -0.999933 -0.011564
vn 0.000000 -0.937973 -0.346709
vn 0.000000 -0.941812 -0.336140
vn 0.000000 -0.868946 -0.494908
vn 0.000000 -0.868946 -0.494908
vn 0.000000 -0.672372 -0.740213
vn 0.000000 -0.655203 -0.755452
vn 0.000000 -0.528314 -0.849049
vn 0.000000 -0.528314 -0.849049
vn 0.000000 -0.998562 -0.053616
vn 0.000000 -0.998741 -0.050164
vn 0.000000 -1.000000 0.000000
vn 0.000000 -1.000000 0.000000
vn 0.000000 -1.000000 0.000000
vn 0.000000 -1.000000 0.000000
vn 0.000000 -1.000000 0.000000
vn 0.000000 -1.000000 0.000000
vn 0.000000 0.000000 -1.000000
vn 0.000000 0.000000 -1.000000
vn 0.000000 0.000000 -1.000000
vn -0.836873 0.547397 -0.000003
vn -0.835608 0.548825 -0.023459
vn -0.835365 0.549024 -0.027175
vn -0.836873 0.547397 -0.000003
vn -0.836874 0.000000 0.547396
vn -0.836874 0.000000 0.547396
vn -0.836874 0.000000 0.547396
vn -0.836874 0.000000 0.547396
vn -0.825670 0.548666 -0.131279
vn -0.825552 0.548707 -0.131851
vn -0.833602 0.546445 -0.080652
vn -0.833446 0.546334 -0.082993
vn -0.835360 0.548968 -0.028430
vn -0.835298 0.548723 -0.034362
vn -0.835236 0.549892 0.000828
vn -0.835236 0.549892 0.000828
vn -1.000000 0.000000 0.000000
vn -0.999810 -0.000374 -0.019480
vn -0.999898 -0.000459 -0.014272
vn -1.000000 0.000000 0.000000
vn -1.000000 0.000000 0.000000
vn -1.000000 0.000000 0.000000
vn -1.000000 0.000000 0.000000
vn -1.000000 0.000000 0.000000
vn -1.000000 0.000000 0.000000
vn -1.000000 0.000000 0.000000
vn -1.000000 0.000000 0.000000
vn -1.000000 0.000000 0.000000
vn -1.000000 0.000000 0.000000
vn -1.000000 0.000000 0.000000
vn -1.000000 0.000000 0.000000
vn -1.000000 0.000000 0.000000
vn -0.984598 -0.017508 -0.173953
vn -0.973038 -0.007873 -0.230509
vn -0.993719 -0.022051 -0.109708
vn -0.992187 -0.023711 -0.122482
vn -0.963866 -0.041040 -0.263206
vn -0.999447 -0.007130 -0.032467
vn -0.998902 -0.010047 -0.045749
vn -1.000000 0.000000 0.000000
vn -1.000000 0.000000 0.000000
vn -0.734085 0.480166 0.480166
vn -0.734085 0.480166 0.480166
vn -0.734085 0.480166 0.480166
vn -0.882143 -0.354598 -0.309974
vn -1.000000 -0.000000 0.000000
vn -1.000000 -0.000000 0.000000
vn -1.000000 -0.000000 0.000000
vn -1.000000 -0.000000 0.000000
vn -1.000000 -0.000000 0.000000
vn -1.000000 -0.000000 0.000000
vn -1.000000 -0.000000 0.000000
vn -1.000000 -0.000000 0.000000
vn -1.000000 -0.000000 0.000000
vn -1.000000 -0.000000 0.000000
vn -1.000000 -0.000000 0.000000
vn 0.000000 -0.114475 0.993426
vn 0.000000 -0.114475 0.993426
vn 0.000000 -0.114475 0.993426
vn 0.000000 -0.114475 0.993426
vn 0.000000 -0.478601 0.878032
vn 0.000000 -0.478601 0.878032
vn 0.000000 -0.478601 0.878032
vn 0.000000 -0.478601 0.878032
vn 0.000000 -0.681679 0.731652
vn 0.000000 -0.681679 0.731652
vn 0.000000 -0.681679 0.731652
vn 0.000000 -0.681679 0.731652
vn 0.000000 -0.897137 0.441752
vn 0.000000 -0.897137 0.441752
vn 0.000000 -0.897137 0.441752
vn 0.000000 -0.897137 0.441752
vn 0.000000 -0.986992 0.160769
vn 0.000000 -0.986992 0.160769
vn 0.000000 -0.986992 0.160769
vn 0.000000 -0.986992 0.160769
vn 0.000000 -0.990322 -0.138792
vn 0.000000 -0.990322 -0.138792
vn 0.000000 -0.990322 -0.138792
vn 0.000000 -0.990322 -0.138792
vn 0.000000 -0.894087 -0.447893
vn 0.000000 -0.894087 -0.447893
vn 0.000000 -0.894087 -0.447893
vn 0.000000 -0.894087 -0.447893
vn 0.000000 -0.700154 -0.713992
vn 0.000000 -0.700154 -0.713992
vn 0.000000 -0.700154 -0.713992
vn 0.000000 -0.700154 -0.713992
vn 0.000000 -0.473697 -0.880688
vn 0.000000 -0.473697 -0.880688
vn 0.000000 -0.473697 -0.880688
vn 0.000000 -0.473697 -0.880688
vn 0.000000 -0.142139 -0.989847
vn 0.000000 -0.142139 -0.989847
vn 0.000000 -0.142139 -0.989847
vn 0.000000 -0.142139 -0.989847
vn 0.000000 0.000000 1.000000
vn 0.000000 0.000000 1.000000
vn 0.000000 0.707108 0.707106
vn 0.000000 0.707108 0.707106
vn 0.000000 1.000000 0.000195
vn 0.000000 1.000000 -0.000000
vn 0.000000 0.999987 0.005205
vn 0.000000 0.999934 0.011509
vn 0.000000 0.999975 0.007053
vn 0.000000 1.000000 0.000309
vn 0.000000 -0.996686 -0.081349
vn 0.000000 -0.999933 -0.011564
vn 0.000000 -0.937973 -0.346709
vn 0.000000 -0.868946 -0.494908
vn 0.000000 -0.672372 -0.740213
vn 0.000000 -0.528313 -0.849049
vn 0.000000 -0.998741 -0.050164
vn 0.000000 -1.000000 0.000000
vn 0.000000 -1.000000 0.000000
vn 0.000000 -1.000000 0.000000
vn 0.000000 -1.000000 0.000000
vn 0.000000 0.000000 1.000000
vn 0.000000 0.000000 1.000000
vn 0.000000 0.000000 1.000000
vn 0.000000 0.000000 1.000000
vn 0.000002 0.000000 1.000000
vn 0.000002 0.000000 1.000000
vn 0.000002 0.000000 1.000000
vn 0.000002 0.000000 1.000000
vn 0.000000 0.000000 1.000000
vn 0.000000 0.000000 1.000000
vn 0.000000 0.000000 1.000000
vn 0.000000 0.000000 1.000000
vn 0.000000 0.000000 1.000000
vn 0.000000 0.000000 1.000000
vn 0.000000 0.000000 1.000000
vn 0.000000 0.000000 1.000000
vn -0.000002 0.000000 1.000000
vn -0.000002 0.000000 1.000000
vn -0.000002 0.000000 1.000000
vn -0.000002 0.000000 1.000000
vn 0.000000 0.000000 1.000000
vn 0.000000 0.000000 1.000000
vn 0.000000 0.000000 1.000000
vn 0.000000 0.000000 1.000000
vn 0.000000 -0.984049 0.177896
vn 0.000000 -0.984049 0.177896
vn 0.000000 -0.984049 0.177896
vn 0.000000 -0.984049 0.177896
vn 0.984553 0.000000 0.175087
vn 0.984553 0.000000 0.175087
vn 0.984553 0.000000 0.175087
vn 0.984553 0.000000 0.175087
vn 0.000000 0.984049 0.177896
vn 0.000000 0.984049 0.177896
vn 0.000000 0.984049 0.177896
vn 0.000000 0.984049 0.177896
vn 0.000000 0.984049 0.177897
vn 0.000000 0.984049 0.177897
vn 0.000000 0.984049 0.177897
vn 0.000000 0.984049 0.177897
vn -0.984553 0.000000 0.175086
vn -0.984553 0.000000 0.175086
vn -0.984553 0.000000 0.175086
vn -0.984553 0.000000 0.175086
vn 0.000000 -0.984049 0.177896
vn 0.000000 -0.984049 0.177896
vn 0.000000 -0.984049 0.177896
vn 0.000000 -0.984049 0.177896
vn 0.000000 -1.000000 -0.000000
vn 0.000000 -1.000000 0.000000
vn 0.000000 -1.000000 0.000000
vn 0.000000 -1.000000 -0.000000
vn 0.000000 -1.000000 -0.000000
vn 0.000000 -1.000000 -0.000000
vn 0.000000 -1.000000 -0.000000
vn 0.000000 -1.000000 0.000000
vn 0.000000 -1.000000 0.000000
vn 0.000000 -1.000000 -0.000000
vn 0.000000 -1.000000 -0.000000
vn -0.000001 0.000000 1.000000
vn -0.000001 0.000000 1.000000
vn -0.000001 0.000000 1.000000
vn -0.000001 0.000000 1.000000
vn -0.999926 0.000000 -0.012159
vn -0.999926 0.000000 -0.012159
vn -0.999926 0.000000 -0.012159
vn -0.999926 0.000000 -0.012159
vn -0.000001 0.000000 -1.000000
vn -0.000001 0.000000 -1.000000
vn -0.000001 0.000000 -1.000000
vn -0.000001 0.000000 -1.000000
vn 0.000001 0.000000 1.000000
vn 0.000001 0.000000 1.000000
vn 0.000001 0.000000 1.000000
vn 0.000001 0.000000 1.000000
vn 0.000001 0.000000 -1.000000
vn 0.000001 0.000000 -1.000000
vn 0.000001 0.000000 -1.000000
vn 0.000001 0.000000 -1.000000
vn 0.999926 0.000000 -0.012159
vn 0.999926 0.000000 -0.012159
vn 0.999926 0.000000 -0.012159
vn 0.999926 0.000000 -0.012159
vn 0.000000 0.951057 -0.309016
vn 0.000000 0.809017 -0.587785
vn 0.000000 0.809017 -0.587785
vn 0.000000 0.951057 -0.309016
vn 0.000000 0.587785 -0.809017
vn 0.000000 0.587785 -0.809017
vn 0.000000 0.309017 -0.951057
vn 0.000000 0.309017 -0.951057
vn 0.000000 0.000000 -1.000000
vn 0.000000 0.000000 -1.000000
vn 0.000000 -0.309017 -0.951057
vn 0.000000 -0.309017 -0.951057
vn 0.000000 -0.587786 -0.809017
vn 0.000000 -0.587786 -0.809017
vn 0.000000 -0.809017 -0.587785
vn 0.000000 -0.809017 -0.587785
vn 0.000000 -0.951057 -0.309017
vn 0.000000 -0.951057 -0.309017
vn 0.000000 -1.000000 0.000000
vn 0.000000 -1.000000 0.000000
vn 0.000000 -0.951057 0.309017
vn 0.000000 -0.951057 0.309017
vn 0.000000 -0.809017 0.587785
vn 0.000000 -0.809017 0.587785
vn 0.000000 -0.587785 0.809017
vn 0.000000 -0.587785 0.809017
vn 0.000000 -0.309017 0.951057
vn 0.000000 -0.309017 0.951057
vn 0.000000 0.000000 1.000000
vn 0.000000 0.000000 1.000000
vn 0.000000 0.309017 0.951056
vn 0.000000 0.309017 0.951056
vn 0.000000 0.587785 0.809017
vn 0.000000 0.587785 0.809017
vn 0.000000 0.809017 0.587785
vn 0.000000 0.809017 0.587785
vn 0.000000 0.951057 0.309017
vn 0.000000 0.951057 0.309017
vn 0.000000 1.000000 0.000001
vn 0.000000 1.000000 0.000001
vn 1.000000 0.000000 0.000000
vn 1.000000 0.000000 0.000000
vn 1.000000 -0.000000 0.000000
vn 1.000000 0.000000 0.000000
vn 1.000000 0.000000 0.000000
vn 1.000000 0.000000 0.000000
vn 1.000000 -0.000000 0.000000
vn 1.000000 -0.000000 0.000000
vn 1.000000 0.000000 0.000000
vn 1.000000 0.000000 0.000000
vn 1.000000 0.000000 0.000000
vn 1.000000 0.000000 0.000000
vn 1.000000 0.000000 0.000000
vn 1.000000 0.000000 0.000000
vn 1.000000 0.000000 0.000000
vn 1.000000 0.000000 0.000000
vn 1.000000 0.000000 0.000000
vn 1.000000 0.000000 0.000000
vn 1.000000 -0.000000 0.000000
vn 1.000000 -0.000000 0.000000
vn 1.000000 0.000000 0.000000
vn -1.000000 0.000000 0.000000
vn -1.000000 -0.000000 0.000000
vn -1.000000 -0.000000 0.000000
vn -1.000000 -0.000000 0.000000
vn -1.000000 0.000000 0.000000
vn -1.000000 0.000000 0.000000
vn -1.000000 -0.000000 0.000000
vn -1.000000 0.000000 0.000000
vn -1.000000 0.000000 0.000000
vn -1.000000 0.000000 0.000000
vn -1.000000 0.000000 0.000000
vn -1.000000 0.000000 0.000000
vn -1.000000 0.000000 0.000000
vn -1.000000 0.000000 0.000000
vn -1.000000 0.000000 0.000000
vn -1.000000 0.000000 0.000000
vn -1.000000 0.000000 0.000000
vn -1.000000 0.000000 0.000000
vn -1.000000 0.000000 0.000000
vn -1.000000 0.000000 0.000000
vn -1.000000 0.000000 0.000000
vn 0.000000 0.951057 -0.309016
vn 0.000000 0.809017 -0.587785
vn 0.000000 0.809017 -0.587785
vn 0.000000 0.951057 -0.309016
vn 0.000000 0.587785 -0.809017
vn 0.000000 0.587785 -0.809017
vn 0.000000 0.309017 -0.951057
vn 0.000000 0.309017 -0.951057
vn 0.000000 0.000000 -1.000000
vn 0.000000 0.000000 -1.000000
vn 0.000000 -0.309017 -0.951057
vn 0.000000 -0.309017 -0.951057
vn 0.000000 -0.587786 -0.809017
vn 0.000000 -0.587786 -0.809017
vn 0.000000 -0.809017 -0.587785
vn 0.000000 -0.809017 -0.587785
vn 0.000000 -0.951057 -0.309017
vn 0.000000 -0.951057 -0.309017
vn 0.000000 -1.000000 0.000000
vn 0.000000 -1.000000 0.000000
vn 0.000000 -0.951057 0.309017
vn 0.000000 -0.951057 0.309017
vn 0.000000 -0.809017 0.587785
vn 0.000000 -0.809017 0.587785
vn 0.000000 -0.587785 0.809017
vn 0.000000 -0.587785 0.809017
vn 0.000000 -0.309017 0.951056
vn 0.000000 -0.309017 0.951056
vn 0.000000 0.000000 1.000000
vn 0.000000 0.000000 1.000000
vn 0.000000 0.309017 0.951056
vn 0.000000 0.309017 0.951056
vn 0.000000 0.587785 0.809017
vn 0.000000 0.587785 0.809017
vn 0.000000 0.809017 0.587785
vn 0.000000 0.809017 0.587785
vn 0.000000 0.951057 0.309017
vn 0.000000 0.951057 0.309017
vn 0.000000 1.000000 0.000001
vn 0.000000 1.000000 0.000001
vn 1.000000 0.000000 0.000000
vn 1.000000 0.000000 0.000000
vn 1.000000 -0.000000 0.000000
vn 1.000000 0.000000 0.000000
vn 1.000000 0.000000 0.000000
vn 1.000000 0.000000 0.000000
vn 1.000000 -0.000000 0.000000
vn 1.000000 -0.000000 0.000000
vn 1.000000 0.000000 0.000000
vn 1.000000 0.000000 0.000000
vn 1.000000 0.000000 0.000000
vn 1.000000 0.000000 0.000000
vn 1.000000 0.000000 0.000000
vn 1.000000 0.000000 0.000000
vn 1.000000 0.000000 0.000000
vn 1.000000 0.000000 0.000000
vn 1.000000 -0.000000 0.000000
vn 1.000000 -0.000000 0.000000
vn 1.000000 0.000000 0.000000
vn 1.000000 0.000000 0.000000
vn 1.000000 0.000000 0.000000
vn -1.000000 0.000000 0.000000
vn -1.000000 0.000000 0.000000
vn -1.000000 -0.000000 0.000000
vn -1.000000 0.000000 0.000000
vn -1.000000 0.000000 0.000000
vn -1.000000 0.000000 0.000000
vn -1.000000 0.000000 0.000000
vn -1.000000 0.000000 0.000000
vn -1.000000 0.000000 0.000000
vn -1.000000 0.000000 0.000000
vn -1.000000 0.000000 0.000000
vn -1.000000 -0.000000 0.000000
vn -1.000000 -0.000000 0.000000
vn -1.000000 0.000000 0.000000
vn -1.000000 0.000000 0.000000
vn -1.000000 0.000000 0.000000
vn -1.000000 0.000000 0.000000
vn -1.000000 0.000000 0.000000
vn -1.000000 0.000000 0.000000
vn -1.000000 0.000000 0.000000
vn -1.000000 0.000000 0.000000
vn 0.000000 0.951056 -0.309018
vn 0.000000 0.809017 -0.587785
vn 0.000000 0.809017 -0.587785
vn 0.000000 0.951056 -0.309018
vn 0.000000 0.587786 -0.809016
vn 0.000000 0.587786 -0.809016
vn 0.000000 0.309021 -0.951055
vn 0.000000 0.309021 -0.951055
vn 0.000000 0.000000 -1.000000
vn 0.000000 0.000000 -1.000000
vn 0.000000 -0.309020 -0.951055
vn 0.000000 -0.309020 -0.951055
vn 0.000000 -0.587786 -0.809017
vn 0.000000 -0.587786 -0.809017
vn 0.000000 -0.809018 -0.587784
vn 0.000000 -0.809018 -0.587784
vn 0.000000 -0.951057 -0.309017
vn 0.000000 -0.951057 -0.309017
vn 0.000000 -1.000000 0.000000
vn 0.000000 -1.000000 0.000000
vn 0.000000 -0.951057 0.309017
vn 0.000000 -0.951057 0.309017
vn 0.000000 -0.809018 0.587784
vn 0.000000 -0.809018 0.587784
vn 0.000000 -0.587786 0.809017
vn 0.000000 -0.587786 0.809017
vn 0.000000 -0.309020 0.951055
vn 0.000000 -0.309020 0.951055
vn 0.000000 0.000000 1.000000
vn 0.000000 0.000000 1.000000
vn 0.000000 0.309021 0.951055
vn 0.000000 0.309021 0.951055
vn 0.000000 0.587786 0.809016
vn 0.000000 0.587786 0.809016
vn 0.000000 0.809018 0.587784
vn 0.000000 0.809018 0.587784
vn 0.000000 0.951056 0.309019
vn 0.000000 0.951056 0.309019
vn 0.000000 1.000000 0.000001
vn 0.000000 1.000000 0.000001
vn 1.000000 0.000000 0.000000
vn 1.000000 0.000000 0.000000
vn 1.000000 0.000000 0.000000
vn 1.000000 0.000000 0.000000
vn 1.000000 0.000000 0.000000
vn 1.000000 0.000002 0.000000
vn 1.000000 0.000002 0.000000
vn 1.000000 0.000000 0.000000
vn 1.000000 -0.000001 0.000000
vn 1.000000 -0.000001 0.000000
vn 1.000000 0.000000 0.000000
vn 1.000000 0.000000 0.000000
vn 1.000000 0.000000 0.000000
vn 1.000000 0.000000 0.000000
vn 1.000000 0.000000 0.000000
vn 1.000000 -0.000002 0.000000
vn 1.000000 -0.000002 0.000000
vn 1.000000 0.000000 0.000000
vn 1.000000 0.000001 0.000000
vn 1.000000 0.000001 0.000000
vn 1.000000 0.000000 0.000000
vn -1.000000 0.000000 0.000000
vn -1.000000 0.000000 0.000000
vn -1.000000 0.000000 0.000000
vn -1.000000 0.000004 0.000000
vn -1.000000 0.000004 0.000000
vn -1.000000 0.000000 0.000000
vn -1.000000 -0.000004 0.000000
vn -1.000000 -0.000004 0.000000
vn -1.000000 0.000000 0.000000
vn -1.000000 0.000000 0.000000
vn -1.000000 0.000000 0.000000
vn -1.000000 0.000000 0.000000
vn -1.000000 0.000000 0.000000
vn -1.000000 -0.000004 0.000000
vn -1.000000 -0.000004 0.000000
vn -1.000000 0.000000 0.000000
vn -1.000000 0.000004 0.000000
vn -1.000000 0.000004 0.000000
vn -1.000000 0.000000 0.000000
vn -1.000000 0.000000 0.000000
vn -1.000000 0.000000 0.000000
vn 0.000000 0.000000 1.000000
vn 0.000000 0.000000 1.000000
vn 0.000000 0.000000 1.000000
vn 0.000000 0.000000 1.000000
vn 0.000000 1.000000 0.000000
vn 0.000000 1.000000 0.000000
vn 0.000000 1.000000 0.000000
vn 0.000000 1.000000 0.000000
vn 0.000000 0.000000 -1.000000
vn 0.000000 0.000000 -1.000000
vn 0.000000 0.000000 -1.000000
vn 0.000000 0.000000 -1.000000
vn 0.000000 -1.000000 0.000000
vn 0.000000 -1.000000 0.000000
vn 0.000000 -1.000000 0.000000
vn 0.000000 -1.000000 0.000000
vn 1.000000 0.000000 0.000000
vn 1.000000 0.000000 0.000000
vn 1.000000 0.000000 0.000000
vn 1.000000 0.000000 0.000000
vn -1.000000 0.000000 0.000000
vn -1.000000 0.000000 0.000000
vn -1.000000 0.000000 0.000000
vn -1.000000 0.000000 0.000000
s 1
g Wagon1
f 55/65/1 54/64/2 19/4/3 18/17/4 4/16/5
s 2
f 5/6/6 7/1/7 11/2/8 10/7/9
s off
f 7/18/10 6/3/11 9/5/12 8/19/13
s 2
f 10/7/9 11/23/8 13/10/14 12/8/15
f 12/8/15 13/10/14 15/13/16 14/9/17
f 14/9/17 15/13/16 17/15/18 16/12/19
f 16/12/19 17/15/18 18/17/20 19/4/21
s 3
f 7/18/22 8/19/23 24/33/24 25/34/25 26/35/26 27/36/27 28/37/28 29/38/29 30/39/30 31/40/31 32/41/32 33/42/33 23/31/34 21/20/35 20/21/36 11/22/37
f 11/23/37 20/24/36 22/28/38 13/10/39
f 13/10/39 1/27/40 2/11/41 15/13/42
f 15/13/42 2/11/41 3/14/43 17/15/44
f 17/15/44 3/14/43 4/16/45 18/17/46
s off
f 5/6/47 6/3/48 7/18/49
s 3
f 20/24/36 21/29/50 22/28/38
f 13/10/39 22/28/38 1/27/40
s off
f 35/43/51 34/44/52 36/45/53 37/46/54 38/47/55 39/48/56 40/49/57 41/50/58 42/51/59 43/52/60 44/53/61
f 23/31/62 33/42/63 34/44/64 35/43/65
f 33/42/66 32/41/67 36/45/68 34/44/69
f 32/41/70 31/40/71 37/46/72 36/45/73
f 31/40/74 30/39/75 38/47/76 37/46/77
f 30/39/78 29/38/79 39/48/80 38/47/81
f 29/38/82 28/37/83 40/49/84 39/48/85
f 28/37/86 27/36/87 41/50/88 40/49/89
f 27/36/90 26/35/91 42/51/92 41/50/93
f 26/35/94 25/34/95 43/52/96 42/51/97
f 25/34/98 24/33/99 44/53/100 43/52/101
s 4
f 114/152/102 113/149/103 115/150/104 116/151/105
s 5
f 49/59/106 48/58/107 6/3/108 5/6/109
s 6
f 50/60/110 49/59/111 5/6/112 10/7/113
f 51/61/114 50/60/110 10/7/113 12/8/115
f 52/62/116 51/61/114 12/8/115 14/9/117
f 53/63/118 52/62/116 14/9/117 16/12/119
f 54/64/120 53/63/118 16/12/119 19/4/121
s 7
f 3/14/122 56/66/123 55/65/124 4/16/125
f 2/11/126 57/67/127 56/66/123 3/14/122
f 1/27/128 58/68/129 57/67/127 2/11/126
s 8
f 22/28/130 59/69/131 58/68/132 1/27/133
f 60/70/134 59/69/131 22/28/130 21/29/135
s 9
f 47/57/136 119/158/137 46/55/138 24/32/139 8/25/140 9/26/141
s 1
f 55/71/1 64/75/142 78/74/143 79/73/144 54/72/2
s 10
f 65/76/145 70/79/146 71/78/147 67/77/148
s off
f 67/80/149 68/83/150 69/82/151 66/81/152
s 10
f 70/79/146 72/86/153 73/85/154 71/84/147
f 72/86/153 74/88/155 75/87/156 73/85/154
f 74/88/155 76/90/157 77/89/158 75/87/156
f 76/90/157 79/73/159 78/74/160 77/89/158
s 11
f 67/80/161 71/104/162 80/103/163 81/102/164 83/101/165 93/100/166 92/99/167 91/98/168 90/97/169 89/96/170 88/95/171 87/94/172 86/93/173 85/92/174 84/91/175 68/83/176
f 71/84/162 73/85/177 82/106/178 80/105/163
f 73/85/177 75/87/179 62/108/180 61/107/181
f 75/87/179 77/89/182 63/109/183 62/108/180
f 77/89/182 78/74/184 64/75/185 63/109/183
s off
f 65/76/186 67/80/187 66/81/188
s 11
f 80/105/163 82/106/178 81/110/189
f 73/85/177 61/107/181 82/106/178
s off
f 95/111/190 104/121/191 103/120/192 102/119/193 101/118/194 100/117/195 99/116/196 98/115/197 97/114/198 96/113/199 94/112/200
f 83/101/201 95/111/202 94/112/203 93/100/204
f 93/100/205 94/112/206 96/113/207 92/99/208
f 92/99/209 96/113/210 97/114/211 91/98/212
f 91/98/213 97/114/214 98/115/215 90/97/216
f 90/97/217 98/115/218 99/116/219 89/96/220
f 89/96/221 99/116/222 100/117/223 88/95/224
f 88/95/225 100/117/226 101/118/227 87/94/228
f 87/94/229 101/118/230 102/119/231 86/93/232
f 86/93/233 102/119/234 103/120/235 85/92/236
f 85/92/237 103/120/238 104/121/239 84/91/240
s 4
f 114/153/102 117/154/241 118/155/242 113/156/103
s 5
f 49/124/106 65/76/243 66/81/244 48/122/107
s 6
f 50/125/110 70/79/245 65/76/246 49/124/111
f 51/126/114 72/86/247 70/79/245 50/125/110
f 52/127/116 74/88/248 72/86/247 51/126/114
f 53/128/118 76/90/249 74/88/248 52/127/116
f 54/72/120 79/73/250 76/90/249 53/128/118
s 7
f 63/109/251 64/75/252 55/71/124 56/129/123
f 62/108/253 63/109/251 56/129/123 57/130/127
f 61/107/254 62/108/253 57/130/127 58/131/129
s 8
f 82/106/255 61/107/256 58/131/132 59/132/131
f 60/133/134 81/110/257 82/106/255 59/132/131
s 9
f 47/134/136 69/140/258 68/139/259 84/138/260 106/137/261 119/157/137
s off
f 47/56/262 9/5/263 109/142/264 107/141/265
f 9/5/266 6/3/267 110/143/268 109/142/269
f 6/3/270 48/58/271 108/144/272 110/143/273
f 48/122/274 66/81/275 111/146/276 108/145/277
f 66/81/278 69/82/279 112/147/280 111/146/281
f 69/82/282 47/123/283 107/148/284 112/147/285
f 107/141/286 109/142/287 115/150/288 113/149/289
f 109/142/290 110/143/291 116/151/292 115/150/293
f 110/143/294 108/144/295 114/152/296 116/151/297
f 108/145/298 111/146/299 117/154/300 114/153/301
f 111/146/302 112/147/303 118/155/304 117/154/305
f 112/147/306 107/148/307 113/156/308 118/155/309
s 13
f 122/161/310 121/162/311 123/163/312 124/164/313
f 125/165/314 122/166/310 124/167/313 126/168/315
s 8
f 120/159/316 105/136/317 83/135/318 81/110/257 60/133/134
f 45/54/319 120/160/316 60/70/134 21/29/135 23/30/320
s off
f 119/157/321 106/137/322 121/162/323 122/161/324
f 106/137/325 105/136/326 123/163/327 121/162/328
f 105/136/329 120/159/330 124/164/331 123/163/332
f 46/55/333 119/158/334 122/166/335 125/165/336
f 120/160/337 45/54/338 126/168/339 124/167/340
f 45/54/341 46/55/342 125/165/343 126/168/344
s 14
f 127/169/345 128/170/346 148/171/347 147/172/348
f 128/170/346 129/173/349 149/174/350 148/171/347
f 129/173/349 130/175/351 150/176/352 149/174/350
f 130/175/351 131/177/353 151/178/354 150/176/352
f 131/177/353 132/179/355 152/180/356 151/178/354
f 132/179/355 133/181/357 153/182/358 152/180/356
f 133/181/357 134/183/359 154/184/360 153/182/358
f 134/183/359 135/185/361 155/186/362 154/184/360
f 135/185/361 136/187/363 156/188/364 155/186/362
f 136/187/363 137/189/365 157/190/366 156/188/364
f 137/189/365 138/191/367 158/192/368 157/190/366
f 138/191/367 139/193/369 159/194/370 158/192/368
f 139/193/369 140/195/371 160/196/372 159/194/370
f 140/195/371 141/197/373 161/198/374 160/196/372
f 141/197/373 142/199/375 162/200/376 161/198/374
f 142/199/375 143/201/377 163/202/378 162/200/376
f 143/201/377 144/203/379 164/204/380 163/202/378
f 144/203/379 145/205/381 165/206/382 164/204/380
f 145/205/381 146/207/383 166/208/384 165/206/382
f 146/207/383 127/209/345 147/210/348 166/208/384
s 15
f 128/211/385 127/212/386 167/213/387
f 129/214/388 128/211/385 167/213/387
f 130/215/389 129/214/388 167/213/387
f 131/216/390 130/215/389 167/213/387
f 132/217/391 131/216/390 167/213/387
f 133/218/392 132/217/391 167/213/387
f 134/219/393 133/218/392 167/213/387
f 135/220/394 134/219/393 167/213/387
f 136/221/395 135/220/394 167/213/387
f 137/222/396 136/221/395 167/213/387
f 138/223/397 137/222/396 167/213/387
f 139/224/398 138/223/397 167/213/387
f 140/225/399 139/224/398 167/213/387
f 141/226/400 140/225/399 167/213/387
f 142/227/401 141/226/400 167/213/387
f 143/228/402 142/227/401 167/213/387
f 144/229/403 143/228/402 167/213/387
f 145/230/404 144/229/403 167/213/387
f 146/231/405 145/230/404 167/213/387
f 127/212/386 146/231/405 167/213/387
s 16
f 147/232/406 148/233/407 168/234/408
f 148/233/407 149/235/409 168/234/408
f 149/235/409 150/236/410 168/234/408
f 150/236/410 151/237/411 168/234/408
f 151/237/411 152/238/412 168/234/408
f 152/238/412 153/239/413 168/234/408
f 153/239/413 154/240/414 168/234/408
f 154/240/414 155/241/415 168/234/408
f 155/241/415 156/242/416 168/234/408
f 156/242/416 157/243/417 168/234/408
f 157/243/417 158/244/418 168/234/408
f 158/244/418 159/245/419 168/234/408
f 159/245/419 160/246/420 168/234/408
f 160/246/420 161/247/421 168/234/408
f 161/247/421 162/248/422 168/234/408
f 162/248/422 163/249/423 168/234/408
f 163/249/423 164/250/424 168/234/408
f 164/250/424 165/251/425 168/234/408
f 165/251/425 166/252/426 168/234/408
f 166/252/426 147/232/406 168/234/408
s 17
f 169/253/427 170/254/428 190/255/429 189/256/430
f 170/254/428 171/257/431 191/258/432 190/255/429
f 171/257/431 172/259/433 192/260/434 191/258/432
f 172/259/433 173/261/435 193/262/436 192/260/434
f 173/261/435 174/263/437 194/264/438 193/262/436
f 174/263/437 175/265/439 195/266/440 194/264/438
f 175/265/439 176/267/441 196/268/442 195/266/440
f 176/267/441 177/269/443 197/270/444 196/268/442
f 177/269/443 178/271/445 198/272/446 197/270/444
f 178/271/445 179/273/447 199/274/448 198/272/446
f 179/273/447 180/275/449 200/276/450 199/274/448
f 180/275/449 181/277/451 201/278/452 200/276/450
f 181/277/451 182/279/453 202/280/454 201/278/452
f 182/279/453 183/281/455 203/282/456 202/280/454
f 183/281/455 184/283/457 204/284/458 203/282/456
f 184/283/457 185/285/459 205/286/460 204/284/458
f 185/285/459 186/287/461 206/288/462 205/286/460
f 186/287/461 187/289/463 207/290/464 206/288/462
f 187/289/463 188/291/465 208/292/466 207/290/464
f 188/291/465 169/293/427 189/294/430 208/292/466
s 18
f 170/295/467 169/296/468 209/297/469
f 171/298/470 170/295/467 209/297/469
f 172/299/471 171/298/470 209/297/469
f 173/300/472 172/299/471 209/297/469
f 174/301/473 173/300/472 209/297/469
f 175/302/474 174/301/473 209/297/469
f 176/303/475 175/302/474 209/297/469
f 177/304/476 176/303/475 209/297/469
f 178/305/477 177/304/476 209/297/469
f 179/306/478 178/305/477 209/297/469
f 180/307/479 179/306/478 209/297/469
f 181/308/480 180/307/479 209/297/469
f 182/309/481 181/308/480 209/297/469
f 183/310/482 182/309/481 209/297/469
f 184/311/483 183/310/482 209/297/469
f 185/312/484 184/311/483 209/297/469
f 186/313/485 185/312/484 209/297/469
f 187/314/486 186/313/485 209/297/469
f 188/315/487 187/314/486 209/297/469
f 169/296/468 188/315/487 209/297/469
s 19
f 189/316/488 190/317/489 210/318/490
f 190/317/489 191/319/491 210/318/490
f 191/319/491 192/320/492 210/318/490
f 192/320/492 193/321/493 210/318/490
f 193/321/493 194/322/494 210/318/490
f 194/322/494 195/323/495 210/318/490
f 195/323/495 196/324/496 210/318/490
f 196/324/496 197/325/497 210/318/490
f 197/325/497 198/326/498 210/318/490
f 198/326/498 199/327/499 210/318/490
f 199/327/499 200/328/500 210/318/490
f 200/328/500 201/329/501 210/318/490
f 201/329/501 202/330/502 210/318/490
f 202/330/502 203/331/503 210/318/490
f 203/331/503 204/332/504 210/318/490
f 204/332/504 205/333/505 210/318/490
f 205/333/505 206/334/506 210/318/490
f 206/334/506 207/335/507 210/318/490
f 207/335/507 208/336/508 210/318/490
f 208/336/508 189/316/488 210/318/490
s 20
f 211/337/509 212/338/510 232/339/511 231/340/512
f 212/338/510 213/341/513 233/342/514 232/339/511
f 213/341/513 214/343/515 234/344/516 233/342/514
f 214/343/515 215/345/517 235/346/518 234/344/516
f 215/345/517 216/347/519 236/348/520 235/346/518
f 216/347/519 217/349/521 237/350/522 236/348/520
f 217/349/521 218/351/523 238/352/524 237/350/522
f 218/351/523 219/353/525 239/354/526 238/352/524
f 219/353/525 220/355/527 240/356/528 239/354/526
f 220/355/527 221/357/529 241/358/530 240/356/528
f 221/357/529 222/359/531 242/360/532 241/358/530
f 222/359/531 223/361/533 243/362/534 242/360/532
f 223/361/533 224/363/535 244/364/536 243/362/534
f 224/363/535 225/365/537 245/366/538 244/364/536
f 225/365/537 226/367/539 246/368/540 245/366/538
f 226/367/539 227/369/541 247/370/542 246/368/540
f 227/369/541 228/371/543 248/372/544 247/370/542
f 228/371/543 229/373/545 249/374/546 248/372/544
f 229/373/545 230/375/547 250/376/548 249/374/546
f 230/375/547 211/377/509 231/378/512 250/376/548
s 21
f 212/379/549 211/380/550 251/381/551
f 213/382/552 212/379/549 251/381/551
f 214/383/553 213/382/552 251/381/551
f 215/384/554 214/383/553 251/381/551
f 216/385/555 215/384/554 251/381/551
f 217/386/556 216/385/555 251/381/551
f 218/387/557 217/386/556 251/381/551
f 219/388/558 218/387/557 251/381/551
f 220/389/559 219/388/558 251/381/551
f 221/390/560 220/389/559 251/381/551
f 222/391/561 221/390/560 251/381/551
f 223/392/562 222/391/561 251/381/551
f 224/393/563 223/392/562 251/381/551
f 225/394/564 224/393/563 251/381/551
f 226/395/565 225/394/564 251/381/551
f 227/396/566 226/395/565 251/381/551
f 228/397/567 227/396/566 251/381/551
f 229/398/568 228/397/567 251/381/551
f 230/399/569 229/398/568 251/381/551
f 211/380/550 230/399/569 251/381/551
s 22
f 231/400/570 232/401/571 252/402/572
f 232/401/571 233/403/573 252/402/572
f 233/403/573 234/404/574 252/402/572
f 234/404/574 235/405/575 252/402/572
f 235/405/575 236/406/576 252/402/572
f 236/406/576 237/407/577 252/402/572
f 237/407/577 238/408/578 252/402/572
f 238/408/578 239/409/579 252/402/572
f 239/409/579 240/410/580 252/402/572
f 240/410/580 241/411/581 252/402/572
f 241/411/581 242/412/582 252/402/572
f 242/412/582 243/413/583 252/402/572
f 243/413/583 244/414/584 252/402/572
f 244/414/584 245/415/585 252/402/572
f 245/415/585 246/416/586 252/402/572
f 246/416/586 247/417/587 252/402/572
f 247/417/587 248/418/588 252/402/572
f 248/418/588 249/419/589 252/402/572
f 249/419/589 250/420/590 252/402/572
f 250/420/590 231/400/570 252/402/572
s off
f 253/421/591 254/422/592 256/423/593 255/424/594
f 255/424/595 256/423/596 258/425/597 257/426/598
f 257/426/599 258/425/600 260/427/601 259/428/602
f 259/428/603 260/427/604 254/429/605 253/430/606
f 254/422/607 260/431/608 258/432/609 256/423/610
f 259/433/611 253/421/612 255/424/613 257/434/614
