# This file uses meters as units for non-parametric coordinates.

g default
v -0.380425 0.273224 0.575976
v -0.263078 0.274596 0.575976
v -0.400470 1.987634 0.575976
v -0.283123 1.989006 0.575976
v -0.400470 1.987634 -0.783623
v -0.283123 1.989006 -0.783623
v -0.380425 0.273224 -0.783623
v -0.263078 0.274596 -0.783623
v -0.264218 0.372048 -0.706339
v -0.264218 0.372048 0.498692
v -0.281983 1.891554 -0.706339
v -0.281983 1.891554 0.498692
v -0.304010 0.371583 -0.706339
v -0.304010 0.371583 0.498692
v -0.321776 1.891088 -0.706339
v -0.321776 1.891088 0.498692
v -0.400470 1.987634 -0.685903
v -0.380425 0.273224 -0.685902
v -0.264218 0.372048 -0.619728
v -0.304010 0.371583 -0.619728
v -0.321776 1.891088 -0.619728
v -0.281983 1.891554 -0.619728
v -0.400470 1.987634 0.475068
v -0.380425 0.273224 0.475067
v -0.264218 0.372048 0.409256
v -0.304010 0.371583 0.409256
v -0.321776 1.891088 0.409256
v -0.281983 1.891554 0.409256
v -0.382495 0.450266 0.575976
v -0.382495 0.450266 0.475067
v -0.382495 0.450266 -0.685902
v -0.382495 0.450266 -0.783623
v -0.266052 0.528963 -0.706339
v -0.305845 0.528498 -0.706339
v -0.305845 0.528498 -0.619728
v -0.305845 0.528498 0.409256
v -0.305845 0.528498 0.498692
v -0.266052 0.528963 0.498692
v -0.398914 1.854549 -0.783623
v -0.398914 1.854549 -0.685903
v -0.398914 1.854549 0.475068
v -0.398914 1.854549 0.575976
v -0.280604 1.773598 0.498692
v -0.320397 1.773133 0.498692
v -0.320397 1.773133 0.409256
v -0.320397 1.773133 -0.619728
v -0.320397 1.773133 -0.706339
v -0.280604 1.773598 -0.706339
v -0.381914 0.246975 0.596776
v -0.260976 0.248389 0.596776
v -0.263110 0.430849 0.596775
v -0.384047 0.429434 0.596776
v -0.381914 0.246975 0.492780
v -0.260976 0.248389 0.492780
v -0.402572 2.013841 0.596776
v -0.281634 2.015255 0.596776
v -0.281634 2.015255 0.492780
v -0.402572 2.013841 0.492780
v -0.400968 1.876684 0.596776
v -0.280030 1.878098 0.596776
v -0.384047 0.429434 -0.804423
v -0.263110 0.430849 -0.804422
v -0.260976 0.248389 -0.804423
v -0.381914 0.246975 -0.804423
v -0.260976 0.248389 -0.703712
v -0.381914 0.246975 -0.703712
v -0.281634 2.015255 -0.703713
v -0.402572 2.013841 -0.703713
v -0.281634 2.015255 -0.804423
v -0.402572 2.013841 -0.804423
v -0.280030 1.878098 -0.804423
v -0.400968 1.876684 -0.804423
v -0.261336 0.252868 -0.700668
v -0.263078 0.274596 -0.712231
v -0.263333 0.296396 -0.671099
v -0.284879 0.274341 -0.685902
v -0.261335 0.252857 0.489760
v -0.284879 0.274341 0.475067
v -0.263333 0.296396 0.460345
v -0.263078 0.274596 0.501364
v -0.281889 2.010769 -0.700669
v -0.304923 1.988751 -0.685903
v -0.282868 1.967205 -0.671099
v -0.283123 1.989006 -0.712231
v -0.281888 2.010780 0.489760
v -0.283123 1.989006 0.501364
v -0.282868 1.967205 0.460345
v -0.304923 1.988751 0.475068
v -0.264804 0.422164 0.575976
v -0.265403 0.473451 0.554174
v -0.286949 0.451383 0.575976
v -0.280043 1.877912 0.596602
v -0.303367 1.855666 0.575976
v -0.281295 1.832697 0.554174
v -0.281920 1.886107 0.575976
v -0.286949 0.451383 -0.783623
v -0.265403 0.473451 -0.761821
v -0.264804 0.422164 -0.783623
v -0.280043 1.877912 -0.804248
v -0.281920 1.886107 -0.783623
v -0.281295 1.832697 -0.761821
v -0.303367 1.855666 -0.783623
vt 0.375000 0.000000
vt 0.375000 0.250000
vt 0.375000 0.500000
vt 0.375000 0.750000
vt 0.375000 1.000000
vt 0.125000 0.000000
vt 0.125000 0.250000
vt 0.625000 0.000000
vt 0.875000 0.000000
vt 0.875000 0.250000
vt 0.625000 0.250000
vt 0.625000 0.000000
vt 0.875000 0.000000
vt 0.875000 0.250000
vt 0.625000 0.250000
vt 0.142969 0.250000
vt 0.375000 0.482031
vt 0.142969 0.000000
vt 0.375000 0.767969
vt 0.857031 0.000000
vt 0.857032 0.250000
vt 0.857032 0.250000
vt 0.356445 0.250000
vt 0.375000 0.268555
vt 0.356445 0.000000
vt 0.375000 0.981445
vt 0.643555 0.000000
vt 0.643555 0.250000
vt 0.356445 0.025817
vt 0.142969 0.025817
vt 0.125000 0.025817
vt 0.375000 0.724183
vt 0.875000 0.025817
vt 0.857031 0.025817
vt 0.643555 0.025817
vt 0.625000 0.025817
vt 0.125000 0.230593
vt 0.375000 0.519407
vt 0.142969 0.230593
vt 0.356445 0.230593
vt 0.375000 0.230593
vt 0.625000 0.230593
vt 0.643555 0.230593
vt 0.857032 0.230593
vt 0.875000 0.230593
vt 0.375000 0.025817
vt 0.375000 0.000000
vt 0.625000 0.250000
vt 0.625000 0.268555
vt 0.375000 0.268555
vt 0.375000 0.250000
vt 0.375000 0.724183
vt 0.625000 0.724183
vt 0.625000 0.750000
vt 0.375000 0.750000
vt 0.375000 0.981445
vt 0.625000 0.981445
vt 0.625000 1.000000
vt 0.375000 1.000000
vt 0.625000 0.767969
vt 0.375000 0.767969
vt 0.375000 0.482031
vt 0.625000 0.482031
vt 0.625000 0.500000
vt 0.375000 0.500000
vt 0.625000 0.519407
vt 0.375000 0.519407
vt 0.375000 0.230593
vt 0.625000 0.230593
vt 0.375000 0.482031
vt 0.557643 0.482031
vt 0.375000 0.482031
vt 0.625000 0.482031
vt 0.625000 0.485370
vt 0.625000 0.500000
vt 0.625000 0.500000
vt 0.625000 0.482031
vt 0.857031 0.000000
vt 0.625000 0.250000
vt 0.625000 0.265108
vt 0.625000 0.250000
vt 0.624999 0.268555
vt 0.559851 0.268555
vt 0.375000 0.268555
vt 0.375000 0.268555
vt 0.624999 0.268555
vt 0.625000 0.000000
vt 0.638719 0.000000
vt 0.625000 0.500000
vt 0.625000 0.515801
vt 0.625000 0.500000
vt 0.624999 0.519407
vt 0.557643 0.519407
vt 0.375000 0.519407
vt 0.375000 0.519407
vt 0.624999 0.519407
vt 0.875000 0.250000
vt 0.861873 0.250000
vt 0.375000 0.724183
vt 0.559851 0.724183
vt 0.375000 0.724183
vt 0.625000 0.724183
vt 0.625000 0.728979
vt 0.625000 0.750000
vt 0.625000 0.750000
vt 0.625000 0.724183
vt 0.643555 0.250000
vt 0.625000 0.000000
vt 0.625000 0.025817
vt 0.625000 0.025817
vt 0.578555 0.981445
vt 0.625000 0.981445
vt 0.625000 0.985654
vt 0.625000 1.000000
vt 0.625000 1.000000
vt 0.625000 0.981445
vt 0.625000 0.250000
vt 0.625000 0.234995
vt 0.625000 0.750000
vt 0.625000 0.764630
vt 0.625000 0.750000
vt 0.625000 0.767969
vt 0.583380 0.767969
vt 0.375000 0.767969
vt 0.375000 0.767969
vt 0.875000 0.000000
vt 0.875000 0.021519
vt 0.375000 0.230593
vt 0.568295 0.230593
vt 0.375000 0.230593
vt 0.625000 0.230593
vt 0.625000 0.234198
vt 0.625000 0.250000
vt 0.625000 0.250000
vt 0.625000 0.230593
vt 0.875000 0.230593
vt 0.375000 0.767969
vt 0.578556 0.981445
vt 0.375000 0.981445
vt 0.643555 0.000000
vt 0.643555 0.000000
vt 0.375000 0.268555
vt 0.578556 0.268555
vt 0.578556 0.482031
vt 0.375000 0.482031
vt 0.375000 0.025817
vt 0.625000 0.230593
vt 0.875000 0.025817
vt 0.375000 0.519407
vt 0.578556 0.519407
vt 0.578556 0.724183
vt 0.375000 0.724183
vt 0.578556 0.767969
vt 0.625000 0.770691
vt 0.625000 0.978738
vt 0.857032 0.250000
vt 0.643556 0.250000
vt 0.578556 0.025817
vt 0.625000 0.230593
vt 0.875000 0.025817
vt 0.875000 0.230593
vt 0.859937 0.000000
vt 0.861873 0.000000
vt 0.857031 0.000000
vt 0.857032 0.000000
vt 0.640553 0.000000
vt 0.643555 0.000000
vt 0.859937 0.250000
vt 0.857032 0.250000
vt 0.640553 0.250000
vt 0.638719 0.250000
vt 0.643555 0.250000
vt 0.625000 0.021519
vt 0.625000 0.025817
vt 0.625000 0.234217
vt 0.578556 0.230593
vt 0.875000 0.020965
vt 0.875000 0.025817
vt 0.875000 0.234217
vt 0.875000 0.234995
vt 0.875000 0.230593
vn 0.000004 0.000003 1.000000
vn 0.000004 0.000003 1.000000
vn 0.000004 0.000003 1.000000
vn 0.000004 0.000003 1.000000
vn -0.011691 0.999932 0.000000
vn -0.011691 0.999932 0.000000
vn -0.011691 0.999932 0.000000
vn -0.011691 0.999932 0.000000
vn 0.000004 0.000003 -1.000000
vn 0.000004 0.000003 -1.000000
vn 0.000004 0.000003 -1.000000
vn 0.000004 0.000003 -1.000000
vn 0.011690 -0.999932 0.000000
vn 0.011690 -0.999932 0.000000
vn 0.011690 -0.999932 0.000000
vn 0.011690 -0.999932 0.000000
vn 0.999932 0.011691 0.000000
vn 0.999932 0.011691 0.000000
vn 0.999932 0.011691 0.000000
vn 0.999932 0.011691 0.000000
vn -0.999932 -0.011691 0.000000
vn -0.999932 -0.011691 0.000000
vn -0.999932 -0.011691 0.000000
vn -0.999932 -0.011691 0.000000
vn 0.999932 0.011691 -0.000000
vn 0.999932 0.011691 -0.000000
vn 0.999932 0.011691 -0.000000
vn 0.999932 0.011691 -0.000000
vn 0.999932 0.011691 -0.000000
vn 0.999932 0.011691 0.000000
vn 0.999932 0.011691 0.000000
vn 0.999932 0.011691 0.000000
vn 0.999932 0.011691 0.000000
vn 0.999932 0.011691 0.000000
vn 0.999932 0.011694 0.000000
vn 0.999932 0.011694 0.000000
vn 0.999932 0.011694 0.000000
vn 0.999932 0.011694 0.000000
vn 0.999932 0.011694 0.000000
vn 0.999932 0.011691 -0.000001
vn 0.999932 0.011691 -0.000001
vn 0.999932 0.011691 -0.000001
vn 0.999932 0.011691 -0.000001
vn 0.999932 0.011691 -0.000001
vn -0.011691 0.999932 0.000000
vn -0.011691 0.999932 0.000000
vn -0.011691 0.999932 0.000000
vn -0.011691 0.999932 0.000000
vn 0.000000 0.000000 1.000000
vn 0.000000 0.000000 1.000000
vn 0.000000 0.000000 1.000000
vn 0.000000 0.000000 1.000000
vn 0.011694 -0.999932 0.000000
vn 0.011694 -0.999932 0.000000
vn 0.011694 -0.999932 0.000000
vn 0.011694 -0.999932 0.000000
vn -0.000000 0.000000 -1.000000
vn 0.000000 -0.000000 -1.000000
vn 0.000000 -0.000001 -1.000000
vn 0.000000 -0.000001 -1.000000
vn -0.999932 -0.011691 0.000000
vn -0.999932 -0.011691 0.000000
vn -0.999932 -0.011691 0.000000
vn -0.999932 -0.011691 0.000000
vn 0.011690 -0.999932 0.000000
vn 0.011690 -0.999932 0.000000
vn 0.011690 -0.999932 0.000000
vn 0.011690 -0.999932 0.000000
vn 0.999932 0.011691 0.000000
vn 0.999932 0.011691 0.000000
vn 0.999932 0.011691 0.000000
vn 0.999932 0.011691 0.000000
vn 0.999932 0.011691 0.000000
vn -0.011691 0.999932 0.000000
vn -0.011691 0.999932 0.000000
vn -0.011691 0.999932 0.000000
vn -0.011691 0.999932 0.000000
vn 0.999932 0.011691 0.000000
vn 0.999932 0.011691 0.000000
vn 0.999932 0.011691 0.000000
vn 0.999932 0.011691 0.000000
vn 0.011694 -0.999932 0.000000
vn 0.011694 -0.999932 0.000000
vn 0.011694 -0.999932 0.000000
vn 0.011694 -0.999932 0.000000
vn 0.999932 0.011694 -0.000000
vn 0.999932 0.011694 -0.000000
vn 0.999932 0.011694 -0.000000
vn 0.999932 0.011694 -0.000000
vn 0.999932 0.011694 -0.000000
vn -0.011691 0.999932 0.000000
vn -0.011691 0.999932 0.000000
vn -0.011691 0.999932 0.000000
vn -0.011691 0.999932 0.000000
vn 0.011691 -0.999932 0.000000
vn 0.011691 -0.999932 0.000000
vn 0.011691 -0.999932 0.000000
vn 0.011691 -0.999932 0.000000
vn -0.011693 0.999932 0.000000
vn -0.011693 0.999932 0.000000
vn -0.011693 0.999932 0.000000
vn -0.011693 0.999932 0.000000
vn -0.999932 -0.011690 0.000000
vn -0.999932 -0.011691 0.000000
vn -0.999932 -0.011691 0.000000
vn -0.999932 -0.011690 0.000000
vn -0.999932 -0.011690 0.000000
vn -0.999932 -0.011691 0.000000
vn -0.999932 -0.011691 0.000000
vn -0.999932 -0.011690 0.000000
vn -0.000000 0.000000 -1.000000
vn -0.000000 0.000000 -1.000000
vn -0.000000 0.000000 -1.000000
vn -0.000000 0.000000 -1.000000
vn 0.999932 0.011691 0.000000
vn 0.999932 0.011691 -0.000000
vn 0.999932 0.011690 -0.000002
vn 0.999932 0.011690 -0.000002
vn 0.999932 0.011690 -0.000002
vn 0.000000 0.000000 1.000000
vn 0.000000 0.000000 1.000000
vn 0.000000 0.000000 1.000000
vn 0.000000 0.000000 1.000000
vn 0.999932 0.011691 0.000000
vn 0.999932 0.011691 0.000000
vn 0.999932 0.011691 0.000000
vn 0.999932 0.011691 0.000000
vn 0.999932 0.011691 0.000000
vn 0.999932 0.011691 0.000000
vn 0.999932 0.011691 0.000000
vn 0.999932 0.011691 0.000000
vn -0.000000 -0.000000 -1.000000
vn -0.000000 0.000000 -1.000000
vn -0.000000 0.000000 -1.000000
vn -0.000000 -0.000000 -1.000000
vn 0.999932 0.011690 0.000002
vn 0.999932 0.011690 0.000002
vn 0.999932 0.011691 0.000000
vn 0.999932 0.011691 -0.000001
vn 0.999932 0.011690 0.000002
vn 0.000000 0.000000 1.000000
vn 0.000000 0.000000 1.000000
vn 0.000000 0.000000 1.000000
vn 0.000000 0.000000 1.000000
vn 0.000000 0.000000 1.000000
vn 0.000000 0.000000 1.000000
vn 0.000000 0.000000 1.000000
vn 0.000000 0.000000 1.000000
vn 0.000000 0.000000 -1.000000
vn 0.000000 0.000000 -1.000000
vn 0.000000 0.000000 -1.000000
vn 0.000000 0.000000 -1.000000
vn 0.996228 0.011647 -0.085994
vn 0.996228 0.011647 -0.085994
vn 0.996228 0.011647 -0.085994
vn 0.996228 0.011647 -0.085994
vn -0.996227 -0.011648 -0.085999
vn -0.996227 -0.011648 -0.085999
vn -0.996227 -0.011648 -0.085999
vn -0.996227 -0.011648 -0.085999
vn 0.006543 -0.559592 -0.828742
vn 0.006543 -0.559592 -0.828742
vn 0.006543 -0.559592 -0.828742
vn 0.006543 -0.559592 -0.828742
vn 0.006543 -0.559592 -0.828742
vn -0.998396 0.056622 0.000000
vn -0.998396 0.056622 0.000000
vn -0.998396 0.056622 0.000000
vn -0.998396 0.056622 0.000000
vn 0.998396 -0.056617 0.000001
vn 0.998396 -0.056617 0.000001
vn 0.998396 -0.056617 0.000001
vn 0.998396 -0.056617 0.000001
vn 0.998396 -0.056617 0.000001
vn -0.996799 -0.079947 0.000000
vn -0.996799 -0.079947 0.000000
vn -0.996799 -0.079947 0.000000
vn -0.996799 -0.079947 0.000000
vn 0.007999 -0.684370 0.729091
vn 0.007999 -0.684370 0.729091
vn 0.007999 -0.684370 0.729091
vn 0.007999 -0.684370 0.729091
vn 0.007999 -0.684370 0.729091
vn -0.996227 -0.011647 -0.085997
vn -0.996227 -0.011647 -0.085997
vn -0.996227 -0.011647 -0.085997
vn -0.996227 -0.011647 -0.085997
vn -0.008264 0.706843 -0.707322
vn -0.008264 0.706843 -0.707322
vn -0.008264 0.706843 -0.707322
vn -0.008264 0.706843 -0.707322
vn -0.996227 -0.011648 0.085999
vn -0.996227 -0.011648 0.085999
vn -0.996227 -0.011648 0.085999
vn -0.996227 -0.011648 0.085999
vn 0.996799 0.079943 -0.000000
vn 0.996799 0.079943 -0.000000
vn 0.996799 0.079943 -0.000000
vn 0.996799 0.079943 -0.000000
vn 0.996799 0.079943 -0.000000
vn -0.998396 0.056622 0.000000
vn -0.998396 0.056622 0.000000
vn -0.998396 0.056622 0.000000
vn -0.998396 0.056622 0.000000
vn -0.006568 0.561702 0.827314
vn -0.006568 0.561702 0.827314
vn -0.006568 0.561702 0.827314
vn -0.006568 0.561702 0.827314
vn -0.006568 0.561702 0.827314
vn -0.996799 -0.079947 0.000000
vn -0.996799 -0.079947 0.000000
vn -0.996799 -0.079947 0.000000
vn -0.996799 -0.079947 0.000000
vn 0.996227 0.011648 0.085997
vn 0.996227 0.011648 0.085997
vn 0.996227 0.011648 0.085997
vn 0.996227 0.011648 0.085997
vn 0.996227 0.011648 0.085997
vn -0.996227 -0.011647 0.085998
vn -0.996227 -0.011647 0.085998
vn -0.996227 -0.011647 0.085998
vn -0.996227 -0.011647 0.085998
vn 0.006567 -0.561701 0.827314
vn 0.006567 -0.561701 0.827314
vn 0.006567 -0.561701 0.827314
vn 0.006567 -0.561701 0.827314
vn 0.006567 -0.561701 0.827314
vn 0.996799 0.079943 0.000000
vn 0.996800 0.079943 0.000000
vn 0.996799 0.079943 0.000000
vn 0.996800 0.079943 0.000000
vn 0.996799 0.079943 0.000000
vn 0.998396 -0.056617 -0.000000
vn 0.998396 -0.056617 -0.000000
vn 0.998396 -0.056617 -0.000000
vn 0.998396 -0.056617 -0.000000
vn 0.998396 -0.056617 -0.000000
vn -0.006543 0.559592 -0.828743
vn -0.006543 0.559592 -0.828743
vn -0.006543 0.559592 -0.828743
vn -0.006543 0.559592 -0.828742
vn -0.006543 0.559592 -0.828742
vn -0.008263 0.706844 0.707321
vn -0.008263 0.706844 0.707321
vn -0.008263 0.706844 0.707321
vn -0.008263 0.706844 0.707321
vn 0.996227 0.011648 -0.085997
vn 0.996227 0.011648 -0.085997
vn 0.996227 0.011648 -0.085997
vn 0.996227 0.011648 -0.085997
vn 0.996227 0.011648 -0.085997
vn 0.996228 0.011647 0.085994
vn 0.996228 0.011647 0.085994
vn 0.996228 0.011647 0.085994
vn 0.996228 0.011647 0.085994
vn 0.007999 -0.684369 -0.729092
vn 0.007999 -0.684368 -0.729092
vn 0.007999 -0.684368 -0.729092
vn 0.007999 -0.684368 -0.729092
vn 0.007999 -0.684368 -0.729092
vn 0.715323 -0.698794 0.000000
vn 0.715323 -0.698794 0.000000
vn 0.715324 -0.698794 0.000000
vn 0.715324 -0.698794 0.000000
vn 0.698794 0.715323 0.000000
vn 0.698794 0.715323 0.000000
vn 0.698794 0.715323 0.000000
vn 0.698794 0.715323 0.000000
vn 0.707057 0.008267 0.707108
vn 0.707057 0.008267 0.707108
vn 0.707057 0.008267 0.707108
vn 0.707057 0.008267 0.707108
vn 0.707060 0.008267 -0.707105
vn 0.707060 0.008267 -0.707105
vn 0.707060 0.008267 -0.707105
vn 0.707060 0.008267 -0.707105
vn 0.717809 -0.368392 0.590793
vn 0.717809 -0.368392 0.590793
vn 0.717809 -0.368392 0.590793
vn 0.717809 -0.368392 0.590793
vn 0.717948 -0.366758 -0.591642
vn 0.717948 -0.366758 -0.591642
vn 0.717948 -0.366758 -0.591642
vn 0.717948 -0.366758 -0.591642
vn 0.709005 0.385072 0.590789
vn 0.709005 0.385072 0.590789
vn 0.709005 0.385072 0.590789
vn 0.709005 0.385072 0.590789
vn 0.709181 0.383439 -0.591640
vn 0.709181 0.383439 -0.591640
vn 0.709181 0.383439 -0.591640
vn 0.709181 0.383439 -0.591640
vn 0.695027 0.526751 0.489358
vn 0.695027 0.526751 0.489358
vn 0.695027 0.526751 0.489358
vn 0.695027 0.526751 0.489358
vn 0.704171 -0.496125 0.507940
vn 0.704171 -0.496125 0.507940
vn 0.704171 -0.496125 0.507940
vn 0.704171 -0.496125 0.507940
vn 0.695028 0.526752 -0.489355
vn 0.695028 0.526752 -0.489355
vn 0.695028 0.526752 -0.489355
vn 0.695028 0.526752 -0.489355
vn 0.704174 -0.496124 -0.507937
vn 0.704174 -0.496124 -0.507937
vn 0.704174 -0.496124 -0.507937
vn 0.704174 -0.496124 -0.507937
s off
g pCube2
f 49/47/1 50/108/2 51/109/3 52/46/4
f 55/51/5 56/48/6 57/49/7 58/50/8
f 61/52/9 62/53/10 63/54/11 64/55/12
f 53/56/13 54/57/14 50/58/15 49/59/16
s 1
f 14/12/17 26/27/18 36/35/19 37/36/20
s 2
f 29/146/21 30/29/22 24/25/23 1/1/24
s 3
f 2/87/25 80/88/26 79/141/27 25/140/28 10/8/29
s 4
f 8/126/30 98/127/31 97/160/32 33/148/33 9/9/34
s 5
f 28/107/35 87/172/36 86/171/37 4/117/38 12/11/39
s 6
f 38/110/40 90/174/41 89/173/42 2/87/43 10/8/44
s 7
f 10/8/45 25/140/46 26/27/47 14/12/48
s 8
f 9/9/49 33/148/50 34/33/51 13/13/52
s 9
f 27/28/53 28/107/54 12/11/55 16/15/56
s 10
f 37/36/57 38/110/58 10/8/59 14/12/60
s 2
f 7/6/61 18/18/62 31/30/63 32/31/64
s off
f 64/55/65 63/54/66 65/60/67 66/61/68
s 3
f 19/78/69 75/164/70 74/163/71 8/126/72 9/9/73
s 7
f 20/20/74 19/78/75 9/9/76 13/13/77
s 1
f 34/33/78 35/34/79 20/20/80 13/13/81
s 9
f 11/10/82 22/22/83 21/21/84 15/14/85
s 5
f 6/97/86 84/98/87 83/156/88 22/22/89 11/10/90
s off
f 68/62/91 67/63/92 69/64/93 70/65/94
s 2
f 30/29/22 31/30/63 18/18/62 24/25/23
s off
f 18/137/95 76/153/96 78/138/97 24/139/98
s 3
f 25/140/28 79/141/27 75/164/70 19/78/69
s 7
f 26/27/47 25/140/46 19/78/75 20/20/74
s 1
f 35/34/79 36/35/19 26/27/18 20/20/80
s 9
f 21/21/84 22/22/83 28/107/54 27/28/53
s 5
f 22/22/89 83/156/88 87/172/36 28/107/35
s off
f 23/142/99 88/143/100 82/144/101 17/145/102
s 2
f 23/23/103 41/40/104 42/41/105 3/2/106
f 17/16/107 40/39/108 41/40/104 23/23/103
f 39/37/109 40/39/108 17/16/107 5/7/110
s off
f 70/65/111 69/64/112 71/66/113 72/67/114
s 4
f 48/136/115 101/181/116 100/180/117 6/97/118 11/10/119
s 8
f 47/45/120 48/136/121 11/10/122 15/14/123
s 1
f 21/21/124 46/44/125 47/45/126 15/14/127
f 27/28/128 45/43/129 46/44/125 21/21/124
f 44/42/130 45/43/129 27/28/128 16/15/131
s 10
f 12/11/132 43/147/133 44/42/134 16/15/135
s 6
f 4/117/136 95/118/137 94/159/138 43/147/139 12/11/140
s off
f 59/68/141 60/69/142 56/48/143 55/51/144
s 2
f 32/31/64 31/30/63 40/39/108 39/37/109
f 41/40/104 40/39/108 31/30/63 30/29/22
f 42/41/105 41/40/104 30/29/22 29/146/21
s off
f 29/146/145 91/158/146 93/176/147 42/41/148
s 6
f 43/147/139 94/159/138 90/174/41 38/110/40
s 10
f 44/42/134 43/147/133 38/110/58 37/36/57
s 1
f 37/36/20 36/35/19 45/43/129 44/42/130
f 46/44/125 45/43/129 36/35/19 35/34/79
f 47/45/126 46/44/125 35/34/79 34/33/78
s 8
f 34/33/51 33/148/50 48/136/121 47/45/120
s 4
f 33/148/33 97/160/32 101/181/116 48/136/115
s off
f 39/149/149 102/150/150 96/151/151 32/152/152
f 2/87/153 89/173/154 51/109/155 50/108/156
f 29/146/157 1/1/158 49/47/159 52/46/160
f 24/79/161 78/80/162 77/82/163 54/86/164 53/81/165
f 1/24/166 24/2/167 53/51/168 49/50/169
f 4/99/170 86/100/171 85/102/172 57/106/173 56/101/174
f 23/4/175 3/32/176 55/52/177 58/55/178
f 42/26/179 93/111/180 92/112/181 60/116/182 59/56/183
f 3/5/184 42/26/185 59/56/186 55/59/187
f 32/119/188 96/120/189 62/122/190 61/121/191
f 7/19/192 32/4/193 61/55/194 64/61/195
f 8/70/196 74/71/197 73/73/198 65/77/199 63/72/200
f 18/3/201 7/17/202 64/62/203 66/65/204
f 17/89/205 82/90/206 81/92/207 67/96/208 68/91/209
f 5/38/210 17/3/211 68/65/212 70/67/213
f 6/128/214 100/129/215 99/131/216 71/135/217 69/130/218
f 39/2/219 5/41/220 70/68/221 72/51/222
f 73/73/223 76/74/224 18/75/225 66/76/226 65/77/227
f 77/82/228 80/83/229 2/84/230 50/85/231 54/86/232
f 81/92/233 84/93/234 6/94/235 69/95/236 67/96/237
f 85/102/238 88/103/239 23/104/240 58/105/241 57/106/242
f 51/109/243 91/158/244 29/146/245 52/46/246
f 92/112/247 95/113/248 4/114/249 56/115/250 60/116/251
f 62/122/252 98/123/253 8/124/254 63/125/255
f 99/131/256 102/132/257 39/133/258 72/134/259 71/135/260
f 76/153/261 75/154/262 79/155/263 78/138/264
f 83/156/265 82/169/266 88/157/267 87/172/268
f 91/158/269 90/174/270 94/159/271 93/176/272
f 97/160/273 96/178/274 102/161/275 101/181/276
f 73/162/277 74/163/278 75/164/279 76/165/280
f 77/166/281 78/167/282 79/141/283 80/88/284
f 81/168/285 82/169/286 83/156/287 84/98/288
f 85/170/289 86/171/290 87/172/291 88/157/292
f 51/109/293 89/173/294 90/174/295 91/158/296
f 92/175/297 93/176/298 94/159/299 95/118/300
f 62/177/301 96/178/302 97/160/303 98/127/304
f 99/179/305 100/180/306 101/181/307 102/161/308
